<?xml version="1.0" encoding="UTF-8"?>
<svg version="1.1" xmlns="http://www.w3.org/2000/svg" width="512" height="512">
<path d="M0 0 C1.57587891 0.95326172 1.57587891 0.95326172 3.18359375 1.92578125 C8.48740741 5.23254516 13.72586555 8.64055978 18.9609375 12.0546875 C24.01251751 15.34512719 29.09807375 18.58100996 34.1875 21.8125 C42.19749755 26.90114645 50.1966909 32.00627304 58.1875 37.125 C66.01306925 42.1372795 73.84494913 47.13933262 81.6875 52.125 C91.73296751 58.51241312 101.76809822 64.91576658 111.78515625 71.34765625 C115.46729996 73.71053877 119.16051086 76.05315322 122.87109375 78.37109375 C123.65057373 78.86262939 124.43005371 79.35416504 125.2331543 79.8605957 C126.64228578 80.7487746 128.05610821 81.62958197 129.47583008 82.50073242 C134.17140138 85.47875321 138.86730112 88.83880842 140.28125 94.50390625 C140.2503125 95.22449219 140.219375 95.94507813 140.1875 96.6875 C140.1771875 97.41066406 140.166875 98.13382812 140.15625 98.87890625 C139.16259194 103.64018447 136.64016735 106.54062454 132.6875 109.1875 C131.79160156 109.78820312 130.89570313 110.38890625 129.97265625 111.0078125 C124.38239973 114.61056997 118.76211199 118.16405626 113.12890625 121.69921875 C107.25208178 125.39122195 101.40594137 129.13045149 95.5625 132.875 C94.51143066 133.54829346 93.46036133 134.22158691 92.37744141 134.9152832 C90.22563106 136.29392448 88.07393909 137.67275054 85.92236328 139.05175781 C71.96417023 147.99764275 58.00062566 156.93482973 44.00854492 165.82763672 C38.01824163 169.63655011 32.03749642 173.46008735 26.0625 177.29296875 C23.91585344 178.66816421 21.7674459 180.04061514 19.6171875 181.41015625 C15.00261369 184.34933832 10.40296103 187.29969535 5.8671875 190.359375 C4.79186768 191.0704541 4.79186768 191.0704541 3.69482422 191.79589844 C2.4170753 192.64192922 1.14911992 193.50308332 -0.10498047 194.38378906 C-4.77201692 197.4346456 -8.9118873 197.83314761 -14.3125 197.125 C-18.06250223 195.49456425 -20.24263177 193.63391686 -22.3125 190.125 C-22.60510683 187.54326694 -22.7263286 185.20352157 -22.70690918 182.62307739 C-22.71604584 181.48498983 -22.71604584 181.48498983 -22.72536707 180.32391059 C-22.74202545 177.77975339 -22.7372173 175.23609513 -22.73242188 172.69189453 C-22.73976061 170.86854532 -22.74834626 169.04520076 -22.75808716 167.22186279 C-22.78033348 162.26726832 -22.78323225 157.31284002 -22.78133965 152.35820246 C-22.78122008 148.22296603 -22.78977865 144.08776498 -22.79811716 139.95253837 C-22.81736278 130.19668785 -22.82023096 120.4409229 -22.81347656 110.68505859 C-22.80683586 100.61932784 -22.82969873 90.55396354 -22.86679029 80.48830712 C-22.89747529 71.84784299 -22.90884859 63.20749682 -22.90495348 54.56697929 C-22.9028846 49.40572763 -22.90838662 44.24476104 -22.93284607 39.08356094 C-22.95509053 34.22922315 -22.95325452 29.37548144 -22.93291855 24.52114105 C-22.92950433 22.74016483 -22.93461533 20.95914866 -22.94890213 19.17822647 C-22.9670732 16.74508492 -22.95436374 14.31397018 -22.93395996 11.88088989 C-22.94647781 11.17737904 -22.95899566 10.47386818 -22.97189283 9.74903882 C-22.87178551 4.17447137 -21.13654128 1.89170873 -17.3125 -1.875 C-10.91369343 -5.00633088 -5.88100093 -3.55753746 0 0 Z M2.6875 33.125 C2.6875 75.365 2.6875 117.605 2.6875 161.125 C9.08348095 157.97876229 9.08348095 157.97876229 15.0703125 154.3828125 C16.21439575 153.63100708 16.21439575 153.63100708 17.3815918 152.86401367 C18.1837915 152.33138916 18.98599121 151.79876465 19.8125 151.25 C21.59182376 150.08108061 23.37179449 148.91314556 25.15234375 147.74609375 C26.52302002 146.84673096 26.52302002 146.84673096 27.92138672 145.92919922 C32.38222266 143.01961602 36.87763855 140.1651795 41.375 137.3125 C49.25952633 132.30645154 57.13481605 127.28639138 65 122.25 C66.02432129 121.59410889 67.04864258 120.93821777 68.10400391 120.26245117 C70.20414805 118.91755306 72.30424513 117.57258145 74.40429688 116.22753906 C79.62088992 112.88687136 84.83858945 109.54793295 90.0562439 106.20892334 C92.73676038 104.49352029 95.41720551 102.77800576 98.09765625 101.0625 C99.62760417 100.08333333 101.15755208 99.10416667 102.6875 98.125 C101.56914898 94.76994693 101.18001461 94.5182031 98.3125 92.76953125 C97.58788574 92.32061523 96.86327148 91.87169922 96.11669922 91.40917969 C95.31506348 90.92352539 94.51342773 90.43787109 93.6875 89.9375 C91.93947344 88.85648798 90.19211066 87.7744021 88.4453125 86.69140625 C87.50977539 86.11406738 86.57423828 85.53672852 85.61035156 84.94189453 C80.56195605 81.80372552 75.56442477 78.58652314 70.5625 75.375 C68.42846331 74.00769092 66.29434784 72.64050479 64.16015625 71.2734375 C63.09168457 70.58862305 62.02321289 69.90380859 60.92236328 69.19824219 C55.61589093 65.79729402 50.30817598 62.39828841 45 59 C43.97527588 58.34386719 42.95055176 57.68773437 41.89477539 57.01171875 C33.86224889 51.87090179 25.8182159 46.74831449 17.76489258 41.64013672 C16.92079834 41.10404785 16.0767041 40.56795898 15.20703125 40.015625 C14.42408691 39.51869141 13.64114258 39.02175781 12.83447266 38.50976562 C10.93195049 37.28266695 9.06327921 36.01869297 7.19921875 34.734375 C4.9040195 32.94516683 4.9040195 32.94516683 2.6875 33.125 Z " fill="#222220" transform="translate(22.3125,157.875)"/>
<path d="M0 0 C3.12018584 1.77717449 5.25236337 4.16745172 7.10546875 7.19921875 C7.58960845 9.9895048 7.78450812 12.164117 7.74038696 14.94165039 C7.74818692 15.70208428 7.75598687 16.46251818 7.76402318 17.24599552 C7.78390581 19.78428718 7.76819442 22.32107326 7.75244141 24.859375 C7.75921922 26.6830228 7.76812328 28.50666374 7.7789917 30.33029175 C7.8017721 35.27663349 7.79295386 40.22245338 7.77709627 45.16880417 C7.7644308 50.34700672 7.77617919 55.52516482 7.7840271 60.70336914 C7.79312176 69.39900733 7.78114051 78.09443313 7.75732422 86.79003906 C7.73011335 96.84106879 7.73892764 106.89159139 7.76645625 116.94260883 C7.78915148 125.5746434 7.79234535 134.20652537 7.7792629 142.83858013 C7.7714707 147.99306742 7.77042054 153.14731639 7.78694534 158.30178833 C7.80139681 163.14798833 7.79135592 167.99353499 7.76247406 172.83966446 C7.75586688 174.61740153 7.75775466 176.39519366 7.76878738 178.17290878 C7.7824697 180.60160852 7.76529736 183.02822016 7.74038696 185.45678711 C7.75154057 186.15893373 7.76269418 186.86108034 7.77418578 187.58450413 C7.66374155 193.14246792 5.94378014 195.46124899 2.10546875 199.19921875 C-2.57084036 200.75798845 -7.31650019 201.21469756 -11.99072266 199.37353516 C-14.13726394 198.17789451 -16.16783327 196.88242637 -18.20703125 195.51171875 C-19.36416626 194.7695813 -19.36416626 194.7695813 -20.54467773 194.01245117 C-23.00742005 192.42683638 -25.45089141 190.81407844 -27.89453125 189.19921875 C-29.4714362 188.17650179 -31.04955552 187.15565471 -32.62890625 186.13671875 C-35.92572461 184.00583605 -39.21507773 181.86401662 -42.5 179.71484375 C-57.11050841 170.17129757 -71.86555702 160.84729043 -86.59204102 151.48413086 C-94.514354 146.44550283 -102.42516234 141.38901128 -110.32983398 136.32275391 C-115.22525324 133.18539596 -120.12263514 130.05136083 -125.03096008 126.93423462 C-126.73961986 125.84891826 -128.44744233 124.76229631 -130.1550293 123.67529297 C-132.29287963 122.31497208 -134.4322686 120.95706502 -136.57348633 119.60205078 C-152.79062655 109.27021718 -152.79062655 109.27021718 -154.89453125 104.19921875 C-155.30078125 102.0859375 -155.30078125 102.0859375 -155.39453125 99.88671875 C-155.44609375 99.16871094 -155.49765625 98.45070313 -155.55078125 97.7109375 C-153.89994624 91.39256302 -148.3641544 87.50621047 -142.98608398 84.33520508 C-142.25462158 83.91907959 -141.52315918 83.5029541 -140.76953125 83.07421875 C-139.15208802 82.11982266 -137.53625839 81.1626878 -135.921875 80.203125 C-134.67446533 79.46473389 -134.67446533 79.46473389 -133.40185547 78.71142578 C-129.31285911 76.24528718 -125.32383563 73.63129017 -121.33203125 71.01171875 C-105.04845901 60.36021506 -88.62399728 49.92743218 -72.20361328 39.48852539 C-66.32088385 35.7474226 -60.44531279 31.99531353 -54.57446289 28.2355957 C-52.46468622 26.88452874 -50.35450121 25.53409919 -48.24389648 24.18432617 C-43.08087626 20.88238995 -37.92250315 17.573661 -32.7734375 14.25 C-30.83467944 13.00383775 -28.89587923 11.75774108 -26.95703125 10.51171875 C-26.08820313 9.94775391 -25.219375 9.38378906 -24.32421875 8.80273438 C-7.75595123 -1.81893791 -7.75595123 -1.81893791 0 0 Z M-27.14453125 40.82421875 C-28.70125922 41.84461051 -30.25857943 42.86409914 -31.81640625 43.8828125 C-32.64462891 44.42534668 -33.47285156 44.96788086 -34.32617188 45.52685547 C-38.65987776 48.34870768 -43.02777995 51.11638878 -47.39453125 53.88671875 C-56.45839379 59.64435676 -65.50631514 65.42647478 -74.54760742 71.21948242 C-80.64625175 75.125441 -86.75315472 79.01794532 -92.86865234 82.89746094 C-97.21563965 85.65685938 -101.55655348 88.42568287 -105.89453125 91.19921875 C-106.59078613 91.64330078 -107.28704102 92.08738281 -108.00439453 92.54492188 C-109.76459973 93.67166748 -111.51746275 94.80986193 -113.26953125 95.94921875 C-114.18476563 96.5421875 -115.1 97.13515625 -116.04296875 97.74609375 C-116.65398437 98.225625 -117.265 98.70515625 -117.89453125 99.19921875 C-117.89453125 99.85921875 -117.89453125 100.51921875 -117.89453125 101.19921875 C-116.20395404 102.55468832 -116.20395404 102.55468832 -113.9609375 103.89453125 C-113.09750732 104.43706543 -112.23407715 104.97959961 -111.34448242 105.53857422 C-110.39162354 106.12783691 -109.43876465 106.71709961 -108.45703125 107.32421875 C-106.42285671 108.59974963 -104.38901484 109.87581117 -102.35546875 111.15234375 C-101.29038086 111.81814453 -100.22529297 112.48394531 -99.12792969 113.16992188 C-93.92347008 116.4362665 -88.75356104 119.75607902 -83.58203125 123.07421875 C-81.47535655 124.42332721 -79.36858495 125.77228437 -77.26171875 127.12109375 C-74.07710195 129.16073472 -70.89255493 131.20048461 -67.70800781 133.24023438 C-61.46053892 137.24153008 -55.21152398 141.24039258 -48.9609375 145.23681641 C-45.85365671 147.22537715 -42.74903144 149.21803924 -39.64453125 151.2109375 C-37.66544918 152.47799673 -35.68628599 153.74492927 -33.70703125 155.01171875 C-32.8044458 155.59260254 -31.90186035 156.17348633 -30.97192383 156.77197266 C-30.12782959 157.31128418 -29.28373535 157.8505957 -28.4140625 158.40625 C-27.68292236 158.87522705 -26.95178223 159.3442041 -26.19848633 159.82739258 C-23.51069724 161.42776207 -20.69244371 162.80026252 -17.89453125 164.19921875 C-17.89453125 121.95921875 -17.89453125 79.71921875 -17.89453125 36.19921875 C-21.44065389 36.19921875 -24.25934596 38.90960613 -27.14453125 40.82421875 Z " fill="#222220" transform="translate(504.89453125,154.80078125)"/>
<path d="M0 0 C1.73307644 0.92814497 3.48043472 1.82946558 5.22802734 2.72998047 C17.23799654 8.99790522 28.05236839 16.73663997 38.77880859 24.95263672 C38.81619141 23.80666016 38.85357422 22.66068359 38.89208984 21.47998047 C38.95779443 19.95000226 39.02424018 18.42005575 39.09130859 16.89013672 C39.11386719 16.13796875 39.13642578 15.38580078 39.15966797 14.61083984 C39.43048682 8.92364403 40.20595946 3.67212492 44.28662109 -0.64111328 C48.52946563 -3.01874597 51.87983166 -3.53984232 56.69677734 -2.71923828 C60.08883233 -1.62461641 61.69977272 0.11758781 63.77880859 2.95263672 C66.39336813 8.69651873 66.0675174 14.48374778 66.04443359 20.66748047 C66.04634705 21.7965834 66.0482605 22.92568634 66.05023193 24.08900452 C66.05159018 26.47185489 66.04791895 28.85471276 66.03955078 31.23754883 C66.02885644 34.8738681 66.03945347 38.50969223 66.05224609 42.14599609 C66.05092424 44.46565864 66.04836131 46.78532087 66.04443359 49.10498047 C66.04848206 50.18746567 66.05253052 51.26995087 66.05670166 52.38523865 C65.97793455 65.14406306 65.97793455 65.14406306 61.51123047 70.84863281 C56.51879562 74.52079004 49.96516785 73.66322786 44.06005859 73.61669922 C42.71536827 73.62007195 41.37068093 73.62492837 40.02600098 73.63119507 C37.21495387 73.63854524 34.40470401 73.62792306 31.59375 73.60449219 C28.00217478 73.57600297 24.41246777 73.59241729 20.820961 73.62235451 C18.04634693 73.64047932 15.27217108 73.63464632 12.49754333 73.62171555 C10.53338397 73.61678908 8.56920712 73.63189345 6.60510254 73.64736938 C-3.31872038 73.5171868 -3.31872038 73.5171868 -6.98876953 70.55566406 C-10.3117514 66.68103232 -11.46324738 64.02539722 -11.15869141 58.95263672 C-10.4704033 54.66095796 -8.68178052 52.62672831 -5.22119141 49.95263672 C-1.55924133 48.20031148 1.47472145 47.66827588 5.51708984 47.53857422 C6.58378906 47.49990234 7.65048828 47.46123047 8.74951172 47.42138672 C9.85230469 47.39044922 10.95509766 47.35951172 12.09130859 47.32763672 C13.2134375 47.28896484 14.33556641 47.25029297 15.49169922 47.21044922 C18.25390711 47.11641661 21.01611259 47.03076331 23.77880859 46.95263672 C-5.80577074 22.56473233 -41.1620854 7.62852297 -79.22119141 2.95263672 C-80.27048828 2.82115234 -81.31978516 2.68966797 -82.40087891 2.55419922 C-110.62040293 -0.33810657 -139.51269431 3.66024605 -166.22119141 12.95263672 C-167.31560547 13.33162109 -168.41001953 13.71060547 -169.53759766 14.10107422 C-193.92243886 23.01724928 -216.24074249 36.84870619 -234.78466797 54.98144531 C-239.01882041 59.04871422 -242.81848553 61.69520395 -248.72119141 62.32763672 C-252.66228546 61.90537664 -254.94538274 61.18614263 -258.22119141 58.95263672 C-261.17018442 54.62744696 -261.86873881 51.13301593 -261.22119141 45.95263672 C-253.63781408 33.26243548 -240.99683492 24.45999399 -229.22119141 15.95263672 C-228.59728516 15.50001465 -227.97337891 15.04739258 -227.33056641 14.58105469 C-162.69209981 -31.77245438 -70.01176169 -37.59786935 0 0 Z " fill="#222220" transform="translate(357.22119140625,59.04736328125)"/>
<path d="M0 0 C1.18150131 -0.01268417 2.36300262 -0.02536835 3.58030701 -0.03843689 C4.84810501 -0.03550125 6.11590302 -0.03256561 7.42211914 -0.02954102 C8.73257706 -0.03478287 10.04303497 -0.04002472 11.39320374 -0.04542542 C14.16295012 -0.05434309 16.93240797 -0.05194925 19.70214844 -0.04199219 C23.24079627 -0.0305067 26.77844555 -0.05071255 30.31696224 -0.07990932 C33.70623316 -0.1027339 37.0952733 -0.09580205 40.48461914 -0.09204102 C41.75039291 -0.10327499 43.01616669 -0.11450897 44.32029724 -0.12608337 C55.23047349 -0.03968863 55.23047349 -0.03968863 60.01977539 4.40405273 C62.39942881 7.43270254 62.37939404 10.65156385 62.27368164 14.44311523 C61.76893696 18.3412972 59.90209852 20.63202 57.01977539 23.15405273 C53.45358399 25.38292236 50.36969494 25.57436016 46.25805664 25.72045898 C45.13979492 25.76235352 44.0215332 25.80424805 42.86938477 25.84741211 C41.70213867 25.88672852 40.53489258 25.92604492 39.33227539 25.96655273 C38.15342773 26.00973633 36.97458008 26.05291992 35.76000977 26.09741211 C32.84671656 26.20356449 29.93333782 26.30561516 27.01977539 26.40405273 C68.43927892 60.1397261 120.71786916 75.71849833 173.85644531 70.45410156 C209.96894085 66.36868067 242.39572943 52.75670195 271.45727539 31.27905273 C272.10792969 30.80032715 272.75858398 30.32160156 273.42895508 29.82836914 C277.4291298 26.8122991 280.96046151 23.5566935 284.45507812 19.9699707 C286.29155327 18.13206283 288.23021557 16.55399393 290.33227539 15.02905273 C291.31647461 14.30588867 291.31647461 14.30588867 292.32055664 13.56811523 C296.052793 11.01131883 299.60350014 10.79660967 304.01977539 11.40405273 C307.77189815 13.41908162 309.65621634 14.85871416 312.01977539 18.40405273 C313.2706484 23.09482654 313.12378974 26.02068951 311.01977539 30.40405273 C284.00295332 67.39510854 230.31591982 88.03030136 187.01977539 95.40405273 C186.26664063 95.53537598 185.51350586 95.66669922 184.73754883 95.80200195 C128.72999493 105.08451844 68.84074001 89.15502413 23.01977539 56.40405273 C18.97320894 53.46446299 14.98093453 50.45790727 11.01977539 47.40405273 C11.03548584 47.98372803 11.05119629 48.56340332 11.06738281 49.16064453 C11.1300033 51.80418012 11.16885057 54.44755928 11.20727539 57.09155273 C11.23241211 58.00356445 11.25754883 58.91557617 11.28344727 59.85522461 C11.35053489 66.00492377 10.7265611 69.59701571 6.33227539 74.15405273 C3.00101811 75.95473235 -0.23910209 76.5123864 -3.98022461 76.40405273 C-8.13865767 75.044565 -10.78572107 73.19855829 -13.15310669 69.47705078 C-15.0495136 64.72410356 -14.52273932 59.37823733 -14.47631836 54.34155273 C-14.47777359 53.07690186 -14.47922882 51.81225098 -14.48072815 50.50927734 C-14.47907037 47.83920521 -14.46962188 45.17056612 -14.44677734 42.50073242 C-14.41839281 39.09112873 -14.42113467 35.68242085 -14.43386745 32.27275085 C-14.44252346 29.00396111 -14.42736705 25.73531456 -14.41381836 22.46655273 C-14.416754 21.24766357 -14.41968964 20.02877441 -14.42271423 18.77294922 C-14.30092883 7.81410052 -14.30092883 7.81410052 -10.98022461 3.40405273 C-7.23005621 0.68431252 -4.60083545 0.0239784 0 0 Z " fill="#222220" transform="translate(109.980224609375,379.595947265625)"/>
<path d="M0 0 C4.07791484 3.10276129 5.99558541 5.97792705 7 11 C6.81401037 16.30070448 5.76034924 19.23965076 2 23 C-1.04431093 25.2832332 -4.20899971 25.42774116 -7.97265625 25.30859375 C-11.4735718 24.77569909 -13.40917311 23.34981974 -16 21 C-18.67486081 16.5131367 -19.54531267 12.93349281 -18.640625 7.859375 C-17.24432613 3.80670267 -14.2377898 1.73598312 -10.6875 -0.375 C-6.90660475 -1.25427797 -3.71567633 -1.15832825 0 0 Z " fill="#222220" transform="translate(262,241)"/>
<path d="M0 0 C3.75212276 2.01502889 5.63644095 3.45466142 8 7 C9.12974552 11.98970937 9.22223757 15.35350326 7 20 C4.40693914 23.43199232 2.33315474 25.24155351 -1.875 26 C-6.17482062 26.28448719 -9.24371343 25.13592766 -13 23 C-16.38453222 19.84110326 -16.76569015 16.52999047 -17 12 C-15.98756014 6.93780071 -13.85085118 4.36949479 -10 1 C-6.78734554 -0.60632723 -3.48478188 -0.47931944 0 0 Z " fill="#222220" transform="translate(260,183)"/>
<path d="M0 0 C4.1148249 3.06423131 5.9953955 5.97697752 7 11 C6.92323274 15.3757336 6.50073102 17.37408623 3.75 20.8125 C-0.20647266 23.95969416 -2.94975682 25.25017922 -8 24.9375 C-12.30322802 24.23924036 -14.34923704 22.50836274 -17 19 C-19.21702192 14.36440872 -19.2634852 10.96369187 -18 6 C-16.20139655 3.1093873 -14.68676923 1.43168352 -11.8125 -0.375 C-7.69641547 -1.28968545 -4.06575329 -1.13634484 0 0 Z " fill="#222220" transform="translate(262,356)"/>
<path d="M0 0 C3.4380767 1.46241299 5.3962152 3.61362718 6.91015625 7.08984375 C8.08582814 11.20821533 8.10351333 13.62856981 6.9375 17.8125 C4.28956567 22.16877906 1.99149472 24.35059955 -2.875 25.9375 C-8.07750352 26.04155007 -11.62966812 24.29820915 -15.375 20.75 C-17.40549984 17.31376951 -17.93111658 14.99523864 -18 11 C-16.82998751 7.16495907 -15.52222864 4.6171793 -12.9375 1.5625 C-8.60510004 -0.74196807 -4.79955482 -0.86008022 0 0 Z " fill="#222220" transform="translate(261,298)"/>
<path d="M0 0 C3.30609718 3.02472721 4.74961049 5.13928606 6 9.4375 C6 14.84068313 4.40535829 18.33912203 0.9375 22.4375 C-3.39489996 24.74196807 -7.20044518 24.86008022 -12 24 C-15.4380767 22.53758701 -17.3962152 20.38637282 -18.91015625 16.91015625 C-20.08582814 12.79178467 -20.10351333 10.37143019 -18.9375 6.1875 C-16.63097176 2.39288902 -14.38299035 -0.20729097 -10.0859375 -1.63671875 C-6.49475474 -2.26214946 -3.280851 -1.41909825 0 0 Z " fill="#222220" transform="translate(263,127)"/>
</svg>
