<?xml version="1.0" encoding="UTF-8"?>
<svg version="1.1" xmlns="http://www.w3.org/2000/svg" width="2133" height="2133">
<path d="M0 0 C7.78685627 5.00120885 14.58570007 11.65592022 20.19042969 18.99023438 C20.81756597 19.75545396 20.81756597 19.75545396 21.45737167 20.53613252 C26.01817454 26.76296143 25.89166606 32.55186101 25.81963539 40.06576347 C25.8269026 41.38217624 25.8341698 42.69858901 25.84165722 44.05489308 C25.86111895 47.70987761 25.8494835 51.36420134 25.83276746 55.01917504 C25.82008366 58.99509123 25.83638358 62.97090613 25.84898412 66.94680798 C25.86704922 73.915472 25.8664908 80.88394239 25.85374832 87.85261536 C25.83485125 98.21526841 25.84449659 108.57775783 25.85978986 118.94040975 C25.8861356 137.44761206 25.88382972 155.95472814 25.8693953 174.46193868 C25.85682448 190.65900317 25.85353074 206.85603603 25.85950851 223.0531044 C25.8600814 224.66381031 25.8600814 224.66381031 25.86066586 226.30705572 C25.86222253 230.66584393 25.86381452 235.02463213 25.86546468 239.3834203 C25.88076531 280.28621046 25.86688387 321.18894566 25.8399802 362.09172734 C25.81625494 398.43862242 25.81837182 434.78542991 25.84228516 471.13232422 C25.8690544 511.95660945 25.87967686 552.7808461 25.86422384 593.6051389 C25.86262023 597.95667019 25.86105603 602.3082015 25.85950851 606.65973282 C25.85911313 607.73121136 25.85871774 608.8026899 25.85831037 609.90663749 C25.85262105 626.09291157 25.8592781 642.27915055 25.87190628 658.46541977 C25.88619344 676.87001199 25.88264813 695.2745044 25.85550256 713.67908417 C25.84080841 723.98173501 25.83988087 734.28416973 25.85873343 744.58681502 C25.86993523 751.46676997 25.86298605 758.34655146 25.84120959 765.22648069 C25.8293037 769.14776436 25.82527268 773.06861834 25.8432395 776.98988865 C25.86239946 781.214625 25.84290638 785.43830765 25.81963539 789.66302299 C25.83134122 790.87943814 25.84304705 792.09585329 25.85510761 793.3491295 C25.73660422 804.07286014 22.17128993 811.72757757 14.69042969 819.30273438 C14.00013672 820.03073242 14.00013672 820.03073242 13.29589844 820.7734375 C11.94248989 822.19356337 10.56667988 823.5922331 9.19042969 824.99023438 C8.41570313 825.88613281 7.64097656 826.78203125 6.84277344 827.70507812 C3.45914981 830.62027668 0.5503323 831.34643847 -3.74707031 832.24023438 C-4.43736328 832.40007813 -5.12765625 832.55992187 -5.83886719 832.72460938 C-26.00843447 837.31294696 -46.1810343 836.39625189 -64.03955078 825.37915039 C-66.3083481 823.93413954 -68.55962097 822.46440342 -70.80957031 820.99023438 C-72.5304673 819.88275282 -74.2518428 818.77601454 -75.97363281 817.66992188 C-80.84335397 814.52536215 -85.68793499 811.34379337 -90.52734375 808.15283203 C-95.94278679 804.58469796 -101.36867784 801.03251765 -106.79370117 797.47897339 C-108.67747801 796.24488066 -110.56093631 795.01030308 -112.44433594 793.77563477 C-120.91137872 788.22615654 -129.3957818 782.70444558 -137.90429688 777.21875 C-148.98336891 770.07499161 -160.03631259 762.89169247 -171.07617188 755.6875 C-184.93110666 746.64668466 -198.80286553 737.63194859 -212.69628906 728.65039062 C-215.38781305 726.91038348 -218.07789958 725.16819253 -220.76660156 723.42382812 C-232.32720536 715.92669555 -243.93330598 708.50122487 -255.54248047 701.07958984 C-258.76124121 699.0211416 -261.97896318 696.96108069 -265.19628906 694.90039062 C-277.81572199 686.81806273 -290.44801154 678.75636318 -303.09472656 670.71679688 C-305.8650198 668.95497009 -308.63431257 667.19158075 -311.40332031 665.42773438 C-320.02934114 659.93359721 -328.65963302 654.44665626 -337.30957031 648.99023438 C-346.89833135 642.94159797 -356.46247165 636.8545893 -366.02441406 630.76367188 C-368.75414348 629.0255272 -371.48480216 627.28885332 -374.21582031 625.55273438 C-384.98690529 618.70469863 -395.74430425 611.8356721 -406.49243164 604.95166016 C-413.25765233 600.61987059 -420.0302554 596.29992854 -426.80957031 591.99023438 C-437.76655555 585.02400704 -448.7025766 578.02523388 -459.63623047 571.02246094 C-464.85990875 567.6771849 -470.08477983 564.33377296 -475.30957031 560.99023438 C-481.59533161 556.96774093 -487.88082283 552.94482882 -494.16503906 548.91992188 C-506.79964199 540.82872021 -519.4464713 532.75714736 -532.10791016 524.70800781 C-536.67603089 521.80349873 -541.24272108 518.89674209 -545.80957031 515.99023438 C-547.64289695 514.82355718 -549.47623028 513.65689051 -551.30957031 512.49023438 C-554.97623698 510.15690104 -558.64290365 507.82356771 -562.30957031 505.49023438 C-563.67057861 504.62422607 -563.67057861 504.62422607 -565.05908203 503.74072266 C-566.89425743 502.5727653 -568.72921808 501.40447043 -570.56396484 500.23583984 C-575.11742293 497.33612926 -579.67433719 494.44218384 -584.23925781 491.56054688 C-594.07717413 485.34257429 -603.85534511 479.0401732 -613.55957031 472.61523438 C-614.53522949 471.97344238 -615.51088867 471.33165039 -616.51611328 470.67041016 C-624.7979435 465.15630866 -633.04101273 459.33895404 -639.80957031 451.99023438 C-640.61394531 451.16523437 -641.41832031 450.34023437 -642.24707031 449.49023438 C-650.53359907 439.10585024 -652.06024997 427.76479195 -652.80957031 414.99023438 C-652.90367188 413.87003906 -652.99777344 412.74984375 -653.09472656 411.59570312 C-653.73901472 398.99078346 -647.45351162 389.49468215 -639.80957031 379.99023438 C-639.25011719 379.25417969 -638.69066406 378.518125 -638.11425781 377.75976562 C-626.81199975 363.84734483 -610.08774849 354.81605178 -594.80957031 345.99023438 C-590.0978459 343.24602791 -585.39060684 340.49418128 -580.68457031 337.74023438 C-579.7593306 337.19913025 -579.7593306 337.19913025 -578.81539917 336.64709473 C-557.86897488 324.39019639 -537.35683209 311.52164786 -517.09912109 298.15771484 C-512.0467154 294.82869171 -506.98268875 291.51750609 -501.91793823 288.20730591 C-500.26061521 287.12408725 -498.60357303 286.04043894 -496.9465332 284.95678711 C-488.89826346 279.69547258 -480.83367091 274.46012356 -472.75439453 269.24658203 C-470.79343865 267.97981339 -468.83442302 266.71009744 -466.87597656 265.43945312 C-457.28743923 259.22055199 -447.66623633 253.05366377 -438.03686523 246.89819336 C-432.05351092 243.07177218 -426.07935474 239.23210363 -420.12207031 235.36523438 C-412.94962165 230.71168137 -405.7401193 226.11769188 -398.52368164 221.53271484 C-391.44297702 217.03306679 -384.37394728 212.51546775 -377.30957031 207.99023438 C-366.72257541 201.20983602 -356.12092841 194.45281307 -345.51123047 187.70800781 C-340.94310974 184.80349873 -336.37641954 181.89674209 -331.80957031 178.99023438 C-329.97624368 177.82355718 -328.14291035 176.65689051 -326.30957031 175.49023438 C-325.40207031 174.91273438 -324.49457031 174.33523438 -323.55957031 173.74023438 C-293.30957031 154.49023438 -293.30957031 154.49023438 -290.56030273 152.74072266 C-288.72450119 151.5724705 -286.88872651 150.40417614 -285.05297852 149.23583984 C-280.50762655 146.34308683 -275.96183064 143.45103668 -271.41503906 140.56054688 C-258.58886046 132.40528037 -245.78207313 124.22005281 -232.98291016 116.02246094 C-228.79783639 113.34231368 -224.61197224 110.66340252 -220.42602539 107.98461914 C-218.35158483 106.65707469 -216.27720313 105.32943825 -214.20288086 104.00170898 C-208.89554201 100.60462907 -203.58751325 97.20863472 -198.27832031 93.81445312 C-188.6167366 87.63661354 -178.95937212 81.45331813 -169.33886719 75.21166992 C-163.01255682 71.11159365 -156.66126713 67.05083745 -150.30957031 62.99023438 C-139.78203799 56.25932334 -129.2801214 49.49043183 -118.80029297 42.68554688 C-101.2499086 31.29149181 -83.66313589 19.95101509 -65.73730469 9.15380859 C-63.97036401 8.08728893 -62.20993841 7.00999483 -60.45019531 5.93164062 C-42.66649197 -4.78004597 -19.4718087 -10.86554247 0 0 Z M-113.63549805 166.66455078 C-120.75267263 171.77155982 -128.17765598 176.40479402 -135.5690918 181.10083008 C-141.25368219 184.71310447 -146.91464763 188.34695988 -152.49707031 192.11523438 C-166.00035872 201.20987535 -179.86345065 209.76946705 -193.6315918 218.45507812 C-202.44521952 224.01713854 -211.23436798 229.6175742 -220.02441406 235.21679688 C-222.75414348 236.95494155 -225.48480216 238.69161543 -228.21582031 240.42773438 C-241.03837881 248.57994753 -253.8410201 256.76294749 -266.63623047 264.95800781 C-271.85990876 268.30328386 -277.08479472 271.64667251 -282.30957031 274.99023438 C-284.39290956 276.32355847 -286.47624289 277.65689181 -288.55957031 278.99023438 C-292.72623698 281.65690104 -296.89290365 284.32356771 -301.05957031 286.99023438 C-302.09106201 287.65039551 -303.12255371 288.31055664 -304.18530273 288.99072266 C-306.26617101 290.32246534 -308.34706289 291.65417114 -310.42797852 292.98583984 C-315.67422261 296.34320617 -320.9200397 299.70123625 -326.16503906 303.06054688 C-338.79964199 311.15174854 -351.4464713 319.22332139 -364.10791016 327.27246094 C-368.67603089 330.17697002 -373.24272108 333.08372666 -377.80957031 335.99023438 C-379.64289695 337.15691157 -381.47623028 338.32357824 -383.30957031 339.49023438 C-384.21707031 340.06773437 -385.12457031 340.64523437 -386.05957031 341.24023438 C-416.30957031 360.49023437 -416.30957031 360.49023437 -419.06005859 362.24047852 C-420.89184477 363.40620498 -422.72355061 364.57205769 -424.55517578 365.73803711 C-429.16152749 368.67013352 -433.7692907 371.59996589 -438.37988281 374.52539062 C-453.41963591 384.07251348 -468.39674671 393.71298362 -483.24707031 403.55273438 C-484.14220337 404.14296387 -484.14220337 404.14296387 -485.05541992 404.74511719 C-491.39944053 408.47762744 -491.39944053 408.47762744 -495.64941406 414.10351562 C-495.76340935 416.6706895 -495.56824073 418.52411893 -494.80957031 420.99023438 C-492.96420659 422.81068655 -492.96420659 422.81068655 -490.52832031 424.30273438 C-489.62009521 424.90190674 -488.71187012 425.5010791 -487.77612305 426.1184082 C-486.79716064 426.73611084 -485.81819824 427.35381348 -484.80957031 427.99023438 C-483.83511963 428.60600342 -482.86066895 429.22177246 -481.85668945 429.85620117 C-478.70765794 431.81787223 -475.54251624 433.75088277 -472.37207031 435.67773438 C-470.05193293 437.09516644 -467.73340588 438.51522115 -465.41503906 439.93554688 C-464.55909149 440.4594677 -464.55909149 440.4594677 -463.68585205 440.99397278 C-458.82553909 443.97214011 -453.99749059 446.99873389 -449.18457031 450.05273438 C-442.07770762 454.5612732 -434.94959899 459.03438898 -427.80957031 463.49023438 C-410.14339929 474.52202713 -392.5663322 485.68683499 -375.03125 496.92578125 C-369.79220338 500.2829636 -364.55078994 503.63644595 -359.30957031 506.99023438 C-357.22622515 508.32354923 -355.14289183 509.65688258 -353.05957031 510.99023438 C-352.02832031 511.65023438 -350.99707031 512.31023437 -349.93457031 512.99023438 C-305.14290365 541.65690104 -260.35123698 570.32356771 -215.55957031 598.99023438 C-214.52767578 599.65063721 -213.49578125 600.31104004 -212.43261719 600.99145508 C-210.35575878 602.32066394 -208.27893568 603.64992799 -206.20214844 604.97924805 C-200.8950416 608.37614623 -195.58726607 611.77199205 -190.27832031 615.16601562 C-180.54553647 621.38944196 -170.81842515 627.62033024 -161.12792969 633.90942383 C-154.43717118 638.24497705 -147.70713202 642.51838886 -140.97436523 646.78833008 C-135.96951851 649.96576789 -130.98803264 653.17391554 -126.03271484 656.42797852 C-114.18824106 664.18876882 -101.88284354 670.93359427 -89.37207031 677.55273438 C-88.53627441 677.99496338 -87.70047852 678.43719238 -86.83935547 678.89282227 C-86.06769043 679.29750732 -85.29602539 679.70219238 -84.50097656 680.11914062 C-83.46759155 680.66163452 -83.46759155 680.66163452 -82.41333008 681.21508789 C-80.95638915 682.06276218 -80.95638915 682.06276218 -79.80957031 681.99023438 C-79.80957031 506.43023438 -79.80957031 330.87023437 -79.80957031 149.99023438 C-92.74159406 149.99023438 -103.73640585 159.46650269 -113.63549805 166.66455078 Z " fill="#000000" transform="translate(2107.8095703125,646.009765625)"/>
<path d="M0 0 C1.02480469 0.6506543 2.04960938 1.30130859 3.10546875 1.97167969 C17.16493922 10.90363098 31.12669031 19.98048658 45.05859375 29.109375 C67.33804488 43.70710461 89.82055623 57.99263284 112.29833984 72.28222656 C117.78582772 75.77128898 123.2713837 79.26338818 128.75732422 82.75488281 C133.30244525 85.6474523 137.84798724 88.53935508 142.39453125 91.4296875 C153.16929056 98.28069053 163.93078185 105.15203102 174.68286133 112.03857422 C181.44808202 116.37036379 188.22068509 120.69030584 195 125 C205.95698524 131.96622734 216.89300629 138.9650005 227.82666016 145.96777344 C233.05033843 149.31304948 238.27520952 152.65646141 243.5 156 C249.78576129 160.02249344 256.07125252 164.04540556 262.35546875 168.0703125 C274.99007168 176.16151416 287.63690099 184.23308701 300.29833984 192.28222656 C304.86646057 195.18673564 309.43315077 198.09349229 314 201 C315.83332663 202.1666772 317.66665996 203.33334387 319.5 204.5 C323.16666667 206.83333333 326.83333333 209.16666667 330.5 211.5 C331.4072583 212.07733887 332.3145166 212.65467773 333.24926758 213.24951172 C335.08506912 214.41776388 336.9208438 215.58605824 338.7565918 216.75439453 C343.30194376 219.64714755 347.84773967 222.5391977 352.39453125 225.4296875 C365.22070985 233.58495401 378.02749718 241.77018156 390.82666016 249.96777344 C396.05033843 253.31304948 401.27520952 256.65646141 406.5 260 C412.78576129 264.02249344 419.07125252 268.04540556 425.35546875 272.0703125 C444.42032114 284.27956249 463.51125628 296.44639098 482.66015625 308.5234375 C485.05556943 310.03506719 487.44982039 311.54852205 489.84375 313.0625 C490.64490234 313.56894043 491.44605469 314.07538086 492.27148438 314.59716797 C493.8748163 315.61107775 495.47768553 316.62571961 497.08007812 317.64111328 C500.76616754 319.97354973 504.45972285 322.28937321 508.1875 324.5546875 C527.9110525 336.57350361 550.94068577 351.24684965 557.609375 374.84375 C558.35057145 378.93515442 558.22595526 382.86328062 558 387 C557.98066406 388.08539062 557.96132813 389.17078125 557.94140625 390.2890625 C557.45870978 403.48276591 553.11755504 413.70188277 545 424 C544.56300781 424.60070313 544.12601563 425.20140625 543.67578125 425.8203125 C535.51113885 436.36324413 522.51259742 443.46061043 511.40429688 450.47998047 C508.86438021 452.08574013 506.33015728 453.70020203 503.796875 455.31640625 C500.08953569 457.68071447 496.37982694 460.04123007 492.66796875 462.3984375 C488.95956577 464.75364557 485.25379023 467.11288296 481.55078125 469.4765625 C471.05735744 476.17189813 460.52792708 482.80564573 449.96582031 489.39208984 C440.5127289 495.29224923 431.11071073 501.27080131 421.71777344 507.26611328 C417.14786585 510.18162565 412.5736907 513.09042751 408 516 C406.16274699 517.16924974 404.3255074 518.33852056 402.48828125 519.5078125 C398.86123892 521.81598886 395.23359364 524.12321318 391.60546875 526.4296875 C374.13969398 537.53481088 356.68069699 548.65120014 339.3190918 559.91870117 C332.62333016 564.25754176 325.88661581 568.53151426 319.15161133 572.80908203 C313.58446886 576.34754055 308.03254196 579.90770826 302.5 583.5 C295.26353929 588.19730622 287.98989865 592.83453948 280.70825195 597.46142578 C273.69312914 601.91984847 266.68758327 606.393003 259.6875 610.875 C258.64746826 611.54088135 257.60743652 612.2067627 256.53588867 612.89282227 C253.35711572 614.92832438 250.17852353 616.96410843 247 619 C234.11334724 627.25409264 221.22261592 635.50135689 208.30786133 643.71142578 C201.36346597 648.12780387 194.43016675 652.56133372 187.5 657 C176.91295931 663.78032714 166.31135836 670.53742114 155.70166016 677.28222656 C151.13353944 680.18673563 146.56683261 683.0934662 142 686 C136.53583711 689.4776344 131.07142198 692.95486755 125.60546875 696.4296875 C112.77929015 704.58495401 99.97250282 712.77018156 87.17333984 720.96777344 C82.98876017 723.64760427 78.80339641 726.3262088 74.61791992 729.00463867 C72.53854917 730.33536431 70.45928491 731.66625637 68.38012695 732.99731445 C63.1485984 736.34632722 57.91559887 739.69299918 52.6796875 743.03515625 C34.68119028 754.52882606 16.73369318 766.10066881 -1 778 C-6.26329043 781.52677569 -11.53246305 785.04447725 -16.81201172 788.546875 C-18.20839622 789.47426627 -19.60339994 790.40374229 -20.99658203 791.3359375 C-38.61527345 803.10915387 -54.74338165 808.45495735 -76 808 C-77.36318359 808.02707031 -77.36318359 808.02707031 -78.75390625 808.0546875 C-91.08703339 807.79736443 -101.69082633 799.92863091 -110.4375 791.8828125 C-118.15920107 783.19589879 -121.03944374 777.44565721 -120.87530136 765.67837524 C-120.88487625 764.35965479 -120.89445115 763.04093433 -120.90431619 761.68225265 C-120.92984284 758.02988859 -120.91198015 754.37884596 -120.88687016 750.72652695 C-120.86727248 746.75020075 -120.88837274 742.77405311 -120.9042418 738.79773903 C-120.92643217 731.8314312 -120.92262838 724.86551439 -120.90172958 717.89920807 C-120.8707379 707.54015334 -120.87981497 697.18140288 -120.8968551 686.8223297 C-120.92597711 668.32117046 -120.91534547 649.82019438 -120.88821964 631.31904167 C-120.86463813 615.12847088 -120.85489533 598.93796315 -120.85883331 582.74737549 C-120.85907776 581.67370903 -120.85932221 580.60004257 -120.85957406 579.49384077 C-120.86058988 575.13555519 -120.8616763 570.77726963 -120.86286498 566.41898409 C-120.87385584 525.52905656 -120.84563816 484.63924029 -120.79871495 443.74934259 C-120.75722998 407.41554544 -120.74602927 371.08186374 -120.76171875 334.74804688 C-120.7657023 325.44426477 -120.76966253 316.14048267 -120.77334213 306.83670044 C-120.77379666 305.69132003 -120.77425119 304.54593961 -120.77471949 303.3658507 C-120.78632257 273.01181359 -120.77443864 242.65778664 -120.75513482 212.30375481 C-120.75307996 209.03788962 -120.75103113 205.77202443 -120.74899277 202.50615923 C-120.74763641 200.33964205 -120.74626214 198.17312488 -120.74486985 196.00660773 C-120.73536221 180.8980501 -120.73514182 165.78951726 -120.74129782 150.68095833 C-120.74922115 131.21129614 -120.74102124 111.74175653 -120.70409927 92.27212381 C-120.68505059 81.97391335 -120.67967815 71.67591225 -120.69403016 61.37769295 C-120.70221962 54.50075643 -120.69224682 47.62400158 -120.66742823 40.74710535 C-120.65378286 36.82759133 -120.64799358 32.90850227 -120.66416737 28.98898816 C-120.68139001 24.76616334 -120.65998197 20.54440921 -120.63479233 16.32162476 C-120.64592646 15.1057813 -120.6570606 13.88993785 -120.66853213 12.63725066 C-120.54344093 1.76748037 -116.67531353 -5.79423638 -109.5625 -13.8125 C-108.88477539 -14.61204102 -108.88477539 -14.61204102 -108.19335938 -15.42773438 C-103.08308231 -21.33535963 -98.08559049 -25.46666064 -90.5 -27.75 C-89.86191406 -27.95753906 -89.22382812 -28.16507813 -88.56640625 -28.37890625 C-55.87217581 -38.74210813 -26.22684277 -16.69346587 0 0 Z M-15 123 C-15 298.56 -15 474.12 -15 655 C14.17359336 641.18092946 40.63954313 624.67705656 67.35993958 606.76882935 C86.0648222 594.24478528 105.01409641 582.09211982 124 570 C124.94858887 569.39559082 125.89717773 568.79118164 126.87451172 568.16845703 C132.34727253 564.68198591 137.82226111 561.19903038 143.29833984 557.71777344 C147.86646057 554.81326436 152.43315077 551.90650771 157 549 C158.83332663 547.8333228 160.66665996 546.66665613 162.5 545.5 C163.86125 544.63375 163.86125 544.63375 165.25 543.75 C173.49999999 538.50000001 173.49999999 538.50000001 176.24926758 536.75048828 C178.08506912 535.58223612 179.9208438 534.41394176 181.7565918 533.24560547 C186.30194376 530.35285245 190.84773967 527.4608023 195.39453125 524.5703125 C208.22070985 516.41504599 221.02749718 508.22981844 233.82666016 500.03222656 C239.05033844 496.68695051 244.27522441 493.34356187 249.5 490 C251.58333925 488.66667591 253.66667258 487.33334257 255.75 486 C343.25 430 343.25 430 346.37817383 427.99804688 C348.45102243 426.6713719 350.52377711 425.34455017 352.59643555 424.01757812 C357.40245125 420.940881 362.20927478 417.86547946 367.01968384 414.7956543 C368.69955936 413.72351873 370.37907738 412.6508231 372.05859375 411.578125 C374.14782224 410.24382781 376.23761747 408.91041736 378.328125 407.578125 C381.22453747 405.72753126 384.11447768 403.86752737 387 402 C387.54670349 401.64663574 388.09340698 401.29327148 388.65667725 400.92919922 C390.33071152 399.84375398 391.99939633 398.75007276 393.66796875 397.65625 C394.66465576 397.00462891 395.66134277 396.35300781 396.68823242 395.68164062 C399.08830096 394.2069214 399.08830096 394.2069214 400 392 C399.45055341 389.99106837 399.45055341 389.99106837 398.4375 387.8125 C398.12683594 387.07644531 397.81617188 386.34039063 397.49609375 385.58203125 C392.91237096 377.67121986 386.79255234 373.62814928 378.95501709 369.06539917 C376.43878478 367.60049929 373.93928939 366.10799804 371.43814087 364.61753845 C370.15448537 363.85310557 368.86995548 363.09013912 367.58456421 362.32862854 C361.6213548 358.79319044 355.74085135 355.13205495 349.875 351.4375 C341.63504581 346.26105701 333.36055541 341.14523654 325.0625 336.0625 C308.64880616 325.99389475 292.47023362 315.56218888 276.31811523 305.08081055 C269.62287684 300.74182936 262.88630848 296.46829055 256.15161133 292.19091797 C250.58446886 288.65245945 245.03254196 285.09229174 239.5 281.5 C233.1883797 277.40302297 226.85088317 273.3483384 220.5 269.3125 C205.40401303 259.71924805 190.31723716 250.11055153 175.3125 240.375 C168.13773732 235.72015822 160.92594601 231.12486017 153.70751953 226.53808594 C146.69261883 222.07986063 139.68733619 217.6068388 132.6875 213.125 C131.12745239 212.12617798 131.12745239 212.12617798 129.53588867 211.10717773 C125.29485791 208.39146723 121.05417456 205.67521447 116.81347656 202.95898438 C99.0703582 191.59510814 81.31933908 180.24410928 63.5 169 C61.93356311 168.01046517 60.36715705 167.02088153 58.80078125 166.03125 C56.37560004 164.49903295 53.94954633 162.96827888 51.52099609 161.44140625 C37.69078845 152.74403177 24.0541163 143.77632859 10.48249817 134.68273926 C9.28556056 133.88194243 8.08717303 133.083308 6.88725281 132.2869873 C4.34916373 130.59900104 1.84771126 128.88733319 -0.60302734 127.07421875 C-1.35664551 126.52378906 -2.11026367 125.97335937 -2.88671875 125.40625 C-3.50119873 124.93509766 -4.11567871 124.46394531 -4.7487793 123.97851562 C-7.81370041 122.46849126 -7.81370041 122.46849126 -15 123 Z " fill="#000000" transform="translate(120,673)"/>
<path d="M0 0 C1.07215319 -0.00192887 2.14430637 -0.00385775 3.24894905 -0.00584507 C42.62044813 -0.00741338 42.62044813 -0.00741338 56.09033203 11.03100586 C57.39357422 12.0384082 57.39357422 12.0384082 58.72314453 13.06616211 C67.2789455 20.10235066 72.30932588 29.04473573 74.09033203 40.03100586 C74.41471917 44.28444208 74.46041905 48.51653698 74.46533203 52.78100586 C74.48982422 53.88444336 74.51431641 54.98788086 74.53955078 56.12475586 C74.57416536 65.95529535 72.72257381 75.4158146 66.65283203 83.40600586 C66.04052734 84.21553711 65.42822266 85.02506836 64.79736328 85.85913086 C64.23404297 86.57584961 63.67072266 87.29256836 63.09033203 88.03100586 C61.97658203 89.57788086 61.97658203 89.57788086 60.84033203 91.15600586 C44.46160987 108.27921539 22.73533969 109.14623177 0.53955078 109.84741211 C-1.21252543 109.90866692 -2.96457498 109.97068858 -4.71659851 110.03343201 C-9.2879759 110.19556168 -13.85958991 110.34938136 -18.43133545 110.50073242 C-25.76330274 110.74446321 -33.0948828 110.99921927 -40.42635155 111.25745964 C-42.96807949 111.34551129 -45.5099291 111.42885177 -48.05183411 111.51161194 C-55.37609713 111.75886952 -62.63907122 112.04798213 -69.90966797 113.03100586 C-66.30975712 115.80941571 -62.70425429 118.5804348 -59.09667969 121.34887695 C-56.74025302 123.1613105 -54.38961889 124.98112878 -52.03857422 126.80053711 C-41.4115317 134.99584928 -30.64028449 142.85894123 -19.48046875 150.31225586 C-16.68914127 152.17844252 -13.90679736 154.05761839 -11.12451172 155.93725586 C9.10806751 169.56564667 29.73451943 182.24107065 51.09033203 194.03100586 C52.08597168 194.58369141 53.08161133 195.13637695 54.10742188 195.70581055 C126.45695821 235.75747848 204.87388702 264.17506238 466.09033203 298.03100586 C467.73775391 298.00200195 467.73775391 298.00200195 469.41845703 297.97241211 C553.10903172 296.41920275 635.80142818 281.21952941 936.09033203 137.03100586 C937.27199951 136.17611572 937.27199951 136.17611572 938.47753906 135.30395508 C947.90266399 128.46459831 957.20061794 121.5581596 966.09033203 114.03100586 C967.57533203 112.82250977 967.57533203 112.82250977 969.09033203 111.58959961 C977.94968439 104.29389761 986.01218013 96.25118034 994.01147461 88.03613281 C1000.04245351 81.88996468 1006.33849195 76.36889417 1013.09033203 71.03100586 C1014.59773191 69.80032368 1016.10429691 68.56861791 1017.60986328 67.33569336 C1035.57577428 52.87136881 1052.17646245 45.38472458 1075.77001953 47.24194336 C1088.57521306 49.08294562 1098.35032899 58.16773056 1107.09033203 67.03100586 C1108.29109375 68.22016602 1108.29109375 68.22016602 1109.51611328 69.43334961 C1117.86537382 78.60685159 1118.69538088 90.64419862 1118.37158203 102.62475586 C1117.00309684 119.19863205 1109.42187433 131.52090389 1099.09033203 144.03100586 C1098.63432617 144.5846582 1098.17832031 145.13831055 1097.70849609 145.70874023 C1092.36759263 152.16280042 1086.8757411 158.47362585 1081.23486328 164.66772461 C1079.86396387 166.17846076 1078.50579457 167.70091187 1077.16455078 169.23803711 C1072.0044497 175.11955039 1066.55006634 180.67774998 1061.02783203 186.21850586 C1060.27187744 186.97905273 1059.51592285 187.73959961 1058.73706055 188.52319336 C1054.56994013 192.67898146 1050.31632381 196.66950962 1045.85668945 200.50976562 C1043.62416395 202.43248386 1041.45233537 204.41810613 1039.27783203 206.40600586 C1034.02852226 211.13676679 1028.59409258 215.60097637 1023.09033203 220.03100586 C1021.95719506 220.95638994 1020.82439754 221.88218979 1019.69189453 222.80834961 C948.38481701 280.83888934 863.3775896 321.86700574 775.09033203 353.03100586 C774.09794525 353.38101654 774.09794525 353.38101654 773.08551025 353.73809814 C689.8919239 383.00170819 602.0692935 403.07298619 514.09033203 410.03100586 C513.34982605 410.09052429 512.60932007 410.15004272 511.84637451 410.21136475 C469.48407956 413.57696209 426.44808585 413.36893579 384.09033203 410.03100586 C383.28799133 409.9678418 382.48565063 409.90467773 381.65899658 409.83959961 C296.51020405 403.02719529 213.08895739 384.16675759 53.33154297 321.56567383 C50.22771227 320.09605348 47.11709009 318.64189151 44.00439453 317.19116211 C31.67486172 311.41294823 19.69405919 305.14571854 7.79785156 298.52514648 C5.14532972 297.06135625 2.47905288 295.62723176 -0.19482422 294.20288086 C-33.16817305 276.59748948 -64.70575189 256.03370928 -94.90966797 234.03100586 C-95.65249023 233.4910498 -96.3953125 232.95109375 -97.16064453 232.39477539 C-106.6075101 225.51394034 -115.964936 218.52255881 -125.21630859 211.38085938 C-125.86277344 210.88255615 -126.50923828 210.38425293 -127.17529297 209.87084961 C-127.72991211 209.44151123 -128.28453125 209.01217285 -128.85595703 208.56982422 C-131.83585554 206.3370258 -134.87357315 204.18649817 -137.90966797 202.03100586 C-137.90522675 202.77443741 -137.90078552 203.51786896 -137.89620972 204.28382874 C-137.85580758 211.35760899 -137.82552054 218.43134795 -137.80604362 225.50521183 C-137.79569313 229.14024418 -137.78169793 232.77517964 -137.75878906 236.41015625 C-137.73674355 239.93096783 -137.72503409 243.45168741 -137.71991348 246.97256279 C-137.71452612 248.94129857 -137.69896684 250.90999835 -137.68307495 252.87867737 C-137.68047969 274.18468132 -141.7814552 292.81231009 -156.22216797 309.09350586 C-167.38717868 319.25981148 -185.82410316 321.0245943 -200.29248047 320.49584961 C-213.66499232 319.50213269 -225.26195278 310.85896213 -234.35888672 301.51538086 C-246.51737304 287.22185535 -247.39226458 268.26566765 -247.23779297 250.28881836 C-247.23512404 248.65352531 -247.23373694 247.01822978 -247.23348999 245.38293457 C-247.22866447 240.9135062 -247.20437697 236.44437724 -247.17597198 231.97504425 C-247.15392892 228.16369878 -247.14253035 224.35235004 -247.13106728 220.54096031 C-247.09837999 209.76678742 -247.04084214 198.99284795 -246.97507668 188.21883202 C-246.92303618 179.59954776 -246.87974953 170.98025381 -246.84050274 162.36090446 C-246.76603852 146.0127397 -246.67557399 129.66471306 -246.57450056 113.31669199 C-246.54282999 108.14288445 -246.51517475 102.96906445 -246.4888916 97.79522705 C-246.45628432 91.42417375 -246.41620734 85.0532136 -246.36727917 78.68226409 C-246.34217299 75.39483002 -246.3210806 72.10746033 -246.30625534 68.81996155 C-246.28934804 65.21000451 -246.26038407 61.60033029 -246.22851562 57.99047852 C-246.2263567 56.94987841 -246.22419777 55.9092783 -246.22197342 54.83714485 C-246.05012997 39.6226052 -243.01404107 26.36198585 -232.22607422 15.06225586 C-220.94598058 5.17077409 -206.20632604 0.9457072 -191.4291687 0.87278748 C-190.69650791 0.8678495 -189.96384712 0.86291152 -189.20898449 0.85782391 C-186.76399965 0.84251866 -184.31904095 0.83410624 -181.87402344 0.82568359 C-180.11563389 0.81609727 -178.35724661 0.80608675 -176.59886169 0.79568481 C-171.82271055 0.7686542 -167.04654961 0.74761975 -162.27036428 0.72768283 C-157.24525821 0.70572045 -152.22018142 0.67836182 -147.19509888 0.65162659 C-138.73310658 0.60735302 -130.27110352 0.56659345 -121.80908203 0.52832031 C-109.97183467 0.47477647 -98.13462503 0.41501412 -86.29741454 0.35392463 C-77.0197343 0.30626808 -67.74204573 0.26025994 -58.46435547 0.21459961 C-57.48748197 0.20978286 -56.51060847 0.2049661 -55.50413275 0.20000339 C-18.27543087 0.01724288 -18.27543087 0.01724288 0 0 Z " fill="#000000" transform="translate(643.90966796875,1579.968994140625)"/>
<path d="M0 0 C4.01806423 0.0114031 8.03586354 0.0045875 12.05391884 -0.0068779 C40.37978529 -0.07531657 68.56416207 1.16421442 96.7565918 4.01074219 C98.00474167 4.13479431 98.00474167 4.13479431 99.27810669 4.26135254 C171.59572433 11.51346548 242.14776245 27.41406141 310.7565918 51.26074219 C311.4148999 51.48870483 312.07320801 51.71666748 312.75146484 51.95153809 C344.3675905 62.91336257 374.807885 76.38503407 404.7565918 91.26074219 C405.83537598 91.79328613 406.91416016 92.32583008 408.02563477 92.87451172 C420.52510825 99.04499282 432.95011455 105.34529097 445.24291992 111.91845703 C447.00545437 112.85963947 448.76995061 113.79715296 450.53588867 114.73193359 C472.76689106 126.50456362 493.89555008 139.5742201 514.8190918 153.51074219 C515.65352814 154.06627777 516.48796448 154.62181335 517.34768677 155.19418335 C530.84589853 164.19437567 544.08593884 173.49053252 557.1315918 183.13574219 C557.92178711 183.7187207 558.71198242 184.30169922 559.52612305 184.90234375 C565.63134249 189.41287987 571.71047633 193.95775524 577.76977539 198.52978516 C580.39542844 200.50814897 583.02030934 202.43655388 585.7565918 204.26074219 C586.98925902 199.35106298 587.02630133 194.44488165 587.1862793 189.41308594 C587.26007874 187.42413804 587.33431257 185.43520623 587.40893555 183.44628906 C587.52107019 180.3470527 587.62998053 177.24782224 587.73071289 174.14819336 C588.57280793 148.72308486 589.93829246 120.92317889 608.3659668 101.26464844 C618.91516603 92.42193731 633.46314709 89.73193092 646.8190918 89.88574219 C647.83036133 89.87414062 648.84163086 89.86253906 649.88354492 89.85058594 C663.20336634 89.90204693 673.88366236 94.33716418 683.5065918 103.57324219 C701.50438189 122.71173729 701.90976844 149.18676358 701.90185547 174.0925293 C701.90485232 175.98285996 701.90825605 177.87319002 701.91203308 179.76351929 C701.92082661 184.87355524 701.92320931 189.98357441 701.92384887 195.0936172 C701.92456234 198.29611746 701.92670232 201.49861353 701.92934608 204.70111275 C701.93858615 215.90238844 701.9426829 227.10365227 701.94189453 238.30493164 C701.94129502 248.6981622 701.95182538 259.09134065 701.96763819 269.48455805 C701.98077815 278.44468105 701.98607569 287.40478717 701.98543912 296.36491972 C701.9851859 301.69968315 701.98793835 307.03440027 701.99861717 312.36915398 C702.00840674 317.39664277 702.0083042 322.42404204 702.00110054 327.45153427 C702.00006784 329.27984691 702.00233764 331.10816545 702.008461 332.93646812 C702.0380318 342.39056027 701.76321482 351.72571162 700.83906555 361.13941956 C700.75786852 361.96658696 700.67667149 362.79375437 700.59301394 363.64598745 C699.26641068 375.94480328 694.15432152 384.5426453 686.7565918 394.26074219 C685.97155273 395.30230469 685.18651367 396.34386719 684.37768555 397.41699219 C674.47845716 408.15713863 657.59573748 410.46543225 643.7565918 411.26074219 C636.67408835 411.43236378 629.58669575 411.34933635 622.50292969 411.31420898 C620.35331856 411.30733025 618.20370602 411.30088225 616.05409241 411.29483032 C610.24004715 411.27698504 604.42604922 411.25241587 598.61203694 411.22607017 C593.74883579 411.2045048 588.88562495 411.18588389 584.02241224 411.1671384 C572.54551547 411.1227055 561.06865403 411.07242981 549.59179688 411.01879883 C537.7715426 410.96369148 525.95128258 410.91969085 514.13096434 410.88094777 C503.96245222 410.84715386 493.79398889 410.80581839 483.62553018 410.75862247 C477.56110462 410.73058883 471.49670338 410.70551317 465.43223763 410.68796349 C459.72841926 410.67118083 454.02471937 410.64496603 448.32097435 410.61165237 C446.23453322 410.6010321 444.14807223 410.59369615 442.06160736 410.5899868 C423.3519241 410.55326466 409.34671542 410.06184651 395.11206055 396.70996094 C383.24354821 384.36907 378.35639169 369.91927165 378.38574219 353.13769531 C378.78381114 337.05504336 385.96469244 326.7044006 396.9753418 315.74121094 C402.39225514 310.91011547 407.62772974 308.31316129 414.4440918 306.13574219 C415.24500244 305.87639893 416.04591309 305.61705566 416.87109375 305.34985352 C432.30108941 300.46631211 448.11446648 300.22660323 464.1784668 299.76074219 C466.17544917 299.69868376 468.17243144 299.6366215 470.16940689 299.57434082 C474.31228833 299.44594028 478.45530626 299.32203355 482.59832764 299.19824219 C486.03829223 299.09539178 489.47820733 298.99129747 492.91802979 298.88378906 C495.47681879 298.8040383 498.03569575 298.7270429 500.59466553 298.65332031 C507.68127355 298.43118257 514.70466645 298.00042796 521.7565918 297.26074219 C503.82026457 283.03226076 485.66854073 269.17400575 466.7565918 256.26074219 C466.10561523 255.81569336 465.45463867 255.37064453 464.78393555 254.91210938 C460.47439224 251.97731953 456.1269347 249.10407316 451.7565918 246.26074219 C450.57105713 245.48827148 450.57105713 245.48827148 449.36157227 244.70019531 C428.88019186 231.40029532 407.8279207 219.1634218 386.3059082 207.62939453 C383.91337503 206.34491445 381.52794196 205.04809449 379.14331055 203.74902344 C345.54607758 185.58953866 309.78829816 170.8210986 273.7565918 158.26074219 C273.11137573 158.03471313 272.46615967 157.80868408 271.8013916 157.57580566 C199.93090377 132.41337832 124.74621954 117.15889231 48.7565918 112.26074219 C47.6718457 112.19016602 46.58709961 112.11958984 45.46948242 112.046875 C-13.54029107 108.42817053 -73.07535055 113.27488896 -131.2434082 123.26074219 C-131.97227234 123.38473389 -132.70113647 123.50872559 -133.4520874 123.63647461 C-174.75052772 130.68677259 -215.52578998 141.23613009 -255.22277832 154.58483887 C-257.16749636 155.23534958 -259.11517056 155.87578094 -261.06469727 156.51171875 C-291.95818019 166.60595589 -322.01754655 179.06246204 -351.2434082 193.26074219 C-351.87913757 193.56818359 -352.51486694 193.875625 -353.16986084 194.19238281 C-370.75720095 202.69788165 -387.93017229 211.62583687 -404.6730957 221.71923828 C-407.07021294 223.15687109 -409.47993428 224.5686098 -411.8996582 225.96777344 C-439.99901965 242.22123298 -466.96121812 260.9087872 -492.2434082 281.26074219 C-493.19812012 282.02620361 -493.19812012 282.02620361 -494.17211914 282.80712891 C-507.19010545 293.25519064 -519.91109186 304.00919222 -532.2434082 315.26074219 C-533.22180664 316.14632813 -534.20020508 317.03191406 -535.20825195 317.94433594 C-539.84854297 322.15724139 -544.42714459 326.39750948 -548.8059082 330.88574219 C-553.62950904 335.76149006 -558.84011033 340.04481714 -564.2434082 344.26074219 C-565.11868164 344.95296875 -565.99395508 345.64519531 -566.89575195 346.35839844 C-580.61817974 356.81646014 -598.48735331 365.5125008 -616.2434082 363.26074219 C-628.74617046 361.27025267 -645.07740307 357.37454672 -652.9777832 346.49902344 C-662.35888251 329.90837558 -665.88143854 313.43229364 -663.2434082 294.26074219 C-661.50757842 288.66480731 -658.03689107 284.61873143 -654.2434082 280.26074219 C-653.42027606 279.18021793 -652.60777238 278.09151723 -651.8059082 276.99511719 C-642.80002341 264.7052038 -632.71144265 253.38552784 -621.90942383 242.66601562 C-620.23711157 241.00448616 -618.57585458 239.33243463 -616.9152832 237.65917969 C-610.33235991 231.06812101 -603.54468493 225.05585869 -596.2434082 219.26074219 C-595.11869209 218.31366053 -593.99909555 217.36041584 -592.88793945 216.39746094 C-584.6383297 209.26297085 -576.02304121 202.72560177 -567.2434082 196.26074219 C-565.70670397 195.12305343 -564.17025181 193.9850241 -562.6340332 192.84667969 C-553.36815421 185.99013932 -544.0538456 179.20282539 -534.6965332 172.47167969 C-531.73924729 170.34362399 -528.79210336 168.20260151 -525.8527832 166.04980469 C-494.86266787 143.39922205 -462.12309152 123.27946541 -428.2434082 105.26074219 C-427.21650879 104.71305176 -426.18960938 104.16536133 -425.1315918 103.60107422 C-345.48736583 61.27309666 -259.23358291 32.28188101 0 0 Z " fill="#000000" transform="translate(1062.243408203125,142.7392578125)"/>
<path d="M0 0 C2.56377054 2.23615648 4.90633311 4.58301179 7.25390625 7.04296875 C7.8778125 7.58824219 8.50171875 8.13351562 9.14453125 8.6953125 C18.90434354 17.33406527 25.31528742 31.65678046 26.59375 44.44140625 C27.15074786 64.27052996 20.63235409 79.62129435 7.421875 94.04296875 C-3.13540229 104.35576173 -17.39861927 105.33927454 -31.34863281 105.35986328 C-43.0605422 105.20295546 -52.20554264 101.80085912 -61.74609375 95.04296875 C-63.01453125 94.15738281 -63.01453125 94.15738281 -64.30859375 93.25390625 C-74.47932416 85.22275023 -79.90721894 72.08775325 -82.3515625 59.56640625 C-84.27976108 42.34625656 -83.00428722 27.90106586 -72.03515625 13.8515625 C-55.88557996 -3.60267388 -21.34957717 -15.21499027 0 0 Z " fill="#000000" transform="translate(1094.74609375,1004.95703125)"/>
<path d="M0 0 C0.83917969 0.25394531 1.67835937 0.50789062 2.54296875 0.76953125 C13.56943765 4.7312537 21.73636177 16.00731181 27 26 C34.55841363 42.39624623 34.41696685 56.79258321 28.4375 73.9375 C24.01420603 84.25851927 16.33197986 97.19858263 5.6875 101.625 C-4.57754143 105.63735281 -15.97554483 107.8825983 -27 107 C-28.86978516 106.87818359 -28.86978516 106.87818359 -30.77734375 106.75390625 C-39.59374749 106.02548543 -46.66307855 104.17547159 -54 99 C-54.71542969 98.49597656 -55.43085937 97.99195313 -56.16796875 97.47265625 C-65.59963381 90.0112423 -71.05304538 79.47147871 -74 68 C-74.28810547 66.89978516 -74.28810547 66.89978516 -74.58203125 65.77734375 C-76.94328877 50.08711853 -76.03718452 33.47085544 -66.4621582 20.45996094 C-65.32007786 18.9640902 -64.16060818 17.48154157 -63 16 C-62.51660156 15.32195313 -62.03320312 14.64390625 -61.53515625 13.9453125 C-46.43863614 -5.96924595 -21.88362711 -7.46926195 0 0 Z " fill="#000000" transform="translate(1088,525)"/>
<path d="M0 0 C1.15886719 -0.020625 2.31773438 -0.04125 3.51171875 -0.0625 C17.92027996 -0.12836771 29.55807238 7.44270196 39.6875 17.375 C41.1850746 18.98305141 42.66684951 20.60611552 44.125 22.25 C44.65867187 22.79785156 45.19234375 23.34570312 45.7421875 23.91015625 C53.9212089 33.37168692 53.07404315 50.92246214 52.39257812 62.65185547 C50.7007526 79.07923434 42.30817732 91.71965434 29.6875 102.125 C17.73289938 111.01754502 3.33537268 111.69574399 -11.00292969 109.99804688 C-23.23373293 107.92755104 -37.6029676 101.89734164 -45.6875 92.25 C-46.80451025 90.6193645 -47.87333367 88.95392153 -48.875 87.25 C-49.2875 86.56679688 -49.7 85.88359375 -50.125 85.1796875 C-56.37286184 73.09742527 -58.16497651 55.39634458 -54.43652344 42.49316406 C-50.5267123 30.39661224 -43.55652539 21.35084773 -34.875 12.25 C-34.28847656 11.57710937 -33.70195313 10.90421875 -33.09765625 10.2109375 C-24.26840288 0.44682201 -12.36213851 0.05463929 0 0 Z " fill="#000000" transform="translate(1067.875,760.75)"/>
<path d="M0 0 C11.07244222 9.33558854 17.06922702 20.9487823 19.46484375 35.05859375 C20.73309904 50.16789009 20.48705435 65.17663349 10.6953125 77.4296875 C9.59123047 78.73099609 9.59123047 78.73099609 8.46484375 80.05859375 C7.75972656 80.93644531 7.05460937 81.81429688 6.328125 82.71875 C-1.87607763 92.48425511 -13.75826615 100.64775138 -26.62109375 102.50390625 C-44.97855342 103.18381216 -60.67784703 95.52742174 -74.53515625 84.05859375 C-84.94561431 74.10076431 -88.38825105 58.07217104 -89.09765625 44.18359375 C-88.71811976 30.0300456 -81.19258781 17.54474108 -73.53515625 6.05859375 C-73.03242187 5.29417969 -72.5296875 4.52976562 -72.01171875 3.7421875 C-66.34843605 -3.83613588 -56.28784715 -6.56912922 -47.39453125 -8.44140625 C-30.79859563 -10.59148698 -13.68551214 -10.48027663 0 0 Z " fill="#000000" transform="translate(1100.53515625,1247.94140625)"/>
<path d="M0 0 C3.14227688 2.66490893 5.9029554 5.59556455 8.68359375 8.6328125 C9.36035156 9.29539062 10.03710938 9.95796875 10.734375 10.640625 C21.17396667 21.33484086 26.17548055 36.59334736 26.03759766 51.23779297 C25.62252007 64.5232196 21.3478549 76.62368057 12.1796875 86.3984375 C-0.76120114 97.98245675 -16.66214332 104.32541622 -34.078125 103.94140625 C-49.52565581 102.46932551 -61.04078662 96.2499402 -71.08984375 84.58984375 C-79.44583543 73.49250042 -82.89465234 61.00305504 -82.69140625 47.2578125 C-82.68052979 46.25339111 -82.66965332 45.24896973 -82.65844727 44.21411133 C-82.39067757 31.70370889 -80.46877165 22.50057145 -72.31640625 12.6328125 C-71.78015625 11.93542969 -71.24390625 11.23804688 -70.69140625 10.51953125 C-56.499953 -7.04921496 -19.05844282 -14.63446183 0 0 Z " fill="#000000" transform="translate(1095.31640625,1484.3671875)"/>
</svg>
