<?xml version="1.0" encoding="UTF-8"?>
<svg version="1.1" xmlns="http://www.w3.org/2000/svg" width="1096" height="1152">
<path d="M0 0 C4.02326512 0.63939421 7.09485116 2.74812498 10.4375 4.9375 C11.05222168 5.33791504 11.66694336 5.73833008 12.30029297 6.15087891 C23.39725439 13.47970438 33.38494943 21.83524105 43 31 C43.85335938 31.78890625 44.70671875 32.5778125 45.5859375 33.390625 C67.19365758 53.97589776 79.53009628 81.55677213 80.35375977 111.36987305 C80.76482379 159.85180318 55.73565559 205.47343352 33.34619141 247.07275391 C10.1922323 290.14509735 2.35603667 328.78018333 12 377 C85.26 377 158.52 377 234 377 C244.88613621 319.84778491 230.61326548 281.03954153 204.59608459 230.96147156 C200.64763529 223.34854738 196.80973074 215.68307282 193 208 C192.53343994 207.06696045 192.06687988 206.1339209 191.58618164 205.17260742 C172.01959206 165.91214708 157.81308084 121.77936228 171.1875 78.3125 C177.32331859 61.16883971 187.53500974 47.16899303 200 34 C201.19496094 32.70835937 201.19496094 32.70835937 202.4140625 31.390625 C212.51465564 20.83230106 224.35229111 12.3584562 236.375 4.125 C236.99922852 3.68986084 237.62345703 3.25472168 238.26660156 2.80639648 C240.0234375 1.6328125 240.0234375 1.6328125 243 0 C243.99 0.33 244.98 0.66 246 1 C245.46632813 1.49886719 244.93265625 1.99773437 244.3828125 2.51171875 C220.97480127 25.0692659 205.74229861 56.72874968 202 89 C201.83564453 90.25296875 201.83564453 90.25296875 201.66796875 91.53125 C196.52101409 137.09895522 212.33444187 182.46703613 240.5625 217.98046875 C245.05109844 223.54086393 249.56333174 229.07866597 254.140625 234.56640625 C278.39303435 263.83505135 294.85107827 292.2940889 291.79785156 331.60253906 C290.36869774 345.74846534 286.86328801 359.34821613 283 373 C358.06743733 371.89573752 358.06743733 371.89573752 424 343 C427.25548142 337.90396371 426.57403833 331.80262846 426 326 C424.62533114 321.5644921 422.9435373 318.62902487 419 316 C415.08292304 316.08334206 413.51130698 316.47449004 410.75 319.3125 C407.9912264 323.54918802 406.82255637 326.60052505 406.16601562 331.6875 C404.7078433 342.33509387 404.7078433 342.33509387 400.5 346.5 C396.4039387 349.35368976 392.60957921 349.97297975 387.67578125 349.59765625 C381.8378725 348.29371459 378.58738238 345.34860439 375.28125 340.45703125 C366.95693737 325.33861052 365.83631562 306.07736285 368.62109375 289.24609375 C372.08266578 277.44597933 379.94761403 268.60503862 390.4453125 262.6015625 C403.0222367 255.94771575 418.8347452 254.37040712 432.5625 258.5625 C446.99441699 264.36376424 457.38074295 273.95507894 464 288 C476.59194075 321.12061991 466.82821233 366.60038012 453.25390625 398.0625 C439.69434768 428.23508248 420.30638125 454.69271487 394 475 C393.46455566 475.41717285 392.92911133 475.8343457 392.37744141 476.26416016 C342.36099018 515 342.36099018 515 320 515 C321.31265108 510.75912727 323.01792983 506.96414035 325 503 C325 502.34 325 501.68 325 501 C324.68289063 501.54527344 324.36578125 502.09054687 324.0390625 502.65234375 C316.2816748 515.18845371 307.41204818 520.49756174 293.58398438 524.28076172 C290.95945062 525.0112867 288.36597508 525.81689568 285.765625 526.62890625 C269.83610323 531.346003 254.08771034 532.10198494 237.60740662 532.73213196 C216.00043454 533.56235462 195.06591283 534.97204822 174.48828125 541.9140625 C168.5534617 543.7616323 162.91926474 544.14899401 156.73486328 544.14526367 C155.52387466 544.15030159 155.52387466 544.15030159 154.28842163 544.15544128 C151.63236939 544.16490263 148.97638052 544.16689192 146.3203125 544.16796875 C144.46475194 544.17118451 142.60919163 544.17454882 140.75363159 544.17805481 C136.86846326 544.18403391 132.98331714 544.18589595 129.09814453 544.18530273 C124.13300337 544.18520114 119.1680053 544.19885569 114.20289803 544.21607494 C110.37148389 544.22722218 106.54010407 544.22922111 102.70867538 544.22869301 C100.87874737 544.22986892 99.04881835 544.23426879 97.2189064 544.24202538 C94.65381235 544.25188106 92.08902534 544.24892543 89.52392578 544.24291992 C88.77665222 544.24853943 88.02937866 544.25415894 87.25946045 544.25994873 C80.15081553 544.21790038 73.8280966 542.26740661 67.07202148 540.19848633 C47.1115514 534.25121141 26.58567972 533.52949337 5.90600586 532.73364258 C-10.25689107 532.0950686 -25.39015117 530.63525707 -41 526.125 C-42.23105469 525.78597656 -43.46210938 525.44695313 -44.73046875 525.09765625 C-58.18512339 521.30497225 -69.3574487 516.79097848 -77.125 504.4375 C-77.74375 503.303125 -78.3625 502.16875 -79 501 C-77.99556858 504.24508611 -76.89698706 507.20602588 -75.375 510.25 C-74 513 -74 513 -74 515 C-109.14759216 503.83619237 -140.48131215 483.30829131 -167 458 C-167.98033203 457.09894531 -167.98033203 457.09894531 -168.98046875 456.1796875 C-200.25609911 426.61270203 -218.73163802 380.33085874 -222 338 C-222.06703125 337.13262207 -222.1340625 336.26524414 -222.203125 335.37158203 C-223.90340969 311.62890477 -223.14833556 291.2225418 -207.41796875 272.07421875 C-199.17997359 263.03447224 -187.51647569 257.36744634 -175.38671875 256.6875 C-161.21334127 256.20211962 -149.4622743 258.12899341 -138 267 C-136.453125 268.0828125 -136.453125 268.0828125 -134.875 269.1875 C-127.30215004 275.76891835 -122.74437358 285.85234381 -121.71704102 295.71704102 C-121.5987473 298.54783721 -121.58338549 301.3546042 -121.625 304.1875 C-121.63515137 305.19272705 -121.64530273 306.1979541 -121.65576172 307.23364258 C-121.93285879 320.6406298 -123.71587328 334.51782612 -132.78125 345.07421875 C-136.41603333 348.26955081 -139.68196765 349.44598302 -144.5 349.8125 C-149.54352799 349.4552501 -152.82512174 348.16128898 -156.42578125 344.58984375 C-158.83122894 340.63249432 -159.34826894 336.43575938 -159.99243164 331.92919922 C-160.78638302 326.48041343 -162.04182034 321.96939263 -166 318 C-168.42840761 316.55147616 -169.64652179 316 -172.5 316 C-176.09375064 317.43750026 -177.14492525 319.68736651 -179 323 C-181.05333778 329.16001334 -181.0322683 336.41932924 -178.625 342.4375 C-151.32897821 369.08361651 -95.01351016 368.5986305 -59.5 371.75 C-58.76917206 371.8151178 -58.03834412 371.8802356 -57.28536987 371.94732666 C-55.20101853 372.13083664 -53.11629474 372.30893455 -51.03125 372.484375 C-49.84080078 372.58459961 -48.65035156 372.68482422 -47.42382812 372.78808594 C-43.93996102 373.00371605 -40.48959261 373.03674427 -37 373 C-37.16604736 372.41323486 -37.33209473 371.82646973 -37.50317383 371.22192383 C-47.25147194 336.39111606 -51.32119776 302.08230186 -33.5 269.1875 C-26.03496246 256.69353451 -17.05348313 245.13783627 -7.47412109 234.20483398 C2.67339306 222.57276985 11.78329755 210.06042158 20 197 C20.69738281 195.8965625 21.39476562 194.793125 22.11328125 193.65625 C44.33339652 156.72339822 50.2831252 111.64619352 40.23071289 70.01953125 C33.69599853 44.73874432 21.04675492 23.29459832 3.1875 4.3984375 C1 2 1 2 0 0 Z M-5.71484375 260.66015625 C-20.95781835 277.13542757 -30.57655549 296.30622195 -36 318 C-36.23460937 318.9384375 -36.46921875 319.876875 -36.7109375 320.84375 C-40.3474622 337.91960513 -40.23679371 357.29529094 -35 374 C-30.30261499 374.87615802 -25.63951607 375.30022812 -20.875 375.5625 C-20.13451416 375.6049585 -19.39402832 375.64741699 -18.63110352 375.69116211 C-12.41827633 376.02472321 -6.22138944 376.10788537 0 376 C-1.33773817 372.41211762 -2.98055629 369.06875281 -4.76708984 365.68457031 C-9.29396728 357.03677549 -12.54094747 348.43798298 -15 339 C-15.24621094 338.06671875 -15.49242187 337.1334375 -15.74609375 336.171875 C-20.86353982 312.03164662 -15.98242809 287.851561 -5.85058594 265.87158203 C-4.82291061 263.61034234 -3.89370424 261.31718161 -3 259 C-4.27805474 258.88407371 -4.27805474 258.88407371 -5.71484375 260.66015625 Z M249 259 C250.16909592 262.03121261 251.44524787 264.99224321 252.8046875 267.94140625 C265.04962678 294.9410255 267.30663212 325.06012493 256.8762207 353.1628418 C254.44941472 359.29965601 251.49590328 365.1173329 248.19921875 370.828125 C246.87600046 373.06911086 246.87600046 373.06911086 246 376 C252.97587752 376.12096897 259.91168097 375.96176767 266.875 375.5625 C267.587771 375.52326416 268.30054199 375.48402832 269.03491211 375.44360352 C273.08075938 375.19646007 277.01555429 374.74318031 281 374 C289.24744991 342.20322771 283.49325451 310.38610925 267.75 281.875 C262.94631697 273.93421785 256.85003309 264.16594684 249 259 Z M-81 429 C-86.42601955 435.45399591 -90.70433818 442.8456179 -93 451 C-92.71943086 453.2706191 -92.71943086 453.2706191 -92 455 C-91.63648438 454.21496094 -91.27296875 453.42992187 -90.8984375 452.62109375 C-84.88603615 440.05671658 -77.61739428 431.66277989 -64.25 426.625 C-51.83289825 422.57255675 -38.30059377 422.5143154 -26.3515625 428.27734375 C-24.83061385 429.12641702 -23.32391509 430.00206335 -21.83984375 430.9140625 C-19.88391512 432.15529744 -19.88391512 432.15529744 -17 433 C-21 433 -21 433 -22.84375 432.51953125 C-33.104855 430.04719979 -44.28271895 432.00189275 -53.27734375 437.35546875 C-55.30155491 438.80466407 -57.14856453 440.33691402 -59 442 C-59.61617187 442.52464844 -60.23234375 443.04929687 -60.8671875 443.58984375 C-65.56601136 447.87525178 -69.03993257 452.90541534 -71 459 C-70.71057884 461.23396416 -70.71057884 461.23396416 -70 463 C-69.67128906 462.35933594 -69.34257812 461.71867187 -69.00390625 461.05859375 C-63.96246163 451.89108877 -58.40017077 446.84778739 -48.375 443.625 C-43.92918357 442.40539737 -39.58937422 441.42691853 -35 441 C-35.45890625 441.4846875 -35.9178125 441.969375 -36.390625 442.46875 C-43.21406317 449.92292615 -47.42973018 457.15597573 -47.27734375 467.43359375 C-46.41260115 475.43550768 -43.06286233 482.68121623 -37 488 C-34.45734637 489.90699022 -31.92546462 491.73493422 -29 493 C-28.34 492.67 -27.68 492.34 -27 492 C-27.9075 491.319375 -28.815 490.63875 -29.75 489.9375 C-34.15878944 486.26872013 -36.92046933 481.68014736 -38 476 C-38.79956226 466.9306795 -38.50367618 459.49892618 -33 452 C-27.09453063 445.08627976 -20.38935417 442.5774308 -11.5 441.625 C-1.68115437 442.67701917 4.07882025 445.96179548 11 453 C12.53105201 448.40684398 10.4646164 445.43734603 8.58203125 441.1328125 C6.26441449 436.54335907 3.40452216 432.8282918 0 429 C-0.54914063 428.32324219 -1.09828125 427.64648438 -1.6640625 426.94921875 C-9.95841823 417.54042316 -23.48855409 411.65735339 -35.89453125 410.69921875 C-53.70366939 410.64595114 -68.58840097 415.70493646 -81 429 Z M243 432 C238.2529249 438.68169996 235.21697948 444.88680346 234 453 C234.4125 452.61328125 234.825 452.2265625 235.25 451.828125 C241.89116464 445.8392176 248.21821619 442.45347324 257.1875 441.75 C265.11769957 442.27001309 271.47123318 444.32252419 277.23828125 449.9375 C283.26306101 456.9909007 284.72481323 463.52289738 284.35546875 472.7265625 C283.40255102 481.50178292 279.29479368 487.03651125 273 493 C278.98194272 491.65406289 282.99735269 488.5050372 287 484 C292.01327538 475.96147223 294.42490296 468.12451478 292.5390625 458.6953125 C290.43944143 451.55660085 286.29063025 446.13317102 281 441 C292.45037067 442.96803246 302.89802579 444.97377145 311 454 C312.88224098 456.90416475 314.49746521 459.88414444 316 463 C317.02308474 460.35600389 317.08221853 459.22699462 316.1015625 456.51953125 C310.28366865 445.85339253 303.37134435 438.55619521 292 434 C290.9275 433.566875 289.855 433.13375 288.75 432.6875 C280.54697815 431.18361266 271.8641673 431.00412674 264 434 C272.86616094 425.99185463 284.22346559 423.51288177 295.88671875 423.75 C307.75475781 424.70301694 319.79236365 429.11644066 328 438 C332.22869459 443.31004476 335.64533221 448.62854597 338 455 C339.83236524 450.16713668 337.55986076 446.64473945 335.5859375 442.16796875 C328.60485413 428.2229968 317.93239699 418.23885439 303.0625 413.125 C280.35335368 406.21161827 258.04300506 414.08832885 243 432 Z M-94 456 C-93 459 -93 459 -93 459 Z M339 456 C340 459 340 459 340 459 Z M-72 463 C-71 465 -71 465 -71 465 Z M317 463 C318 465 318 465 318 465 Z M-82 495 C-81 497 -81 497 -81 497 Z M-57 495 C-52.26713555 505.28883577 -42.77394223 511.85867398 -32.5703125 516.125 C-19.93395731 520.42673794 -6.87096989 521.01326298 6.34765625 521.2109375 C7.76263145 521.23251671 7.76263145 521.23251671 9.20619202 521.25453186 C13.13733258 521.31159909 17.0683525 521.36607573 20.99975586 521.40136719 C37.64978198 521.56284223 54.16011179 522.25552714 69.84765625 528.328125 C72.01962647 529.27911106 72.01962647 529.27911106 74 528 C64.27968681 520.91698109 54.34599181 516.21824939 42.625 513.6875 C41.89555176 513.52813965 41.16610352 513.3687793 40.41455078 513.20458984 C30.24028772 511.2024079 19.81658486 510.99195485 9.4765625 510.7890625 C8.75220001 510.77464615 8.02783752 510.7602298 7.28152466 510.74537659 C4.32510714 510.6888857 1.36886664 510.63386337 -1.58789062 510.59863281 C-22.3074296 510.3329977 -39.57639289 506.9015584 -57 495 Z M302 495 C301.41734375 495.44730469 300.8346875 495.89460938 300.234375 496.35546875 C284.48128012 507.97213777 267.02110197 510.34821791 247.95812988 510.53848267 C244.14844338 510.57991977 240.34000603 510.67390188 236.53125 510.765625 C235.78788391 510.78297195 235.04451782 510.80031891 234.27862549 510.81819153 C214.03671299 511.32549525 189.3172955 512.80482956 173.54296875 527.25 C172.77919922 528.11625 172.77919922 528.11625 172 529 C172.55945313 528.81824219 173.11890625 528.63648438 173.6953125 528.44921875 C187.35955344 524.16541331 200.80706657 521.92305632 215.08984375 521.75390625 C217.02930084 521.72093549 218.96875386 521.68772445 220.90820312 521.65429688 C223.90890432 521.60729295 226.90959306 521.56286898 229.91040039 521.52319336 C239.97709131 521.38410695 249.98550081 521.17873959 260 520.078125 C261.06570473 519.96127098 261.06570473 519.96127098 262.15293884 519.84205627 C277.92567762 517.92096819 291.83935021 511.38790138 301.7890625 498.72265625 C302.18867187 498.15417969 302.58828125 497.58570313 303 497 C302.67 496.34 302.34 495.68 302 495 Z M327 495 C328 497 328 497 328 497 Z M-81 498 C-80 500 -80 500 -80 500 Z M326 498 C327 500 327 500 327 500 Z " fill="#000000" transform="translate(425,132)"/>
<path d="M0 0 C0 167.64 0 335.28 0 508 C-26.78552246 523.45318604 -26.78552246 523.45318604 -36.67041016 529.14624023 C-47.48057983 535.37445297 -58.2638405 541.64503094 -69 548 C-70.0890029 544.68866863 -69.88324839 542.50840855 -69.07421875 539.140625 C-68.74587036 537.72813477 -68.74587036 537.72813477 -68.41088867 536.28710938 C-68.17217041 535.28486328 -67.93345215 534.28261719 -67.6875 533.25 C-62.4566662 509.94426924 -61.01153115 486.07864043 -64.1875 462.3125 C-64.28828857 461.55114746 -64.38907715 460.78979492 -64.49291992 460.00537109 C-65.12294342 455.95709888 -65.96460469 452.11464234 -67.1755228 448.19258308 C-71.75967627 433.08922146 -71.80312635 418.0173368 -71.84419096 402.38153577 C-71.85983795 398.43179534 -71.90367288 394.48233706 -71.94309998 390.53277588 C-72.03156722 381.04012297 -72.07348124 371.54748997 -72.11007437 362.0545184 C-72.1284754 357.56700019 -72.15213187 353.07951009 -72.17527962 348.59201431 C-72.25056233 333.65293292 -72.31466643 318.7138762 -72.34327602 303.77462578 C-72.35078359 299.91566837 -72.35830304 296.056711 -72.3659668 292.19775391 C-72.36786088 291.23884511 -72.36975496 290.27993631 -72.37170643 289.29196967 C-72.40454082 273.73971716 -72.51559037 258.1890596 -72.65942787 242.63747714 C-72.80635832 226.6199188 -72.8850447 210.60316762 -72.89694458 194.58492959 C-72.90524384 185.61088573 -72.94247651 176.63909291 -73.05596733 167.66570663 C-73.15229135 160.03016634 -73.1860824 152.39747419 -73.14059078 144.76140891 C-73.11926412 140.87237737 -73.1259331 136.9891618 -73.21298981 133.10091782 C-73.75521365 107.47249968 -73.75521365 107.47249968 -64.69309813 97.81047451 C-61.63226868 94.96045614 -58.42712149 92.36832045 -55.11888611 89.81293702 C-49.82692165 85.28508712 -46.42693725 78.97847866 -43 73 C-42.13181641 71.49759766 -42.13181641 71.49759766 -41.24609375 69.96484375 C-30.84841631 50.60275268 -29.61953599 30.54596936 -30 9 C-23.94056593 6.5087083 -17.88342454 4.18974562 -11.625 2.25 C-10.59826172 1.91935547 -10.59826172 1.91935547 -9.55078125 1.58203125 C-6.1684903 0.52465485 -3.58321329 0 0 0 Z " fill="#000000" transform="translate(1047,357)"/>
<path d="M0 0 C4.30269383 0.58713485 8.32342772 1.26744025 12.4609375 2.59375 C13.42644531 2.90183594 14.39195313 3.20992188 15.38671875 3.52734375 C16.37285156 3.84832031 17.35898438 4.16929687 18.375 4.5 C19.38433594 4.82097656 20.39367187 5.14195312 21.43359375 5.47265625 C28.86221168 7.86221168 28.86221168 7.86221168 30 9 C30.05084138 10.42487687 30.0354296 11.85221601 29.9921875 13.27734375 C29.40669442 40.78810724 35.01840331 67.82991332 54 89 C55.37536308 90.1399147 56.77826226 91.2472273 58.20353127 92.32409191 C65.42953163 97.9793194 71.00218959 103.34644682 72.56016159 112.69059181 C73.27287388 120.20632195 73.20447842 127.70272722 73.0464108 135.24094927 C72.98260173 139.18870298 73.01836903 143.13581601 73.0411377 147.08384705 C73.07033382 154.79716761 73.00991022 162.50724315 72.91882257 170.21997813 C72.81623837 179.22316499 72.80671728 188.22576079 72.80116828 197.22944316 C72.78837947 213.30901525 72.69627543 229.38713 72.55712891 245.46606445 C72.42258759 261.02507698 72.33750557 276.58324143 72.31103516 292.14282227 C72.30939587 293.10080846 72.30775659 294.05879466 72.30606763 295.04581074 C72.30280624 296.97606188 72.29955542 298.90631304 72.29631523 300.83656422 C72.29471428 301.78902652 72.29311332 302.74148882 72.29146385 303.72281361 C72.289891 304.67305807 72.28831816 305.62330254 72.28669765 306.6023423 C72.26043918 321.48831249 72.19512076 336.37414621 72.12327676 351.25995735 C72.1018014 355.74099007 72.08217247 360.22201556 72.06680632 364.70307374 C72.0343503 374.1200025 71.98846677 383.53646548 71.89923124 392.95304874 C71.86257391 396.84219073 71.83295427 400.73098087 71.82481766 404.62029648 C71.78421393 421.07911279 70.88553279 436.18600485 66 452 C59.61705513 481.02390129 61.46851423 512.9394323 69.51831055 541.41723633 C70.00774369 544.04152079 69.87350713 545.50934904 69 548 C55.27426556 540.09801316 41.55811744 532.180831 27.88671875 524.18505859 C26.99726562 523.66508301 26.1078125 523.14510742 25.19140625 522.609375 C24.31520671 522.07285429 23.43900717 521.53633358 22.53625613 520.98355466 C19.87476224 519.41693099 17.15721544 518.18134068 14.31944674 516.96578759 C1.68732728 511.20620437 1.68732728 511.20620437 -1.09899829 505.91171922 C-2.84518653 499.86249772 -2.46738264 493.62214324 -2.28483582 487.39155579 C-2.293128 485.28661605 -2.30977675 483.18169554 -2.33402997 481.0768792 C-2.37643782 475.30720519 -2.30066975 469.54425607 -2.20524681 463.77543938 C-2.1230847 457.54995063 -2.15096924 451.32483175 -2.16539001 445.09895325 C-2.1753466 434.31732657 -2.11647604 423.53839614 -2.00887108 412.75744057 C-1.89634256 401.45415177 -1.82329829 390.15173571 -1.80266762 378.84789085 C-1.80136156 378.14438283 -1.80005551 377.4408748 -1.79870988 376.71604834 C-1.79228131 373.14310486 -1.78655511 369.57016062 -1.78109924 365.99721553 C-1.74121919 340.70726723 -1.61329011 315.41845754 -1.43334961 290.12915039 C-1.25877147 265.56508427 -1.12422021 241.00133002 -1.04370117 216.43676758 C-1.04120217 215.67923396 -1.03870318 214.92170035 -1.03612845 214.14121117 C-1.011076 206.53356213 -0.98683562 198.92591067 -0.96319013 191.31825714 C-0.91500552 175.8213823 -0.86140174 160.32452776 -0.80451965 144.8276825 C-0.80191114 144.11520431 -0.79930263 143.40272613 -0.79661508 142.6686577 C-0.62188047 95.11195467 -0.32043488 47.55592113 0 0 Z " fill="#000000" transform="translate(49,357)"/>
<path d="M0 0 C7.48581755 3.54819098 14.64049273 7.47251844 21.75390625 11.70385742 C28.28325394 15.58771789 34.85392177 19.39634789 41.4375 23.1875 C42.54367676 23.82486084 43.64985352 24.46222168 44.78955078 25.11889648 C47.06123665 26.42762416 49.33304755 27.73613484 51.60498047 29.04443359 C57.07169981 32.19332054 62.53574242 35.3468438 68 38.5 C70.14191627 39.73569583 72.2838434 40.97137283 74.42578125 42.20703125 C78.40462432 44.50249458 82.38330773 46.79823414 86.36178589 49.09432983 C88.15066918 50.12673478 89.93958717 51.15907956 91.72851562 52.19140625 C93.97337636 53.48685948 96.2181719 54.7824257 98.46289062 56.078125 C100.44780366 57.22350919 102.43571049 58.36372852 104.42724609 59.49755859 C106.00208438 60.41723546 107.5581982 61.3713009 109.07666016 62.38134766 C111.84961334 64.19638534 113.42415824 65.07564023 116.765625 64.63671875 C121.54560096 62.21786618 126.15026471 59.5567577 130.75 56.8125 C132.91367549 55.53580222 135.07775166 54.25978329 137.2421875 52.984375 C138.35819336 52.32501953 139.47419922 51.66566406 140.62402344 50.98632812 C146.0212633 47.81074644 151.44764 44.6862344 156.875 41.5625 C159.05991376 40.30341652 161.24480949 39.04430177 163.4296875 37.78515625 C164.51475586 37.16012207 165.59982422 36.53508789 166.71777344 35.89111328 C171.06581585 33.38591122 175.41240665 30.87819788 179.75878906 28.37011719 C181.9089632 27.12950753 184.05935174 25.88926938 186.20996094 24.64941406 C191.25521512 21.74039732 196.29872706 18.82848595 201.33599854 15.90567017 C203.11680001 14.8725706 204.89815858 13.84043829 206.6796875 12.80859375 C208.91257083 11.51493912 211.1444091 10.21947836 213.375 8.921875 C218.83882404 5.75897431 224.31511068 2.74701486 230 0 C230.80179688 0.73863281 231.60359375 1.47726562 232.4296875 2.23828125 C252.38743218 20.21070055 277.41107314 33.29829952 304 38 C304 38.66 304 39.32 304 40 C303.27748047 40.41137207 302.55496094 40.82274414 301.81054688 41.24658203 C288.14961858 49.02847849 274.50963683 56.84142316 260.93896484 64.7800293 C250.41304776 70.93536851 239.84815833 77.02257111 229.28222656 83.10888672 C223.85340058 86.23680148 218.42680719 89.36858448 213 92.5 C210.83334417 93.75001879 208.6666775 95.00001878 206.5 96.25 C205.4275 96.86875 204.355 97.4875 203.25 98.125 C167.5 118.75 167.5 118.75 164.24487305 120.62792969 C162.09526366 121.86810761 159.94568642 123.10834127 157.79614258 124.34863281 C152.72690788 127.2735023 147.65735064 130.19780833 142.5866394 133.12011719 C140.19573403 134.49806938 137.80501328 135.87634172 135.41430664 137.25463867 C133.73016037 138.22540982 132.04574769 139.19571874 130.36132812 140.16601562 C129.33845703 140.75576172 128.31558594 141.34550781 127.26171875 141.953125 C125.91533325 142.72897949 125.91533325 142.72897949 124.54174805 143.52050781 C121.96446862 144.96792215 121.96446862 144.96792215 119.54614258 146.75292969 C116.20057367 148.3915495 114.54473631 148.0084064 111 147 C108.52832031 145.83935547 108.52832031 145.83935547 106.078125 144.3671875 C104.68424561 143.54069702 104.68424561 143.54069702 103.26220703 142.69750977 C102.26817871 142.09608154 101.27415039 141.49465332 100.25 140.875 C98.08639879 139.58906731 95.92231998 138.3039379 93.7578125 137.01953125 C92.64180664 136.3538916 91.52580078 135.68825195 90.37597656 135.00244141 C84.98746899 131.80627861 79.55647405 128.68489786 74.125 125.5625 C71.94001564 124.30353904 69.75512028 123.04442362 67.5703125 121.78515625 C66.48524414 121.16012207 65.40017578 120.53508789 64.28222656 119.89111328 C58.85340058 116.76319852 53.42680719 113.63141552 48 110.5 C45.83334417 109.24998121 43.6666775 107.99998122 41.5 106.75 C19.83333333 94.25 -1.83333333 81.75 -23.5 69.25 C-24.57419189 68.6302832 -25.64838379 68.01056641 -26.75512695 67.37207031 C-28.90473634 66.13189239 -31.05431358 64.89165873 -33.20385742 63.65136719 C-38.27309212 60.7264977 -43.34264936 57.80219167 -48.4133606 54.87988281 C-50.80426597 53.50193062 -53.19498672 52.12365828 -55.58569336 50.74536133 C-57.26983963 49.77459018 -58.95425231 48.80428126 -60.63867188 47.83398438 C-62.17297852 46.94936523 -62.17297852 46.94936523 -63.73828125 46.046875 C-65.08466675 45.27102051 -65.08466675 45.27102051 -66.45825195 44.47949219 C-67.29702881 43.99125977 -68.13580566 43.50302734 -69 43 C-69.93352295 42.4834082 -70.8670459 41.96681641 -71.82885742 41.43457031 C-72.54533447 40.96116211 -73.26181152 40.48775391 -74 40 C-74 39.34 -74 38.68 -74 38 C-72.20369141 37.56300781 -72.20369141 37.56300781 -70.37109375 37.1171875 C-43.05981573 30.31334505 -21.34413955 18.17790593 0 0 Z " fill="#000000" transform="translate(433,1004)"/>
<path d="M0 0 C0 4.41352404 -2.8746381 6.2739947 -5.8125 9.25 C-16.39422657 20.32609138 -24.89552509 32.43965405 -32 46 C-32.30921387 46.58185059 -32.61842773 47.16370117 -32.93701172 47.76318359 C-46.11367238 72.86978479 -48.92608614 102.23401814 -41.00390625 129.41796875 C-36.29115131 143.84976155 -29.13121932 156.71040171 -19 168 C-18.42378906 168.72960937 -17.84757813 169.45921875 -17.25390625 170.2109375 C0.60595167 192.2473769 30.35512064 204.83958667 58 208 C89.83996 210.35710424 121.08622807 201.30286489 146 181 C146.52819336 180.57041992 147.05638672 180.14083984 147.60058594 179.69824219 C167.04781944 163.79497444 181.59512199 144.72715816 194 123 C194.98419922 121.2984375 194.98419922 121.2984375 195.98828125 119.5625 C201.86772215 109.12910076 206.28802103 98.08253892 210.77880859 86.99853516 C212.82036615 81.98565832 214.91082026 76.99317819 217 72 C218.49944489 74.99888979 217.39069353 76.83821992 216.48046875 80.02734375 C216.12291504 81.28087646 215.76536133 82.53440918 215.39697266 83.82592773 C214.99503013 85.19680865 214.59184044 86.56732443 214.1875 87.9375 C213.98437195 88.63094513 213.7812439 89.32439026 213.57196045 90.03884888 C195.86217323 150.24745723 165.34453956 212.96579997 108.38378906 244.7355957 C95.02720972 251.88681147 80.83710624 257.01055124 66 260 C64.43958984 260.33644531 64.43958984 260.33644531 62.84765625 260.6796875 C28.08244434 266.95375541 -10.73641919 258.91668249 -40 239 C-71.25792908 216.0916363 -91.4354388 184.30613144 -98.11328125 146.01171875 C-99.17069859 138.79787553 -99.33765718 131.64505894 -99.31567383 124.37182617 C-99.31251794 122.1998443 -99.33606591 120.02923652 -99.36132812 117.85742188 C-99.50091659 87.02034899 -87.22311667 58.0135064 -65.87890625 35.84765625 C-47.61704248 17.48623887 -24.56796951 7.01548961 0 0 Z " fill="#000000" transform="translate(726,775)"/>
<path d="M0 0 C35.48960777 9.53124367 67.08063283 28.35692466 85.8125 60.8125 C96.26928873 79.66317356 100.23317247 100.0003271 100.25 121.375 C100.25067474 122.14077362 100.25134949 122.90654724 100.25204468 123.69552612 C100.23651796 134.76346292 99.85519977 145.24694926 97 156 C96.83371094 156.6712793 96.66742188 157.34255859 96.49609375 158.03417969 C90.4802559 182.15323329 78.74645355 202.77265152 62 221 C61.34773438 221.73476563 60.69546875 222.46953125 60.0234375 223.2265625 C40.55012706 244.07244108 11.87551553 256.78625928 -16 261 C-17.79244141 261.27457031 -17.79244141 261.27457031 -19.62109375 261.5546875 C-58.62376169 266.23276666 -97.48543575 255.00172337 -128.29589844 230.86499023 C-150.42149362 213.08622352 -167.08778844 191.64475547 -181 167 C-181.46792969 166.1740332 -181.93585938 165.34806641 -182.41796875 164.49707031 C-198.25096544 136.23494947 -210.73698183 103.87595817 -217 72 C-214.417576 73.291212 -214.38727681 74.16684185 -213.44140625 76.84765625 C-213.14379395 77.6684668 -212.84618164 78.48927734 -212.53955078 79.33496094 C-212.05591064 80.68509277 -212.05591064 80.68509277 -211.5625 82.0625 C-193.59603208 130.52589552 -164.7538889 175.67885103 -116.58764648 198.19848633 C-87.78063417 211.10441473 -55.8430957 211.29007558 -26.3046875 200.62768555 C-13.19572907 195.54023482 -1.45401928 188.36721529 9 179 C9.73992187 178.41347656 10.47984375 177.82695313 11.2421875 177.22265625 C30.7864859 161.32987267 42.65121853 135.55773081 46 111 C48.62880252 76.38791657 37.0041775 44.54010413 14.61328125 18.19140625 C12.4380724 15.76506972 10.22877865 13.37708924 8 11 C6.65880562 9.52795739 5.32486173 8.04925929 4 6.5625 C3.443125 5.94503906 2.88625 5.32757812 2.3125 4.69140625 C1 3 1 3 0 0 Z " fill="#000000" transform="translate(369,775)"/>
<path d="M0 0 C1.14444145 3.43332434 0.88967754 3.9404298 -0.40625 7.15625 C-0.73463867 7.99969971 -1.06302734 8.84314941 -1.40136719 9.7121582 C-1.94519043 11.09213989 -1.94519043 11.09213989 -2.5 12.5 C-10.36974351 33.37079596 -15.14655423 54.90455459 -18 77 C-18.1023999 77.74822021 -18.2047998 78.49644043 -18.31030273 79.26733398 C-21.63535806 106.97015339 -18.95485889 135.52574691 -15 163 C-14.68047465 165.23811468 -14.36097787 167.47623345 -14.04150391 169.71435547 C-12.62660615 179.59425788 -11.20135078 189.4724985 -9.73046875 199.34423828 C-9.55831345 200.50254654 -9.38615814 201.6608548 -9.20878601 202.85426331 C-8.88495677 205.02820211 -8.55910537 207.20184111 -8.23078918 209.37510681 C-6.81936597 218.84929658 -5.84871621 228.17560558 -5.76171875 237.7578125 C-5.74702797 239.10472672 -5.74702797 239.10472672 -5.73204041 240.47885132 C-5.40717625 277.94274421 -5.40717625 277.94274421 -10 296 C-10.19835449 296.81017578 -10.39670898 297.62035156 -10.60107422 298.45507812 C-18.03323623 327.9472214 -31.01073927 357.41844537 -49 382 C-49.62310059 382.86214111 -49.62310059 382.86214111 -50.25878906 383.74169922 C-69.03754715 409.47475712 -94.00280662 428.86890878 -125.6875 435.3125 C-152.75558519 439.10130331 -179.07782662 432.73490825 -201.25 416.625 C-218.32030561 403.29582436 -232.04623344 384.95232266 -235 363 C-231.54206548 365.94555159 -228.09688975 368.9014497 -224.7109375 371.9296875 C-207.07556822 387.5863521 -185.70414094 400.22312326 -161.36328125 398.78515625 C-136.86671554 396.14164197 -116.78731526 381.69853083 -101.39746094 363.05908203 C-72.61371142 326.63370569 -58.59003905 280.52453111 -53 235 C-52.90949875 234.28787354 -52.8189975 233.57574707 -52.72575378 232.84204102 C-51.78221943 224.1928009 -51.90043292 215.55946403 -51.95540047 206.87233734 C-51.97304323 203.98351018 -51.9831713 201.09474032 -51.99131775 198.20587158 C-52.01553165 189.99819525 -52.05083094 181.79059549 -52.09594727 173.58300781 C-52.39357063 117.43086421 -52.39357063 117.43086421 -46 91 C-45.82629883 90.28183105 -45.65259766 89.56366211 -45.47363281 88.82373047 C-37.49522872 56.9764779 -19.96231165 25.81738135 0 0 Z " fill="#000000" transform="translate(938,526)"/>
<path d="M0 0 C4.92794346 4.4101858 8.19502596 9.60711823 11.6875 15.1875 C12.30326904 16.16565674 12.91903809 17.14381348 13.5534668 18.15161133 C39.7671338 60.13099973 53.42421047 101.68239221 53.01403427 151.48945236 C52.99155575 154.35394237 52.97777314 157.21836186 52.96633911 160.08291626 C52.93319285 168.21732031 52.89179809 176.35160947 52.82861328 184.48583984 C52.49605191 216.86152785 52.49605191 216.86152785 56 249 C56.19899902 250.26779297 56.39799805 251.53558594 56.60302734 252.84179688 C57.09057726 255.76621073 57.64152915 258.66116812 58.25 261.5625 C58.56578003 263.08907227 58.56578003 263.08907227 58.88793945 264.64648438 C65.63379302 296.16435507 76.94752175 327.73453763 96 354 C97.11955078 355.56427734 97.11955078 355.56427734 98.26171875 357.16015625 C113.28008463 377.68188 133.07050461 394.24106633 158.859375 398.46875 C180.2790862 400.96204972 200.64144221 392.00983673 217.19775391 379.015625 C223.40473829 373.98679143 229.21874919 368.50685429 235 363 C236.29078064 366.87234193 235.21731627 369.30091219 233.9375 373 C233.70635498 373.67208496 233.47520996 374.34416992 233.23706055 375.03662109 C224.85594963 398.58902987 206.65673138 416.6657417 184.375 427.375 C159.24533545 438.26349602 132.21878347 439.32707202 106.65844727 429.39941406 C92.20908185 423.52158475 80.28415543 414.67420108 69 404 C68.19949219 403.26394531 67.39898437 402.52789063 66.57421875 401.76953125 C54.82965099 390.58690453 45.8859627 377.08010328 38 363 C37.61134766 362.32227539 37.22269531 361.64455078 36.82226562 360.94628906 C25.33460477 340.81050994 16.51486718 318.52538766 11 296 C10.79262207 295.18466797 10.58524414 294.36933594 10.37158203 293.52929688 C2.36307061 260.53296367 6.48502009 224.65129684 11.61346436 191.52050781 C12.43672721 186.15220479 13.214814 180.77712741 13.99981689 175.40312195 C14.63621473 171.05049569 15.27866306 166.69915841 15.94384766 162.35083008 C18.71039917 144.13790089 20.39175644 126.18244266 20.3125 107.75 C20.31067719 106.85991241 20.30885437 105.96982483 20.30697632 105.05276489 C20.25822137 90.84474797 19.55672959 77.00413403 17 63 C16.83371094 62.04528809 16.66742188 61.09057617 16.49609375 60.10693359 C13.16657023 41.35370065 8.24671864 22.59049014 0.73657227 5.05419922 C0 3 0 3 0 0 Z " fill="#000000" transform="translate(157,526)"/>
<path d="M0 0 C2.47167969 1.16064453 2.47167969 1.16064453 4.921875 2.6328125 C6.31575439 3.45930298 6.31575439 3.45930298 7.73779297 4.30249023 C8.73182129 4.90391846 9.72584961 5.50534668 10.75 6.125 C12.91360121 7.41093269 15.07768002 8.6960621 17.2421875 9.98046875 C18.35819336 10.6461084 19.47419922 11.31174805 20.62402344 11.99755859 C26.01253101 15.19372139 31.44352595 18.31510214 36.875 21.4375 C39.05998436 22.69646096 41.24487972 23.95557638 43.4296875 25.21484375 C44.51475586 25.83987793 45.59982422 26.46491211 46.71777344 27.10888672 C53.22729589 30.85946399 59.7339478 34.61501989 66.24072266 38.37036133 C71.70534663 41.52385162 77.17147902 44.6746704 82.640625 47.8203125 C89.09968275 51.53665846 95.55261703 55.26343722 102 59 C103.07588379 59.62310059 104.15176758 60.24620117 105.26025391 60.88818359 C108.36471984 62.69000416 111.46440003 64.49976027 114.5625 66.3125 C115.97354004 67.13065186 115.97354004 67.13065186 117.41308594 67.96533203 C118.69554199 68.71919189 118.69554199 68.71919189 120.00390625 69.48828125 C120.75486572 69.92696533 121.5058252 70.36564941 122.27954102 70.81762695 C124 72 124 72 125 74 C124.45287354 74.1952124 123.90574707 74.3904248 123.34204102 74.59155273 C99.36546059 83.22632624 79.75096954 94.15546821 61.1953125 111.70703125 C59.625 113.125 59.625 113.125 57 115 C53.60812784 114.60398326 50.92738332 112.98998384 47.984375 111.33203125 C46.99163574 110.77499512 45.99889648 110.21795898 44.97607422 109.64404297 C43.91146973 109.03963379 42.84686523 108.43522461 41.75 107.8125 C40.65059082 107.19262207 39.55118164 106.57274414 38.41845703 105.93408203 C28.57742231 100.36773362 18.80526365 94.68413837 9.0546875 88.9609375 C8.1790918 88.45401367 7.30349609 87.94708984 6.40136719 87.42480469 C4.90462052 86.53673905 3.42661552 85.61524708 1.98144531 84.64550781 C-0.80280448 82.82333886 -2.41147999 81.92269441 -5.765625 82.36328125 C-10.54558116 84.7821238 -15.15039414 87.44304983 -19.75 90.1875 C-21.88367931 91.44735205 -24.01781096 92.70643827 -26.15234375 93.96484375 C-27.26464355 94.62210449 -28.37694336 95.27936523 -29.52294922 95.95654297 C-36.55017152 100.09671804 -43.63526088 104.13825792 -50.70800781 108.19995117 C-51.74924805 108.79912354 -52.79048828 109.3982959 -53.86328125 110.015625 C-55.24447144 110.80888184 -55.24447144 110.80888184 -56.65356445 111.61816406 C-58.47062767 112.68824811 -60.24541946 113.83027964 -62 115 C-66.00832333 114.78423104 -68.04502297 112.32020804 -70.8125 109.625 C-86.49037954 94.90579168 -104.86215355 84.36039502 -125 77 C-126.64596301 76.3753416 -128.29182412 75.75041448 -129.9375 75.125 C-131.4534375 74.568125 -131.4534375 74.568125 -133 74 C-130.07370751 70.82559186 -127.15654511 68.7465497 -123.3984375 66.63671875 C-122.28178711 66.00491699 -121.16513672 65.37311523 -120.01464844 64.72216797 C-119.42228394 64.3910199 -118.82991943 64.05987183 -118.21960449 63.71868896 C-116.34132225 62.66867313 -114.46750725 61.61106341 -112.59472656 60.55126953 C-110.00086572 59.08365143 -107.405637 57.61849729 -104.80957031 56.15478516 C-99.10181743 52.9317129 -93.42537661 49.65470121 -87.75 46.375 C-86.14560059 45.44905029 -86.14560059 45.44905029 -84.50878906 44.50439453 C-76.3876758 39.81326314 -68.28954833 35.08336284 -60.1940918 30.34814453 C-54.76723711 27.17969252 -49.32796366 24.0343564 -43.87109375 20.91796875 C-43.26786285 20.5734668 -42.66463196 20.22896484 -42.04312134 19.87402344 C-39.02386794 18.15106597 -36.00254419 16.4318476 -32.97851562 14.71728516 C-27.82743991 11.79228581 -22.69851594 8.84696994 -17.66015625 5.73046875 C-16.88019287 5.2519043 -16.10022949 4.77333984 -15.29663086 4.28027344 C-13.90416241 3.41927552 -12.519931 2.54472412 -11.14672852 1.65332031 C-6.91471588 -0.95569483 -4.76364568 -1.16783974 0 0 Z " fill="#000000" transform="translate(552,1)"/>
<path d="M0 0 C1.28205322 -0.01015137 2.56410645 -0.02030273 3.88500977 -0.03076172 C31.56060397 0.22078628 57.71850798 11.14669479 78.3125 29.4375 C79.20195313 30.22640625 80.09140625 31.0153125 81.0078125 31.828125 C103.64338151 53.25740977 114.87714818 82.64426611 116.5234375 113.375 C116.590185 119.14198365 116.20591843 124.74195753 115.3125 130.4375 C114.9825 130.4375 114.6525 130.4375 114.3125 130.4375 C114.21545776 129.60895508 114.21545776 129.60895508 114.11645508 128.76367188 C110.37387732 97.74364542 99.58529311 70.56742444 74.328125 50.6015625 C52.03552854 34.60402566 25.04163646 27.25987693 -2.2043457 31.20703125 C-28.40842941 35.62546158 -52.52846351 50.00953315 -68.0546875 71.6796875 C-78.9815536 87.56833587 -85.88306139 106.06102208 -86.6875 125.4375 C-86.72746094 126.11039062 -86.76742187 126.78328125 -86.80859375 127.4765625 C-87.57682411 151.60803376 -78.98436159 176.92444894 -62.9453125 195.03125 C-62.20023438 195.8253125 -61.45515625 196.619375 -60.6875 197.4375 C-59.94242188 198.2728125 -59.19734375 199.108125 -58.4296875 199.96875 C-40.75018961 218.87355963 -16.89561949 227.48554764 8.3125 230.4375 C8.3125 230.7675 8.3125 231.0975 8.3125 231.4375 C-6.22134703 231.91863066 -19.72035668 231.74244143 -33.6875 227.4375 C-34.7069873 227.12401611 -34.7069873 227.12401611 -35.74707031 226.80419922 C-50.51422354 222.09015102 -64.03410705 214.67654953 -75.6875 204.4375 C-76.49316406 203.77492188 -77.29882812 203.11234375 -78.12890625 202.4296875 C-94.35997831 188.6624871 -105.53928087 169.67874569 -111.6875 149.4375 C-111.89777832 148.74946289 -112.10805664 148.06142578 -112.32470703 147.35253906 C-118.3181635 126.69101138 -117.96680478 102.98357772 -111.6875 82.4375 C-111.47851074 81.74946289 -111.26952148 81.06142578 -111.05419922 80.35253906 C-106.39432554 65.60150821 -98.8990213 52.05956218 -88.6875 40.4375 C-88.02492188 39.63183594 -87.36234375 38.82617188 -86.6796875 37.99609375 C-72.84268119 21.68272284 -53.94655103 10.76144445 -33.6875 4.4375 C-33.04248535 4.22722168 -32.3974707 4.01694336 -31.73291016 3.80029297 C-21.29666024 0.52225675 -10.87383785 0.04915354 0 0 Z " fill="#000000" transform="translate(751.6875,124.5625)"/>
<path d="M0 0 C0.66950684 0.20898926 1.33901367 0.41797852 2.02880859 0.63330078 C16.81190608 5.3445529 30.33457051 12.75037477 42 23 C42.80566406 23.66257813 43.61132812 24.32515625 44.44140625 25.0078125 C60.67247831 38.7750129 71.85178087 57.75875431 78 78 C78.21027832 78.68803711 78.42055664 79.37607422 78.63720703 80.08496094 C84.6306635 100.74648862 84.27930478 124.45392228 78 145 C77.79101074 145.68803711 77.58202148 146.37607422 77.36669922 147.08496094 C72.70682554 161.83599179 65.2115213 175.37793782 55 187 C54.33742188 187.80566406 53.67484375 188.61132812 52.9921875 189.44140625 C39.19475708 205.7081185 20.24952828 216.77343808 0 223 C-0.68223633 223.21027832 -1.36447266 223.42055664 -2.06738281 223.63720703 C-15.28963159 227.52628486 -28.31200506 227.45312945 -42 227 C-42 226.67 -42 226.34 -42 226 C-40.80246094 225.84144531 -39.60492188 225.68289063 -38.37109375 225.51953125 C-10.20007536 221.57779954 13.49681976 209.91763133 31.92578125 187.67578125 C48.75998821 164.88187804 55.75486437 137.9529381 51.6796875 109.95703125 C49.55056106 97.08434546 45.30583971 86.3086163 39 75 C38.45472656 74.01128906 37.90945313 73.02257812 37.34765625 72.00390625 C24.33915259 50.08982551 2.35275327 35.52020672 -21.91015625 28.7421875 C-48.67094294 22.31418564 -74.96164599 26.60135004 -98.8359375 40.01953125 C-123.18303283 55.25900944 -138.48204337 77.48269949 -145.03515625 105.3046875 C-146.51584473 112.14060378 -147.35689604 119.04103923 -148 126 C-148.33 126 -148.66 126 -149 126 C-153.26760551 98.79401486 -145.95369284 69.54578564 -130.8046875 46.6875 C-111.57597792 20.42389667 -85.14986742 1.75234675 -52.67553711 -3.54199219 C-35.52763968 -5.67878764 -16.4847017 -5.37410335 0 0 Z " fill="#000000" transform="translate(378,129)"/>
<path d="M0 0 C0.62036133 0.29600098 1.24072266 0.59200195 1.87988281 0.89697266 C16.5285368 7.94706588 29.27144464 17.794502 41 29 C41.78246094 29.70769531 42.56492187 30.41539062 43.37109375 31.14453125 C64.5973951 51.08027348 78.04409113 79.05879985 85 107 C85.48146484 108.88332031 85.48146484 108.88332031 85.97265625 110.8046875 C94.11697769 147.27037629 86.89091092 187.66350705 69 220 C68.67966797 220.58700684 68.35933594 221.17401367 68.02929688 221.77880859 C65.1158927 227.08664813 62.46240976 231.84801875 58 236 C58.57177164 232.38337213 59.65216136 229.1763891 61.01879883 225.78540039 C63.68775203 219.15119219 65.77703782 212.54874288 67.3125 205.5625 C67.47145752 204.84231689 67.63041504 204.12213379 67.79418945 203.38012695 C74.63688428 170.6187035 67.56991465 134.96654384 49.4453125 106.90625 C44.57745631 99.75853573 38.97565798 93.24147906 33 87 C32.31679688 86.25363281 31.63359375 85.50726562 30.9296875 84.73828125 C9.16083544 61.72434725 -23.37038688 48.98724479 -54.67578125 47.71875 C-81.89251049 47.0684127 -109.11077091 53.54396301 -131.66064453 69.24316406 C-133.07216078 70.21491775 -134.53241551 71.11519544 -136 72 C-136.66 71.67 -137.32 71.34 -138 71 C-116.94350813 45.27227273 -84.37232457 28.01603816 -51.34765625 24.19897461 C-46.07594223 23.75217272 -40.78629284 23.61467795 -35.5 23.4375 C-34.29601562 23.39431641 -33.09203125 23.35113281 -31.8515625 23.30664062 C-28.90113807 23.20126832 -25.95063929 23.09914097 -23 23 C-39.59081787 1.39443031 -60.86434016 -8.39726573 -87 -14 C-87 -14.33 -87 -14.66 -87 -15 C-58.69955842 -21.25902287 -25.43729596 -12.45326148 0 0 Z " fill="#000000" transform="translate(426,717)"/>
<path d="M0 0 C1.5149707 -0.00580078 1.5149707 -0.00580078 3.06054688 -0.01171875 C4.03701172 -0.01042969 5.01347656 -0.00914062 6.01953125 -0.0078125 C7.33014526 -0.00612061 7.33014526 -0.00612061 8.66723633 -0.00439453 C11.25964785 0.12870419 13.65846193 0.55378965 16.1875 1.125 C13.13189378 2.93165663 10.11579987 3.62807668 6.65478516 4.31542969 C-8.14100047 7.29939733 -21.12093286 13.54683388 -32.8125 23.125 C-33.90111328 23.98738281 -33.90111328 23.98738281 -35.01171875 24.8671875 C-38.66854831 27.89016661 -41.66578777 31.07398339 -44.546875 34.84765625 C-45.16272461 35.65082275 -45.77857422 36.45398926 -46.41308594 37.28149414 C-46.87489258 37.88985107 -47.33669922 38.49820801 -47.8125 39.125 C-47.11390869 39.13958252 -46.41531738 39.15416504 -45.69555664 39.16918945 C-9.542555 40.00940457 24.24301431 47.81329745 52.1875 72.125 C53.50234375 73.25808594 53.50234375 73.25808594 54.84375 74.4140625 C59.36623462 78.39118868 63.51358228 82.34890696 67.1875 87.125 C63.19781342 87.125 60.92852657 85.21462037 57.6875 83.125 C29.28186574 65.58997007 -5.69445319 59.37978729 -38.40722656 66.54296875 C-62.76584374 72.43729918 -83.61957874 83.93950435 -101.8125 101.125 C-102.56273437 101.81078125 -103.31296875 102.4965625 -104.0859375 103.203125 C-126.71120491 124.63758887 -139.97472118 157.67034984 -141.015625 188.61328125 C-141.33067291 208.01180434 -138.71132105 227.74993408 -130.4375 245.5 C-128.8125 249.125 -128.8125 249.125 -129.8125 252.125 C-146.37765651 227.58402739 -158.82482569 199.29639145 -159.015625 169.19921875 C-159.02268463 168.45855667 -159.02974426 167.71789459 -159.03701782 166.95478821 C-159.26382785 136.17368607 -159.26382785 136.17368607 -155.8125 123.125 C-155.61382324 122.34382812 -155.41514648 121.56265625 -155.21044922 120.7578125 C-147.99156846 92.98539932 -134.53275032 68.98942867 -114.8125 48.125 C-113.71035156 46.92617188 -113.71035156 46.92617188 -112.5859375 45.703125 C-101.14269165 33.68580327 -87.4973518 24.67678601 -72.8125 17.125 C-72.20615723 16.80692383 -71.59981445 16.48884766 -70.97509766 16.16113281 C-49.13774575 4.81874704 -24.4785815 -0.09555725 0 0 Z " fill="#000000" transform="translate(740.8125,700.875)"/>
<path d="M0 0 C12.97545631 12.02392285 19.65797415 30.1175672 20.35009766 47.48266602 C20.62864018 65.75630277 14.49436246 82.84461985 2.453125 96.72265625 C-5.89541849 105.14922351 -17.09412513 113.34368939 -29.0546875 115.25390625 C-28.67957031 114.76921875 -28.30445313 114.28453125 -27.91796875 113.78515625 C-26.2701368 111.62678695 -24.65724555 109.44608471 -23.0546875 107.25390625 C-22.590625 106.63 -22.1265625 106.00609375 -21.6484375 105.36328125 C-16.41507213 97.76851931 -14.18329477 88.40352992 -15.0546875 79.25390625 C-17.3380907 67.39437027 -22.17400604 59.34127621 -31.0546875 51.25390625 C-30.51205733 52.88179675 -29.95141399 54.50593641 -29.30078125 56.09375 C-26.87047725 62.39845168 -26.27725044 68.52958054 -27.0546875 75.25390625 C-27.7146875 76.24390625 -28.3746875 77.23390625 -29.0546875 78.25390625 C-29.395 77.52945313 -29.7353125 76.805 -30.0859375 76.05859375 C-34.25900943 67.73464709 -38.5902679 62.88175773 -47.2421875 59.31640625 C-54.51978613 57.20111807 -62.81301459 57.87966302 -69.6796875 61.06640625 C-73.72331775 63.41596825 -75.57359524 65.81062947 -77.0546875 70.25390625 C-77.84082083 78.99907932 -76.30716718 87.02842599 -74.23370361 95.49578857 C-73.56468761 98.22909238 -72.92556204 100.96911731 -72.28497314 103.709198 C-71.96991807 105.05630569 -71.65349333 106.40309386 -71.33563232 107.74954224 C-69.65631655 114.87916439 -68.23136184 122.02441911 -67.0546875 129.25390625 C-66.85939453 130.39859375 -66.85939453 130.39859375 -66.66015625 131.56640625 C-63.15264096 156.25931388 -68.44079887 181.50675823 -82.96484375 201.94140625 C-84.93065234 204.44263388 -86.96403758 206.85626499 -89.0546875 209.25390625 C-89.78945313 210.12144531 -90.52421875 210.98898437 -91.28125 211.8828125 C-95.7779516 217.06715404 -100.34861053 221.42912441 -106.0546875 225.25390625 C-104.73845961 221.47057784 -103.1448961 218.9835143 -100.4921875 216.00390625 C-87.74999102 200.40690073 -80.53635271 180.4627284 -82.0546875 160.25390625 C-83.74377459 147.6393095 -87.13837609 135.95972855 -92.0546875 124.25390625 C-93.55979984 120.66475124 -95.06459917 117.07548583 -96.56445312 113.48413086 C-97.61130356 110.97821488 -98.67160489 108.47953419 -99.74023438 105.98266602 C-107.16255876 88.38105102 -112.52831947 70.93916218 -106.0546875 52.25390625 C-102.51563581 43.97343273 -97.38050216 37.59057136 -91.0546875 31.25390625 C-90.41660156 30.60421875 -89.77851562 29.95453125 -89.12109375 29.28515625 C-77.92033461 18.66655714 -63.42847015 14.75507882 -48.34643555 14.90014648 C-37.64255585 15.23783484 -28.58093881 18.50953306 -19.0546875 23.25390625 C-28.5049786 5.38332853 -40.08679107 -6.77248666 -59.8671875 -12.93359375 C-70.88652396 -15.33663176 -81.04846524 -14.43613549 -92.0546875 -12.74609375 C-91.7246875 -13.40609375 -91.3946875 -14.06609375 -91.0546875 -14.74609375 C-88.21674184 -15.53606812 -85.43292047 -16.20590643 -82.5546875 -16.80859375 C-81.77609375 -16.98197266 -80.9975 -17.15535156 -80.1953125 -17.33398438 C-50.91795458 -23.65963869 -23.09617988 -19.62736199 0 0 Z " fill="#000000" transform="translate(1076.0546875,232.74609375)"/>
<path d="M0 0 C0.82072998 0.11754639 1.64145996 0.23509277 2.48706055 0.35620117 C7.791902 1.20361128 12.46447772 2.65385858 17.4375 4.6875 C14.7532961 6.02960195 12.76139718 5.39465527 9.87744141 4.96142578 C-6.73486599 2.48020319 -21.74935981 5.95501892 -35.5625 15.6875 C-44.93244489 22.73278581 -50.49782716 31.22895058 -55.5625 41.6875 C-54.90765625 41.36136719 -54.2528125 41.03523438 -53.578125 40.69921875 C-38.61531176 33.53482089 -22.55879072 30.87994351 -6.39453125 35.65625 C3.54501891 39.27561723 11.01125594 44.17069198 18.4375 51.6875 C19.07429688 52.30238281 19.71109375 52.91726563 20.3671875 53.55078125 C29.23130923 62.7497698 34.27158833 75.21549126 34.75 87.875 C34.31667904 104.40961552 27.29824313 119.74068396 20.8671875 134.703125 C10.45096212 158.97207635 2.6248833 182.74832757 11.5390625 208.921875 C12.73674267 211.90448497 14.03717897 214.79483685 15.4375 217.6875 C15.86804688 218.58855469 16.29859375 219.48960937 16.7421875 220.41796875 C20.72483821 228.21451378 25.97337113 234.89513427 31.4375 241.6875 C31.1075 242.3475 30.7775 243.0075 30.4375 243.6875 C9.31405577 225.3514101 -6.0114977 203.31541468 -8.5625 174.6875 C-9.97091377 152.38852865 -4.76102104 131.12965928 0.72900391 109.69750977 C2.61410156 101.68876787 3.87181417 93.14981074 1.3125 85.1875 C-2.57141918 80.00894109 -7.17086062 78.14707341 -13.33984375 77.00390625 C-21.70532158 75.81303858 -28.72566185 77.54929199 -35.75 82.1875 C-40.57170177 85.99461523 -42.99372622 91.21912551 -45.5625 96.6875 C-48.68674439 92.00113341 -48.02520689 87.17874211 -47.5625 81.6875 C-46.81613056 78.5609402 -45.77945807 75.65738214 -44.5625 72.6875 C-44.0675 71.2025 -44.0675 71.2025 -43.5625 69.6875 C-53.67646011 78.8098954 -58.76155493 87.9159701 -59.875 101.5 C-59.4131399 114.43208288 -53.51969105 123.91152243 -45.5625 133.6875 C-63.67516797 129.29421458 -76.75933703 117.47843084 -86.31640625 101.8125 C-95.11026654 85.59124392 -97.09822915 67.10147597 -92.734375 49.234375 C-86.58157888 30.61191207 -74.91846489 15.70656285 -57.62109375 6.1875 C-39.7513185 -2.5762212 -19.33831237 -2.79790634 0 0 Z " fill="#000000" transform="translate(94.5625,214.3125)"/>
<path d="M0 0 C26.5612933 11.82744519 47.91836091 34.15294861 58.87548828 61.15771484 C70.38109314 91.43038701 70.87098367 125.18587724 57.86376953 155.09863281 C54.07554414 163.43743986 49.68957942 171.22942201 44.375 178.6875 C36.76851568 189.43067888 32.59294143 200.47239892 29 213 C27 212 27 212 26.18359375 209.9609375 C25.81427734 208.68089844 25.81427734 208.68089844 25.4375 207.375 C25.18871094 206.53710938 24.93992188 205.69921875 24.68359375 204.8359375 C21.80401493 192.88979909 22.17583373 180.61999851 24.671875 168.671875 C24.84794785 167.81175308 25.02402069 166.95163116 25.20542908 166.06544495 C27.3904768 155.71316004 30.33925883 145.5781749 33.29370117 135.42456055 C37.38410098 121.30369357 41.36338878 106.81818699 41 92 C40.731875 93.18851562 40.46375 94.37703125 40.1875 95.6015625 C35.94485001 113.800298 29.32624333 130.84234764 22.23843384 148.08670044 C21.95350067 148.77996429 21.6685675 149.47322815 21.375 150.1875 C21.0911142 150.87810516 20.80722839 151.56871033 20.51473999 152.28024292 C16.10573822 163.02942557 12.02367423 173.76920999 9 185 C8.73832031 185.95132813 8.47664062 186.90265625 8.20703125 187.8828125 C4.06908875 206.04532523 6.92507071 224.55805665 15.92578125 240.70703125 C16.28027344 241.46371094 16.63476562 242.22039062 17 243 C16.67 243.66 16.34 244.32 16 245 C1.76769094 230.02835021 -5.11905177 214.24046641 -5.375 193.625 C-5.41238281 192.5525 -5.44976562 191.48 -5.48828125 190.375 C-5.70630017 169.29983775 1.99237533 148.85925516 8.5625 129.125 C20.06726702 94.40748642 30.96462189 57.98131335 14 23 C10.62481811 16.55661047 6.97472366 10.22517341 2.22265625 4.6953125 C0 2 0 2 0 0 Z " fill="#000000" transform="translate(127,225)"/>
<path d="M0 0 C0 4.07856825 -1.65030992 5.54657987 -4.0625 8.8125 C-20.48843204 31.82958485 -24.26611083 57.50247742 -20.08203125 84.984375 C-17.41852716 100.68663129 -12.10289115 115.76982144 -7.11547852 130.85131836 C13.49344203 193.21777371 13.49344203 193.21777371 2 220 C1.57589844 221.02609375 1.15179687 222.0521875 0.71484375 223.109375 C-3.04434582 231.36074376 -8.34729894 239.89819929 -16 245 C-14.84043496 241.09964486 -13.31952912 237.53194915 -11.5625 233.875 C-1.08867211 210.7272206 -6.2639592 186.90491869 -14.67578125 164.00390625 C-17.91134114 155.48404359 -21.49166405 147.09952548 -25.00033569 138.68960571 C-31.356517 123.42722083 -36.67846872 108.2288853 -40 92 C-39.67726978 110.57165692 -34.63135904 128.18517176 -29.375 145.875 C-23.29691147 166.37356694 -16.56284383 190.71949496 -26.1015625 211.38671875 C-26.39804687 211.91910156 -26.69453125 212.45148438 -27 213 C-29.03816957 209.94274564 -29.72922392 207.70406969 -30.6875 204.1875 C-34.1624747 192.67664632 -39.81229528 183.07554339 -46.734375 173.328125 C-64.45625338 147.79044385 -70.04069027 115.14836189 -64.86865234 84.72460938 C-58.65580469 53.58048285 -40.73031206 26.0544665 -14.42578125 8.203125 C-9.7861539 5.15997095 -4.95721498 2.48872425 0 0 Z " fill="#000000" transform="translate(968,225)"/>
<path d="M0 0 C40.01262576 -1.04971395 76.06634033 14.80534351 105.46875 41.12109375 C107.86986444 43.40353697 110.17945818 45.72532324 112.46875 48.12109375 C112.13875 48.78109375 111.80875 49.44109375 111.46875 50.12109375 C110.5715625 49.56421875 109.674375 49.00734375 108.75 48.43359375 C70.43309935 24.88195739 27.3597818 14.640249 -17.19140625 24.72314453 C-46.56609249 31.85837126 -71.74007902 46.33794972 -93.53125 67.12109375 C-94.81322266 68.30638672 -94.81322266 68.30638672 -96.12109375 69.515625 C-107.75429626 80.5974909 -116.18123688 93.93922391 -123.53125 108.12109375 C-123.85077637 108.72888672 -124.17030273 109.33667969 -124.49951172 109.96289062 C-134.40447118 129.0375747 -138.50515322 150.00961855 -141.53125 171.12109375 C-150.37997737 155.76171739 -144.18762891 126.15418158 -139.84375 109.59765625 C-133.97763722 88.85277959 -124.59565291 69.52698508 -110.53125 53.12109375 C-110.06992676 52.58145996 -109.60860352 52.04182617 -109.13330078 51.48583984 C-83.52195548 21.90226422 -47.49758654 3.74681065 -8.46875 0.37109375 C-5.64605198 0.22496923 -2.8231001 0.13505571 0 0 Z " fill="#000000" transform="translate(717.53125,75.87890625)"/>
<path d="M0 0 C8.81770238 8.17747316 16.25690738 17.30318692 22.62744141 27.50927734 C23.1857666 28.39558838 23.1857666 28.39558838 23.75537109 29.29980469 C42.74749428 59.90901943 48.83410001 95.13189164 43.62744141 130.50927734 C42.13367219 127.78880903 41.33388608 125.56090632 40.98681641 122.48193359 C40.88916992 121.70043945 40.79152344 120.91894531 40.69091797 120.11376953 C40.53574707 118.8554834 40.53574707 118.8554834 40.37744141 117.57177734 C38.04605126 100.70784918 33.13730817 84.77471628 25.62744141 69.50927734 C25.16748779 68.5627832 25.16748779 68.5627832 24.69824219 67.59716797 C17.43200614 52.81608437 8.04459164 40.32125698 -3.37255859 28.50927734 C-4.18466797 27.64560547 -4.99677734 26.78193359 -5.83349609 25.89208984 C-32.50520223 -1.81541071 -72.43708917 -18.6040221 -110.76318359 -19.69384766 C-147.29679111 -20.18556842 -179.78591507 -10.47100872 -210.37255859 9.50927734 C-210.37255859 5.53795881 -209.20925391 4.91308863 -206.43505859 2.13427734 C-148.44620981 -53.81558239 -59.29048346 -53.11990088 0 0 Z " fill="#000000" transform="translate(477.37255859375,116.49072265625)"/>
<path d="M0 0 C0.67804688 0.52851563 1.35609375 1.05703125 2.0546875 1.6015625 C16.70384462 14.54070128 25.64338924 43.1471139 28 62 C28.19184459 66.01960101 28.16057171 69.98159 28 74 C20.09464461 70.15618294 12.43491929 66.04462732 4.875 61.5625 C2.76597714 60.32231764 0.65658939 59.08275562 -1.453125 57.84375 C-2.53142578 57.20953125 -3.60972656 56.5753125 -4.72070312 55.921875 C-10.08994733 52.77515892 -15.48208191 49.66841381 -20.875 46.5625 C-21.95410645 45.94060791 -23.03321289 45.31871582 -24.14501953 44.67797852 C-26.33582951 43.41550269 -28.5267476 42.15321444 -30.71777344 40.89111328 C-37.21847963 37.14561565 -43.71625032 33.39502735 -50.21435547 29.64501953 C-55.23653702 26.74705111 -60.25927066 23.85005713 -65.28442383 20.95724487 C-67.05045522 19.94052802 -68.81627431 18.92344342 -70.58203125 17.90625 C-72.78734155 16.63599127 -74.99304216 15.36640982 -77.19921875 14.09765625 C-83.50633895 10.46359212 -89.77255337 6.76901741 -96 3 C-92.71732369 -0.43776688 -89.48702614 -2.5380911 -85.1875 -4.5 C-84.53458984 -4.80115723 -83.88167969 -5.10231445 -83.20898438 -5.41259766 C-57.90098236 -16.66799855 -22.65458193 -17.80599982 0 0 Z " fill="#000000" transform="translate(810,175)"/>
<path d="M0 0 C0.495 0.99 0.495 0.99 1 2 C-1.64078234 3.52352827 -4.28156731 5.047052 -6.92236328 6.57055664 C-9.25671642 7.91732423 -11.59103235 9.26415607 -13.92529297 10.61108398 C-19.83978489 14.02377298 -25.75488441 17.43539406 -31.671875 20.84375 C-42.08980372 26.84647628 -52.4967042 32.86647698 -62.875 38.9375 C-72.83582449 44.76268893 -82.84416905 50.50214922 -92.86987305 56.21459961 C-100.79925462 60.73378125 -108.7073316 65.2879115 -116.58129883 69.90307617 C-121.89246588 73 -121.89246588 73 -123 73 C-124.82630576 49.51167872 -112.52941112 19.00351774 -97.375 1.21484375 C-72.11366 -22.34301773 -26.94661651 -17.53587067 0 0 Z " fill="#000000" transform="translate(381,176)"/>
<path d="M0 0 C0 3.20264128 -0.41475895 4.06763041 -1.9765625 6.74609375 C-14.09678271 28.2099019 -21.43099951 52.97677864 -15.875 77.75 C-11.78206748 90.90858678 -4.42708932 100.71309488 7.60791016 107.3347168 C19.94760187 113.76793947 33.46244266 115.1551901 46.875 111.375 C61.59298963 106.16010738 70.92518581 97.32620832 77.58984375 83.4296875 C83.05532576 70.13690854 82.73599342 56.10197234 77.2890625 42.8828125 C76.86367188 41.93148437 76.43828125 40.98015625 76 40 C75.32789284 38.33551985 74.65922437 36.66962434 74 35 C84.43114575 42.45081839 90.1093498 55.98736289 92.375 68.3125 C94.52192887 85.59114869 90.71239033 102.7625215 79.96484375 116.625 C68.14301575 130.30245885 53.84797289 138.90395587 35.61328125 140.25 C18.02101192 140.83824725 2.00238581 135.65484686 -11.3125 123.875 C-24.22412625 111.78975139 -29.94089898 95.7631761 -30.9453125 78.40380859 C-31.5638212 51.21703793 -22.05778037 23.21144668 -3.3828125 3.2734375 C-2.27953844 2.15769706 -1.14472045 1.07317542 0 0 Z " fill="#000000" transform="translate(268,187)"/>
<path d="M0 0 C17.47541447 13.38542385 27.20994242 36.81220859 30.62109375 58.078125 C33.34164736 79.05723945 31.6604845 98.64465956 19.02734375 116.3828125 C9.53078637 128.64233744 -4.87944253 137.15699042 -20.25 139.71875 C-36.78082439 141.40940249 -53.11470386 138.94063232 -66.68701172 128.73095703 C-80.95713704 117.05769942 -89.67458187 102.45416298 -91.83203125 84.01416016 C-93.12024444 68.56683627 -88.68816782 52.74556485 -79.05859375 40.5390625 C-77.41432375 38.64566069 -75.74433275 36.80110097 -74 35 C-73.67 35.66 -73.34 36.32 -73 37 C-73.92578125 39.13671875 -73.92578125 39.13671875 -75.3125 41.6875 C-81.11428717 52.37675257 -81.59896069 64.73264643 -79.3125 76.5546875 C-75.13295854 89.9640497 -67.07524063 100.81139563 -54.74609375 107.6796875 C-42.39222955 113.61938323 -29.49886592 115.09837085 -16.25 111.4375 C-0.81403338 105.97937285 7.33427995 97.98133217 14.51953125 83.66015625 C22.5397913 63.8317033 18.26201064 40.49222634 10.5 21.28125 C8.12963243 16.09607095 5.43315423 11.10275616 2.671875 6.1171875 C1 3 1 3 0 0 Z " fill="#000000" transform="translate(827,187)"/>
<path d="M0 0 C3.39002721 1.29108191 6.52160831 2.75781541 9.67578125 4.546875 C11.02216675 5.30846924 11.02216675 5.30846924 12.39575195 6.08544922 C13.35827881 6.63475098 14.32080566 7.18405273 15.3125 7.75 C16.32723389 8.32637207 17.34196777 8.90274414 18.38745117 9.49658203 C26.54747471 14.1434974 34.66562082 18.86100047 42.76879883 23.60620117 C48.17252077 26.77035273 53.58410963 29.91995833 59.01171875 33.04296875 C59.59685745 33.37975647 60.18199615 33.71654419 60.78486633 34.0635376 C63.61295542 35.69076411 66.44215713 37.31601881 69.27270508 38.93896484 C74.9214705 42.18677158 80.50127112 45.50381301 86 49 C83.39193214 51.65636541 80.76077934 54.24623704 77.984375 56.7265625 C62.23116692 70.79988023 51.39196013 86.73357064 43 106 C38.68930993 104.69728821 35.03667415 103.0324417 31.1640625 100.7421875 C30.10058594 100.11699219 29.03710938 99.49179687 27.94140625 98.84765625 C26.84699219 98.19667969 25.75257813 97.54570312 24.625 96.875 C23.50738281 96.21628906 22.38976562 95.55757813 21.23828125 94.87890625 C18.48916275 93.25763124 15.74323718 91.63119987 13 90 C13.15385503 87.93872022 13.30906774 85.87754175 13.46484375 83.81640625 C13.55113037 82.66857666 13.63741699 81.52074707 13.72631836 80.33813477 C13.95661317 77.52919549 14.23649497 74.73654222 14.5625 71.9375 C16.99705206 47.4349115 11.1025806 23.79395451 0 2 C0 1.34 0 0.68 0 0 Z " fill="#000000" transform="translate(860,180)"/>
<path d="M0 0 C-1.10504183 2.7783909 -2.2263998 5.54853438 -3.3671875 8.3125 C-12.88578202 31.5911353 -16.81001323 53.70756235 -13.71166992 78.76977539 C-13.62119385 79.50446045 -13.53071777 80.23914551 -13.4375 80.99609375 C-13.31181641 81.97340454 -13.31181641 81.97340454 -13.18359375 82.97045898 C-12.97090825 85.32159537 -12.97132308 87.64055488 -13 90 C-16.94787045 92.28413047 -20.89891177 94.56263517 -24.85302734 96.8359375 C-26.19832064 97.61043139 -27.54272704 98.3864679 -28.88623047 99.1640625 C-30.81508202 100.28009173 -32.74703232 101.39057394 -34.6796875 102.5 C-35.28183075 102.84998047 -35.883974 103.19996094 -36.50436401 103.56054688 C-40.77225659 106 -40.77225659 106 -43 106 C-43.44988281 104.9584375 -43.89976562 103.916875 -44.36328125 102.84375 C-53.89755012 81.35878568 -67.56583478 64.47931772 -86 50 C-83.60030318 47.34434213 -81.03555811 45.72001447 -77.93359375 43.953125 C-76.90427734 43.36337891 -75.87496094 42.77363281 -74.81445312 42.16601562 C-73.14286133 41.21758789 -73.14286133 41.21758789 -71.4375 40.25 C-70.26598539 39.58058653 -69.09476624 38.91065574 -67.92382812 38.24023438 C-65.49056166 36.84760003 -63.05603768 35.45720253 -60.62060547 34.06835938 C-55.06842461 30.89970265 -49.53513997 27.69829713 -44 24.5 C-37.84677149 20.94832377 -31.69280586 17.39794249 -25.5350647 13.85409546 C-23.12456252 12.46671905 -20.71448624 11.07860376 -18.30444336 9.69042969 C-16.59856032 8.70826185 -14.89206014 7.72716615 -13.18554688 6.74609375 C-12.15623047 6.153125 -11.12691406 5.56015625 -10.06640625 4.94921875 C-9.15834229 4.42674561 -8.25027832 3.90427246 -7.31469727 3.3659668 C-1.61090259 0 -1.61090259 0 0 0 Z " fill="#000000" transform="translate(236,180)"/>
<path d="M0 0 C0.66 0 1.32 0 2 0 C9.78746648 18.57923475 16.20917975 36.98238998 19 57 C19.0942627 57.6379248 19.18852539 58.27584961 19.28564453 58.93310547 C20.28349936 66.50359262 20.24366927 74.12704432 20.25 81.75 C20.25067474 82.48165375 20.25134949 83.2133075 20.25204468 83.96713257 C20.23419353 96.19483228 19.49722986 107.99805765 17 120 C16.83371094 120.81645996 16.66742187 121.63291992 16.49609375 122.47412109 C6.32519244 170.81415483 -22.92683 213.46248597 -63.87109375 240.92578125 C-64.57363281 241.28027344 -65.27617188 241.63476562 -66 242 C-66.66 241.67 -67.32 241.34 -68 241 C-67.35675781 240.33097656 -66.71351563 239.66195312 -66.05078125 238.97265625 C-31.47685802 202.22861515 -8.35450641 155.60178979 1.25 106.1875 C1.40106201 105.4135791 1.55212402 104.6396582 1.70776367 103.84228516 C4.5483044 88.34347464 5.36945012 73.10401621 5.3125 57.375 C5.31167419 56.40876709 5.31084839 55.44253418 5.30999756 54.44702148 C5.2817165 40.06357124 4.60583135 26.17349926 2 12 C1.78105553 10.65821478 1.56595306 9.31579459 1.35546875 7.97265625 C0.93131998 5.30875787 0.48501231 2.65330263 0 0 Z " fill="#000000" transform="translate(957,764)"/>
<path d="M0 0 C0.66 0.33 1.32 0.66 2 1 C1.88406494 1.67466309 1.76812988 2.34932617 1.64868164 3.04443359 C1.11640652 6.15402685 0.58942594 9.26449603 0.0625 12.375 C-0.11990234 13.43589844 -0.30230469 14.49679687 -0.49023438 15.58984375 C-0.66748047 16.64042969 -0.84472656 17.69101562 -1.02734375 18.7734375 C-1.27085571 20.20308838 -1.27085571 20.20308838 -1.51928711 21.66162109 C-2.6299998 29.37512303 -3.16220644 37.00299215 -3.203125 44.79296875 C-3.21018463 45.69332855 -3.21724426 46.59368835 -3.22451782 47.52133179 C-3.46843801 74.90127399 -3.46843801 74.90127399 0 102 C0.29801514 103.56379395 0.29801514 103.56379395 0.60205078 105.15917969 C5.1953894 128.86562394 12.36046022 151.31726379 23 173 C23.42152344 173.86222168 23.84304687 174.72444336 24.27734375 175.61279297 C35.0822398 197.48308886 48.6758167 216.89904729 64.79858398 235.15307617 C68.90433001 239.80866003 68.90433001 239.80866003 70 242 C65.70032634 240.50794907 62.16844858 238.26381679 58.5 235.625 C57.89124023 235.18800781 57.28248047 234.75101563 56.65527344 234.30078125 C50.50103204 229.7844904 44.94017515 224.72498035 39.46679688 219.41552734 C38.13524614 218.13051883 36.77979802 216.87038877 35.421875 215.61328125 C3.8847065 185.65297118 -16.58379351 138.89075661 -18.12255859 95.54785156 C-18.20710241 91.44773286 -18.24659387 87.35086357 -18.25 83.25 C-18.25101212 82.15301788 -18.25101212 82.15301788 -18.25204468 81.03387451 C-18.21021515 52.39667572 -11.42732497 26.17896267 0 0 Z " fill="#000000" transform="translate(137,764)"/>
<path d="M0 0 C5.14310534 4.51934199 7.21652331 9.40091773 8.75 15.9375 C8.94464844 16.69740234 9.13929687 17.45730469 9.33984375 18.24023438 C9.72466931 19.75241803 10.09921157 21.26725977 10.46289062 22.78466797 C10.8185781 24.25171713 11.19209325 25.71456763 11.58398438 27.17236328 C13.60570421 34.73253141 13.60570421 34.73253141 13 38 C10.98046875 40.359375 10.98046875 40.359375 8.1875 42.75 C7.69556152 43.17684082 7.20362305 43.60368164 6.69677734 44.04345703 C5.14525501 45.38002425 3.57608626 46.69252603 2 48 C1.00871094 48.82757813 0.01742188 49.65515625 -1.00390625 50.5078125 C-3.65356377 52.69242809 -6.31924179 54.85372318 -9 57 C-9.88945313 57.74507813 -10.77890625 58.49015625 -11.6953125 59.2578125 C-14 61 -14 61 -16 61 C-16.16081055 60.2157666 -16.32162109 59.4315332 -16.48730469 58.62353516 C-17.102574 55.62662063 -17.71919975 52.62998876 -18.33660889 49.6335144 C-18.61192888 48.29583648 -18.88671027 46.95804758 -19.16094971 45.62014771 C-20.63439939 38.43339523 -22.14518282 31.26391717 -23.85424805 24.12866211 C-27.38215473 9.284329 -27.38215473 9.284329 -26 2 C-20.39139589 -5.55721279 -7.30905231 -4.03033999 0 0 Z " fill="#000000" transform="translate(1032,301)"/>
<path d="M0 0 C2.53856808 2.53856808 2.32240521 3.46473412 2.3671875 6.99609375 C2.2210189 15.59055071 0.10599185 23.74352865 -1.875 32.0625 C-2.60590795 35.19821702 -3.3300872 38.3354767 -4.0546875 41.47265625 C-4.2279657 42.21649567 -4.4012439 42.96033508 -4.57977295 43.72671509 C-5.90453345 49.45365939 -7.04447127 55.19903134 -8 61 C-12.25769409 59.41767089 -14.82183002 57.58783674 -18.125 54.4375 C-22.8634575 50.00765303 -27.72633971 45.8769724 -32.78515625 41.8125 C-35 40 -35 40 -37 38 C-36.62024701 31.42834236 -35.27504264 25.18679735 -33.6875 18.8125 C-33.48705078 17.94947266 -33.28660156 17.08644531 -33.08007812 16.19726562 C-31.2333721 8.72468119 -28.61415437 3.40943625 -22 -1 C-14.36410586 -4.31995397 -7.42422949 -3.29629741 0 0 Z " fill="#000000" transform="translate(88,301)"/>
<path d="M0 0 C2.10509014 1.47596082 2.83275259 2.50785094 3.92138672 4.81469727 C4.42109985 5.86367187 4.42109985 5.86367187 4.9309082 6.93383789 C5.26678955 7.68084961 5.6026709 8.42786133 5.94873047 9.19750977 C6.29943604 9.96256836 6.6501416 10.72762695 7.01147461 11.51586914 C9.74275003 17.64214237 11.73929277 23.69795582 12.88623047 30.32250977 C13.01513672 31.06243164 13.14404297 31.80235352 13.27685547 32.56469727 C13.59118493 34.82290626 13.76562124 37.04555364 13.88623047 39.32250977 C13.93908203 40.3009082 13.99193359 41.27930664 14.04638672 42.28735352 C14.24311145 49.61748813 13.6300006 56.69154565 12.63623047 63.94750977 C12.52698242 64.81287354 12.41773438 65.6782373 12.30517578 66.56982422 C11.58610725 71.36125526 10.97029489 74.2678996 6.88623047 77.32250977 C6.22623047 76.99250977 5.56623047 76.66250977 4.88623047 76.32250977 C5.03060547 75.56067383 5.17498047 74.79883789 5.32373047 74.01391602 C8.45191884 56.61336821 6.03771973 41.07014573 -4.11376953 26.32250977 C-8.46086928 20.72415853 -13.290347 15.40434799 -19.11376953 11.32250977 C-17.61244609 6.81853944 -14.305126 5.75539209 -10.30126953 3.51000977 C-9.57617188 3.0775293 -8.85107422 2.64504883 -8.10400391 2.19946289 C-7.39953125 1.80049805 -6.69505859 1.4015332 -5.96923828 0.99047852 C-5.32623779 0.62204834 -4.6832373 0.25361816 -4.02075195 -0.12597656 C-2.11376953 -0.67749023 -2.11376953 -0.67749023 0 0 Z " fill="#000000" transform="translate(129.11376953125,242.677490234375)"/>
<path d="M0 0 C4.76551013 1.37605916 8.7248553 3.46778066 12.875 6.125 C13.46796875 6.49753906 14.0609375 6.87007812 14.671875 7.25390625 C16.1181343 8.16365 17.55958046 9.08103798 19 10 C17.88416064 13.34751809 17.11589291 13.92922033 14.4375 16.0625 C1.42134915 27.19258963 -5.52721747 41.45919467 -7.24609375 58.4296875 C-7.45099818 65.01073561 -6.11836769 71.53942948 -5 78 C-7.390625 77.37890625 -7.390625 77.37890625 -10 76 C-11.109375 73.27734375 -11.109375 73.27734375 -11.75 69.9375 C-11.97816406 68.75929688 -12.20632813 67.58109375 -12.44140625 66.3671875 C-12.62574219 65.25601563 -12.81007813 64.14484375 -13 63 C-13.13277344 62.21882813 -13.26554688 61.43765625 -13.40234375 60.6328125 C-16.31124161 39.51341709 -12.12908237 19.13758677 -1 1 C-0.67 0.67 -0.34 0.34 0 0 Z " fill="#000000" transform="translate(967,242)"/>
<path d="M0 0 C4.9753659 0.62036981 8.76255308 3.2082398 13.0078125 5.765625 C13.88695312 6.27351563 14.76609375 6.78140625 15.671875 7.3046875 C20.42304564 10.10817328 20.42304564 10.10817328 22.1328125 11.390625 C22.1328125 12.050625 22.1328125 12.710625 22.1328125 13.390625 C20.98167969 13.47699219 19.83054687 13.56335938 18.64453125 13.65234375 C-7.81326916 15.88358925 -31.64913377 24.30747826 -52.50463867 41.01489258 C-55.18111471 43.15430286 -57.71610104 45.0195994 -60.8671875 46.390625 C-59.55868114 43.50268515 -58.16272269 41.43712325 -55.92138672 39.2019043 C-55.326716 38.60415695 -54.73204529 38.00640961 -54.11935425 37.39054871 C-53.4766861 36.75506607 -52.83401794 36.11958344 -52.171875 35.46484375 C-51.50560089 34.79902786 -50.83932678 34.13321198 -50.15286255 33.44721985 C-48.74131689 32.03869318 -47.32734369 30.63259567 -45.91113281 29.22875977 C-43.76577514 27.10151351 -41.62838316 24.96652057 -39.4921875 22.83007812 C-38.11505132 21.45786351 -36.7374611 20.08610437 -35.359375 18.71484375 C-34.72885223 18.08543381 -34.09832947 17.45602386 -33.44869995 16.80754089 C-29.60581805 13.00461609 -25.64857762 9.38486622 -21.54910278 5.85969543 C-20.27909589 4.75040676 -19.05954627 3.58298377 -17.8671875 2.390625 C-15.4314439 1.91862684 -13.07465413 1.55335142 -10.6171875 1.265625 C-9.31265625 1.09804687 -8.008125 0.93046875 -6.6640625 0.7578125 C-4.43877354 0.54260966 -2.21520663 0.30179927 0 0 Z " fill="#000000" transform="translate(726.8671875,103.609375)"/>
<path d="M0 0 C1.22332031 0.29132813 2.44664062 0.58265625 3.70703125 0.8828125 C6.92567038 1.9747826 8.24339528 2.69704867 10.4375 5.1875 C12.62711324 7.59690883 14.85185743 9.78741382 17.34765625 11.875 C23.21183913 16.95621 28.65562333 22.46959237 34.13916016 27.95385742 C36.01837639 29.83085469 37.90549623 31.69966889 39.79296875 33.56835938 C40.98746644 34.7599284 42.18149464 35.95196829 43.375 37.14453125 C43.94049561 37.70284134 44.50599121 38.26115143 45.08862305 38.83638 C49 42.77113553 49 42.77113553 49 45 C45.74080943 43.53668995 43.28333467 41.67830355 40.5625 39.375 C18.94545412 21.89806086 -6.53327476 13.65935701 -34 12 C-34 11.34 -34 10.68 -34 10 C-23.70048092 1.43348478 -13.24522829 -3.21714668 0 0 Z " fill="#000000" transform="translate(381,105)"/>
<path d="M0 0 C0.33 0 0.66 0 1 0 C0.49747897 8.58845309 -0.77356242 16.79150118 -2.625 25.1875 C-2.88933838 26.39639893 -3.15367676 27.60529785 -3.42602539 28.85083008 C-6.14697726 41.03748306 -9.24072372 53.09074657 -13 65 C-13.27424805 65.86882812 -13.54849609 66.73765625 -13.83105469 67.6328125 C-18.47778585 81.80062365 -18.47778585 81.80062365 -25.3125 86.0625 C-29.35463259 88 -29.35463259 88 -32 88 C-30.79482364 84.07112505 -29.30851885 80.43502963 -27.48828125 76.75195312 C-15.46656927 52.39967095 -7.1130436 26.15915378 0 0 Z " fill="#000000" transform="translate(951,850)"/>
<path d="M0 0 C1.93351406 2.90027108 2.67079855 4.90104924 3.59375 8.21484375 C3.89643799 9.27920654 4.19912598 10.34356934 4.51098633 11.44018555 C4.83736084 12.59429932 5.16373535 13.74841309 5.5 14.9375 C11.72664599 36.34905362 19.1397758 57.01163665 28.75 77.1484375 C30.4388607 80.70400517 31.88588458 84.21453966 33 88 C22.32569558 84.11843476 22.32569558 84.11843476 19.06640625 78.91015625 C18.53565495 77.63950812 18.03641974 76.35542061 17.5625 75.0625 C17.28156494 74.33506592 17.00062988 73.60763184 16.71118164 72.8581543 C10.32186073 55.60926411 6.11929784 37.56973335 2.5 19.5625 C2.24468506 18.29510986 1.98937012 17.02771973 1.72631836 15.72192383 C0.69335447 10.38222255 -0.13436617 5.45557196 0 0 Z " fill="#000000" transform="translate(144,850)"/>
<path d="M0 0 C2.68976424 1.34488212 2.71098735 2.48863954 3.65625 5.3046875 C3.95587646 6.192771 4.25550293 7.08085449 4.56420898 7.99584961 C5.02742554 9.42102905 5.02742554 9.42102905 5.5 10.875 C5.81461182 11.83865479 6.12922363 12.80230957 6.45336914 13.79516602 C11.67411068 30.08812122 12.24539024 44.37222157 8 61 C7.34 61 6.68 61 6 61 C5.96036133 60.42258057 5.92072266 59.84516113 5.87988281 59.25024414 C4.84295268 44.72124614 4.84295268 44.72124614 1.875 30.5 C-0.87501314 20.47822274 -0.37388211 10.30620404 0 0 Z " fill="#000000" transform="translate(976,359)"/>
<path d="M0 0 C0.33 0 0.66 0 1 0 C1.40482727 11.15921952 1.58130798 21.67508431 -1.42773438 32.48583984 C-3.92755265 41.78454109 -4.3427955 51.42645393 -5 61 C-5.66 61 -6.32 61 -7 61 C-12.44871503 39.65919948 -8.99010792 21.14272714 -1 1 C-0.67 0.67 -0.34 0.34 0 0 Z " fill="#000000" transform="translate(119,359)"/>
</svg>
