<?xml version="1.0" encoding="UTF-8"?>
<svg version="1.1" xmlns="http://www.w3.org/2000/svg" width="310" height="392">
<path d="M0 0 C11.63110094 5.7263853 18.20248531 14.84079157 22.66796875 26.81640625 C25.57048183 41.63131678 22.74207213 57.09297533 15.29296875 70.12890625 C15.84082031 70.31324219 16.38867188 70.49757813 16.953125 70.6875 C22.930687 72.87441293 28.21843158 75.74118019 33.63256836 79.07373047 C40.15144148 83.08056137 46.78001671 86.88581609 53.41796875 90.69140625 C60.92199454 95.00192589 68.37717519 99.34668272 75.70556641 103.94946289 C80.45928521 106.87645638 85.32817156 109.60673934 90.1796875 112.3671875 C91.1533728 112.92233032 92.12705811 113.47747314 93.13024902 114.04943848 C95.5172809 115.410215 97.90486634 116.77000963 100.29296875 118.12890625 C100.52652482 142.01565595 100.70288974 165.90223467 100.81109047 189.78989601 C100.86266463 200.88131492 100.93298186 211.9720246 101.04736328 223.06298828 C101.14700613 232.72943412 101.21154355 242.3953664 101.2338537 252.06231153 C101.24689665 257.18167973 101.27756387 262.29957869 101.35026932 267.4184761 C101.41815387 272.23699594 101.43908518 277.05344196 101.42404556 281.87239456 C101.42679662 283.64057693 101.44669101 285.40882864 101.4850235 287.1765976 C101.76088462 300.55471169 101.76088462 300.55471169 98.1040554 304.47629929 C95.53620386 306.04394127 93.12150936 307.12527894 90.29296875 308.12890625 C89.2261084 308.73476563 88.15924805 309.340625 87.06005859 309.96484375 C86.13402832 310.47273438 85.20799805 310.980625 84.25390625 311.50390625 C83.19163818 312.08914063 82.12937012 312.674375 81.03491211 313.27734375 C79.36827515 314.19386719 79.36827515 314.19386719 77.66796875 315.12890625 C66.78727678 321.1364961 56.01949896 327.31651856 45.30078125 333.609375 C39.08949495 337.25583719 32.84886978 340.85029482 26.60546875 344.44140625 C15.92275397 350.59142499 5.28150177 356.80975154 -5.34643555 363.05371094 C-13.03680876 367.57078882 -20.74816675 372.04975726 -28.47827148 376.49853516 C-34.14118839 379.77004559 -39.70865967 383.17632626 -45.23828125 386.66796875 C-49.60826642 389.25400428 -53.72029529 389.73258811 -58.70703125 389.12890625 C-61.27480969 388.02592869 -63.36585081 386.95960619 -65.70703125 385.50390625 C-66.37581299 385.10856689 -67.04459473 384.71322754 -67.73364258 384.3059082 C-69.2335696 383.41831283 -70.72920344 382.52343514 -72.22119141 381.62255859 C-75.90391129 379.4097438 -79.62068803 377.2564006 -83.3347168 375.09667969 C-86.4202357 373.30145079 -89.5011744 371.49852775 -92.58203125 369.6953125 C-99.12971961 365.87203366 -105.71306366 362.11243433 -112.31713867 358.38745117 C-116.9478353 355.76089371 -121.49794912 353.03345182 -126.01953125 350.22265625 C-132.40903314 346.26976158 -138.9297621 342.61001647 -145.51953125 339.00390625 C-157.34277995 332.49280051 -169.02524486 325.75998474 -180.65869141 318.91552734 C-183.92228137 317.00274893 -187.19448649 315.1053829 -190.46875 313.2109375 C-191.57516846 312.56970947 -192.68158691 311.92848145 -193.8215332 311.26782227 C-195.95291275 310.03304252 -198.08551347 308.80036763 -200.21948242 307.57006836 C-201.64804565 306.74067749 -201.64804565 306.74067749 -203.10546875 305.89453125 C-204.36883057 305.16411621 -204.36883057 305.16411621 -205.65771484 304.41894531 C-207.70703125 303.12890625 -207.70703125 303.12890625 -209.70703125 301.12890625 C-209.95211821 298.72999404 -210.07264438 296.43964885 -210.10903931 294.03521729 C-210.13700295 292.92653577 -210.13700295 292.92653577 -210.16553152 291.79545665 C-210.22527257 289.30548642 -210.27029977 286.81547899 -210.31494141 284.32519531 C-210.35364949 282.54467128 -210.39289777 280.76415892 -210.43264771 278.98365784 C-210.78007198 262.69441802 -210.96673805 246.40143899 -211.11478615 230.10930252 C-211.22646362 218.07047226 -211.41559975 206.03809231 -211.70610201 194.00222421 C-211.90357801 185.53423878 -212.00834508 177.06801751 -212.0464958 168.5978353 C-212.07197702 163.54121149 -212.13815293 158.49292925 -212.30568314 153.4388504 C-213.28080409 122.74393566 -213.28080409 122.74393566 -207.35378838 115.09002113 C-201.70875351 110.26143956 -195.51470826 107.47091604 -188.52056408 105.12081718 C-184.75685656 103.79392218 -181.64366278 101.95841987 -178.2578125 99.859375 C-176.1788049 98.67764712 -174.09938401 97.49664601 -172.01953125 96.31640625 C-162.22564538 90.74431577 -152.48227054 85.09118227 -142.76953125 79.37890625 C-132.89266144 73.57048547 -122.98169426 67.82818105 -113.0234375 62.16015625 C-98.63731934 53.96923988 -84.29289635 45.70046772 -70.04394531 37.27294922 C-68.84356852 36.56305919 -67.64104246 35.85678636 -66.43603516 35.15478516 C-65.24793266 34.4498421 -64.07353154 33.72144723 -62.91162109 32.97412109 C-58.99295014 30.52910175 -56.31347325 29.44508895 -51.70703125 30.12890625 C-49.09375 31.30859375 -49.09375 31.30859375 -46.39453125 33.00390625 C-45.35167969 33.64328125 -44.30882812 34.28265625 -43.234375 34.94140625 C-42.66960449 35.29332031 -42.10483398 35.64523438 -41.52294922 36.0078125 C-38.19930637 38.05973075 -34.8249298 40.0258065 -31.45703125 42.00390625 C-30.74490479 42.42542969 -30.03277832 42.84695312 -29.29907227 43.28125 C-25.61779214 45.45345699 -21.91844691 47.57819202 -18.16796875 49.62890625 C-17.4399707 50.02867676 -16.71197266 50.42844727 -15.96191406 50.84033203 C-14.57754124 51.59662741 -13.18904682 52.34544354 -11.79589844 53.08544922 C-8.28986027 55.00301161 -5.79594883 56.67832388 -3.70703125 60.12890625 C1.32098458 52.01115551 4.50117343 43.86667528 3.29296875 34.12890625 C2.48278239 30.72089653 1.41353552 27.44486914 0.29296875 24.12890625 C0.08671875 23.15953125 -0.11953125 22.19015625 -0.33203125 21.19140625 C-2.7258108 17.60073693 -6.64034023 16.99174036 -10.70703125 16.12890625 C-15.95158798 15.5955615 -19.28189365 16.21233829 -23.70703125 19.12890625 C-27.5095117 23.1848854 -26.95821594 27.64572487 -26.8125 32.8984375 C-26.77769531 33.63449219 -26.74289063 34.37054688 -26.70703125 35.12890625 C-32.34579848 34.72613716 -34.81788174 33.01805576 -38.70703125 29.12890625 C-40.91711426 22.6861794 -40.4702403 16.01208459 -37.64453125 9.87890625 C-29.65251187 -4.56121968 -14.37893342 -6.09564829 0 0 Z M-63.70703125 60.12890625 C-63.12953125 60.70640625 -62.55203125 61.28390625 -61.95703125 61.87890625 C-60.84328125 62.99265625 -60.84328125 62.99265625 -59.70703125 64.12890625 C-58.98515625 64.80953125 -58.26328125 65.49015625 -57.51953125 66.19140625 C-54.3151043 69.61682816 -54.38432596 73.24133058 -54.40625 77.69921875 C-54.90499835 81.72806906 -56.6790612 84.64333272 -58.70703125 88.12890625 C-59.69703125 88.12890625 -60.68703125 88.12890625 -61.70703125 88.12890625 C-61.93777344 87.35804687 -62.16851562 86.5871875 -62.40625 85.79296875 C-62.89544922 84.28863281 -62.89544922 84.28863281 -63.39453125 82.75390625 C-63.70777344 81.75617188 -64.02101562 80.7584375 -64.34375 79.73046875 C-65.49369824 76.96970141 -65.49369824 76.96970141 -68.07421875 75.76953125 C-73.52287753 74.44374484 -78.14462059 75.31876739 -83.08203125 77.87890625 C-87.91885604 82.02475607 -89.46266005 86.07426627 -89.95703125 92.25390625 C-89.12492062 105.15162107 -81.71027258 117.10646824 -72.70703125 126.12890625 C-71.71703125 126.12890625 -70.72703125 126.12890625 -69.70703125 126.12890625 C-68.70303601 123.50537107 -67.7036868 120.8802283 -66.70703125 118.25390625 C-66.27777344 117.13435547 -66.27777344 117.13435547 -65.83984375 115.9921875 C-64.27366477 112.16905614 -64.27366477 112.16905614 -63.70703125 108.12890625 C-68.49676335 107.89462312 -68.49676335 107.89462312 -72.70703125 110.12890625 C-72.95724695 113.21256496 -72.95724695 113.21256496 -72.70703125 116.12890625 C-79.58203125 112.37890625 -79.58203125 112.37890625 -80.70703125 110.12890625 C-80.875 108.10546875 -80.875 108.10546875 -80.89453125 105.75390625 C-80.90871094 104.98304687 -80.92289063 104.2121875 -80.9375 103.41796875 C-80.67797115 100.84027538 -80.09238951 99.31050032 -78.70703125 97.12890625 C-73.19391587 92.99406971 -68.51945915 92.19151617 -61.70703125 93.12890625 C-58.82296599 93.99464736 -55.88127703 94.95466047 -53.70703125 97.12890625 C-49.58752776 97.55442383 -47.55971998 96.74937033 -44.23828125 94.35546875 C-43.41972656 93.77796875 -42.60117188 93.20046875 -41.7578125 92.60546875 C-40.91605469 91.99445313 -40.07429688 91.3834375 -39.20703125 90.75390625 C-37.53308613 89.55420286 -35.85609195 88.35874011 -34.17578125 87.16796875 C-33.43779297 86.63381348 -32.69980469 86.0996582 -31.93945312 85.54931641 C-29.70703125 84.12890625 -29.70703125 84.12890625 -27.00195312 83.06396484 C-24.55888641 82.33776527 -24.55888641 82.33776527 -23.51953125 80.12890625 C-23.25140625 79.46890625 -22.98328125 78.80890625 -22.70703125 78.12890625 C-22.04703125 77.46890625 -21.38703125 76.80890625 -20.70703125 76.12890625 C-21.28557861 75.82710449 -21.86412598 75.52530273 -22.46020508 75.21435547 C-24.17946973 74.31700572 -25.89843898 73.41908989 -27.6171875 72.52075195 C-29.5554191 71.50777812 -31.49422375 70.49590004 -33.43359375 69.48510742 C-39.21618456 66.46323423 -44.93474968 63.37750618 -50.55078125 60.0546875 C-54.89058288 58.19140311 -59.19546285 59.28954469 -63.70703125 60.12890625 Z M1.29296875 87.12890625 C0.52984375 88.09828125 -0.23328125 89.06765625 -1.01953125 90.06640625 C-4.49430901 94.11760742 -8.45732901 97.33273953 -12.62109375 100.65234375 C-16.57824911 103.82808616 -20.43426575 107.11510413 -24.29125977 110.41113281 C-32.02803107 116.9975668 -32.02803107 116.9975668 -34.84765625 117.54296875 C-36.89475132 117.95297896 -36.89475132 117.95297896 -37.75390625 120.02734375 C-41.54894253 133.39430489 -39.63526873 145.53710562 -33.45703125 158.00390625 C-32.87953125 159.03515625 -32.30203125 160.06640625 -31.70703125 161.12890625 C-29.72703125 161.12890625 -27.74703125 161.12890625 -25.70703125 161.12890625 C-23.38840709 152.32147057 -24.10458397 145.52327646 -25.95703125 136.8359375 C-27.45968763 129.40874528 -27.52331897 122.84917048 -23.70703125 116.12890625 C-19.0420373 109.47261991 -13.62646563 104.40874342 -5.70703125 102.12890625 C3.62233788 100.8313733 10.3558366 102.22393695 18.29296875 107.12890625 C19.38544922 107.65097656 19.38544922 107.65097656 20.5 108.18359375 C22.89909421 109.44847567 23.2573617 110.64344934 24.29296875 113.12890625 C24.82921875 114.01578125 25.36546875 114.90265625 25.91796875 115.81640625 C27.68760547 120.07962198 28.0149854 123.5752785 27.29296875 128.12890625 C24.84509434 133.12257005 21.01579582 137.18171572 16.29296875 140.12890625 C13.32239671 141.1222504 10.39525801 141.72089542 7.29296875 142.12890625 C7.43734375 141.57203125 7.58171875 141.01515625 7.73046875 140.44140625 C9.00843547 135.18754308 9.48943838 130.53182096 9.29296875 125.12890625 C4.32303681 122.69465387 0.94691506 121.78274627 -4.70703125 122.12890625 C-4.70703125 122.78890625 -4.70703125 123.44890625 -4.70703125 124.12890625 C-5.36703125 124.12890625 -6.02703125 124.12890625 -6.70703125 124.12890625 C-6.89666298 131.44026279 -6.90274284 138.26834016 -5.21875 145.3984375 C-4.12735007 151.2220142 -4.00639384 157.22043407 -3.70703125 163.12890625 C-3.06636719 162.92394531 -2.42570312 162.71898437 -1.765625 162.5078125 C-0.90066406 162.23839844 -0.03570312 161.96898437 0.85546875 161.69140625 C1.70238281 161.42457031 2.54929688 161.15773438 3.421875 160.8828125 C9.07299067 159.3989141 14.54599193 159.01376866 20.37109375 159.1015625 C21.71093485 159.11421598 23.05077875 159.1265764 24.390625 159.13867188 C26.46151893 159.16333119 28.53225887 159.19123236 30.60302734 159.22485352 C41.78486001 159.39435611 52.0720996 159.1451236 62.22265625 154.03125 C64.29296875 153.12890625 64.29296875 153.12890625 66.91015625 152.81640625 C69.48091483 152.36381041 69.48091483 152.36381041 70.62109375 149.9765625 C72.708025 143.67155412 74.00466475 137.77431334 74.29296875 131.12890625 C67.59170339 130.6415415 63.22735283 132.05181821 57.29296875 135.12890625 C57.29296875 136.11890625 57.29296875 137.10890625 57.29296875 138.12890625 C55.97296875 138.12890625 54.65296875 138.12890625 53.29296875 138.12890625 C53.21146131 136.06706992 53.15354935 134.00429276 53.10546875 131.94140625 C53.05326172 130.21857422 53.05326172 130.21857422 53 128.4609375 C53.31674296 124.85851426 54.20763477 123.03523786 56.29296875 120.12890625 C55.71683838 119.92281738 55.14070801 119.71672852 54.54711914 119.50439453 C47.15775183 116.72050356 40.51969817 113.01001387 33.73046875 109.00390625 C32.02987305 108.00846802 32.02987305 108.00846802 30.29492188 106.99291992 C28.02188386 105.66187759 25.75020632 104.32850889 23.47998047 102.99267578 C20.62943028 101.32566949 17.76578921 99.68655128 14.890625 98.0625 C14.10308838 97.61342285 13.31555176 97.1643457 12.50415039 96.70166016 C11.07146327 95.88510601 9.63466461 95.07570724 8.19311523 94.27490234 C4.82734327 92.33492379 2.52754335 90.92693783 1.29296875 87.12890625 Z M-117.89941406 93.91748047 C-120.70738104 96.12918176 -123.4932395 97.80348239 -126.62890625 99.51171875 C-128.28986328 100.42630859 -128.28986328 100.42630859 -129.984375 101.359375 C-131.73097737 102.31224581 -133.47759091 103.26509738 -135.22509766 104.21630859 C-136.92468542 105.14357184 -138.62060843 106.07754241 -140.31640625 107.01171875 C-141.32670898 107.56230957 -142.33701172 108.11290039 -143.37792969 108.68017578 C-145.81904157 109.91685661 -145.81904157 109.91685661 -146.70703125 112.12890625 C-145.81242187 112.0825 -144.9178125 112.03609375 -143.99609375 111.98828125 C-136.34995486 111.7600383 -129.31390871 111.82507975 -122.70703125 116.12890625 C-122.37703125 117.11890625 -122.04703125 118.10890625 -121.70703125 119.12890625 C-120.91425781 119.56847656 -120.12148437 120.00804688 -119.3046875 120.4609375 C-116.04136333 122.55633512 -115.4683341 124.21400197 -114.14453125 127.81640625 C-113.73203125 128.88375 -113.31953125 129.95109375 -112.89453125 131.05078125 C-112.50265625 132.0665625 -112.11078125 133.08234375 -111.70703125 134.12890625 C-108.0211613 142.42211363 -103.90595682 147.91450526 -95.70703125 152.12890625 C-91.48472496 153.67708522 -88.97984288 154.41074974 -84.70703125 153.12890625 C-90.97156434 146.54180173 -90.97156434 146.54180173 -97.89453125 140.69140625 C-109.2963579 130.3030753 -113.54854578 115.57547646 -114.26953125 100.75390625 C-114.31271484 99.92246094 -114.35589844 99.09101562 -114.40039062 98.234375 C-114.5056493 96.19937397 -114.60676197 94.16415922 -114.70703125 92.12890625 C-116.04945628 92.02354998 -116.04945628 92.02354998 -117.89941406 93.91748047 Z M-160.01953125 118.56640625 C-162.67574059 120.11071401 -164.69290317 120.69831652 -167.70703125 121.12890625 C-167.37703125 122.11890625 -167.04703125 123.10890625 -166.70703125 124.12890625 C-166.61499382 125.6475238 -166.57701841 127.17001051 -166.58203125 128.69140625 C-166.57816406 129.86896484 -166.57816406 129.86896484 -166.57421875 131.0703125 C-166.70703125 133.12890625 -166.70703125 133.12890625 -167.70703125 135.12890625 C-168.69703125 135.45890625 -169.68703125 135.78890625 -170.70703125 136.12890625 C-170.99578125 135.15953125 -171.28453125 134.19015625 -171.58203125 133.19140625 C-172.34917807 130.02226422 -172.34917807 130.02226422 -174.70703125 129.12890625 C-179.50440798 128.64916858 -181.83208403 128.7070567 -186.20703125 130.81640625 C-189.19361851 133.6565124 -189.16380684 136.50936232 -189.26953125 140.50390625 C-189.17687608 145.68024181 -188.2781854 149.60282497 -185.70703125 154.12890625 C-183.3452928 155.76598707 -181.46556422 156.87319018 -178.89453125 158.00390625 C-178.29060547 158.2978125 -177.68667969 158.59171875 -177.06445312 158.89453125 C-170.9891942 161.74578302 -165.1385975 162.24153939 -158.5078125 162.59375 C-157.11912939 162.67232776 -155.73045787 162.75111044 -154.34179688 162.83007812 C-152.18771159 162.94892253 -150.03356122 163.0656717 -147.87915039 163.1784668 C-124.04519669 164.44182803 -124.04519669 164.44182803 -116.70703125 170.12890625 C-115.22203125 170.62390625 -115.22203125 170.62390625 -113.70703125 171.12890625 C-113.45953125 171.70640625 -113.21203125 172.28390625 -112.95703125 172.87890625 C-111.01119265 176.38141572 -108.26978891 178.35419925 -104.70703125 180.12890625 C-101.70318532 180.78689155 -98.77777551 181.05231172 -95.70703125 181.12890625 C-95.83078125 179.89140625 -95.95453125 178.65390625 -96.08203125 177.37890625 C-96.15164062 176.6828125 -96.22125 175.98671875 -96.29296875 175.26953125 C-96.76820101 172.81267011 -97.28117068 171.19814293 -98.70703125 169.12890625 C-101.05768027 167.91827328 -101.05768027 167.91827328 -103.83203125 167.12890625 C-113.35725014 163.90402822 -120.0831237 160.82972892 -125.04467773 151.65551758 C-126.77278552 148.00275109 -128.39205497 144.30787235 -130.00585938 140.60351562 C-133.03706021 133.80779541 -133.03706021 133.80779541 -138.70703125 129.12890625 C-142.13036376 129.28813102 -143.27015495 129.69202995 -145.70703125 132.12890625 C-145.70703125 138.4469019 -144.07744757 141.61922331 -139.984375 146.3671875 C-138.70703125 148.12890625 -138.70703125 148.12890625 -138.70703125 151.12890625 C-144.77388519 152.03222052 -149.95026654 152.72509426 -155.70703125 150.12890625 C-158.45271594 147.76119894 -160.33283595 145.2227079 -161.51953125 141.75390625 C-162.1872954 132.40520809 -161.07708968 125.05613536 -155.70703125 117.12890625 C-157.87774908 116.95292821 -157.87774908 116.95292821 -160.01953125 118.56640625 Z M75.10546875 169.94140625 C68.28717854 175.24452086 61.97748313 176.2029882 53.578125 176.62890625 C52.84476425 176.66951172 52.1114035 176.71011719 51.3558197 176.75195312 C49.02254001 176.88100844 46.68905306 177.00548975 44.35546875 177.12890625 C41.28363064 177.29173689 38.21208247 177.45906422 35.140625 177.62890625 C34.44356949 177.66435547 33.74651398 177.69980469 33.02833557 177.73632812 C29.05468292 177.95614759 25.20492657 178.39819713 21.29296875 179.12890625 C21.29296875 179.45890625 21.29296875 179.78890625 21.29296875 180.12890625 C21.94523438 180.21527344 22.5975 180.30164063 23.26953125 180.390625 C29.43637686 181.38205003 32.91306552 182.63669781 37.29296875 187.12890625 C39.01667649 190.57632172 38.79603547 194.35925964 38.29296875 198.12890625 C35.99934208 201.18707514 33.95053533 202.88655446 30.12890625 203.4453125 C29.31679687 203.52652344 28.5046875 203.60773438 27.66796875 203.69140625 C26.85070312 203.77519531 26.0334375 203.85898438 25.19140625 203.9453125 C24.56492188 204.00589844 23.9384375 204.06648438 23.29296875 204.12890625 C27.16796875 198.25390625 27.16796875 198.25390625 28.29296875 197.12890625 C28.33360707 195.4627351 28.33568975 193.7950253 28.29296875 192.12890625 C25.05086356 191.29103504 25.05086356 191.29103504 21.29296875 192.12890625 C18.06662388 195.92913459 15.29296875 200.06544484 15.29296875 205.12890625 C16.93599828 206.81887948 18.60768187 208.48107019 20.29296875 210.12890625 C22.84739014 213.34139187 24.98868756 216.21606268 26.29296875 220.12890625 C31.87126891 220.25359724 31.87126891 220.25359724 37.29296875 219.12890625 C37.29296875 216.48890625 37.29296875 213.84890625 37.29296875 211.12890625 C43.04296875 212.75390625 43.04296875 212.75390625 45.29296875 216.12890625 C45.93705108 220.26943553 45.52015108 221.78813276 43.16796875 225.31640625 C39.32693612 229.46124937 34.83592388 231.31376579 29.29296875 232.12890625 C29.29296875 233.77890625 29.29296875 235.42890625 29.29296875 237.12890625 C31.14921875 236.63390625 31.14921875 236.63390625 33.04296875 236.12890625 C39.39938815 234.71078104 46.26950171 234.29918964 52.6796875 235.62109375 C56.09066256 236.28391402 59.38255207 236.37587952 62.85546875 236.44140625 C64.80646484 236.49748047 64.80646484 236.49748047 66.796875 236.5546875 C70.33823614 236.43074077 70.33823614 236.43074077 72.6953125 234.234375 C76.23655117 229.56755925 75.82781333 224.80464496 75.29296875 219.12890625 C74.20643472 215.3286786 74.20643472 215.3286786 71.29296875 213.12890625 C64.63898255 211.71926465 58.44180079 213.63372803 52.29296875 216.12890625 C53.83489045 209.16320734 55.19252239 205.06877786 61.29296875 201.12890625 C66.67813356 199.33385131 72.61650663 200.12890625 78.29296875 200.12890625 C78.29296875 189.56890625 78.29296875 179.00890625 78.29296875 168.12890625 C76.94783409 168.02256994 76.94783409 168.02256994 75.10546875 169.94140625 Z M-186.70703125 171.12890625 C-187.03703125 180.69890625 -187.36703125 190.26890625 -187.70703125 200.12890625 C-183.03978756 199.97186195 -183.03978756 199.97186195 -178.37451172 199.76855469 C-173.30068552 199.68323404 -170.58966866 200.96104008 -166.70703125 204.12890625 C-163.54392667 208.06141465 -162.18536025 211.10645179 -161.70703125 216.12890625 C-162.80015625 215.63390625 -163.89328125 215.13890625 -165.01953125 214.62890625 C-170.19299408 212.71998146 -175.26012925 212.09722979 -180.70703125 213.12890625 C-183.82895091 215.81520922 -184.51416325 217.7290579 -185.0703125 221.765625 C-185.35728172 227.77558032 -184.90356546 231.49382747 -180.70703125 236.12890625 C-177.18869542 236.89281299 -177.18869542 236.89281299 -173.33203125 236.56640625 C-171.40230469 236.50259766 -171.40230469 236.50259766 -169.43359375 236.4375 C-166.13614375 236.16444072 -162.96431824 235.6891054 -159.70703125 235.12890625 C-152.49900549 234.62163111 -145.74737269 235.62982214 -138.70703125 237.12890625 C-137.32477109 234.36438592 -137.61177738 232.08276995 -137.64453125 229.00390625 C-137.65355469 227.90820312 -137.66257813 226.8125 -137.671875 225.68359375 C-137.68347656 224.84054688 -137.69507813 223.9975 -137.70703125 223.12890625 C-139.68703125 223.12890625 -141.66703125 223.12890625 -143.70703125 223.12890625 C-143.70703125 225.43890625 -143.70703125 227.74890625 -143.70703125 230.12890625 C-146.64453125 229.75390625 -146.64453125 229.75390625 -149.70703125 229.12890625 C-151.08001755 226.38293365 -150.83115759 224.17000155 -150.70703125 221.12890625 C-149.70703125 218.12890625 -149.70703125 218.12890625 -147.46875 216.97265625 C-144.74308088 216.13992 -142.35069035 215.86309371 -139.51953125 215.62890625 C-132.2135343 214.45756435 -128.32397394 209.55706881 -123.70703125 204.12890625 C-131.68420225 194.0157411 -131.68420225 194.0157411 -142.70703125 188.12890625 C-145.03911145 188.0524446 -147.37549003 188.03747326 -149.70703125 188.12890625 C-150.68951321 192.18164433 -150.86721007 195.96425699 -150.70703125 200.12890625 C-149.67296452 201.38839674 -149.67296452 201.38839674 -147.421875 201.2265625 C-146.04708984 201.20916016 -146.04708984 201.20916016 -144.64453125 201.19140625 C-143.72542969 201.18238281 -142.80632812 201.17335937 -141.859375 201.1640625 C-141.14910156 201.15246094 -140.43882812 201.14085937 -139.70703125 201.12890625 C-140.15653575 202.4444561 -140.61692841 203.75628983 -141.08203125 205.06640625 C-141.33726562 205.79730469 -141.5925 206.52820313 -141.85546875 207.28125 C-142.70703125 209.12890625 -142.70703125 209.12890625 -144.70703125 210.12890625 C-150.16486423 210.55697158 -153.92840471 209.8337892 -158.70703125 207.12890625 C-163.07207161 201.73004054 -164.4333374 196.99249941 -163.70703125 190.12890625 C-162.83793885 186.09166889 -161.80510678 182.10943003 -160.70703125 178.12890625 C-161.88845703 177.99935547 -161.88845703 177.99935547 -163.09375 177.8671875 C-164.18300781 177.72667969 -165.27226562 177.58617187 -166.39453125 177.44140625 C-167.45027344 177.31378906 -168.50601563 177.18617188 -169.59375 177.0546875 C-175.4831555 175.72915179 -181.07267328 173.29596701 -186.70703125 171.12890625 Z M4.73046875 188.25390625 C2.80270859 190.76837603 2.63791768 193.02436592 2.29296875 196.12890625 C4.6936983 193.24803079 6.76587912 190.56485791 8.29296875 187.12890625 C6.24258599 186.93413801 6.24258599 186.93413801 4.73046875 188.25390625 Z M81.29296875 203.12890625 C81.29296875 203.78890625 81.29296875 204.44890625 81.29296875 205.12890625 C82.28296875 204.79890625 83.27296875 204.46890625 84.29296875 204.12890625 C83.30296875 203.79890625 82.31296875 203.46890625 81.29296875 203.12890625 Z M-186.70703125 251.12890625 C-186.96419162 255.60691947 -187.18266722 260.08603958 -187.39453125 264.56640625 C-187.46736328 265.82646484 -187.54019531 267.08652344 -187.61523438 268.38476562 C-188.2993551 278.7156113 -188.2993551 278.7156113 -184.70703125 288.12890625 C-181.8153383 290.54314156 -178.65972768 292.08066056 -175.26953125 293.69140625 C-173.26117749 294.71514176 -171.25475579 295.74267396 -169.25 296.7734375 C-168.18442871 297.31307129 -167.11885742 297.85270508 -166.02099609 298.40869141 C-160.87472451 301.08002113 -155.85717103 303.96730082 -150.83642578 306.8661499 C-148.46616485 308.2344264 -146.09192442 309.59572573 -143.71786499 310.95739746 C-142.51372702 311.64817707 -141.30980903 312.33934026 -140.10610962 313.03088379 C-135.98236816 315.39988463 -131.85245563 317.7578097 -127.71875 320.109375 C-116.29870164 326.60945028 -104.90418455 333.14922652 -93.56570435 339.7906189 C-92.33346996 340.51211484 -91.10078818 341.23284727 -89.86764526 341.95278931 C-83.75440264 345.52215504 -77.67093092 349.12349981 -71.68359375 352.90234375 C-70.7709375 353.47243164 -69.85828125 354.04251953 -68.91796875 354.62988281 C-67.2537339 355.67505749 -65.59911491 356.73578669 -63.95703125 357.81542969 C-60.5839681 359.92657389 -58.40292989 361.08883688 -54.3828125 361.3203125 C-48.93314601 359.55394876 -44.20909322 356.81364458 -39.26953125 353.94140625 C-38.16770508 353.31210205 -37.06587891 352.68279785 -35.93066406 352.03442383 C-32.51533752 350.07852819 -29.11013014 348.10598717 -25.70703125 346.12890625 C-24.70333496 345.54850586 -23.69963867 344.96810547 -22.66552734 344.37011719 C-15.66214841 340.31892462 -8.68199026 336.22878779 -1.70703125 332.12890625 C3.18809604 329.25270335 8.0838958 326.37764731 12.98046875 323.50390625 C13.59898712 323.14084381 14.21750549 322.77778137 14.85476685 322.40371704 C24.17417861 316.93521614 33.53088112 311.53609907 42.921875 306.19140625 C48.84163012 302.82095228 54.74673701 299.42516674 60.64859009 296.02349854 C62.38336523 295.02384629 64.11880006 294.02533915 65.85424805 293.02685547 C66.909104 292.4185791 67.96395996 291.81030273 69.05078125 291.18359375 C70.46061279 290.37124268 70.46061279 290.37124268 71.89892578 289.54248047 C73.73117852 288.460618 75.5225236 287.30920302 77.29296875 286.12890625 C77.55983088 283.4335031 77.64114948 280.97043161 77.5859375 278.27734375 C77.58169266 277.50331207 77.57744781 276.7292804 77.57307434 275.93179321 C77.55625873 273.45547948 77.5186027 270.97997467 77.48046875 268.50390625 C77.46542557 266.82683466 77.45173653 265.14975033 77.43945312 263.47265625 C77.40634596 259.35776044 77.35454512 255.24347056 77.29296875 251.12890625 C76.71289062 251.33386719 76.1328125 251.53882813 75.53515625 251.75 C68.10857704 254.31131197 61.28798782 255.24326352 53.48046875 255.56640625 C39.22192254 256.3065336 29.21651955 259.31679384 19.0546875 270.03515625 C14.27133673 275.47744133 14.27133673 275.47744133 12.29296875 282.12890625 C13.87078125 282.46921875 13.87078125 282.46921875 15.48046875 282.81640625 C19.47805838 283.9597331 21.65812538 285.87409973 24.29296875 289.12890625 C25.8747867 294.05687756 26.39561088 299.46735628 24.38671875 304.31640625 C21.38279763 309.39996507 17.73800891 314.05021335 11.91015625 315.875 C9.70901639 316.37525906 7.52507099 316.79657103 5.29296875 317.12890625 C5.71449219 316.51144531 6.13601562 315.89398438 6.5703125 315.2578125 C10.38164644 309.36593862 12.06643886 305.15133293 12.29296875 298.12890625 C8.29251973 295.93881495 4.79362891 295.23673999 0.29296875 296.12890625 C-5.79377756 299.01825179 -10.39812162 303.55620698 -14.8828125 308.4921875 C-16.70703125 310.12890625 -16.70703125 310.12890625 -18.75 310.546875 C-21.68265601 311.41906212 -22.17490762 313.55283564 -23.70703125 316.12890625 C-26.23828125 318.12109375 -26.23828125 318.12109375 -29.20703125 320.00390625 C-30.81191406 321.02291016 -30.81191406 321.02291016 -32.44921875 322.0625 C-34.06183594 323.08537109 -34.06183594 323.08537109 -35.70703125 324.12890625 C-37.13402344 325.13630859 -37.13402344 325.13630859 -38.58984375 326.1640625 C-44.45783547 330.23487727 -49.41529058 333.0417486 -56.70703125 332.12890625 C-65.71060521 329.64220487 -73.17350177 324.48053454 -80.70703125 319.12890625 C-81.45726562 318.62746094 -82.2075 318.12601562 -82.98046875 317.609375 C-87.58329332 314.50012003 -87.58329332 314.50012003 -88.70703125 311.12890625 C-90.35832176 310.21901148 -92.01216628 309.31339022 -93.6796875 308.43359375 C-96.05702014 306.90367255 -97.77300941 305.12483885 -99.70703125 303.06640625 C-104.302059 298.32115644 -108.20036138 296.05067035 -114.95703125 295.81640625 C-118.78404675 295.83092106 -118.78404675 295.83092106 -121.70703125 298.12890625 C-121.42472328 305.61006758 -118.52358942 310.77964739 -114.70703125 317.12890625 C-122.11186819 316.28900576 -126.80755175 313.77595891 -131.70703125 308.12890625 C-134.75545867 302.98468498 -135.68123847 298.00626626 -134.70703125 292.12890625 C-132.68194321 288.22337932 -130.54280978 285.3373848 -126.70703125 283.12890625 C-125.0465079 282.7662065 -123.37994603 282.42931434 -121.70703125 282.12890625 C-126.98089445 270.63743591 -135.91570213 261.85590358 -147.70703125 257.12890625 C-154.10470977 255.60250872 -160.84155494 255.85396217 -167.38867188 255.78710938 C-173.28166479 255.61271248 -177.67385986 254.68099638 -182.9362793 251.97973633 C-184.68005563 250.98454272 -184.68005563 250.98454272 -186.70703125 251.12890625 Z M-90.70703125 267.12890625 C-90.46655575 272.05865394 -88.96392443 274.90936309 -85.71875 278.453125 C-80.61620422 282.70359517 -74.19472578 285.0261155 -67.70703125 286.12890625 C-67.39359124 280.90490609 -67.63369864 277.45078023 -70.70703125 273.12890625 C-76.48986801 269.15646208 -83.68165241 266.70312571 -90.70703125 267.12890625 Z M-28.58203125 269.37890625 C-29.30261719 269.58386719 -30.02320313 269.78882813 -30.765625 270 C-34.98432516 271.28192546 -38.04832305 272.40401557 -40.70703125 276.12890625 C-41.39577508 278.70008539 -41.39577508 278.70008539 -41.45703125 281.37890625 C-41.51375 282.2709375 -41.57046875 283.16296875 -41.62890625 284.08203125 C-41.6546875 284.7575 -41.68046875 285.43296875 -41.70703125 286.12890625 C-34.53601716 285.0084353 -26.44759992 281.60614386 -21.51953125 276.12890625 C-19.63318839 273.00668358 -18.96546344 270.74695694 -18.70703125 267.12890625 C-22.1289797 267.12890625 -25.33033128 268.39476343 -28.58203125 269.37890625 Z " fill="#000000" transform="translate(209.70703125,2.87109375)"/>
</svg>
