<?xml version="1.0" encoding="UTF-8"?>
<svg version="1.1" xmlns="http://www.w3.org/2000/svg" width="310" height="392">
<path d="M0 0 C9.20716467 6.55900874 14.96652075 15.12998011 17.421875 26.234375 C19.65943386 43.30612035 15.42325289 59.71178877 5.30761719 73.61474609 C1.99215074 77.81839843 -1.58449643 81.76093414 -5.26171875 85.6484375 C-5.90109375 86.34453125 -6.54046875 87.040625 -7.19921875 87.7578125 C-11.22392393 91.97601312 -15.74199807 95.58620041 -20.27734375 99.23828125 C-24.44070353 102.60057573 -28.53299173 106.04511124 -32.6328125 109.484375 C-38.90612308 114.6484375 -38.90612308 114.6484375 -41.26171875 114.6484375 C-46.30860739 125.46319887 -45.48358316 135.45808676 -41.58642578 146.57470703 C-40.10132183 150.43557834 -38.54686188 154.19558064 -36.26171875 157.6484375 C-34.27652172 158.67627517 -34.27652172 158.67627517 -32.26171875 158.6484375 C-29.90386557 157.75507953 -29.90386557 157.75507953 -29.13671875 154.5859375 C-27.52731791 148.22558539 -28.05917233 143.08129737 -29.76171875 136.8359375 C-31.68213389 129.54938628 -32.86321613 122.38187904 -29.57421875 115.3359375 C-24.35131901 106.38761277 -17.80885771 100.75567795 -7.8125 98.0859375 C-1.14735194 96.94275744 4.83954071 98.43094266 10.73828125 101.6484375 C16.51086116 105.85261834 21.87507004 110.51412915 23.11328125 117.87890625 C23.40377569 123.29844317 22.36868664 126.4595082 18.73828125 130.6484375 C15.38614698 133.89168574 12.09317697 136.85422046 7.73828125 138.6484375 C4.98828125 138.2734375 4.98828125 138.2734375 2.73828125 137.6484375 C3.2467378 135.36038304 3.83256734 133.4546272 4.86328125 131.3359375 C6.05180716 127.68546506 5.76097058 125.33011909 4.73828125 121.6484375 C1.67925842 118.68500913 -0.98424786 118.4867011 -5.07421875 118.4609375 C-6.47063147 118.50877546 -7.86689796 118.56638922 -9.26171875 118.6484375 C-9.26171875 119.3084375 -9.26171875 119.9684375 -9.26171875 120.6484375 C-9.92171875 120.6484375 -10.58171875 120.6484375 -11.26171875 120.6484375 C-12.44108485 127.86672639 -12.04396727 133.37184677 -10.03125 140.375 C-8.48269079 146.96227216 -8.26171875 153.89667124 -8.26171875 160.6484375 C-7.14796875 160.0090625 -6.03421875 159.3696875 -4.88671875 158.7109375 C5.51336819 154.09773279 18.52076726 155.59765468 29.67797852 155.66040039 C47.21190042 155.78385725 47.21190042 155.78385725 62.73828125 148.6484375 C63.39828125 148.6484375 64.05828125 148.6484375 64.73828125 148.6484375 C68.34467832 141.68652316 70.16703534 135.50892922 69.73828125 127.6484375 C64.42408415 126.2226773 61.59500929 127.22007348 56.73828125 129.6484375 C55.93390625 130.0403125 55.12953125 130.4321875 54.30078125 130.8359375 C53.52734375 131.238125 53.52734375 131.238125 52.73828125 131.6484375 C52.73828125 132.3084375 52.73828125 132.9684375 52.73828125 133.6484375 C51.74828125 133.9784375 50.75828125 134.3084375 49.73828125 134.6484375 C47.36422754 130.17963053 47.29890379 126.41094145 48.73828125 121.6484375 C52.01259892 116.73696099 56.28804539 115.32865761 61.828125 114.03125 C67.31353386 113.30967944 72.08822433 113.98154671 76.8125 116.953125 C81.08822896 120.41314886 84.1476725 124.04551511 85.390625 129.5234375 C86.3128805 139.63034713 84.65437536 149.17908172 78.73828125 157.6484375 C78.07828125 157.6484375 77.41828125 157.6484375 76.73828125 157.6484375 C76.36896484 158.77378906 76.36896484 158.77378906 75.9921875 159.921875 C73.40723265 165.54274256 67.38934621 169.27623038 61.73828125 171.5234375 C53.88277591 173.74848565 45.29914961 173.46538116 37.18701172 173.73242188 C16.1994393 174.27105931 16.1994393 174.27105931 -0.98046875 185.40234375 C-2.76365735 188.52836034 -2.46542909 191.11745832 -2.26171875 194.6484375 C-1.78863281 193.84019531 -1.31554687 193.03195313 -0.828125 192.19921875 C3.34983591 185.44769907 6.887433 180.01409045 14.73828125 177.6484375 C20.05817067 176.68563543 24.20241012 176.86487608 28.73828125 179.9609375 C31.42894437 182.11476158 33.46211234 184.23041637 34.14453125 187.734375 C34.39267855 193.79330484 34.39267855 193.79330484 32.46484375 196.3125 C27.72070315 200.26980753 24.78696474 200.76045016 18.73828125 200.6484375 C19.85419862 198.04463031 20.80499492 196.58744214 22.92578125 194.6484375 C23.52390625 193.9884375 24.12203125 193.3284375 24.73828125 192.6484375 C24.60186748 190.42985497 24.60186748 190.42985497 23.73828125 188.6484375 C20.4062794 188.23071946 20.4062794 188.23071946 16.73828125 188.6484375 C13.0804079 192.00148807 11.51686186 196.11305694 9.73828125 200.6484375 C10.43953125 201.3084375 11.14078125 201.9684375 11.86328125 202.6484375 C15.9006983 206.68585455 19.91976814 211.19289818 21.73828125 216.6484375 C22.99640625 216.6690625 24.25453125 216.6896875 25.55078125 216.7109375 C26.25847656 216.72253906 26.96617187 216.73414063 27.6953125 216.74609375 C29.94133586 216.73106967 29.94133586 216.73106967 32.73828125 215.6484375 C33.06828125 213.0084375 33.39828125 210.3684375 33.73828125 207.6484375 C36.36262872 208.01041646 37.55841814 208.47499807 39.48828125 210.3359375 C41.1698492 213.4468382 41.29813942 215.14932395 40.73828125 218.6484375 C37.11104945 224.0892852 33.33311515 226.78880331 26.86328125 228.3359375 C26.16203125 228.4390625 25.46078125 228.5421875 24.73828125 228.6484375 C24.40828125 230.6284375 24.07828125 232.6084375 23.73828125 234.6484375 C24.95515625 234.1534375 26.17203125 233.6584375 27.42578125 233.1484375 C33.70333525 231.03599076 41.20304999 230.48643833 47.67260742 232.14404297 C51.14890036 232.99288131 54.67907698 232.95696679 58.23828125 233.0234375 C59.37716797 233.07951172 59.37716797 233.07951172 60.5390625 233.13671875 C64.47685001 233.19878545 66.14741882 233.14882412 69.23828125 230.53125 C70.99585207 227.15341859 71.27375376 224.9439966 71.23828125 221.1484375 C71.24859375 220.045 71.25890625 218.9415625 71.26953125 217.8046875 C70.62124641 213.95311288 69.60122307 212.2881669 66.73828125 209.6484375 C60.63580439 208.24726457 55.03029978 209.39181072 49.73828125 212.6484375 C49.07828125 212.6484375 48.41828125 212.6484375 47.73828125 212.6484375 C48.33950586 206.33557905 50.67780368 202.60589119 55.23828125 198.2734375 C60.73082615 195.72332737 67.03102244 195.44701103 72.84765625 197.33203125 C74.48828125 198.1484375 74.48828125 198.1484375 76.73828125 199.6484375 C76.73828125 200.3084375 76.73828125 200.9684375 76.73828125 201.6484375 C77.72828125 201.9784375 78.71828125 202.3084375 79.73828125 202.6484375 C84.47668678 208.29448127 85.23453711 214.68677079 85.30078125 221.7734375 C85.31520264 222.52488037 85.32962402 223.27632324 85.34448242 224.05053711 C85.21960416 231.05061481 82.55697804 235.92039232 78.73828125 241.6484375 C78.07828125 241.6484375 77.41828125 241.6484375 76.73828125 241.6484375 C76.73828125 242.3084375 76.73828125 242.9684375 76.73828125 243.6484375 C67.99215569 250.75466452 60.50599456 251.98554764 49.48828125 252.0234375 C40.21050747 252.23685851 32.74013878 252.55634635 24.73828125 257.6484375 C23.92746094 258.15503906 23.11664063 258.66164063 22.28125 259.18359375 C15.23246215 264.12826583 10.4144301 270.92319717 6.73828125 278.6484375 C7.62515625 278.7309375 8.51203125 278.8134375 9.42578125 278.8984375 C14.12500365 279.96241238 16.4751355 282.167508 19.55078125 285.7734375 C21.35834354 290.14964094 21.58239512 293.99197328 20.73828125 298.6484375 C18.05524863 304.67098945 13.74936832 309.78539818 7.73828125 312.6484375 C5.33599257 313.27246952 3.2336149 313.49566197 0.73828125 313.6484375 C1.15980469 313.03355469 1.58132812 312.41867187 2.015625 311.78515625 C2.56347656 310.97691406 3.11132812 310.16867187 3.67578125 309.3359375 C4.22105469 308.53542969 4.76632813 307.73492187 5.328125 306.91015625 C7.87771086 302.82093128 8.08356013 299.39602214 7.73828125 294.6484375 C4.57817768 292.54170179 3.579156 292.32955693 -0.07421875 292.2734375 C-0.90566406 292.24507813 -1.73710937 292.21671875 -2.59375 292.1875 C-9.34652068 293.35415731 -14.33685314 299.35521266 -19.11328125 303.93359375 C-23.05842529 307.6484375 -23.05842529 307.6484375 -25.26171875 307.6484375 C-25.26171875 308.3084375 -25.26171875 308.9684375 -25.26171875 309.6484375 C-26.63183594 310.88183594 -26.63183594 310.88183594 -28.55859375 312.2578125 C-29.2645166 312.76272217 -29.97043945 313.26763184 -30.69775391 313.7878418 C-31.4613623 314.31933838 -32.2249707 314.85083496 -33.01171875 315.3984375 C-33.78435059 315.93831299 -34.55698242 316.47818848 -35.35302734 317.03442383 C-52.90247194 329.09625429 -52.90247194 329.09625429 -61.26171875 328.6484375 C-70.78843596 325.92046061 -78.39180062 320.41482698 -86.26171875 314.6484375 C-87.69827807 313.66789126 -89.13556579 312.68840937 -90.57421875 311.7109375 C-91.46109375 311.0303125 -92.34796875 310.3496875 -93.26171875 309.6484375 C-93.26171875 308.9884375 -93.26171875 308.3284375 -93.26171875 307.6484375 C-93.79796875 307.431875 -94.33421875 307.2153125 -94.88671875 306.9921875 C-98.71405612 304.8267203 -101.68339243 301.66034909 -104.83984375 298.63671875 C-109.33831654 294.3995209 -112.10498642 292.36091574 -118.32421875 292.3984375 C-119.18144531 292.39328125 -120.03867188 292.388125 -120.921875 292.3828125 C-123.53224673 292.49851262 -123.53224673 292.49851262 -126.26171875 294.6484375 C-127.07765887 300.59314411 -125.41389525 303.89192744 -122.26171875 308.6484375 C-121.39546875 310.1025 -121.39546875 310.1025 -120.51171875 311.5859375 C-120.09921875 312.2665625 -119.68671875 312.9471875 -119.26171875 313.6484375 C-126.27806269 313.21886542 -130.3521296 310.89769234 -135.03515625 305.66796875 C-138.61526018 300.91970885 -140.18129946 296.99385371 -139.78125 291.01171875 C-138.91709052 287.08076772 -137.18261754 284.38678012 -134.26171875 281.6484375 C-130.95480902 279.59815347 -129.14705991 278.6484375 -125.26171875 278.6484375 C-132.3723911 266.63833846 -139.40363563 258.13259094 -152.89697266 253.23779297 C-158.74989376 251.77909469 -164.98004499 252.21255895 -170.97460938 252.20898438 C-180.51280162 252.04124176 -187.70716081 249.45963591 -195.26171875 243.6484375 C-195.26171875 242.9884375 -195.26171875 242.3284375 -195.26171875 241.6484375 C-195.92171875 241.6484375 -196.58171875 241.6484375 -197.26171875 241.6484375 C-198.515625 240.00390625 -198.515625 240.00390625 -199.82421875 237.8359375 C-200.25863281 237.12824219 -200.69304687 236.42054688 -201.140625 235.69140625 C-204.75385659 229.10701558 -204.06540198 219.98143318 -203.26171875 212.6484375 C-202.13681751 208.89587121 -200.7924035 205.66387313 -198.26171875 202.6484375 C-197.27171875 202.3184375 -196.28171875 201.9884375 -195.26171875 201.6484375 C-195.26171875 200.9884375 -195.26171875 200.3284375 -195.26171875 199.6484375 C-189.63132871 195.89484414 -183.878702 195.83949312 -177.26171875 196.6484375 C-172.34461923 198.93137656 -169.8236495 201.90412129 -167.26171875 206.6484375 C-166.51171875 210.0234375 -166.51171875 210.0234375 -166.26171875 212.6484375 C-172.01171875 210.7734375 -172.01171875 210.7734375 -174.26171875 209.6484375 C-176.79322599 209.33570761 -176.79322599 209.33570761 -179.63671875 209.2734375 C-181.07144531 209.19996094 -181.07144531 209.19996094 -182.53515625 209.125 C-185.43402682 209.43524512 -185.43402682 209.43524512 -187.58203125 211.765625 C-189.56267286 215.16495874 -189.79828797 217.23553097 -189.76171875 221.1484375 C-189.77203125 222.251875 -189.78234375 223.3553125 -189.79296875 224.4921875 C-189.12741468 228.44636169 -188.33157683 230.04865144 -185.26171875 232.6484375 C-182.40151069 233.26950266 -179.67321921 233.16678812 -176.76171875 233.0234375 C-176.00246094 233.00925781 -175.24320313 232.99507812 -174.4609375 232.98046875 C-170.9092214 232.88716623 -167.68724218 232.52611168 -164.26171875 231.6484375 C-156.25717937 231.09122726 -149.70198992 231.62188651 -142.26171875 234.6484375 C-142.27332031 234.06835938 -142.28492188 233.48828125 -142.296875 232.890625 C-142.34934049 228.3486129 -142.17922938 224.12130181 -141.26171875 219.6484375 C-143.57171875 219.6484375 -145.88171875 219.6484375 -148.26171875 219.6484375 C-148.26171875 221.6284375 -148.26171875 223.6084375 -148.26171875 225.6484375 C-150.07421875 226.3359375 -150.07421875 226.3359375 -152.26171875 226.6484375 C-154.01171875 225.5859375 -154.01171875 225.5859375 -155.26171875 223.6484375 C-155.82421875 220.7734375 -155.82421875 220.7734375 -155.26171875 217.6484375 C-151.92256486 213.79556762 -149.63505142 212.43594424 -144.57421875 211.8984375 C-143.82785156 211.86234375 -143.08148438 211.82625 -142.3125 211.7890625 C-139.54215678 211.59909611 -137.74696535 211.15309396 -135.796875 209.125 C-135.06791016 208.20847656 -135.06791016 208.20847656 -134.32421875 207.2734375 C-132.19473669 204.60448665 -130.05755939 202.61699916 -127.26171875 200.6484375 C-129.29412759 198.53461169 -131.33678867 196.43265946 -133.38671875 194.3359375 C-133.95648438 193.74103516 -134.52625 193.14613281 -135.11328125 192.53320312 C-139.05232192 188.52701971 -142.78647171 185.08429624 -148.59765625 184.35546875 C-151.4296875 184.50195312 -151.4296875 184.50195312 -154.26171875 184.6484375 C-155.20909898 187.49057818 -155.39632434 189.32452141 -155.38671875 192.2734375 C-155.38929688 193.07007813 -155.391875 193.86671875 -155.39453125 194.6875 C-155.47741949 196.65197286 -155.47741949 196.65197286 -154.26171875 197.6484375 C-152.57562909 197.72049261 -150.88671216 197.73229818 -149.19921875 197.7109375 C-148.28011719 197.70191406 -147.36101562 197.69289062 -146.4140625 197.68359375 C-145.70378906 197.67199219 -144.99351562 197.66039062 -144.26171875 197.6484375 C-146.35849294 204.90650202 -146.35849294 204.90650202 -149.26171875 206.6484375 C-154.42252291 207.25053132 -158.29913352 206.96139296 -162.71875 204.109375 C-166.60376365 200.43090638 -167.9839956 195.48835337 -168.76171875 190.3359375 C-168.0188144 184.8570179 -166.16506882 179.82317052 -164.26171875 174.6484375 C-164.95136719 174.61105469 -165.64101562 174.57367188 -166.3515625 174.53515625 C-179.55450477 173.61149362 -190.29399707 169.15555077 -199.63671875 159.4609375 C-205.06761521 152.90139795 -209.26196719 144.56600202 -208.6796875 135.86328125 C-207.03934525 127.17100037 -202.73093353 118.89877552 -195.51171875 113.6484375 C-189.82409463 111.89839931 -184.01482433 111.71783325 -178.38671875 113.8359375 C-174.90498938 115.85534053 -173.18784044 117.10437359 -171.26171875 120.6484375 C-170.7862273 123.71751866 -170.62794781 126.59948541 -171.26171875 129.6484375 C-172.7890625 131.421875 -172.7890625 131.421875 -174.26171875 132.6484375 C-174.69484375 131.6996875 -175.12796875 130.7509375 -175.57421875 129.7734375 C-177.05474076 126.44801813 -177.05474076 126.44801813 -180.26171875 124.6484375 C-184.19223089 124.12436922 -185.98704571 124.50053663 -189.51171875 126.3984375 C-192.7579039 129.05440717 -194.00855853 130.86454103 -194.59765625 135.015625 C-194.6908664 140.99971666 -193.99879649 143.97709032 -190.26171875 148.6484375 C-190.26171875 149.3084375 -190.26171875 149.9684375 -190.26171875 150.6484375 C-189.69195312 150.92558594 -189.1221875 151.20273438 -188.53515625 151.48828125 C-185.50328814 153.03547168 -182.59984882 154.78633532 -179.67578125 156.52734375 C-174.76839227 158.80634154 -169.36278682 158.83132414 -164.02734375 159.11328125 C-162.63410238 159.19184119 -161.24087359 159.27062438 -159.84765625 159.34960938 C-157.68470605 159.46860584 -155.5216925 159.58541846 -153.35839844 159.69799805 C-126.19568238 161.12941232 -126.19568238 161.12941232 -115.984375 171.96875 C-111.2507766 176.58427679 -105.83348342 178.6484375 -99.26171875 178.6484375 C-99.88592323 173.85044784 -100.50570388 169.79465359 -103.19921875 165.7109375 C-106.22572794 163.67267621 -107.96407031 163.16142904 -111.44921875 162.3984375 C-118.92924185 160.53848552 -124.32563835 156.42559511 -128.39160156 149.81005859 C-130.92471347 145.20511829 -133.09915226 140.43544103 -135.26171875 135.6484375 C-137.9442585 129.21365624 -137.9442585 129.21365624 -143.32421875 125.3984375 C-146.23681342 125.49418515 -146.23681342 125.49418515 -148.63671875 126.6484375 C-150.54969952 128.65709135 -150.54969952 128.65709135 -150.76171875 131.9609375 C-149.9449782 137.98439909 -146.61054729 141.61023957 -142.26171875 145.6484375 C-143.26171875 147.6484375 -143.26171875 147.6484375 -144.82421875 148.2734375 C-151.17372234 149.25028421 -155.79743977 149.2498941 -161.26171875 145.6484375 C-165.60160422 141.19125783 -166.1093209 137.93440526 -166.51171875 131.8984375 C-166.3734942 125.2259615 -164.61497786 119.68702868 -160.01171875 114.7734375 C-153.59053721 109.03167559 -148.05585918 108.05387008 -139.57421875 108.2109375 C-134.51173382 108.87956758 -130.53897589 110.94497927 -126.26171875 113.6484375 C-126.26171875 114.3084375 -126.26171875 114.9684375 -126.26171875 115.6484375 C-124.77671875 116.1434375 -124.77671875 116.1434375 -123.26171875 116.6484375 C-119.68094147 120.74556511 -117.90817034 125.49639757 -116.38671875 130.6484375 C-113.94979 138.34757892 -109.90974205 143.25123544 -103.07421875 147.5234375 C-97.76506011 150.25149999 -92.13754807 150.98231133 -86.26171875 151.6484375 C-87.53015625 150.48828125 -87.53015625 150.48828125 -88.82421875 149.3046875 C-91.77720513 146.59890963 -94.71142387 143.87346803 -97.64208984 141.14355469 C-98.95394666 139.93254908 -100.28646476 138.74395093 -101.625 137.5625 C-113.86102186 126.33184266 -118.04522992 111.96704041 -118.76147461 95.79003906 C-118.98061223 86.12751962 -118.08692772 78.70320654 -112.26171875 70.6484375 C-111.7203125 69.89433594 -111.17890625 69.14023438 -110.62109375 68.36328125 C-105.63667531 62.1327582 -98.91260602 57.07140037 -91.26171875 54.6484375 C-82.17414119 53.6908812 -73.87596705 53.32806034 -66.22265625 58.95703125 C-65.57554687 59.51519531 -64.9284375 60.07335937 -64.26171875 60.6484375 C-63.69710937 61.09316406 -63.1325 61.53789063 -62.55078125 61.99609375 C-59.41902925 64.96347202 -58.86354526 67.91220705 -58.63671875 72.0234375 C-58.86735005 77.64315348 -60.78810103 81.31882112 -64.26171875 85.6484375 C-66.26171875 84.6484375 -66.26171875 84.6484375 -67.19140625 82.21484375 C-67.82040085 80.21609644 -68.44541879 78.21609325 -69.06640625 76.21484375 C-70.03759029 73.56867987 -70.03759029 73.56867987 -72.16015625 72.32421875 C-77.30089138 70.67115708 -81.75447327 71.14353026 -86.57421875 73.3359375 C-90.59935005 75.56949075 -92.49882603 78.06758767 -93.8125 82.51171875 C-95.88694692 92.3788706 -93.26467432 100.63548234 -88.13671875 109.0234375 C-84.25499628 114.90004947 -79.8282749 120.29490115 -75.26171875 125.6484375 C-74.89820313 124.50568359 -74.89820313 124.50568359 -74.52734375 123.33984375 C-72.4446363 116.92350271 -70.15532929 110.7434895 -67.26171875 104.6484375 C-71.27181215 104.46979119 -71.27181215 104.46979119 -75.26171875 104.6484375 C-77.61145693 106.54598894 -77.61145693 106.54598894 -77.38671875 109.7734375 C-77.34546875 110.7221875 -77.30421875 111.6709375 -77.26171875 112.6484375 C-80.68060948 111.18319861 -83.07587895 109.69300007 -85.26171875 106.6484375 C-86.05423221 102.83128552 -86.14265965 99.29541396 -84.2734375 95.80078125 C-81.32501438 92.08558555 -78.4505207 89.97589606 -73.78125 89.27734375 C-67.39955732 89.12079429 -63.54904314 90.0008926 -58.33203125 93.75 C-56.28139908 94.87823788 -56.28139908 94.87823788 -54.03515625 94.171875 C-50.04295347 91.97897488 -46.43286972 89.33681057 -42.76171875 86.6484375 C-33.8081105 80.09173647 -33.8081105 80.09173647 -29.26171875 78.6484375 C-29.26171875 77.9884375 -29.26171875 77.3284375 -29.26171875 76.6484375 C-27.47513642 75.21321637 -25.62995543 73.85062544 -23.76171875 72.5234375 C-12.63851013 64.40287307 -2.65205264 54.78957242 -0.26171875 40.6484375 C0.43969583 31.20717456 -0.01287912 23.21282232 -6.26171875 15.6484375 C-10.84080083 12.28421393 -15.42468939 10.98375442 -21.08203125 11.2578125 C-25.42457392 12.03604595 -28.86041688 13.94250479 -31.69921875 17.3984375 C-32.86174992 22.04856217 -32.7834096 27.08336494 -31.26171875 31.6484375 C-35.73211313 30.82058669 -39.01401771 29.02521107 -42.07421875 25.6484375 C-44.15281372 20.39725021 -44.27170093 14.71981922 -42.5 9.33203125 C-38.96638328 1.97149365 -34.73202937 -2.59849951 -27.07421875 -5.6015625 C-17.68387721 -7.4488428 -8.14947056 -4.86997723 0 0 Z M-96.26171875 262.6484375 C-95.622627 267.92094446 -93.65902471 272.55151686 -89.640625 276.06640625 C-84.03396561 279.85468962 -77.69714403 281.72853563 -71.26171875 283.6484375 C-70.14076181 280.28556667 -70.36844524 279.46423036 -71.44921875 276.2109375 C-71.81080078 275.06818359 -71.81080078 275.06818359 -72.1796875 273.90234375 C-73.78731481 270.55360383 -75.57337842 268.3914559 -79.03637695 266.86743164 C-81.1167768 266.13960748 -83.20536767 265.50491333 -85.32421875 264.8984375 C-86.04416016 264.67800781 -86.76410156 264.45757812 -87.50585938 264.23046875 C-90.51545995 263.33066245 -93.10495867 262.6484375 -96.26171875 262.6484375 Z M-33.13671875 264.7734375 C-33.84441406 264.96164062 -34.55210937 265.14984375 -35.28125 265.34375 C-40.67664163 266.95131548 -43.13620615 268.9395673 -46.26171875 273.6484375 C-47.2466216 276.12500705 -47.2466216 276.12500705 -47.57421875 278.5234375 C-47.78498047 279.69519531 -47.78498047 279.69519531 -48 280.890625 C-48.08636719 281.47070312 -48.17273438 282.05078125 -48.26171875 282.6484375 C-46.09864874 284.02249593 -46.09864874 284.02249593 -42.9609375 282.57421875 C-41.62042046 282.04468117 -40.28328649 281.50651906 -38.94921875 280.9609375 C-38.28470703 280.70376953 -37.62019531 280.44660156 -36.93554688 280.18164062 C-31.27929561 277.90459387 -26.63276747 275.31746749 -23.94921875 269.5859375 C-23.62308594 268.91433594 -23.29695313 268.24273437 -22.9609375 267.55078125 C-22.08922338 265.51693036 -22.08922338 265.51693036 -22.26171875 262.6484375 C-26.11105753 262.6484375 -29.47985089 263.69284952 -33.13671875 264.7734375 Z " fill="#090909" transform="translate(214.26171875,6.3515625)"/>
<path d="M0 0 C2.73648618 1.28841193 5.18624595 2.93214405 7.6875 4.625 C9.11698749 5.55569661 10.5479804 6.48408509 11.98046875 7.41015625 C12.67188965 7.8602002 13.36331055 8.31024414 14.07568359 8.77392578 C17.31296559 10.83655331 20.68086812 12.62612837 24.06640625 14.4296875 C27.88159601 16.47190626 31.66104544 18.57470612 35.4375 20.6875 C36.12457031 21.06849854 36.81164062 21.44949707 37.51953125 21.84204102 C40.85536084 23.71061651 44.01228348 25.59301611 47 28 C46.09728165 34.09334887 41.37378442 37.72298315 36.75 41.3125 C35.85796875 42.00988281 34.9659375 42.70726562 34.046875 43.42578125 C33.37140625 43.94527344 32.6959375 44.46476562 32 45 C28.57819054 43.69326992 25.39217248 42.20890164 22.1875 40.4375 C21.24003906 39.91671875 20.29257813 39.3959375 19.31640625 38.859375 C16.83520395 37.46826511 14.36602267 36.0621318 11.90234375 34.640625 C11.19505127 34.23529541 10.48775879 33.82996582 9.7590332 33.41235352 C8.35950107 32.60907555 6.96335785 31.79985776 5.57104492 30.98413086 C0.59057853 28.10864268 0.59057853 28.10864268 -5 27 C-5.99 27.66 -6.98 28.32 -8 29 C-11.44771821 29.02048149 -14.89925406 28.55037297 -18 27 C-30.00761327 26.13168086 -39.12215342 26.16856139 -48.64453125 34.2421875 C-55.40050978 40.59260949 -60.14815962 46.76742982 -62.05078125 55.90234375 C-63.59997996 61.15539056 -65.94206895 63.03708662 -70.61352539 65.68896484 C-71.48356201 66.14223145 -72.35359863 66.59549805 -73.25 67.0625 C-75.06658977 68.07649422 -76.88299443 69.0908201 -78.69921875 70.10546875 C-80.04765869 70.83709229 -80.04765869 70.83709229 -81.42333984 71.58349609 C-85.03861314 73.57097152 -88.5468477 75.71800468 -92.0625 77.875 C-97.23962398 81.00157139 -102.48813471 83.96868982 -107.828125 86.80859375 C-110.18333502 88.05999828 -110.18333502 88.05999828 -113 90 C-114.32 90 -115.64 90 -117 90 C-117 89.34 -117 88.68 -117 88 C-124.07904528 84.99676867 -129.43562589 83.41392156 -137 85 C-139.73183699 86.15574011 -139.73183699 86.15574011 -142 88 C-142.825 88.61875 -143.65 89.2375 -144.5 89.875 C-149.42782156 95.03747973 -152.21149261 103.65481621 -152.5625 110.6875 C-152.0169777 118.94610156 -147.82968168 125.56042443 -143 132 C-143 132.66 -143 133.32 -143 134 C-142.401875 134.268125 -141.80375 134.53625 -141.1875 134.8125 C-138.85454737 136.07896 -137.59761911 136.87947272 -136 139 C-135.59594727 142.03100586 -135.59594727 142.03100586 -135.56640625 145.71484375 C-135.5611644 146.36699356 -135.55592255 147.01914337 -135.55052185 147.6910553 C-135.54410653 149.06868061 -135.54543243 150.44636073 -135.55395508 151.82397461 C-135.56245863 153.92726701 -135.53371639 156.02783583 -135.50195312 158.13085938 C-135.50034071 159.47135336 -135.50091941 160.81185213 -135.50390625 162.15234375 C-135.50112671 163.9775354 -135.50112671 163.9775354 -135.49829102 165.83959961 C-136.08882098 169.55950737 -137.02254374 170.76473815 -140 173 C-140.66 173 -141.32 173 -142 173 C-142.68774405 174.32258472 -143.34711373 175.65986503 -144 177 C-144.51304687 177.99515625 -145.02609375 178.9903125 -145.5546875 180.015625 C-147.5373439 184.67501934 -147.40422372 189.19406048 -147.3125 194.1875 C-147.31572266 195.07630859 -147.31894531 195.96511719 -147.32226562 196.88085938 C-147.28583811 201.28858859 -147.02880684 204.06101524 -145 208 C-145 208.99 -145 209.98 -145 211 C-144.34 211 -143.68 211 -143 211 C-139.73733027 213.11901519 -137.7844553 215.55682024 -136 219 C-135.09778131 225.85244439 -135.4530862 232.71341412 -135.72167969 239.60595703 C-136.44873276 249.02253232 -136.44873276 249.02253232 -133.12304688 257.35986328 C-130.79835443 258.92581527 -128.61273871 260.0014904 -126 261 C-125.15953125 261.48726563 -124.3190625 261.97453125 -123.453125 262.4765625 C-122.72609375 262.85554688 -121.9990625 263.23453125 -121.25 263.625 C-115.81865758 266.5297848 -110.46873925 269.56314758 -105.125 272.625 C-104.22249512 273.14199463 -103.31999023 273.65898926 -102.39013672 274.19165039 C-100.52492749 275.26050207 -98.65985751 276.3295968 -96.79492188 277.39892578 C-94.07846792 278.95504956 -91.36000421 280.50758853 -88.640625 282.05859375 C-63.23080044 296.55127373 -37.82269189 311.10207615 -12.84765625 326.3359375 C-11.43806641 327.15964844 -11.43806641 327.15964844 -10 328 C-8.98808594 328.61101562 -7.97617188 329.22203125 -6.93359375 329.8515625 C-4.09312832 331.29289865 -4.09312832 331.29289865 -1.40625 330.3359375 C-0.6121875 329.89507812 0.181875 329.45421875 1 329 C1.7115625 328.64164062 2.423125 328.28328125 3.15625 327.9140625 C17.9993161 319.75037615 32.64642464 311.22952093 47.296875 302.7265625 C50.51194816 300.86074389 53.73102433 299.00209306 56.953125 297.1484375 C64.02256158 293.07726798 71.07154914 288.99526023 78 284.6875 C82.5942226 281.8327252 87.2470924 279.17142362 92.01171875 276.61328125 C101.59666317 271.43866419 111.04331596 266.01194446 120.4375 260.5 C121.17758301 260.06655273 121.91766602 259.63310547 122.68017578 259.18652344 C126.03053684 257.35221567 126.03053684 257.35221567 129 255 C129.07361429 252.4290305 129.08812591 249.87931567 129.0703125 247.30859375 C129.07890519 245.70767146 129.08938426 244.1067584 129.1015625 242.50585938 C129.11818686 239.97968998 129.12518285 237.45556182 129.09960938 234.92944336 C128.96239268 219.1011857 128.96239268 219.1011857 133.4296875 213.84765625 C136.48720459 211 136.48720459 211 139 211 C139.144375 210.401875 139.28875 209.80375 139.4375 209.1875 C139.8872439 207.43849596 140.42892341 205.71322977 141 204 C141.27844438 200.77580612 141.2774649 197.54740761 141.3125 194.3125 C141.34150391 193.43916016 141.37050781 192.56582031 141.40039062 191.66601562 C141.45340448 186.2055886 140.71494469 182.42296524 137.96166992 177.68041992 C137 176 137 176 136 173 C134.06669397 171.90833725 134.06669397 171.90833725 132 171 C128.277695 167.277695 129.46485763 160.90824259 129.40966797 155.83642578 C129.38683041 154.37964713 129.34624734 152.92302219 129.28662109 151.46728516 C128.82580349 140.20943382 130.83166874 134.06698515 138 125 C142.49716788 116.82997112 143.23129096 107.79594786 140.6796875 98.8828125 C138.969406 94.14513615 136.68784165 91.11437936 132.3125 88.6875 C124.83986012 85.40009096 118.94822346 85.52943163 111.359375 88.40625 C106.99301329 89.5050695 103.52913166 87.9648429 99.76171875 85.76953125 C98.54838867 85.06944946 98.54838867 85.06944946 97.31054688 84.35522461 C96.44494141 83.84612549 95.57933594 83.33702637 94.6875 82.8125 C93.78193359 82.2872876 92.87636719 81.7620752 91.94335938 81.22094727 C88.95827376 79.48735219 85.97922757 77.74364005 83 76 C80.81936571 74.73116002 78.63837092 73.46293943 76.45703125 72.1953125 C60.55351261 62.94454169 60.55351261 62.94454169 54 59 C54.48684117 54.30240977 56.39605728 51.90793986 59.4375 48.375 C61.78353097 45.62603916 63.99434013 43.00848981 66 40 C69.70925152 40.57364196 72.3620063 41.57439194 75.5625 43.51953125 C76.43140869 44.04135986 77.30031738 44.56318848 78.19555664 45.10083008 C79.12102295 45.66568115 80.04648926 46.23053223 81 46.8125 C82.97701542 48.0014132 84.95490248 49.18887799 86.93359375 50.375 C87.94019043 50.97957031 88.94678711 51.58414063 89.98388672 52.20703125 C94.63956019 54.97465841 99.34936666 57.64430698 104.0625 60.3125 C110.85589422 64.16734752 117.54081523 68.1389104 124.16796875 72.2734375 C127.68994131 74.42062629 131.29012239 76.38751044 134.92822266 78.32958984 C138.43012236 80.23389741 141.89043737 82.20361825 145.34765625 84.1875 C145.99029419 84.55552734 146.63293213 84.92355469 147.29504395 85.30273438 C148.86371781 86.20120309 150.43190906 87.1005143 152 88 C152.32723811 111.44353897 152.57401403 134.88673509 152.72537041 158.33209896 C152.79752104 169.21867717 152.89585686 180.10383535 153.05615234 190.98950195 C153.19582329 200.47909053 153.28604362 209.96765078 153.31723893 219.45823866 C153.33547249 224.48277685 153.37821632 229.50437367 153.48022079 234.52796745 C153.57554038 239.26085846 153.60451294 243.98960989 153.58350754 248.7233696 C153.58734722 250.45654282 153.61504742 252.1898598 153.66887665 253.92220116 C154.04443928 266.63643277 154.04443928 266.63643277 150.65024233 270.56044888 C146.81639051 273.8027877 142.52037494 275.87563574 138 278 C135.91216459 279.18188273 133.83111796 280.37596964 131.76171875 281.58984375 C129.73923386 282.7098105 127.71446265 283.8256578 125.6875 284.9375 C118.38763167 288.98183748 111.11257344 293.05015563 103.9375 297.3125 C98.66248532 300.44566538 93.35722987 303.50946246 88 306.5 C81.92645573 309.8937124 75.91135121 313.37516064 69.92236328 316.91577148 C63.58946256 320.65936867 57.23338559 324.3623834 50.875 328.0625 C44.11746148 331.99589792 37.37687082 335.95170297 30.6875 340 C25.80429065 342.95285397 20.8709751 345.77290391 15.828125 348.4453125 C13.64984807 349.64276308 11.53798061 350.87979406 9.421875 352.1796875 C8.80256104 352.55343506 8.18324707 352.92718262 7.54516602 353.31225586 C6.33676496 354.0442207 5.13614099 354.78923568 3.94506836 355.54907227 C1.2055019 357.19201749 -0.71209923 357.99961562 -3.92578125 358.00390625 C-7.95484021 356.68819068 -11.28634138 354.72787103 -14.875 352.5 C-16.40151517 351.57675362 -17.92887758 350.65490681 -19.45703125 349.734375 C-20.22225098 349.27095703 -20.9874707 348.80753906 -21.77587891 348.33007812 C-25.0006763 346.40157141 -28.27721719 344.57287656 -31.5625 342.75 C-45.98980564 334.69562723 -60.27155341 326.36992232 -74.30078125 317.640625 C-77.70387084 315.57217691 -81.18641045 313.68627266 -84.6953125 311.8046875 C-91.93769597 307.84962702 -99.06874784 303.69253027 -106.22705078 299.58789062 C-108.87707216 298.07039291 -111.52970823 296.55760274 -114.18359375 295.046875 C-123.83386574 289.55172155 -133.46016534 284.0160336 -143.0625 278.4375 C-144.09221924 277.84146973 -145.12193848 277.24543945 -146.18286133 276.63134766 C-147.14474365 276.07108887 -148.10662598 275.51083008 -149.09765625 274.93359375 C-150.37394897 274.1919397 -150.37394897 274.1919397 -151.67602539 273.43530273 C-152.44293701 272.96165283 -153.20984863 272.48800293 -154 272 C-155.04701647 271.43684224 -155.04701647 271.43684224 -156.11518478 270.86230755 C-158.4203464 268.5846732 -158.47665602 267.0456338 -158.51632524 263.8754223 C-158.50467387 263.17989918 -158.4930225 262.48437606 -158.48101807 261.76777649 C-158.48443577 261.02609024 -158.48785347 260.28440399 -158.49137473 259.52024239 C-158.4979785 257.02783511 -158.47593756 254.53649798 -158.45410156 252.04418945 C-158.45297362 250.26051865 -158.45360591 248.47684599 -158.45587158 246.69317627 C-158.45702173 241.84417315 -158.43346379 236.99556385 -158.40557575 232.14665246 C-158.38061218 227.08177184 -158.37822409 222.01688272 -158.37347412 216.95195007 C-158.36102949 207.35777713 -158.32818776 197.76378598 -158.28807616 188.16969317 C-158.24340471 177.24845438 -158.22138306 166.32720702 -158.20129442 155.40589964 C-158.15945644 132.93716555 -158.08907549 110.46859295 -158 88 C-156.93491211 87.40324463 -155.86982422 86.80648926 -154.77246094 86.19165039 C-153.34307523 85.38952795 -151.9137146 84.58736084 -150.484375 83.78515625 C-149.78618652 83.3941272 -149.08799805 83.00309814 -148.36865234 82.60021973 C-143.62709169 79.93754564 -138.92598251 77.21362167 -134.25 74.4375 C-127.30963963 70.32942985 -120.31467651 66.32230289 -113.30307007 62.33737183 C-102.25292294 56.05642653 -91.29411106 49.65320388 -80.43359375 43.0480957 C-74.92194442 39.70581583 -69.35928432 36.51548456 -63.68579102 33.45605469 C-59.33675984 31.0983034 -55.04349988 28.64453034 -50.75 26.1875 C-49.8439502 25.66978027 -48.93790039 25.15206055 -48.00439453 24.61865234 C-41.97424663 21.16173708 -35.99805358 17.62604995 -30.05541992 14.02124023 C-25.5860873 11.32048727 -21.04068195 8.80072572 -16.4296875 6.3515625 C-13.47333643 4.70703281 -10.70057792 2.84895231 -7.94921875 0.8828125 C-5.03664129 -0.43631076 -3.18358413 -0.41325371 0 0 Z " fill="#0E0E0E" transform="translate(158,34)"/>
<path d="M0 0 C0.66 0.33 1.32 0.66 2 1 C-1.75 4 -1.75 4 -4 4 C-4 4.66 -4 5.32 -4 6 C-5.32 6 -6.64 6 -8 6 C-7.67 65.73 -7.34 125.46 -7 187 C-7.66 186.67 -8.32 186.34 -9 186 C-9 126.27 -9 66.54 -9 5 C-6.03 3.35 -3.06 1.7 0 0 Z " fill="#333333" transform="translate(9,117)"/>
<path d="M0 0 C3.465 1.485 3.465 1.485 7 3 C7 62.73 7 122.46 7 184 C6.67 184 6.34 184 6 184 C5.67 124.93 5.34 65.86 5 5 C4.01 4.67 3.02 4.34 2 4 C2 3.34 2 2.68 2 2 C1.34 2 0.68 2 0 2 C0 1.34 0 0.68 0 0 Z " fill="#313131" transform="translate(303,119)"/>
<path d="M0 0 C0 3 0 3 -1.6796875 4.71875 C-2.76636719 5.60046875 -2.76636719 5.60046875 -3.875 6.5 C-6.48194454 8.63040629 -8.10668572 10.16002857 -10 13 C-13.0390625 13.29296875 -13.0390625 13.29296875 -16.625 13.1875 C-17.81351563 13.16042969 -19.00203125 13.13335937 -20.2265625 13.10546875 C-21.14179687 13.07066406 -22.05703125 13.03585938 -23 13 C-23.28875 13.61875 -23.5775 14.2375 -23.875 14.875 C-25 17 -25 17 -27 19 C-27.6425235 21.06874034 -27.6425235 21.06874034 -28 23 C-27.34 23 -26.68 23 -26 23 C-26 22.01 -26 21.02 -26 20 C-25.01 19.67 -24.02 19.34 -23 19 C-23 20.98 -23 22.96 -23 25 C-24.8125 25.6875 -24.8125 25.6875 -27 26 C-28.75 24.9375 -28.75 24.9375 -30 23 C-30.5625 20.125 -30.5625 20.125 -30 17 C-26.66084611 13.14713012 -24.37333267 11.78750674 -19.3125 11.25 C-18.56613281 11.21390625 -17.81976563 11.1778125 -17.05078125 11.140625 C-14.29801608 10.95186396 -12.49956157 10.54573953 -10.60546875 8.4765625 C-10.13753906 7.86554688 -9.66960937 7.25453125 -9.1875 6.625 C-6.49901933 3.34357122 -3.98172012 1.61164862 0 0 Z " fill="#545454" transform="translate(89,207)"/>
<path d="M0 0 C1.48886719 0.21849609 1.48886719 0.21849609 3.0078125 0.44140625 C10.63262694 1.395766 18.34215297 1.64752777 26.01318359 2.04956055 C47.70806153 3.19940404 47.70806153 3.19940404 56 8 C53.38934904 9.30532548 52.2445219 8.78282536 49.4375 8.125 C48.63183594 7.94195312 47.82617188 7.75890625 46.99609375 7.5703125 C45 7 45 7 44 6 C42.32921182 5.85461632 40.65279243 5.77281266 38.9765625 5.71875 C37.955625 5.68136719 36.9346875 5.64398438 35.8828125 5.60546875 C34.80773437 5.57066406 33.73265625 5.53585938 32.625 5.5 C30.51288511 5.43112669 28.40089191 5.35838231 26.2890625 5.28125 C24.87681396 5.23581055 24.87681396 5.23581055 23.43603516 5.18945312 C21 5 21 5 18 4 C14.45111434 3.72833561 10.90249891 3.55459248 7.34765625 3.37890625 C4.32427364 3.03670308 2.54999393 2.57856767 0 1 C0 0.67 0 0.34 0 0 Z " fill="#5D5D5D" transform="translate(35,164)"/>
<path d="M0 0 C5.59013128 8.38519692 5.04411188 19.79254031 3.4296875 29.390625 C2.1276629 34.8454228 0.41443606 39.94118159 -2 45 C-3.09658936 41.71023192 -2.79953138 40.28696233 -2 37 C-1.34 37 -0.68 37 0 37 C0 24.79 0 12.58 0 0 Z " fill="#5A5A5A" transform="translate(228,24)"/>
<path d="M0 0 C2.47960136 0.14024219 4.95852402 0.2869185 7.4375 0.4375 C8.14455078 0.47681641 8.85160156 0.51613281 9.58007812 0.55664062 C14.88671875 0.88671875 14.88671875 0.88671875 16 2 C16.04063832 3.66617115 16.042721 5.33388095 16 7 C15.34 7 14.68 7 14 7 C13.91867358 10.04221065 13.85934626 13.0822238 13.8125 16.125 C13.78736328 16.9809375 13.76222656 17.836875 13.73632812 18.71875 C13.67601191 23.94615526 14.14738007 27.43281324 17 32 C15.1875 31.5 15.1875 31.5 13 30 C10.32035747 25.2125215 9.36472857 20.44518372 10 15 C11.17943281 10.94091306 12.54107544 6.96645115 14 3 C13.24074219 2.95101562 12.48148438 2.90203125 11.69921875 2.8515625 C10.70535156 2.77679688 9.71148437 2.70203125 8.6875 2.625 C7.70136719 2.55539063 6.71523438 2.48578125 5.69921875 2.4140625 C3 2 3 2 0 0 Z " fill="#626262" transform="translate(36,178)"/>
<path d="M0 0 C1.42512377 0.01007155 2.8502546 0.01918986 4.27539062 0.02734375 C7.70457846 0.04897708 11.13349067 0.08326503 14.5625 0.125 C14.5625 0.455 14.5625 0.785 14.5625 1.125 C12.88635103 1.22704534 11.21018193 1.32876675 9.53393555 1.42919922 C8.0301176 1.51943821 6.52637538 1.61094653 5.02270508 1.70361328 C0.8165369 1.95671264 -3.38614185 2.16781225 -7.59765625 2.30859375 C-16.93362758 2.6420213 -25.48471508 3.23172195 -34.4375 6.125 C-34.4375 5.465 -34.4375 4.805 -34.4375 4.125 C-33.4475 4.125 -32.4575 4.125 -31.4375 4.125 C-31.4375 3.465 -31.4375 2.805 -31.4375 2.125 C-20.86539424 0.43124802 -10.68856237 -0.13419254 0 0 Z " fill="#848484" transform="translate(256.4375,177.875)"/>
<path d="M0 0 C1.44359962 2.88719924 0.81320707 5.11280502 0.5 8.3125 C-0.25729013 17.89172843 0.13166822 26.82133831 3 36 C3.125 38.9375 3.125 38.9375 3 41 C-3.12347597 34.87652403 -2.2885603 22.03491787 -2.3125 13.875 C-2.31781738 12.96258545 -2.32313477 12.0501709 -2.32861328 11.11010742 C-2.28262879 6.78474182 -2.18239549 3.82394352 0 0 Z " fill="#5B5B5B" transform="translate(98,85)"/>
<path d="M0 0 C0.763125 0.495 1.52625 0.99 2.3125 1.5 C-0.97726808 2.59658936 -2.40053767 2.29953138 -5.6875 1.5 C-5.6875 0.84 -5.6875 0.18 -5.6875 -0.5 C-12.76486159 0.41219327 -15.95669822 2.19227117 -20.6875 7.5 C-21.3475 7.5 -22.0075 7.5 -22.6875 7.5 C-22.3575 10.47 -22.0275 13.44 -21.6875 16.5 C-22.3475 16.17 -23.0075 15.84 -23.6875 15.5 C-24.15819944 10.79300559 -24.54312871 6.88992621 -21.4375 3.0625 C-15.25309565 -2.70024042 -7.7683074 -3.15998945 0 0 Z " fill="#595959" transform="translate(152.6875,97.5)"/>
<path d="M0 0 C-2.54837092 1.27418546 -3.30383054 0.71001568 -6 0 C-7.51395696 -0.07818636 -9.03093507 -0.10789909 -10.546875 -0.09765625 C-11.39121094 -0.09443359 -12.23554688 -0.09121094 -13.10546875 -0.08789062 C-13.97816406 -0.07951172 -14.85085937 -0.07113281 -15.75 -0.0625 C-16.63816406 -0.05798828 -17.52632812 -0.05347656 -18.44140625 -0.04882812 C-20.62767329 -0.037074 -22.81380179 -0.02064249 -25 0 C-25.33 0.99 -25.66 1.98 -26 3 C-27.32 2.67 -28.64 2.34 -30 2 C-19.52734876 -4.41182729 -11.08283805 -5.42351649 0 0 Z " fill="#636363" transform="translate(225,108)"/>
<path d="M0 0 C2.9375 1.625 2.9375 1.625 3.9375 3.625 C0.9675 3.13 0.9675 3.13 -2.0625 2.625 C-2.0625 1.965 -2.0625 1.305 -2.0625 0.625 C-6.3525 0.625 -10.6425 0.625 -15.0625 0.625 C-15.0625 1.285 -15.0625 1.945 -15.0625 2.625 C-17.375 4.8125 -17.375 4.8125 -20.0625 6.625 C-21.0525 6.295 -22.0425 5.965 -23.0625 5.625 C-16.38630424 -1.42209552 -9.39648778 -3.8246035 0 0 Z " fill="#616161" transform="translate(36.0625,120.375)"/>
<path d="M0 0 C1.13308594 0.00644531 2.26617187 0.01289063 3.43359375 0.01953125 C6.5625 0.1875 6.5625 0.1875 8.51489258 0.67822266 C11.889915 1.51765234 15.35149763 1.56349722 18.8125 1.75 C19.55757813 1.79318359 20.30265625 1.83636719 21.0703125 1.88085938 C22.900849 1.98646725 24.73165176 2.08744201 26.5625 2.1875 C26.5625 2.5175 26.5625 2.8475 26.5625 3.1875 C22.6250162 3.21696879 18.68756144 3.23445407 14.75 3.25 C13.09967773 3.26256836 13.09967773 3.26256836 11.41601562 3.27539062 C4.40517366 3.29607157 -2.46925126 2.96427977 -9.4375 2.1875 C-5.86411688 -0.19475541 -4.23128986 -0.05283109 0 0 Z " fill="#646464" transform="translate(253.4375,237.8125)"/>
<path d="M0 0 C0.66 0.33 1.32 0.66 2 1 C3.9733999 8.11922748 3.67798878 16.8685477 2 24 C0.71488126 26.03131672 -0.61876037 28.03277992 -2 30 C-3.24324147 33.2249208 -3.24324147 33.2249208 -4 36 C-4.99 36 -5.98 36 -7 36 C-5.33258728 31.65697152 -3.28616884 27.61171531 -1.12109375 23.5 C2.24265508 15.99895732 1.12780173 7.89461211 0 0 Z " fill="#777777" transform="translate(299,131)"/>
<path d="M0 0 C0 1.98 0 3.96 0 6 C-0.66 6 -1.32 6 -2 6 C-2 6.99 -2 7.98 -2 9 C-2.66 9 -3.32 9 -4 9 C-3.34 6.69 -2.68 4.38 -2 2 C-11.405 4.97 -11.405 4.97 -21 8 C-21.33 7.34 -21.66 6.68 -22 6 C-14.71428571 2.57142857 -14.71428571 2.57142857 -10 3 C-10 2.34 -10 1.68 -10 1 C-3.375 0 -3.375 0 0 0 Z " fill="#494949" transform="translate(194,267)"/>
<path d="M0 0 C1.32 0 2.64 0 4 0 C4 0.66 4 1.32 4 2 C7.3 2 10.6 2 14 2 C14 1.34 14 0.68 14 0 C19.61 0 25.22 0 31 0 C31.33 0.99 31.66 1.98 32 3 C31.24976563 2.89300781 30.49953125 2.78601563 29.7265625 2.67578125 C23.22248307 1.91396842 18.37751365 2.00239735 12.25390625 4.40625 C9.46042805 5.14214027 7.74920487 4.83105049 5 4 C2.1875 1.9375 2.1875 1.9375 0 0 Z " fill="#727272" transform="translate(257,118)"/>
<path d="M0 0 C1.32 0 2.64 0 4 0 C5.97238976 3.94477952 5.62509292 9.00115637 4.328125 13.1484375 C3.61585997 14.79471044 2.81575615 16.40247755 2 18 C3.65 17.67 5.3 17.34 7 17 C4.48169253 20.12270126 3.2738451 20.94523098 -0.75 21.75 C-2.35875 21.87375 -2.35875 21.87375 -4 22 C-3.36771484 21.07767578 -3.36771484 21.07767578 -2.72265625 20.13671875 C-2.17480469 19.32847656 -1.62695312 18.52023437 -1.0625 17.6875 C-0.51722656 16.88699219 0.02804688 16.08648437 0.58984375 15.26171875 C3.14392773 11.16527934 3.33960931 7.75453038 3 3 C1.64570159 1.05630262 1.64570159 1.05630262 0 0 Z " fill="#696969" transform="translate(219,298)"/>
<path d="M0 0 C0.66 0 1.32 0 2 0 C2 0.99 2 1.98 2 3 C2.66 3 3.32 3 4 3 C5.2660657 7.47195873 5.18398011 11.7568985 5.1875 16.375 C5.19974609 17.21289062 5.21199219 18.05078125 5.22460938 18.9140625 C5.23762265 24.43169038 5.16517691 29.50171895 1.375 33.875 C0.92125 34.24625 0.4675 34.6175 0 35 C0.32484375 33.92685547 0.32484375 33.92685547 0.65625 32.83203125 C3.39864499 23.01781216 4.58276558 13.71876639 1 4 C0.65023242 2.67088318 0.30903983 1.33917261 0 0 Z " fill="#777777" transform="translate(211,24)"/>
<path d="M0 0 C0.99 1.485 0.99 1.485 2 3 C0.68 2.67 -0.64 2.34 -2 2 C-2 1.34 -2 0.68 -2 0 C-4.89589652 -0.02706445 -7.79153795 -0.04687029 -10.6875 -0.0625 C-11.50412109 -0.07087891 -12.32074219 -0.07925781 -13.16210938 -0.08789062 C-17.24499084 -0.10442051 -21.01651707 -0.03035098 -25 1 C-18.79815391 -7.02591846 -7.58392094 -3.94363889 0 0 Z " fill="#6B6B6B" transform="translate(292,124)"/>
<path d="M0 0 C0.33 0.66 0.66 1.32 1 2 C0.33333333 4 -0.33333333 6 -1 8 C-1.27580863 10.28452807 -1.4843786 12.57818383 -1.625 14.875 C-1.69976562 16.02742188 -1.77453125 17.17984375 -1.8515625 18.3671875 C-1.90054688 19.23601562 -1.94953125 20.10484375 -2 21 C-1.34 21 -0.68 21 0 21 C0.33 22.98 0.66 24.96 1 27 C-2.2971168 24.12831763 -3.60277379 22.36948826 -4 18 C-4.41806502 11.72902468 -3.44934411 6.79974227 -1 1 C-0.67 0.67 -0.34 0.34 0 0 Z " fill="#696969" transform="translate(52,124)"/>
<path d="M0 0 C4.12650768 0.0694143 8.25216574 0.15763188 12.37792969 0.26245117 C13.7782107 0.29547667 15.17861769 0.32357655 16.57910156 0.34643555 C24.20918349 0.47432922 31.01273189 0.64142912 38 4 C38 4.66 38 5.32 38 6 C37.42822021 5.78996338 36.85644043 5.57992676 36.26733398 5.36352539 C29.14344796 2.96343153 22.54076087 2.52993289 15.0625 2.4375 C12.84490247 2.40310877 10.62741227 2.36052948 8.41015625 2.30859375 C6.95814819 2.29010376 6.95814819 2.29010376 5.47680664 2.27124023 C3 2 3 2 0 0 Z " fill="#666666" transform="translate(31,256)"/>
<path d="M0 0 C-1.97033203 0.09087891 -1.97033203 0.09087891 -3.98046875 0.18359375 C-5.71615541 0.26803256 -7.45183198 0.35267888 -9.1875 0.4375 C-10.05181641 0.47681641 -10.91613281 0.51613281 -11.80664062 0.55664062 C-15.95914122 0.76347016 -19.94537862 1.00103531 -24 2 C-18.41019061 -5.23387097 -7.17680315 -3.75329323 0 0 Z " fill="#616161" transform="translate(205,3)"/>
<path d="M0 0 C2.57210932 1.28605466 2.93328457 2.36621768 4 5 C4.25878906 7.05883789 4.25878906 7.05883789 4.265625 9.22265625 C4.26820313 10.00833984 4.27078125 10.79402344 4.2734375 11.60351562 C4.26570312 12.41498047 4.25796875 13.22644531 4.25 14.0625 C4.25773438 14.87783203 4.26546875 15.69316406 4.2734375 16.53320312 C4.27085937 17.31759766 4.26828125 18.10199219 4.265625 18.91015625 C4.26336914 19.62308838 4.26111328 20.33602051 4.25878906 21.07055664 C4 23 4 23 2 26 C1.34 25.67 0.68 25.34 0 25 C0.495 23.515 0.495 23.515 1 22 C3.12514158 14.42538823 1.7217629 7.50196694 0 0 Z " fill="#555555" transform="translate(184,139)"/>
<path d="M0 0 C0.33 0 0.66 0 1 0 C2.59907122 5.01172321 3.34013183 9.5213375 3.625 14.8125 C3.69976562 16.11832031 3.77453125 17.42414063 3.8515625 18.76953125 C3.93162226 20.51188441 4 22.25580846 4 24 C4.66 24.33 5.32 24.66 6 25 C4.68 25.33 3.36 25.66 2 26 C2 20.39 2 14.78 2 9 C1.34 9 0.68 9 0 9 C0 6.03 0 3.06 0 0 Z " fill="#6E6E6E" transform="translate(202,143)"/>
<path d="M0 0 C1.15866723 4.63466892 0.70010994 7.33260039 0 12 C-0.66 12 -1.32 12 -2 12 C-2 12.99 -2 13.98 -2 15 C-4.49361571 13.79618552 -6.68143083 12.54571278 -9 11 C-8.67 9.68 -8.34 8.36 -8 7 C-6.68 8.65 -5.36 10.3 -4 12 C-2.68 8.04 -1.36 4.08 0 0 Z " fill="#626262" transform="translate(143,120)"/>
<path d="M0 0 C0.99 0.33 1.98 0.66 3 1 C3 1.66 3 2.32 3 3 C0 5 0 5 -4 5 C-4 5.66 -4 6.32 -4 7 C-6.3125 9.1875 -6.3125 9.1875 -9 11 C-9.99 10.67 -10.98 10.34 -12 10 C-6.62903226 4.33064516 -6.62903226 4.33064516 -3 3 C-2.01 3 -1.02 3 0 3 C0 2.01 0 1.02 0 0 Z " fill="#505050" transform="translate(89,282)"/>
<path d="M0 0 C2.62434747 0.36197896 3.82013689 0.82656057 5.75 2.6875 C7.37492611 5.69361331 7.4304064 7.62848316 7 11 C5.4765625 12.68359375 5.4765625 12.68359375 4 14 C4.01740234 12.93458984 4.01740234 12.93458984 4.03515625 11.84765625 C4.04417969 10.92855469 4.05320313 10.00945312 4.0625 9.0625 C4.07410156 8.14597656 4.08570313 7.22945312 4.09765625 6.28515625 C4.25949049 4.03406673 4.25949049 4.03406673 3 3 C2.896875 3.639375 2.79375 4.27875 2.6875 4.9375 C2.460625 5.618125 2.23375 6.29875 2 7 C1.01 7.33 0.02 7.66 -1 8 C-0.67 5.36 -0.34 2.72 0 0 Z " fill="#6A6A6A" transform="translate(248,214)"/>
<path d="M0 0 C1.15048828 0.00483398 1.15048828 0.00483398 2.32421875 0.00976562 C3.07574219 -0.00634766 3.82726562 -0.02246094 4.6015625 -0.0390625 C9.51103933 -0.04334651 12.76815174 0.72354047 17.07421875 3.32226562 C14.33300436 4.37657885 13.22959145 4.37893096 10.41796875 3.35351562 C6.59993433 2.17599099 3.14495521 2.09785754 -0.80078125 2.19726562 C-1.83332031 2.21080078 -1.83332031 2.21080078 -2.88671875 2.22460938 C-4.56655963 2.2479405 -6.24621871 2.28380236 -7.92578125 2.32226562 C-5.34277478 -0.26074084 -3.52645473 0.034087 0 0 Z " fill="#686868" transform="translate(128.92578125,60.677734375)"/>
<path d="M0 0 C5.94 0.33 11.88 0.66 18 1 C14.40111915 3.3992539 12.31326894 3.78787202 8 4 C5.17404999 3.22928636 2.69624164 2.18256212 0 1 C0 0.67 0 0.34 0 0 Z " fill="#696969" transform="translate(145,331)"/>
<path d="M0 0 C0.33 0 0.66 0 1 0 C1.33 2.97 1.66 5.94 2 9 C-0.52475462 10.26237731 -2.31200466 10.09856404 -5.125 10.0625 C-6.03507812 10.05347656 -6.94515625 10.04445312 -7.8828125 10.03515625 C-8.58148438 10.02355469 -9.28015625 10.01195312 -10 10 C-10 9.34 -10 8.68 -10 8 C-10.66 8 -11.32 8 -12 8 C-11.67 7.34 -11.34 6.68 -11 6 C-9.948125 6.495 -9.948125 6.495 -8.875 7 C-5.73996884 8.09044562 -3.29436818 8.15322643 0 8 C0 5.36 0 2.72 0 0 Z " fill="#4F4F4F" transform="translate(115,177)"/>
<path d="M0 0 C7.827522 0.26489076 14.07728579 1.24145567 21 5 C16.84794639 7.0760268 10.93144177 4.28118997 6.6875 3 C4.35172805 2.13087555 2.2140192 1.13297358 0 0 Z " fill="#6B6B6B" transform="translate(70,167)"/>
<path d="M0 0 C0.93423645 3.01031744 1.04449911 3.86650268 0 7 C2.64 6.67 5.28 6.34 8 6 C4.79663178 8.83374881 2.21912747 9.5205537 -2 10 C-2.6875 8.375 -2.6875 8.375 -3 6 C-1.5625 2.75 -1.5625 2.75 0 0 Z " fill="#6C6C6C" transform="translate(220,135)"/>
<path d="M0 0 C3 3 3 3 3.3984375 5.15625 C3.39070313 5.9296875 3.38296875 6.703125 3.375 7.5 C3.38273437 8.2734375 3.39046875 9.046875 3.3984375 9.84375 C2.91655268 12.45159728 2.01270624 13.33871866 0 15 C-0.99 12.69 -1.98 10.38 -3 8 C-0.525 8.495 -0.525 8.495 2 9 C1.34 6.03 0.68 3.06 0 0 Z " fill="#626262" transform="translate(40,124)"/>
<path d="M0 0 C0.99 0.33 1.98 0.66 3 1 C1.42356682 2.01084265 -0.1614517 3.00830511 -1.75 4 C-2.63171875 4.556875 -3.5134375 5.11375 -4.421875 5.6875 C-7 7 -7 7 -11 7 C-11 6.34 -11 5.68 -11 5 C-11.99 4.67 -12.98 4.34 -14 4 C-11.45733619 3.28805413 -9.0731939 2.88618171 -6.4375 2.5625 C-2.88999771 2.22498113 -2.88999771 2.22498113 0 0 Z " fill="#656565" transform="translate(52,117)"/>
<path d="M0 0 C0.66 0.33 1.32 0.66 2 1 C1.505 1.7425 1.505 1.7425 1 2.5 C-0.82489894 7.06224735 -0.55053541 12.34839376 1 17 C-2.26954202 16.43628586 -3.82575883 15.50037734 -6 13 C-4.68 13.33 -3.36 13.66 -2 14 C-2.02320313 13.24074219 -2.04640625 12.48148438 -2.0703125 11.69921875 C-2.08835938 10.70535156 -2.10640625 9.71148437 -2.125 8.6875 C-2.14820313 7.70136719 -2.17140625 6.71523438 -2.1953125 5.69921875 C-2 3 -2 3 0 0 Z " fill="#6D6D6D" transform="translate(182,21)"/>
<path d="M0 0 C1 2 1 2 1 6 C1.66 6.33 2.32 6.66 3 7 C3 6.01 3 5.02 3 4 C3.99 3.67 4.98 3.34 6 3 C6 4.98 6 6.96 6 9 C4.1875 9.6875 4.1875 9.6875 2 10 C0.25 8.9375 0.25 8.9375 -1 7 C-1.25 3.875 -1.25 3.875 -1 1 C-0.67 0.67 -0.34 0.34 0 0 Z " fill="#6E6E6E" transform="translate(60,223)"/>
<path d="M0 0 C0.33 0.66 0.66 1.32 1 2 C0.06421005 4.35981813 -0.93347808 6.69631264 -2 9 C-0.68 10.65 0.64 12.3 2 14 C-0.97 13.505 -0.97 13.505 -4 13 C-3.67 9.7 -3.34 6.4 -3 3 C-2.34 3 -1.68 3 -1 3 C-0.67 2.01 -0.34 1.02 0 0 Z " fill="#6A6A6A" transform="translate(226,198)"/>
<path d="M0 0 C0.33 1.32 0.66 2.64 1 4 C-0.59576199 5.50893816 -2.20189911 7.00691076 -3.8125 8.5 C-4.70582031 9.3353125 -5.59914062 10.170625 -6.51953125 11.03125 C-9 13 -9 13 -12 13 C-11.30132812 12.31292969 -10.60265625 11.62585938 -9.8828125 10.91796875 C-8.97273437 10.01691406 -8.06265625 9.11585937 -7.125 8.1875 C-6.22007812 7.29417969 -5.31515625 6.40085937 -4.3828125 5.48046875 C-1.90168486 3.04361667 -1.90168486 3.04361667 0 0 Z " fill="#6B6B6B" transform="translate(207,63)"/>
<path d="M0 0 C2.2477975 2.05233685 3.0022242 3.00667261 4 6 C5.8871875 6.0309375 5.8871875 6.0309375 7.8125 6.0625 C8.52019531 6.07410156 9.22789062 6.08570313 9.95703125 6.09765625 C12.20305461 6.08263217 12.20305461 6.08263217 15 5 C15 5.99 15 6.98 15 8 C11.04 8 7.08 8 3 8 C0 2.25 0 2.25 0 0 Z " fill="#5D5D5D" transform="translate(232,217)"/>
<path d="M0 0 C0.69867188 0.08378906 1.39734375 0.16757813 2.1171875 0.25390625 C3.02726562 0.35574219 3.93734375 0.45757812 4.875 0.5625 C5.77992187 0.66691406 6.68484375 0.77132812 7.6171875 0.87890625 C10.01653057 1.19674852 10.01653057 1.19674852 12 0 C12.33 1.32 12.66 2.64 13 4 C10.36 4 7.72 4 5 4 C5 3.34 5 2.68 5 2 C3.35 2 1.7 2 0 2 C0 1.34 0 0.68 0 0 Z " fill="#616161" transform="translate(118,157)"/>
<path d="M0 0 C1.10673176 3.32019529 0.74905299 5.57869587 0.2578125 8.9921875 C-0.04383164 11.34135546 -0.07392313 13.63445989 0 16 C-0.33 14.68 -0.66 13.36 -1 12 C-1.66 12 -2.32 12 -3 12 C-3 9.69 -3 7.38 -3 5 C-2.34 5 -1.68 5 -1 5 C-0.67 3.35 -0.34 1.7 0 0 Z " fill="#626262" transform="translate(202,127)"/>
<path d="M0 0 C4.6296487 0.06692002 7.79054742 0.74420644 11.75 3.3125 C8.46023192 4.40908936 7.03696233 4.11203138 3.75 3.3125 C3.75 2.6525 3.75 1.9925 3.75 1.3125 C0.12 1.6425 -3.51 1.9725 -7.25 2.3125 C-4.67767294 -0.25982706 -3.57102308 0.01463534 0 0 Z " fill="#6D6D6D" transform="translate(143.25,95.6875)"/>
<path d="M0 0 C-3.31016094 1.84790538 -6.57173491 2.74541487 -10.25 3.625 C-11.86648437 4.01558594 -11.86648437 4.01558594 -13.515625 4.4140625 C-14.33546875 4.60742188 -15.1553125 4.80078125 -16 5 C-16 4.34 -16 3.68 -16 3 C-15.01 3 -14.02 3 -13 3 C-13 2.34 -13 1.68 -13 1 C-8.59085217 -0.10228696 -4.51617599 -0.07654536 0 0 Z " fill="#616161" transform="translate(238,179)"/>
<path d="M0 0 C0.66 0 1.32 0 2 0 C1.84402344 0.77085937 1.68804687 1.54171875 1.52734375 2.3359375 C1.33269531 3.33882813 1.13804687 4.34171875 0.9375 5.375 C0.74027344 6.37273437 0.54304687 7.37046875 0.33984375 8.3984375 C-0.24382952 10.97842539 -0.24382952 10.97842539 1 13 C-0.32 13 -1.64 13 -3 13 C-3 11.35 -3 9.7 -3 8 C-2.34 8 -1.68 8 -1 8 C-0.67 5.36 -0.34 2.72 0 0 Z " fill="#636363" transform="translate(167,278)"/>
<path d="M0 0 C0.66 0 1.32 0 2 0 C2.33 2.64 2.66 5.28 3 8 C3.66 8 4.32 8 5 8 C5 9.65 5 11.3 5 13 C3.68 12.67 2.36 12.34 1 12 C1.33 11.01 1.66 10.02 2 9 C1.68947314 6.69663375 1.68947314 6.69663375 1.0625 4.3125 C0.86785156 3.50425781 0.67320312 2.69601562 0.47265625 1.86328125 C0.31667969 1.24839844 0.16070312 0.63351562 0 0 Z " fill="#636363" transform="translate(141,278)"/>
<path d="M0 0 C5.61 0 11.22 0 17 0 C17.33 0.99 17.66 1.98 18 3 C16.88625 2.7525 16.88625 2.7525 15.75 2.5 C10.49590599 1.79945413 5.29248251 1.92292501 0 2 C0 1.34 0 0.68 0 0 Z " fill="#494949" transform="translate(271,118)"/>
<path d="M0 0 C1.21816406 0.03480469 1.21816406 0.03480469 2.4609375 0.0703125 C3.68683594 0.09738281 3.68683594 0.09738281 4.9375 0.125 C5.87722656 0.15980469 5.87722656 0.15980469 6.8359375 0.1953125 C6.8359375 0.5253125 6.8359375 0.8553125 6.8359375 1.1953125 C5.5571875 1.3190625 4.2784375 1.4428125 2.9609375 1.5703125 C-0.51197186 1.88573649 -0.51197186 1.88573649 -3.1640625 4.1953125 C-3.33087359 7.27879076 -3.33087359 7.27879076 -3.1640625 10.1953125 C-4.4840625 9.5353125 -5.8040625 8.8753125 -7.1640625 8.1953125 C-6.5040625 7.8653125 -5.8440625 7.5353125 -5.1640625 7.1953125 C-4.82252313 5.53030807 -4.48956752 3.86352573 -4.1640625 2.1953125 C-2.1640625 0.1953125 -2.1640625 0.1953125 0 0 Z " fill="#7B7B7B" transform="translate(140.1640625,108.8046875)"/>
<path d="M0 0 C0 0.33 0 0.66 0 1 C-4.95 2.32 -9.9 3.64 -15 5 C-15 4.34 -15 3.68 -15 3 C-9.63560356 0.31780178 -5.98993047 -0.3152595 0 0 Z " fill="#646464" transform="translate(187,270)"/>
<path d="M0 0 C3.89799684 3.72851871 3.89799684 3.72851871 4.16796875 7.09375 C4.17441406 7.8878125 4.18085938 8.681875 4.1875 9.5 C4.20167969 10.2940625 4.21585938 11.088125 4.23046875 11.90625 C4 14 4 14 2 16 C2.03480469 15.14728516 2.03480469 15.14728516 2.0703125 14.27734375 C2.19191688 9.07441352 1.67723492 4.92687757 0 0 Z " fill="#6E6E6E" transform="translate(233,117)"/>
<path d="M0 0 C3.96 0 7.92 0 12 0 C12 0.99 12 1.98 12 3 C11.39671875 2.91621094 10.7934375 2.83242187 10.171875 2.74609375 C8.97304688 2.59333984 8.97304688 2.59333984 7.75 2.4375 C6.96109375 2.33308594 6.1721875 2.22867188 5.359375 2.12109375 C2.99467126 1.99972651 1.2488963 2.30366743 -1 3 C-0.67 2.01 -0.34 1.02 0 0 Z " fill="#545454" transform="translate(25,129)"/>
<path d="M0 0 C0.33 0.66 0.66 1.32 1 2 C-1.47812494 5.45167403 -2.79606135 7.23163306 -7 8 C-6.21366078 6.85050412 -5.42073742 5.70551011 -4.625 4.5625 C-4.18414062 3.92441406 -3.74328125 3.28632812 -3.2890625 2.62890625 C-2 1 -2 1 0 0 Z " fill="#515151" transform="translate(194,111)"/>
<path d="M0 0 C1.47177418 3.82661288 0.57016757 6.31010622 -1 10 C-1.96715918 11.03179606 -2.96225307 12.0392288 -4 13 C-3.52511102 11.01980257 -3.04497141 9.04086365 -2.5625 7.0625 C-2.29566406 5.96035156 -2.02882812 4.85820313 -1.75390625 3.72265625 C-1 1 -1 1 0 0 Z " fill="#616161" transform="translate(215,46)"/>
<path d="M0 0 C0.99 0 1.98 0 3 0 C1.47291037 3.43595166 -0.59927045 6.11912454 -3 9 C-2.25 2.25 -2.25 2.25 0 0 Z " fill="#333333" transform="translate(63,220)"/>
<path d="M0 0 C0.33 0.66 0.66 1.32 1 2 C-1.3125 4.0625 -1.3125 4.0625 -4 6 C-4.99 5.67 -5.98 5.34 -7 5 C-4.53846154 1.18461538 -4.53846154 1.18461538 -1.8125 0.25 C-1.214375 0.1675 -0.61625 0.085 0 0 Z " fill="#454545" transform="translate(20,121)"/>
<path d="M0 0 C1.65 1.65 3.3 3.3 5 5 C2.39417629 5.93065133 1.35801776 6.14917407 -1.25 5.0625 C-1.8275 4.711875 -2.405 4.36125 -3 4 C-1.68 3.67 -0.36 3.34 1 3 C0.67 2.01 0.34 1.02 0 0 Z " fill="#7C7C7C" transform="translate(90,314)"/>
<path d="M0 0 C0.33 0 0.66 0 1 0 C1 2.97 1 5.94 1 9 C0.34 8.34 -0.32 7.68 -1 7 C-0.625 3.375 -0.625 3.375 0 0 Z " fill="#8E8E8E" transform="translate(21,139)"/>
</svg>
