<?xml version="1.0" standalone="no"?>
<!DOCTYPE svg PUBLIC "-//W3C//DTD SVG 20010904//EN"
 "http://www.w3.org/TR/2001/REC-SVG-20010904/DTD/svg10.dtd">
<svg version="1.0" xmlns="http://www.w3.org/2000/svg"
 width="884.000000pt" height="1063.000000pt" viewBox="0 0 884.000000 1063.000000"
 preserveAspectRatio="xMidYMid meet">

<g transform="translate(0.000000,1063.000000) scale(0.100000,-0.100000)"
fill="#000000" stroke="none">
<path d="M3680 1551 c0 -34 54 -133 366 -673 201 -348 369 -636 373 -641 4 -4
176 284 381 640 206 357 383 663 393 681 l19 32 -345 0 -345 0 -46 -80 c-26
-44 -50 -80 -54 -80 -4 0 -27 36 -52 80 l-45 80 -322 0 -323 0 0 -39z"/>
</g>
</svg>
