<?xml version="1.0" encoding="UTF-8"?>
<svg version="1.1" xmlns="http://www.w3.org/2000/svg" width="333" height="368">
<path d="M0 0 C4.10034006 1.50326305 5.40153465 4.40803807 7.55078125 8.06640625 C7.95748047 8.72962891 8.36417969 9.39285156 8.78320312 10.07617188 C9.78240703 11.71016415 10.76226941 13.35595598 11.73828125 15.00390625 C12.41890625 14.34390625 13.09953125 13.68390625 13.80078125 13.00390625 C17.50084087 10.48471672 19.33166884 10.45727533 23.73828125 11.00390625 C26.859375 12.26171875 26.859375 12.26171875 30.17578125 14.12890625 C30.798479 14.4758252 31.42117676 14.82274414 32.06274414 15.18017578 C34.29890686 16.43630338 36.5185831 17.71891191 38.73828125 19.00390625 C39.65480469 19.52919922 40.57132813 20.05449219 41.515625 20.59570312 C52.43804898 26.86066773 63.29877082 33.21452202 73.91772461 39.98388672 C76.27160235 41.48272201 78.55612523 42.92066939 81.09765625 44.08203125 C82.73828125 45.00390625 82.73828125 45.00390625 83.73828125 48.00390625 C92.021934 45.18389002 92.021934 45.18389002 97.42578125 38.7109375 C98.38319912 35.48317211 99.1674361 32.3207134 99.73828125 29.00390625 C101.38828125 29.00390625 103.03828125 29.00390625 104.73828125 29.00390625 C105.103105 32.10691754 105.45329069 35.21140998 105.80078125 38.31640625 C105.90455078 39.19748047 106.00832031 40.07855469 106.11523438 40.98632812 C106.20869141 41.83388672 106.30214844 42.68144531 106.3984375 43.5546875 C106.48746338 44.33497314 106.57648926 45.11525879 106.66821289 45.91918945 C106.73828125 48.00390625 106.73828125 48.00390625 105.73828125 51.00390625 C104.11495158 52.38967548 102.4510366 53.73031893 100.73828125 55.00390625 C103.3631073 56.52504038 105.98812915 58.04583495 108.61328125 59.56640625 C109.44956055 60.05093262 110.28583984 60.53545898 111.14746094 61.03466797 C116.18137819 63.94966575 121.21925746 66.85761704 126.26171875 69.7578125 C136.68947391 75.75753008 147.10256649 81.76728754 157.390625 88.00390625 C162.2125252 90.8846681 167.10583252 93.63321459 172.0078125 96.375 C174.73828125 98.00390625 174.73828125 98.00390625 176.73828125 100.00390625 C176.96533203 102.52587891 176.96533203 102.52587891 176.93359375 105.66796875 C176.92714844 106.78945312 176.92070312 107.9109375 176.9140625 109.06640625 C176.89730469 110.24203125 176.88054687 111.41765625 176.86328125 112.62890625 C176.85425781 113.81226562 176.84523438 114.995625 176.8359375 116.21484375 C176.81230937 119.14473148 176.77936639 122.07421965 176.73828125 125.00390625 C174.75828125 125.99390625 174.75828125 125.99390625 172.73828125 127.00390625 C173.80949219 127.13667969 174.88070313 127.26945312 175.984375 127.40625 C177.38153894 127.58441185 178.77867284 127.76280944 180.17578125 127.94140625 C181.23635742 128.07192383 181.23635742 128.07192383 182.31835938 128.20507812 C187.625 128.890625 187.625 128.890625 188.73828125 130.00390625 C189.17205811 132.20423889 189.17205811 132.20423889 188.73828125 135.00390625 C187.37447747 136.4561297 185.99584047 137.89986486 184.51795578 139.23581791 C179.02529414 144.22606512 175.92893062 148.037641 175.46777344 155.72290039 C175.46916606 158.58775144 175.61810226 161.42979876 175.78515625 164.2890625 C175.83048677 165.85632563 175.87014254 167.42376165 175.90455627 168.99130249 C175.98844012 172.30694115 176.10943586 175.61816599 176.2616272 178.93136597 C176.49869821 184.10476189 176.64981207 189.27841202 176.78588867 194.45532227 C176.95049644 200.52757696 177.1321098 206.59871336 177.34142208 212.66959667 C177.79406452 225.8199116 178.00979589 238.96033702 178.03747559 252.11886597 C178.05052488 255.37738751 178.09265449 258.6346078 178.13769531 261.89282227 C178.14795149 263.84520769 178.15683295 265.79760102 178.1640625 267.75 C178.18159073 268.61201019 178.19911896 269.47402039 178.21717834 270.3621521 C178.19731081 275.72407623 177.29194128 278.73926431 173.73828125 283.00390625 C171.984375 284.25390625 171.984375 284.25390625 170.17578125 285.00390625 C160.09486657 289.39621793 150.64277841 295.29745113 141.11328125 300.75390625 C140.49922424 301.10495422 139.88516724 301.4560022 139.25250244 301.81768799 C131.33748239 306.34294153 123.45297422 310.91539368 115.61108398 315.56640625 C110.11376472 318.81398626 104.53622672 321.90409953 98.94311523 324.98291016 C91.5977068 329.04453483 84.36601622 333.29374186 77.12817383 337.54321289 C68.72322404 342.46342652 60.23531348 347.22330852 51.7109375 351.93310547 C46.8774319 354.61983097 42.10874948 357.35437752 37.4453125 360.328125 C36.63368652 360.84415283 35.82206055 361.36018066 34.98583984 361.8918457 C33.50276503 362.84654965 32.02937181 363.81656214 30.56884766 364.80541992 C25.69726746 367.94858688 22.54503304 368.73413158 16.73828125 368.00390625 C13.703125 366.7109375 13.703125 366.7109375 10.67578125 364.81640625 C9.47902956 364.08792647 8.28101017 363.36152697 7.08203125 362.63671875 C6.0765625 362.02038574 6.0765625 362.02038574 5.05078125 361.39160156 C0.32020457 358.55285601 -4.51316613 355.89062067 -9.32421875 353.19140625 C-11.2948788 352.08180823 -13.26496255 350.97118586 -15.234375 349.859375 C-16.08265869 349.38137451 -16.93094238 348.90337402 -17.80493164 348.41088867 C-18.61567139 347.94658447 -19.42641113 347.48228027 -20.26171875 347.00390625 C-21.6238147 346.26587769 -21.6238147 346.26587769 -23.01342773 345.51293945 C-25.26171875 344.00390625 -25.26171875 344.00390625 -26.26171875 341.00390625 C-29.40889214 342.98094822 -32.55422825 344.96089401 -35.69921875 346.94140625 C-36.59705078 347.50537109 -37.49488281 348.06933594 -38.41992188 348.65039062 C-39.27392578 349.18857422 -40.12792969 349.72675781 -41.0078125 350.28125 C-42.19395142 351.02749634 -42.19395142 351.02749634 -43.40405273 351.78881836 C-45.19737005 352.87132644 -45.19737005 352.87132644 -46.26171875 354.00390625 C-48.76171875 354.12890625 -48.76171875 354.12890625 -51.26171875 354.00390625 C-53.3918631 351.8737619 -53.00812828 347.51443371 -53.32421875 344.56640625 C-53.45836182 343.3436499 -53.45836182 343.3436499 -53.59521484 342.09619141 C-54.19330192 336.36708686 -54.44762762 330.76708126 -54.26171875 325.00390625 C-55.25945312 324.87822266 -55.25945312 324.87822266 -56.27734375 324.75 C-60.18099523 323.77408713 -63.50152779 321.97497691 -67.01171875 320.06640625 C-67.74600098 319.67179199 -68.4802832 319.27717773 -69.23681641 318.87060547 C-74.75498901 315.87998335 -80.21299369 312.78726973 -85.63671875 309.62890625 C-86.35569336 309.21261963 -87.07466797 308.79633301 -87.81542969 308.36743164 C-88.82138184 307.77369751 -88.82138184 307.77369751 -89.84765625 307.16796875 C-90.7301001 306.64904053 -90.7301001 306.64904053 -91.63037109 306.11962891 C-93.41859588 304.89661375 -94.84532473 303.64391314 -96.26171875 302.00390625 C-96.26171875 301.34390625 -96.26171875 300.68390625 -96.26171875 300.00390625 C-97.09574219 300.22046875 -97.92976563 300.43703125 -98.7890625 300.66015625 C-105.4712803 302.31348849 -111.38212643 303.35371603 -118.26171875 303.00390625 C-118.26171875 302.01390625 -118.26171875 301.02390625 -118.26171875 300.00390625 C-114.30171875 298.02390625 -114.30171875 298.02390625 -110.26171875 296.00390625 C-113.11208674 293.64028352 -115.41662605 292.54357848 -118.98339844 291.62402344 C-125.41942267 289.41460262 -130.47043893 286.82826636 -134.26171875 281.00390625 C-138.25249581 268.4134644 -136.21317046 253.2930459 -135.63500977 240.31359863 C-135.42923007 235.20679852 -135.33883033 230.09804456 -135.23828125 224.98828125 C-135.02469826 214.98829879 -134.68409574 204.99709687 -134.26171875 195.00390625 C-134.89980469 194.689375 -135.53789062 194.37484375 -136.1953125 194.05078125 C-137.02160156 193.6228125 -137.84789062 193.19484375 -138.69921875 192.75390625 C-139.52292969 192.33625 -140.34664062 191.91859375 -141.1953125 191.48828125 C-143.26171875 190.00390625 -143.26171875 190.00390625 -144.11328125 187.984375 C-144.34714706 184.86411273 -143.12532037 183.46866968 -141.26171875 181.00390625 C-140.24070944 180.10488766 -139.19776615 179.23030091 -138.13671875 178.37890625 C-135.0519275 176.25786408 -135.0519275 176.25786408 -134.26171875 173.00390625 C-134.17106463 170.58550821 -134.13560333 168.19664342 -134.14819336 165.77856445 C-134.14804733 165.04660858 -134.14790131 164.31465271 -134.14775085 163.56051636 C-134.14844735 161.14187656 -134.15622747 158.72331384 -134.1640625 156.3046875 C-134.16592761 154.62745709 -134.16735108 152.95022614 -134.16835022 151.272995 C-134.17216805 146.85890193 -134.18199209 142.44484178 -134.1930542 138.03076172 C-134.20328408 133.52637172 -134.20785122 129.0219764 -134.21289062 124.51757812 C-134.223615 115.67967304 -134.24068264 106.84179238 -134.26171875 98.00390625 C-133.60851151 97.63562714 -132.95530426 97.26734802 -132.28230286 96.88790894 C-129.28154131 95.19553073 -126.28139217 93.50206969 -123.28125 91.80859375 C-122.25390747 91.22940186 -121.22656494 90.65020996 -120.16809082 90.0534668 C-114.39809083 86.79541141 -108.64999335 83.50668493 -102.94921875 80.12890625 C-102.24719833 79.71321884 -101.54517792 79.29753143 -100.82188416 78.86924744 C-100.18070145 78.48958328 -99.53951874 78.10991913 -98.87890625 77.71875 C-93.13764544 74.32968657 -87.35313347 71.01569099 -81.57421875 67.69140625 C-72.9648176 62.73510848 -64.37726057 57.74440541 -55.82421875 52.69140625 C-54.9010083 52.14637451 -53.97779785 51.60134277 -53.02661133 51.03979492 C-49.72406437 49.08383243 -46.45618595 47.13355105 -43.26171875 45.00390625 C-40.92972487 44.92485561 -38.59339253 44.91591856 -36.26171875 45.00390625 C-35.98328125 43.89789063 -35.98328125 43.89789063 -35.69921875 42.76953125 C-33.74654867 39.01276382 -30.88350513 37.64479874 -27.26171875 35.75390625 C-26.61976562 35.40328125 -25.9778125 35.05265625 -25.31640625 34.69140625 C-20.0738656 31.8398151 -17.27939831 30.89246774 -11.26171875 31.00390625 C-11.16890625 29.74578125 -11.07609375 28.48765625 -10.98046875 27.19140625 C-10.34922647 21.5191165 -8.6318164 16.37386536 -6.76171875 11.00390625 C-6.44074219 10.05128906 -6.11976563 9.09867188 -5.7890625 8.1171875 C-3.02335661 0.00522169 -3.02335661 0.00522169 0 0 Z M15.73828125 39.00390625 C14.60999737 41.260474 14.44949315 42.89935929 14.203125 45.40625 C14.11595215 46.29223877 14.0287793 47.17822754 13.93896484 48.09106445 C13.85211426 49.03167725 13.76526367 49.97229004 13.67578125 50.94140625 C13.58635254 51.89039795 13.49692383 52.83938965 13.40478516 53.81713867 C12.82863637 60.22446185 12.46700114 66.56853918 12.73828125 73.00390625 C11.08828125 73.00390625 9.43828125 73.00390625 7.73828125 73.00390625 C7.50367188 72.20726562 7.2690625 71.410625 7.02734375 70.58984375 C5.4034507 66.07246854 3.2929023 61.89960124 1.11328125 57.62890625 C0.69304687 56.79746094 0.2728125 55.96601562 -0.16015625 55.109375 C-1.1903795 53.07234266 -2.22430696 51.03728436 -3.26171875 49.00390625 C-3.76960938 49.74125 -4.2775 50.47859375 -4.80078125 51.23828125 C-7.760772 54.56474705 -10.71704782 56.24777546 -14.63671875 58.25390625 C-15.28382813 58.60453125 -15.9309375 58.95515625 -16.59765625 59.31640625 C-20.47800559 61.35046034 -23.84381736 62.538864 -28.26171875 63.00390625 C-28.18024777 66.2132328 -28.06746129 69.42074064 -27.94921875 72.62890625 C-27.92666016 73.53253906 -27.90410156 74.43617187 -27.88085938 75.3671875 C-27.61636588 81.95548004 -26.76372883 86.45912676 -21.9765625 91.328125 C-18.7700161 93.30741767 -16.56140812 93.5566958 -12.82421875 93.81640625 C-8.37446979 94.39089253 -5.58931733 94.82177277 -2.51171875 98.19140625 C0.46971938 102.53451613 0.62887256 106.59007701 0.86328125 111.76171875 C1.37192544 120.0483804 2.69449828 127.064893 7.86328125 133.75390625 C11.1998265 136.36511558 14.70153049 138.38242256 18.43359375 140.37890625 C21.95401153 142.86109913 23.41544346 145.68320621 24.42578125 149.81640625 C24.58046875 150.89921875 24.58046875 150.89921875 24.73828125 152.00390625 C25.39828125 152.00390625 26.05828125 152.00390625 26.73828125 152.00390625 C26.92620239 151.06708008 26.92620239 151.06708008 27.11791992 150.11132812 C27.70401462 147.23853381 28.31468832 144.37148261 28.92578125 141.50390625 C29.12236328 140.52164063 29.31894531 139.539375 29.52148438 138.52734375 C31.08636 131.30484087 33.11983202 124.97015666 38.9921875 120.15625 C39.75402344 119.75535156 40.51585937 119.35445313 41.30078125 118.94140625 C42.11619385 118.48386963 42.93160645 118.02633301 43.77172852 117.55493164 C46.73828125 116.00390625 46.73828125 116.00390625 49.85693359 114.83398438 C53.50706454 113.25890852 55.94590333 111.85720295 58.73828125 109.00390625 C60.80074782 103.19798198 60.05142199 96.61842066 59.80078125 90.56640625 C59.74446734 88.05644921 59.70537529 85.54730865 59.68028259 83.03684998 C59.65967901 81.48145214 59.61883341 79.92613466 59.5537262 78.3719635 C59.40914424 72.89372597 60.58609501 69.04704864 62.73828125 64.00390625 C63.23328125 62.51890625 63.23328125 62.51890625 63.73828125 61.00390625 C63.18390381 60.80941895 62.62952637 60.61493164 62.05834961 60.41455078 C53.99217758 57.40246312 46.71382221 53.19365901 39.30078125 48.87890625 C38.02312051 48.14264918 36.74512759 47.40696823 35.46679688 46.671875 C26.39247827 41.4400376 26.39247827 41.4400376 22.73828125 39.00390625 C20.40628737 38.92485561 18.06995503 38.91591856 15.73828125 39.00390625 Z M-35.26171875 49.00390625 C-34.93171875 51.31390625 -34.60171875 53.62390625 -34.26171875 56.00390625 C-33.27171875 55.67390625 -32.28171875 55.34390625 -31.26171875 55.00390625 C-32.25171875 53.02390625 -33.24171875 51.04390625 -34.26171875 49.00390625 C-34.59171875 49.00390625 -34.92171875 49.00390625 -35.26171875 49.00390625 Z M75.73828125 66.00390625 C71.70087487 75.3524246 72.4622869 85.04766573 72.73828125 95.00390625 C73.78757813 94.84664062 74.836875 94.689375 75.91796875 94.52734375 C87.97106648 92.87589682 87.97106648 92.87589682 92.67578125 95.87890625 C95.04007626 99.46117142 96.10823982 102.76025504 97.16015625 106.89453125 C97.54282364 108.97346548 97.54282364 108.97346548 98.73828125 110.00390625 C107.28418698 111.00092858 113.24272616 107.89649745 120.73828125 104.00390625 C120.4816588 105.44401106 120.20737304 106.88097495 119.92578125 108.31640625 C119.69955078 109.51716797 119.69955078 109.51716797 119.46875 110.7421875 C118.63459506 113.3249453 117.86584218 114.34529727 115.73828125 116.00390625 C109.26355809 119.16325912 102.11620682 120.50375112 95.20703125 118.13671875 C89.31789019 115.58351519 89.31789019 115.58351519 87.73828125 114.00390625 C87.5063526 112.48921177 87.32612887 110.96636063 87.17578125 109.44140625 C87.09199219 108.61511719 87.00820312 107.78882813 86.921875 106.9375 C86.86128906 106.29941406 86.80070313 105.66132812 86.73828125 105.00390625 C83.80219297 104.14035087 81.66813199 104.01232416 78.61328125 104.37890625 C75.2776017 106.26429034 75.24118996 106.74962523 74.23828125 110.25390625 C74.02042969 111.053125 73.80257812 111.85234375 73.578125 112.67578125 C72.17572652 116.5633603 69.91840835 118.40788413 66.73828125 121.00390625 C66.07699219 121.11734375 65.41570312 121.23078125 64.734375 121.34765625 C61.77121954 122.32184435 61.24156779 124.34424545 59.73828125 127.00390625 C58.31568391 128.41584743 56.85486276 129.7900464 55.36328125 131.12890625 C50.49218434 135.90526546 48.05777615 140.64866014 45.73828125 147.00390625 C45.13306641 148.63585937 45.13306641 148.63585937 44.515625 150.30078125 C42.98468379 154.60960307 42.98468379 154.60960307 41.73828125 159.00390625 C42.06828125 159.66390625 42.39828125 160.32390625 42.73828125 161.00390625 C43.86878906 160.35292969 44.99929687 159.70195312 46.1640625 159.03125 C51.52398966 156.34833557 56.41560126 156.51133324 62.29101562 156.60351562 C66.42801457 156.54386424 68.2741967 156.32990614 71.7578125 153.8828125 C74.13181947 150.43183984 74.27642722 148.52728024 74.23828125 144.37890625 C74.20703125 140.96484375 74.20703125 140.96484375 74.73828125 138.00390625 C77.91055004 135.50502122 80.76602966 134.57137076 84.73828125 134.00390625 C84.42890625 135.22078125 84.11953125 136.43765625 83.80078125 137.69140625 C82.86316032 141.74372683 82.58639536 145.60155919 82.42578125 149.75390625 C82.0144199 156.51763612 82.0144199 156.51763612 79.17578125 159.31640625 C78.37140625 159.87328125 77.56703125 160.43015625 76.73828125 161.00390625 C77.43462831 164.1195021 77.43462831 164.1195021 79.8828125 165.42578125 C81.20345703 166.08320313 81.20345703 166.08320313 82.55078125 166.75390625 C83.42347656 167.2025 84.29617187 167.65109375 85.1953125 168.11328125 C87.94901583 169.07771191 89.09172379 169.169581 91.73828125 168.00390625 C92.06828125 167.34390625 92.39828125 166.68390625 92.73828125 166.00390625 C93.72828125 165.67390625 94.71828125 165.34390625 95.73828125 165.00390625 C96.19203125 164.19953125 96.64578125 163.39515625 97.11328125 162.56640625 C99.12458519 159.39473466 100.1576918 159.01581197 103.73828125 158.00390625 C104.45886719 157.88917969 105.17945313 157.77445312 105.921875 157.65625 C110.01342339 156.96424756 112.17332751 156.56885999 115.17578125 153.56640625 C117.2570381 148.82114063 118.04678662 144.11732709 118.73828125 139.00390625 C122.20328125 138.50890625 122.20328125 138.50890625 125.73828125 138.00390625 C125.66609375 138.62136719 125.59390625 139.23882812 125.51953125 139.875 C124.88939535 145.62499012 124.64499844 151.22037184 124.73828125 157.00390625 C125.43695313 157.34164062 126.135625 157.679375 126.85546875 158.02734375 C127.76554688 158.47335938 128.675625 158.919375 129.61328125 159.37890625 C130.51820313 159.81976563 131.423125 160.260625 132.35546875 160.71484375 C134.73828125 162.00390625 134.73828125 162.00390625 136.73828125 164.00390625 C137.36328125 166.12890625 137.36328125 166.12890625 137.73828125 168.00390625 C139.71828125 168.00390625 141.69828125 168.00390625 143.73828125 168.00390625 C142.73828125 171.00390625 142.73828125 171.00390625 140.73828125 172.00390625 C134.20494792 172.23723958 134.20494792 172.23723958 131.73828125 171.00390625 C131.11328125 168.94140625 131.11328125 168.94140625 130.73828125 167.00390625 C126.73727924 166.0602737 122.97023002 165.83887315 118.86328125 165.81640625 C117.10371094 165.79513672 117.10371094 165.79513672 115.30859375 165.7734375 C111.39061807 166.0263484 108.37734395 166.50471493 104.73828125 168.00390625 C102.31001585 170.80322007 102.31001585 170.80322007 100.36328125 174.12890625 C96.38361885 179.70981328 96.38361885 179.70981328 93.62109375 180.96875 C84.97582316 181.36459572 75.3770215 176.65779488 68.92578125 171.25390625 C68.30058594 170.6609375 67.67539063 170.06796875 67.03125 169.45703125 C63.72328409 167.36067125 60.58576293 166.80814735 56.73828125 167.00390625 C53.64838045 167.83977076 50.90412735 169.13080853 48.05078125 170.56640625 C47.31794922 170.90220703 46.58511719 171.23800781 45.83007812 171.58398438 C40.86519543 173.98807996 37.71281288 176.31176745 34.73828125 181.00390625 C34.07828191 183.73677868 33.88463281 186.17444271 33.73828125 189.00390625 C34.36283203 189.20024658 34.98738281 189.39658691 35.63085938 189.59887695 C38.50071177 190.50247685 41.36949795 191.40941815 44.23828125 192.31640625 C45.71167969 192.77950195 45.71167969 192.77950195 47.21484375 193.25195312 C50.06138559 194.15335804 52.89982255 195.0774223 55.73828125 196.00390625 C56.53556641 196.2464917 57.33285156 196.48907715 58.15429688 196.73901367 C61.35449064 197.78621084 63.37262999 198.50458531 65.39453125 201.265625 C65.8121875 202.46638672 65.8121875 202.46638672 66.23828125 203.69140625 C66.53734375 204.49964844 66.83640625 205.30789062 67.14453125 206.140625 C67.34046875 206.75550781 67.53640625 207.37039062 67.73828125 208.00390625 C68.64578125 207.83890625 69.55328125 207.67390625 70.48828125 207.50390625 C79.10349245 206.33780696 86.51669607 206.26985842 94.484375 210.03125 C98.29458125 211.67551578 101.9283642 212.13627773 106.05078125 212.06640625 C107.26765625 212.04578125 108.48453125 212.02515625 109.73828125 212.00390625 C112.8864738 206.14175461 115.00203367 200.42276095 116.73828125 194.00390625 C121.19328125 193.50890625 121.19328125 193.50890625 125.73828125 193.00390625 C123.73828125 197.00390625 123.73828125 197.00390625 121.73828125 199.00390625 C120.69280124 202.22380898 119.8201735 205.47525288 118.93359375 208.7421875 C117.6669291 212.19860901 116.27634126 214.35486643 113.73828125 217.00390625 C112.74828125 217.33390625 111.75828125 217.66390625 110.73828125 218.00390625 C110.73828125 218.99390625 110.73828125 219.98390625 110.73828125 221.00390625 C100.73646197 221.34617383 92.42102963 220.62482675 83.55078125 215.83203125 C80.83602158 214.59166692 78.66224036 214.60518455 75.73828125 215.00390625 C74.38978714 215.63934772 73.05314843 216.30151994 71.73828125 217.00390625 C73.53754061 223.82215226 76.18278146 228.65752108 80.73828125 234.00390625 C81.23328125 234.70902344 81.72828125 235.41414062 82.23828125 236.140625 C87.34380517 242.53434824 93.36681534 243.46932048 101.1237793 244.54980469 C107.30305974 245.48955355 107.30305974 245.48955355 109.7578125 248.390625 C110.73828125 251.00390625 110.73828125 251.00390625 111.61328125 254.62890625 C112.43143949 258.07478278 112.43143949 258.07478278 114.92578125 259.81640625 C119.60249909 261.79102045 123.64129012 263.00390625 128.73828125 263.00390625 C128.40828125 263.99390625 128.07828125 264.98390625 127.73828125 266.00390625 C110.69972404 267.5399759 110.69972404 267.5399759 106.73828125 266.00390625 C104.05793705 262.86871576 101.89435976 259.51210179 99.73828125 256.00390625 C98.18773996 254.45336496 96.5973136 254.75230689 94.44140625 254.609375 C93.56484375 254.54041016 92.68828125 254.47144531 91.78515625 254.40039062 C89.93695215 254.26229158 88.08794608 254.13449586 86.23828125 254.01757812 C80.96088797 253.5816531 77.4498269 253.15299183 73.73828125 249.00390625 C73.40828125 247.82828125 73.07828125 246.65265625 72.73828125 245.44140625 C71.49711635 241.1749019 70.42244451 241.17106111 66.73828125 239.00390625 C59.47432687 230.8935165 54.99686051 220.75538653 53.73828125 210.00390625 C53.13878662 209.83262207 52.53929199 209.66133789 51.92163086 209.48486328 C43.19384766 206.99121094 34.46606445 204.49755859 25.73828125 202.00390625 C26.23328125 208.93390625 26.23328125 208.93390625 26.73828125 216.00390625 C28.16140625 216.47828125 29.58453125 216.95265625 31.05078125 217.44140625 C33.61328125 218.29557292 36.17578125 219.14973958 38.73828125 220.00390625 C38.79435547 221.16019531 38.79435547 221.16019531 38.8515625 222.33984375 C38.91730469 223.34273437 38.98304688 224.345625 39.05078125 225.37890625 C39.10878906 226.37664062 39.16679687 227.374375 39.2265625 228.40234375 C39.47986328 229.69011719 39.47986328 229.69011719 39.73828125 231.00390625 C42.55338118 233.28125635 42.55338118 233.28125635 45.73828125 233.00390625 C45.40828125 233.99390625 45.07828125 234.98390625 44.73828125 236.00390625 C43.2788042 235.94384547 41.82048853 235.85503735 40.36328125 235.75390625 C39.55117187 235.7075 38.7390625 235.66109375 37.90234375 235.61328125 C35.73828125 235.00390625 35.73828125 235.00390625 34.48828125 233.16015625 C33.55325151 230.47194576 33.12219283 227.81925782 32.73828125 225.00390625 C31.18068782 224.46857802 29.6169008 223.95125247 28.05078125 223.44140625 C27.18066406 223.15136719 26.31054688 222.86132812 25.4140625 222.5625 C22.45646909 221.94507539 20.61699523 222.1496738 17.73828125 223.00390625 C14.82574795 225.29232527 13.93340102 227.46524753 13.46484375 231.16015625 C13.36226317 233.52740044 13.33328378 235.66636651 13.73828125 238.00390625 C16.07770469 239.75756265 16.07770469 239.75756265 18.73828125 241.00390625 C19.95912931 243.70262302 20.59982836 246.28188092 21.15625 249.18359375 C22.38396965 255.41663196 24.34029666 259.60592166 28.92578125 264.19140625 C30.73828125 266.00390625 30.73828125 266.00390625 31.73828125 269.00390625 C29.4437754 268.58154943 27.15269687 268.14053708 24.86328125 267.69140625 C23.58710938 267.44777344 22.3109375 267.20414063 20.99609375 266.953125 C17.73828125 266.00390625 17.73828125 266.00390625 15.73828125 263.00390625 C15.02296989 259.82792379 14.43850663 256.65905265 13.8828125 253.453125 C13.25676628 250.04016336 12.69343201 247.93663238 10.73828125 245.00390625 C7.69632698 244.67050154 7.69632698 244.67050154 4.73828125 245.00390625 C3.13715701 246.60503049 3.35094669 248.61196547 3.05078125 250.81640625 C2.29039292 254.78858411 2.03192194 255.73636696 -1.07421875 258.56640625 C-3.88402257 259.83357268 -6.21288576 260.64522002 -9.26171875 261.00390625 C-8.98457031 260.48183594 -8.70742187 259.95976562 -8.421875 259.421875 C-5.40383597 253.28913376 -4.51589832 247.80320971 -4.26171875 241.00390625 C-1.60943063 239.92865431 1.02196579 238.90934474 3.73828125 238.00390625 C3.83625 237.29105469 3.93421875 236.57820312 4.03515625 235.84375 C5.15248839 228.68704497 6.8222853 224.04537432 11.07421875 218.15234375 C14.72772048 212.85159847 15.59382685 208.41242872 15.73828125 202.00390625 C14.74570313 202.50019531 13.753125 202.99648437 12.73046875 203.5078125 C12.07989502 203.83289795 11.42932129 204.1579834 10.7590332 204.49291992 C9.3168136 205.21443996 7.87525394 205.93728048 6.43432617 206.66137695 C2.88170134 208.44451609 -0.67588246 210.21061933 -4.265625 211.91796875 C-4.88743652 212.21759521 -5.50924805 212.51722168 -6.14990234 212.82592773 C-7.85453867 213.64586474 -9.56386165 214.45603738 -11.2734375 215.265625 C-14.62367987 217.2144588 -16.85242956 218.95762873 -19.26171875 222.00390625 C-20.0745909 225.40769199 -20.0745909 225.40769199 -20.32421875 229.25390625 C-21.38507305 237.6959024 -24.56667929 244.82778208 -28.26171875 252.44140625 C-29.06428101 254.10381348 -29.06428101 254.10381348 -29.88305664 255.79980469 C-33.83663278 263.7205156 -33.83663278 263.7205156 -37.26171875 266.00390625 C-39.47900391 266.27514648 -39.47900391 266.27514648 -42.05078125 266.3125 C-42.99308594 266.33763672 -43.93539062 266.36277344 -44.90625 266.38867188 C-46.86973301 266.4234124 -48.83327969 266.45474704 -50.796875 266.48242188 C-58.22460449 266.68902765 -64.99668693 267.48092711 -71.01171875 272.12890625 C-76.10908549 278.46320639 -76.10908549 278.46320639 -78.26171875 286.00390625 C-77.52888672 286.28000732 -76.79605469 286.5561084 -76.04101562 286.84057617 C-68.31605798 289.88532854 -61.63787388 293.69262049 -54.76171875 298.31640625 C-52.86100173 299.59161921 -50.954963 300.85894616 -49.04296875 302.1171875 C-48.21861328 302.67188721 -47.39425781 303.22658691 -46.54492188 303.7980957 C-44.10255488 305.31523751 -44.10255488 305.31523751 -40.26171875 305.00390625 C-37.85194455 303.33460643 -37.85194455 303.33460643 -35.57421875 301.12890625 C-34.78660156 300.40960938 -33.99898437 299.6903125 -33.1875 298.94921875 C-31.20355568 297.1471112 -31.20355568 297.1471112 -30.26171875 295.00390625 C-29.27171875 294.67390625 -28.28171875 294.34390625 -27.26171875 294.00390625 C-27.26171875 293.01390625 -27.26171875 292.02390625 -27.26171875 291.00390625 C-26.27171875 291.00390625 -25.28171875 291.00390625 -24.26171875 291.00390625 C-23.68421875 289.86953125 -23.10671875 288.73515625 -22.51171875 287.56640625 C-21.52734375 285.6328125 -21.52734375 285.6328125 -20.26171875 284.00390625 C-18.94171875 283.67390625 -17.62171875 283.34390625 -16.26171875 283.00390625 C-17.74671875 301.81390625 -17.74671875 301.81390625 -19.26171875 321.00390625 C-16.62171875 321.66390625 -13.98171875 322.32390625 -11.26171875 323.00390625 C-8.42919922 324.36083984 -8.42919922 324.36083984 -5.87890625 325.90234375 C-4.93917969 326.464375 -3.99945313 327.02640625 -3.03125 327.60546875 C-2.07605469 328.19070313 -1.12085938 328.7759375 -0.13671875 329.37890625 C1.30767578 330.24515625 1.30767578 330.24515625 2.78125 331.12890625 C6.62013686 333.44174317 10.39783726 335.72327906 13.98046875 338.41796875 C17.72687443 340.57241734 19.4474003 340.73221529 23.73828125 340.00390625 C27.62722374 338.16051456 31.22698456 335.92398565 34.86328125 333.62890625 C36.8015459 332.43061318 38.741591 331.23519418 40.68359375 330.04296875 C41.53453613 329.50881348 42.38547852 328.9746582 43.26220703 328.42431641 C45.69701845 327.02757683 48.10970478 325.97882428 50.73828125 325.00390625 C49.93237549 324.03445068 49.12646973 323.06499512 48.29614258 322.06616211 C45.248331 317.78030932 44.92877671 314.16070147 44.8125 309.0078125 C44.77518265 308.17426743 44.7378653 307.34072235 44.69941711 306.48191833 C44.58629966 303.84375445 44.50554283 301.20576768 44.42578125 298.56640625 C44.35435591 296.76749179 44.28080931 294.96866022 44.20507812 293.16992188 C44.02493501 288.78182765 43.87378315 284.39359652 43.73828125 280.00390625 C44.72828125 280.00390625 45.71828125 280.00390625 46.73828125 280.00390625 C46.73828125 280.99390625 46.73828125 281.98390625 46.73828125 283.00390625 C47.44984375 283.42027344 48.16140625 283.83664062 48.89453125 284.265625 C52.59912519 286.53010894 54.66462432 289.37404999 57.23828125 292.81640625 C58.16450149 294.03190817 59.09157881 295.24675748 60.01953125 296.4609375 C60.46941406 297.0585791 60.91929687 297.6562207 61.3828125 298.27197266 C62.67645691 299.92491096 64.04892178 301.46040732 65.45703125 303.015625 C67.97438355 306.31318409 68.70878696 309.02575504 69.73828125 313.00390625 C70.59156006 312.51631836 71.44483887 312.02873047 72.32397461 311.52636719 C78.38004557 308.06575521 84.43611654 304.60514323 90.4921875 301.14453125 C91.60311768 300.50966797 92.71404785 299.87480469 93.85864258 299.22070312 C96.22681091 297.86756006 98.59512064 296.51466734 100.96362305 295.16210938 C106.5433563 291.9753467 112.12150147 288.78595878 117.69140625 285.58203125 C126.65052933 280.43389036 135.63027107 275.38096839 144.8046875 270.625 C145.77277344 270.09003906 146.74085938 269.55507813 147.73828125 269.00390625 C148.52589844 268.6171875 149.31351563 268.23046875 150.125 267.83203125 C152.82930285 264.76759122 152.15563191 261.2394919 151.98828125 257.31640625 C151.97023438 256.51912109 151.9521875 255.72183594 151.93359375 254.90039062 C151.88650372 252.93438176 151.81476024 250.96899131 151.73828125 249.00390625 C151.12082031 249.15730469 150.50335938 249.31070313 149.8671875 249.46875 C145.78241501 250.22104448 142.94498491 250.66600795 139.2109375 248.6171875 C136.95847879 246.82946237 134.84751452 244.95720399 132.73828125 243.00390625 C131.65160156 242.23820312 131.65160156 242.23820312 130.54296875 241.45703125 C128.73828125 240.00390625 128.73828125 240.00390625 127.73828125 237.00390625 C126.02248022 236.05068345 124.30212729 235.10002076 122.52734375 234.26171875 C120.14669151 232.58798508 119.17144743 230.50375539 117.73828125 228.00390625 C121.93749591 227.97913774 126.13667154 227.96101379 130.3359375 227.94897461 C131.76367941 227.94395419 133.19141621 227.93713653 134.61914062 227.9284668 C136.67449204 227.91630072 138.72977532 227.91065497 140.78515625 227.90625 C142.63898926 227.89839478 142.63898926 227.89839478 144.53027344 227.89038086 C147.18566348 227.98435014 149.21140631 228.31176467 151.73828125 229.00390625 C151.74858871 228.03115753 151.75889618 227.05840881 151.76951599 226.05618286 C151.8671362 216.90330053 151.96985934 207.75048791 152.07762051 198.59771919 C152.13286066 193.8918304 152.18628241 189.1859354 152.2355957 184.47998047 C152.28322313 179.94121656 152.33556535 175.40252958 152.391222 170.86385727 C152.41165291 169.1294737 152.43036476 167.39506903 152.44735527 165.66064835 C152.47138301 163.23739213 152.50143971 160.81428197 152.53295898 158.39111328 C152.53871445 157.66894623 152.54446991 156.94677917 152.55039978 156.20272827 C152.62422909 151.23201057 152.62422909 151.23201057 153.73828125 149.00390625 C148.78828125 149.00390625 143.83828125 149.00390625 138.73828125 149.00390625 C142.11328125 143.37890625 142.11328125 143.37890625 145.09375 141.765625 C145.71572266 141.42080078 146.33769531 141.07597656 146.97851562 140.72070312 C147.62111328 140.38103516 148.26371094 140.04136719 148.92578125 139.69140625 C149.57998047 139.33240234 150.23417969 138.97339844 150.90820312 138.60351562 C152.5120088 137.72551982 154.12433291 136.86311521 155.73828125 136.00390625 C154.74828125 135.67390625 153.75828125 135.34390625 152.73828125 135.00390625 C152.73828125 127.74390625 152.73828125 120.48390625 152.73828125 113.00390625 C150.88203125 112.11703125 149.02578125 111.23015625 147.11328125 110.31640625 C139.77209679 106.70649595 132.79170803 102.54442974 125.77783203 98.34277344 C116.99171956 93.10120252 108.06588327 88.13117294 99.10083008 83.20507812 C78.46328478 71.84319953 78.46328478 71.84319953 75.73828125 66.00390625 Z M-39.23046875 72.703125 C-43.37020377 76.29799163 -47.82288373 78.50523897 -52.76171875 80.81640625 C-59.90718732 84.26216715 -66.78306824 87.9200061 -73.50390625 92.13598633 C-76.6717888 94.11271211 -79.74390025 95.74143681 -83.26171875 97.00390625 C-82.47796875 97.84953125 -81.69421875 98.69515625 -80.88671875 99.56640625 C-77.57923509 103.41323977 -74.76373862 107.54221071 -71.94921875 111.75390625 C-71.50465332 112.41592041 -71.06008789 113.07793457 -70.60205078 113.76000977 C-68.80249301 116.48294262 -67.29852461 118.89348868 -66.26171875 122.00390625 C-72.25959356 120.93285718 -77.86222276 119.20870515 -83.57421875 117.12890625 C-84.61449219 116.76224854 -84.61449219 116.76224854 -85.67578125 116.38818359 C-89.76353405 114.86122933 -92.42110862 113.30227474 -95.26171875 110.00390625 C-96.00421875 109.26140625 -96.74671875 108.51890625 -97.51171875 107.75390625 C-98.08921875 107.17640625 -98.66671875 106.59890625 -99.26171875 106.00390625 C-100.89954778 107.02528302 -102.52159828 108.07198605 -104.13671875 109.12890625 C-105.04164062 109.70898438 -105.9465625 110.2890625 -106.87890625 110.88671875 C-110.3306344 113.95366409 -111.12061274 116.91577618 -111.43118286 121.51168823 C-111.49331312 124.59195979 -111.48635219 127.6653352 -111.45703125 130.74609375 C-111.45420135 131.86960236 -111.45137146 132.99311096 -111.44845581 134.15066528 C-111.43729178 137.72685552 -111.41219376 141.30279215 -111.38671875 144.87890625 C-111.37668408 147.30859012 -111.36755908 149.73827794 -111.359375 152.16796875 C-111.33736479 158.11336727 -111.30392464 164.05861864 -111.26171875 170.00390625 C-112.74671875 170.49890625 -112.74671875 170.49890625 -114.26171875 171.00390625 C-112.87666138 171.22324829 -112.87666138 171.22324829 -111.46362305 171.44702148 C-108.03604857 171.99105695 -104.60885163 172.5373605 -101.18188477 173.08520508 C-99.6989568 173.32179249 -98.2158844 173.55747646 -96.73266602 173.79223633 C-94.6000361 174.12994438 -92.46794771 174.47090426 -90.3359375 174.8125 C-89.05291748 175.01673584 -87.76989746 175.22097168 -86.44799805 175.43139648 C-83.26171875 176.00390625 -83.26171875 176.00390625 -80.26171875 177.00390625 C-80.26171875 177.99390625 -80.26171875 178.98390625 -80.26171875 180.00390625 C-81.13948975 180.28169922 -82.01726074 180.55949219 -82.92163086 180.84570312 C-85.98009182 181.90624978 -88.79489661 183.12151002 -91.703125 184.53515625 C-92.69892578 185.01597656 -93.69472656 185.49679688 -94.72070312 185.9921875 C-95.74486328 186.49105469 -96.76902344 186.98992187 -97.82421875 187.50390625 C-99.86648068 188.49494746 -101.90942619 189.48458152 -103.953125 190.47265625 C-105.30192749 191.12911133 -105.30192749 191.12911133 -106.67797852 191.79882812 C-109.17502076 192.96346958 -111.69373492 194.00690048 -114.26171875 195.00390625 C-113.27171875 195.33390625 -112.28171875 195.66390625 -111.26171875 196.00390625 C-111.26171875 219.43390625 -111.26171875 242.86390625 -111.26171875 267.00390625 C-107.96171875 268.32390625 -104.66171875 269.64390625 -101.26171875 271.00390625 C-97.9140625 272.75 -97.9140625 272.75 -95.19921875 274.44140625 C-94.28011719 274.99699219 -93.36101562 275.55257812 -92.4140625 276.125 C-89.85771691 278.35658299 -89.5409602 279.68150289 -89.26171875 283.00390625 C-87.62312059 279.95568434 -86.59578772 276.92935986 -85.57421875 273.62890625 C-83.56453419 268.08010808 -81.26137867 265.09222737 -76.26171875 262.00390625 C-75.37806641 261.45669922 -75.37806641 261.45669922 -74.4765625 260.8984375 C-68.40886554 257.74999037 -61.67955628 256.71799899 -55.00097656 255.57373047 C-50.09462867 254.66856989 -46.84577592 253.7152477 -43.26171875 250.00390625 C-36.71746431 240.36508188 -36.06576164 229.71040277 -35.703125 218.421875 C-35.23897849 214.82782018 -34.25824509 212.96941337 -32.26171875 210.00390625 C-32.26171875 209.34390625 -32.26171875 208.68390625 -32.26171875 208.00390625 C-31.63136719 207.76929688 -31.00101562 207.5346875 -30.3515625 207.29296875 C-26.07914583 205.5105446 -21.9630663 203.44988774 -17.82421875 201.37890625 C-16.9434668 200.93885254 -16.06271484 200.49879883 -15.15527344 200.04541016 C-7.69994815 196.28793705 -0.44319137 192.26047446 6.73828125 188.00390625 C6.73828125 187.34390625 6.73828125 186.68390625 6.73828125 186.00390625 C5.15628494 185.35480471 3.57262401 184.70975931 1.98828125 184.06640625 C1.1065625 183.70675781 0.22484375 183.34710938 -0.68359375 182.9765625 C-15.64917567 177.33045659 -37.73776874 181.2810364 -52.26171875 187.00390625 C-53.02226563 187.22046875 -53.7828125 187.43703125 -54.56640625 187.66015625 C-56.85604724 188.35984857 -56.85604724 188.35984857 -59.26171875 191.00390625 C-59.80466074 194.39039188 -59.89227675 197.67317149 -59.95703125 201.1015625 C-60.39584408 206.72174216 -62.17452483 215.91671233 -66.26171875 220.00390625 C-67.61445922 220.21784873 -68.97644334 220.374224 -70.33984375 220.50390625 C-71.17128906 220.58640625 -72.00273438 220.66890625 -72.859375 220.75390625 C-73.73464844 220.83640625 -74.60992187 220.91890625 -75.51171875 221.00390625 C-82.9343523 221.67884838 -82.9343523 221.67884838 -90.26171875 223.00390625 C-88.78833337 215.39141512 -88.78833337 215.39141512 -86.60546875 213.78515625 C-83.5565031 212.76883437 -80.71688414 212.57121617 -77.51171875 212.37890625 C-75.75601563 212.26675781 -75.75601563 212.26675781 -73.96484375 212.15234375 C-73.0728125 212.10335937 -72.18078125 212.054375 -71.26171875 212.00390625 C-68.66451526 205.76768318 -68.2055773 201.03835467 -69.07421875 194.31640625 C-69.69374546 187.70812137 -69.69374546 187.70812137 -67.8046875 184.62890625 C-65.72219569 182.78134182 -63.67781818 181.38154353 -61.26171875 180.00390625 C-60.65199219 179.61074219 -60.04226562 179.21757812 -59.4140625 178.8125 C-55.56409384 176.43586787 -51.43817692 174.70858305 -47.26171875 173.00390625 C-47.71706974 171.44053452 -48.17614651 169.87824776 -48.63671875 168.31640625 C-48.89195313 167.44628906 -49.1471875 166.57617188 -49.41015625 165.6796875 C-50.24328726 163.06182172 -51.21031529 160.54098852 -52.26171875 158.00390625 C-60.61885636 157.52589205 -60.61885636 157.52589205 -68.63671875 159.50390625 C-72.7843672 161.22017457 -75.81522118 161.9290041 -80.1328125 160.29638672 C-82.15739685 159.32896207 -84.11412282 158.2833231 -86.07421875 157.19140625 C-86.75419922 156.83498047 -87.43417969 156.47855469 -88.13476562 156.11132812 C-93.13081182 153.39662705 -93.13081182 153.39662705 -94.26171875 150.00390625 C-93.11574219 150.09929687 -91.96976563 150.1946875 -90.7890625 150.29296875 C-89.25916241 150.40559943 -87.72921155 150.51754201 -86.19921875 150.62890625 C-85.44705078 150.69335938 -84.69488281 150.7578125 -83.91992188 150.82421875 C-78.84916167 151.17544024 -75.18271344 150.415151 -70.26171875 149.00390625 C-66.40602592 148.63783428 -62.57033265 148.58861149 -58.69921875 148.56640625 C-57.68408203 148.53353516 -56.66894531 148.50066406 -55.62304688 148.46679688 C-47.3044145 148.40702878 -47.3044145 148.40702878 -43.69140625 151.2890625 C-38.89542724 156.64791364 -36.85542086 161.87948096 -36.26171875 169.00390625 C-26.58655372 172.71866592 -19.02753018 172.0647306 -9.13671875 169.44140625 C-1.08886713 167.33338834 4.91925342 167.28822317 12.6953125 170.34765625 C15.0153743 171.20779451 15.0153743 171.20779451 18.73828125 171.00390625 C19.18545059 161.76372455 19.18545059 161.76372455 16.73828125 153.00390625 C14.001024 150.50983508 10.9493416 148.81930965 7.73828125 147.00390625 C6.41350423 146.06261731 5.0995772 145.10573178 3.80078125 144.12890625 C1.08567469 141.81387907 1.08567469 141.81387907 -1.26171875 142.00390625 C-1.50921875 141.36453125 -1.75671875 140.72515625 -2.01171875 140.06640625 C-3.12753761 137.17883894 -3.12753761 137.17883894 -4.21484375 135.23046875 C-7.16453912 129.48516657 -7.99285897 124.02859099 -8.578125 117.67651367 C-8.95035699 113.7856448 -9.59838959 110.55050891 -11.26171875 107.00390625 C-14.32830209 107.20553636 -17.38674861 107.43899259 -20.44921875 107.69140625 C-21.31353516 107.74490234 -22.17785156 107.79839844 -23.06835938 107.85351562 C-28.93373335 108.37038766 -31.25137074 109.46607102 -35.26171875 114.00390625 C-38.34904684 114.85503608 -41.13145668 114.62656236 -44.26171875 114.00390625 C-47.32421875 112.19140625 -47.32421875 112.19140625 -49.26171875 110.00390625 C-49.26171875 109.01390625 -49.26171875 108.02390625 -49.26171875 107.00390625 C-48.69324219 106.9059375 -48.12476562 106.80796875 -47.5390625 106.70703125 C-43.49974485 105.92479277 -40.050325 105.08956678 -36.51171875 102.94140625 C-33.57287065 101.18940065 -31.60874527 100.40960643 -28.26171875 100.00390625 C-29.30564129 97.04612571 -30.32931198 94.91863479 -32.29296875 92.44140625 C-34.88206251 87.92076635 -34.92689688 84.24906304 -35.01171875 79.12890625 C-35.04136719 78.24976562 -35.07101563 77.370625 -35.1015625 76.46484375 C-35.17177434 74.3116808 -35.21906756 72.1577914 -35.26171875 70.00390625 C-37.00186055 70.00390625 -38.0021375 71.56132876 -39.23046875 72.703125 Z M-101.26171875 95.00390625 C-100.60171875 96.32390625 -99.94171875 97.64390625 -99.26171875 99.00390625 C-99.26171875 98.01390625 -99.26171875 97.02390625 -99.26171875 96.00390625 C-98.60171875 95.67390625 -97.94171875 95.34390625 -97.26171875 95.00390625 C-98.58171875 95.00390625 -99.90171875 95.00390625 -101.26171875 95.00390625 Z M-126.26171875 198.00390625 C-122.26171875 199.00390625 -122.26171875 199.00390625 -122.26171875 199.00390625 Z M158.73828125 242.00390625 C159.73828125 244.00390625 159.73828125 244.00390625 159.73828125 244.00390625 Z M-90.26171875 284.00390625 C-89.26171875 286.00390625 -89.26171875 286.00390625 -89.26171875 286.00390625 Z M60.73828125 332.00390625 C62.22328125 332.99390625 62.22328125 332.99390625 63.73828125 334.00390625 C63.73828125 333.34390625 63.73828125 332.68390625 63.73828125 332.00390625 C62.74828125 332.00390625 61.75828125 332.00390625 60.73828125 332.00390625 Z " fill="#000000" transform="translate(144.26171875,-0.00390625)"/>
<path d="M0 0 C0 0.99 0 1.98 0 3 C-0.99 3 -1.98 3 -3 3 C-3.09587402 3.58644287 -3.19174805 4.17288574 -3.29052734 4.77709961 C-4.64021203 9.00589488 -8.43883058 11.61770705 -11.625 14.5625 C-12.32496094 15.23474609 -13.02492188 15.90699219 -13.74609375 16.59960938 C-18.72849546 21.25385661 -23.04743723 25.09158377 -30.203125 24.92578125 C-31.20859375 24.72339844 -32.2140625 24.52101562 -33.25 24.3125 C-34.77367187 24.02826172 -34.77367187 24.02826172 -36.328125 23.73828125 C-39 23 -39 23 -42 21 C-41.42697729 14.41023883 -39.79679264 6.79679264 -35 2 C-32.29131184 1.51512985 -29.66886203 1.1517159 -26.9375 0.875 C-26.1448877 0.79008301 -25.35227539 0.70516602 -24.53564453 0.61767578 C-16.35244645 -0.18656575 -8.21243955 -0.18711888 0 0 Z " fill="#000000" transform="translate(84,231)"/>
<path d="M0 0 C2.40942781 0.95432726 3.72636268 1.50644232 5.00488281 3.8125 C5.23530273 4.534375 5.46572266 5.25625 5.703125 6 C5.96174316 6.80034668 6.22036133 7.60069336 6.48681641 8.42529297 C6.73866699 9.27494629 6.99051758 10.12459961 7.25 11 C7.51087402 11.86125488 7.77174805 12.72250977 8.04052734 13.60986328 C11.40071792 25.21600099 11.40071792 25.21600099 10 31 C8.375 33.8125 8.375 33.8125 6 36 C5.51789063 36.47566406 5.03578125 36.95132813 4.5390625 37.44140625 C3 38.875 3 38.875 0 41 C-1.984375 40.921875 -1.984375 40.921875 -4 40 C-5.703125 37.9609375 -5.703125 37.9609375 -7.25 35.375 C-8.03117188 34.11816406 -8.03117188 34.11816406 -8.828125 32.8359375 C-11.36363714 26.69999812 -9.7651093 21.03546859 -7.8125 15 C-7.59053955 14.29810547 -7.3685791 13.59621094 -7.13989258 12.87304688 C-5.48050714 7.87564284 -3.4958756 3.9952864 0 0 Z " fill="#000000" transform="translate(158,272)"/>
<path d="M0 0 C2.29098449 2.29098449 1.66316306 7.3589829 1.74316406 10.4934082 C1.51225744 19.02843637 -3.15143835 23.21346855 -9 29 C-9.99773437 30.40185547 -9.99773437 30.40185547 -11.015625 31.83203125 C-13 34 -13 34 -15.62402344 34.13549805 C-16.4080957 34.09078369 -17.19216797 34.04606934 -18 34 C-18.08736736 30.27098186 -18.14051482 26.54222835 -18.1875 22.8125 C-18.21263672 21.75740234 -18.23777344 20.70230469 -18.26367188 19.61523438 C-18.27333984 18.59365234 -18.28300781 17.57207031 -18.29296875 16.51953125 C-18.31653442 15.11344604 -18.31653442 15.11344604 -18.34057617 13.67895508 C-17.767238 9.16910575 -15.45286666 6.01913793 -11.9375 3.25 C-7.62304162 -0.05469152 -5.43266592 -0.19755149 0 0 Z " fill="#000000" transform="translate(193,72)"/>
<path d="M0 0 C0.73541016 0.42087891 1.47082031 0.84175781 2.22851562 1.27539062 C2.99873047 1.70013672 3.76894531 2.12488281 4.5625 2.5625 C6.43783828 3.59917768 8.30304803 4.65414325 10.16601562 5.71289062 C10.16601562 7.03289062 10.16601562 8.35289062 10.16601562 9.71289062 C6.98114125 10.25069036 3.79288796 10.7650019 0.60351562 11.27539062 C-0.29173828 11.42685547 -1.18699219 11.57832031 -2.109375 11.734375 C-14.13690349 13.62882088 -14.13690349 13.62882088 -18.83007812 10.29492188 C-21.41485585 7.12173947 -22.75356598 5.45005927 -23.20898438 1.27539062 C-23.08523437 0.42976562 -22.96148437 -0.41585937 -22.83398438 -1.28710938 C-14.59365551 -5.67026303 -8.04600462 -4.39192392 0 0 Z " fill="#000000" transform="translate(61.833984375,131.287109375)"/>
<path d="M0 0 C4.39381209 0.50214995 6.83419795 1.92213689 10 5 C13.59624873 12.7457665 9.82411263 23.26923694 8 31 C5.73828125 30.875 5.73828125 30.875 3 30 C-1.36843203 24.32188332 -5.12240829 17.4063995 -4.51171875 10.078125 C-3.59323833 6.3481129 -1.9280926 3.31390916 0 0 Z " fill="#000000" transform="translate(157,97)"/>
<path d="M0 0 C4.99922659 0.49992266 8.72791044 1.31881879 13 4 C14.56374402 6.32253494 15.72238513 8.31080181 16.875 10.8125 C17.18179688 11.41642578 17.48859375 12.02035156 17.8046875 12.64257812 C19.70129288 16.57549419 20.33257197 19.65661006 20 24 C12.41996513 22.85433568 5.82154768 17.89848821 1.01953125 12.01171875 C-0.91492949 8.19467935 -0.45131742 4.15379178 0 0 Z " fill="#000000" transform="translate(115,120)"/>
<path d="M0 0 C4.21372787 0.552248 6.7688567 1.94980344 10.1875 4.4375 C11.04730469 5.05496094 11.90710938 5.67242187 12.79296875 6.30859375 C15 8 15 8 17 10 C17.23046875 12.78515625 17.23046875 12.78515625 17.1875 16.0625 C17.18105469 17.14660156 17.17460937 18.23070312 17.16796875 19.34765625 C17 22 17 22 16 23 C12.27736164 23.357946 9.72811498 23.33865813 6.3125 21.75 C1.99598747 16.61684997 -0.23625557 9.47102455 -0.25 2.75 C-0.1675 1.8425 -0.085 0.935 0 0 Z " fill="#000000" transform="translate(196,241)"/>
<path d="M0 0 C4.12398256 0.54013223 6.46177045 1.77908182 9.6875 4.375 C10.45449219 4.98085938 11.22148437 5.58671875 12.01171875 6.2109375 C15.31210197 9.18063399 16.41413781 11.70367731 17 16 C17.03824623 18.33301986 17.04574284 20.66711508 17 23 C12.71408558 22.81324992 9.02703172 22.49118908 5.125 20.625 C0.49170034 14.90151219 -0.47937694 7.19065414 0 0 Z " fill="#000000" transform="translate(226,265)"/>
<path d="M0 0 C1 1 1 1 1.375 3.75 C1 7 1 7 -0.8125 9.625 C-7.07844547 14.29374369 -14.19171886 16.69406943 -22 16 C-20.6265396 10.04833829 -17.27243939 5.2810014 -13 1 C-8.22945327 -1.48733736 -5.14949363 -0.94407383 0 0 Z " fill="#000000" transform="translate(258,130)"/>
<path d="M0 0 C1.13598633 0.00483398 1.13598633 0.00483398 2.29492188 0.00976562 C3.47344727 0.02233398 3.47344727 0.02233398 4.67578125 0.03515625 C5.47306641 0.03966797 6.27035156 0.04417969 7.09179688 0.04882812 C9.05732382 0.06059775 11.0228121 0.07853277 12.98828125 0.09765625 C13.31828125 1.41765625 13.64828125 2.73765625 13.98828125 4.09765625 C3.70256696 13.35058365 3.70256696 13.35058365 -4.01171875 13.09765625 C-6.46577862 12.60684428 -8.641104 11.93724897 -11.01171875 11.09765625 C-10.40148253 4.62915231 -10.40148253 4.62915231 -8.63671875 2.22265625 C-5.81898632 0.27191841 -3.31839246 -0.02495032 0 0 Z " fill="#000000" transform="translate(112.01171875,188.90234375)"/>
<path d="M0 0 C9.85656895 -0.62142992 9.85656895 -0.62142992 13.875 1.5625 C21 9.73529412 21 9.73529412 21 14 C18.77144426 14.0814222 16.54202345 14.13938079 14.3125 14.1875 C13.07113281 14.22230469 11.82976562 14.25710937 10.55078125 14.29296875 C6.76722623 13.98079424 4.96156558 13.32461121 2 11 C0.26047717 7.18961667 -0.07704666 4.13250261 0 0 Z " fill="#000000" transform="translate(117,151)"/>
<path d="M0 0 C2.60527105 -0.10792837 5.20608311 -0.18724878 7.8125 -0.25 C8.55048828 -0.28351563 9.28847656 -0.31703125 10.04882812 -0.3515625 C15.5044697 -0.45030714 15.5044697 -0.45030714 18.01171875 1.828125 C19 4 19 4 19 7 C14.58225849 9.34692517 10.74637297 9.16577582 6 8 C2.5 6.4375 2.5 6.4375 0 5 C0 3.35 0 1.7 0 0 Z " fill="#000000" transform="translate(199,183)"/>
</svg>
