<?xml version="1.0" encoding="UTF-8"?>
<svg version="1.1" xmlns="http://www.w3.org/2000/svg" width="333" height="368">
<path d="M0 0 C0.99 0 1.98 0 3 0 C3.33719047 2.56204544 3.66987153 5.12454318 4 7.6875 C4.09539062 8.40873047 4.19078125 9.12996094 4.2890625 9.87304688 C4.76683735 13.60992871 5.11919794 17.22291531 5 21 C3.71175453 21.67325391 2.41895017 22.33777634 1.125 23 C0.22652344 23.4640625 -0.67195312 23.928125 -1.59765625 24.40625 C-4.22966135 25.63915251 -6.77187861 26.6724582 -9.49609375 27.65625 C-18.27006364 30.82008349 -18.27006364 30.82008349 -25.26953125 36.703125 C-29.43988826 46.07741453 -28.45038241 56.9614764 -28 67 C-27.19175781 66.77183594 -26.38351563 66.54367188 -25.55078125 66.30859375 C-24.48214844 66.02113281 -23.41351563 65.73367187 -22.3125 65.4375 C-21.25675781 65.14746094 -20.20101562 64.85742188 -19.11328125 64.55859375 C-15.93973891 63.98918779 -14.05243497 64.04021375 -11 65 C-7.17258039 67.84831227 -5.79861892 70.04227087 -5 74.625 C-4.41199575 77.79810399 -4.21782672 78.76897166 -1.9375 81.1875 C5.85707175 83.34344538 13.32015589 78.65369344 20 75 C19.48880234 79.39629991 18.93518727 82.62008738 16 86 C10.07022817 89.37743962 3.78752786 91.28412689 -3 90 C-6.80056738 88.87710509 -9.98145771 87.6061078 -13 85 C-14.10600751 81.93069688 -14.05701948 79.22476848 -14 76 C-14.33 75.34 -14.66 74.68 -15 74 C-16.258125 74.309375 -17.51625 74.61875 -18.8125 74.9375 C-19.87404297 75.19853516 -19.87404297 75.19853516 -20.95703125 75.46484375 C-22.65683202 75.91010705 -24.33301954 76.44433985 -26 77 C-25.89945313 77.87914063 -25.79890625 78.75828125 -25.6953125 79.6640625 C-26.09935525 84.08781259 -27.68526957 85.36599084 -30.875 88.375 C-31.77992188 89.24898438 -32.68484375 90.12296875 -33.6171875 91.0234375 C-36 93 -36 93 -38 93 C-38 93.66 -38 94.32 -38 95 C-39.80172089 96.73312746 -41.72950581 98.27298656 -43.6640625 99.85546875 C-50.70768124 106.32193478 -53.57621905 112.26250797 -56.375 121.4375 C-56.72949219 122.55060547 -57.08398438 123.66371094 -57.44921875 124.81054688 C-58.31479822 127.53595252 -59.16448229 130.26525927 -60 133 C-56.94474811 131.80931363 -54.26834635 130.55529986 -51.5 128.8125 C-47.58511733 126.76220092 -44.77697925 127.0244245 -40.4375 127.5625 C-34.89692362 128.18543666 -34.89692362 128.18543666 -29.75 126.4375 C-27.2210834 124.27250066 -27.00075272 123.00546678 -26.5390625 119.65234375 C-26.43097112 117.16366848 -26.40302243 114.6700357 -26.4609375 112.1796875 C-26 109 -26 109 -23.65234375 107.11328125 C-21.08017733 106.03365322 -18.75661541 105.3938022 -16 105 C-16.32613281 105.825 -16.65226563 106.65 -16.98828125 107.5 C-17.93271287 110.76722292 -18.16265558 113.53028495 -18.17602539 116.9140625 C-18.22524853 125.86220074 -18.22524853 125.86220074 -20.6171875 129.375 C-22.5625 131 -22.5625 131 -26 133 C-18.493462 138.47956595 -18.493462 138.47956595 -10 141 C-9.505 140.175 -9.01 139.35 -8.5 138.5 C-8.005 137.675 -7.51 136.85 -7 136 C-6.34 136 -5.68 136 -5 136 C-5 135.34 -5 134.68 -5 134 C-1.08980621 130.58897988 1.40204659 128.78996531 6.625 128.5625 C10.32794184 128.30973946 10.9146967 128.06930893 14 125.5625 C16.49731504 122.04744356 16.68057688 118.38640212 16.859375 114.171875 C17 112 17 112 18 110 C21.465 109.505 21.465 109.505 25 109 C24.34 115.27 23.68 121.54 23 128 C24.5675 128.556875 26.135 129.11375 27.75 129.6875 C32.03979854 131.39491273 34.6177584 132.88521906 37 137 C37 137.66 37 138.32 37 139 C38.98 139 40.96 139 43 139 C43 139.66 43 140.32 43 141 C37.65420561 144.03738318 37.65420561 144.03738318 34.8125 143.875 C32.7136578 142.86176583 31.45462972 141.81828715 30 140 C30 139.34 30 138.68 30 138 C16.65393341 135.26153018 16.65393341 135.26153018 4 139 C1.33711245 142.02903459 -0.77847214 144.97195012 -2.9296875 148.3828125 C-5 151 -5 151 -7.23828125 152.0234375 C-11.23589514 151.9895115 -14.57596811 150.85328343 -18.3125 149.5 C-19.07506104 149.23098877 -19.83762207 148.96197754 -20.62329102 148.68481445 C-24.91424803 147.07645381 -28.1395631 145.46507926 -31.4375 142.1875 C-34.79843789 138.87107785 -37.40028759 137.71109568 -42.1484375 137.52734375 C-48.30165592 138.54726078 -53.69705656 141.85216272 -59 145 C-60.06734375 145.51175781 -61.1346875 146.02351562 -62.234375 146.55078125 C-66.38777881 150.22900751 -66.95652653 154.69109988 -68 160 C-64.50134441 161.12921005 -61.0008432 162.25259226 -57.5 163.375 C-56.02660156 163.85066406 -56.02660156 163.85066406 -54.5234375 164.3359375 C-53.55664062 164.6453125 -52.58984375 164.9546875 -51.59375 165.2734375 C-50.16784546 165.73024902 -50.16784546 165.73024902 -48.71313477 166.19628906 C-46.29257755 166.91332986 -43.90627261 167.44959645 -41.43359375 167.9453125 C-38 169 -38 169 -36.37890625 171.09375 C-36.10949219 171.8878125 -35.84007812 172.681875 -35.5625 173.5 C-35.27503906 174.2940625 -34.98757812 175.088125 -34.69140625 175.90625 C-34.46324219 176.5971875 -34.23507813 177.288125 -34 178 C-33.67 178.66 -33.34 179.32 -33 180 C-30.35501649 179.54657425 -28.16170941 179.0808547 -25.75 177.875 C-19.06407126 175.74765904 -13.05501664 178.18933691 -6.984375 181.078125 C-1.83516525 183.47027756 3.44112211 183.10899761 9 183 C11.98389167 178.32523638 13.60070377 174.3737487 14.60546875 168.91796875 C15 167 15 167 16 165 C18.06640625 164.3671875 18.06640625 164.3671875 20.5625 163.875 C21.38878906 163.70742187 22.21507812 163.53984375 23.06640625 163.3671875 C23.70449219 163.24601563 24.34257812 163.12484375 25 163 C25 163.99 25 164.98 25 166 C24.36835938 166.43957031 23.73671875 166.87914062 23.0859375 167.33203125 C20.29674019 169.56234445 20.23831299 171.21650401 19.625 174.6875 C18.35274228 180.47240667 16.34687005 184.88318714 12 189 C11.34 189 10.68 189 10 189 C10 189.66 10 190.32 10 191 C5.22014425 193.38992787 -2.76759201 191.8200245 -8 191 C-10.31469591 190.19304179 -12.17558318 189.25772428 -14.265625 188 C-17.43828031 186.17072126 -20.37958342 185.54306249 -24 185 C-26.38305196 186.24348469 -26.38305196 186.24348469 -28 188 C-28.66 188 -29.32 188 -30 188 C-23.5556709 202.85397008 -23.5556709 202.85397008 -12.03515625 213.48828125 C-9.00398636 214.24899956 -6.10874608 214.69770406 -3 215 C6.38853503 216.35031847 6.38853503 216.35031847 9 219.125 C10 222 10 222 10.24951172 223.92529297 C10.58210465 226.17787836 10.9940502 227.95121914 12 230 C14.52963596 231.70203901 17.17646262 232.32270212 20.125 233 C20.87910156 233.20238281 21.63320313 233.40476562 22.41015625 233.61328125 C24.26548566 234.10647008 26.13194349 234.55745358 28 235 C27.67 235.66 27.34 236.32 27 237 C12.33039463 238.40959116 12.33039463 238.40959116 6 237 C3.51422235 234.33009068 2.60954197 231.88190199 1.1875 228.546875 C-1.37090835 225.56815671 -2.05140649 225.5519946 -5.8125 225.140625 C-8.65921926 224.96502135 -11.50171203 224.87494637 -14.35229492 224.78564453 C-21.36967339 224.43592681 -21.36967339 224.43592681 -24.92578125 221.9765625 C-29 216.62862319 -29 216.62862319 -29 213 C-29.66 213 -30.32 213 -31 213 C-38.33141027 205.38488954 -47 191.91206131 -47 181 C-47.66902344 180.85304687 -48.33804688 180.70609375 -49.02734375 180.5546875 C-58.28061255 178.39352136 -67.09151575 175.26151852 -76 172 C-75.83628906 172.54140625 -75.67257813 173.0828125 -75.50390625 173.640625 C-74.91409413 176.40222593 -74.90390692 178.92818139 -74.9375 181.75 C-74.94652344 182.73484375 -74.95554688 183.7196875 -74.96484375 184.734375 C-74.98224609 185.85585938 -74.98224609 185.85585938 -75 187 C-74.154375 187.061875 -73.30875 187.12375 -72.4375 187.1875 C-68.15175892 188.20049335 -64.86981605 189.56589427 -62 193 C-61.51999705 195.35863518 -61.43896967 197.56979567 -61.375 199.97265625 C-61.25125 200.64167969 -61.1275 201.31070313 -61 202 C-58.09748698 204.16247221 -58.09748698 204.16247221 -55 205 C-55 205.66 -55 206.32 -55 207 C-62.72736452 207.29720633 -62.72736452 207.29720633 -66 205 C-66.51171875 202.94140625 -66.51171875 202.94140625 -66.6875 200.5625 C-67.02690845 198.13394247 -67.02690845 198.13394247 -68 196 C-70.84407948 194.16105704 -73.68771516 193.55300756 -77 193 C-77.9075 192.814375 -78.815 192.62875 -79.75 192.4375 C-82.66729146 193.16682286 -84.24567354 194.63812561 -86.0625 197 C-87.85229423 200.81822769 -87.36572836 204.8875878 -87 209 C-86.38125 209.28875 -85.7625 209.5775 -85.125 209.875 C-83 211 -83 211 -81 213 C-80.57981268 215.06973458 -80.16694843 217.14149319 -79.80761719 219.22265625 C-78.36125301 228.40205713 -78.36125301 228.40205713 -72.75 235.5 C-72.04359375 235.9640625 -71.3371875 236.428125 -70.609375 236.90625 C-69.81273437 237.44765625 -69.81273437 237.44765625 -69 238 C-69 238.66 -69 239.32 -69 240 C-71.29450585 239.57764318 -73.58558438 239.13663083 -75.875 238.6875 C-77.15117187 238.44386719 -78.42734375 238.20023438 -79.7421875 237.94921875 C-83 237 -83 237 -85 234 C-85.71847984 230.60877515 -86.30166474 227.22488369 -86.85546875 223.8046875 C-87.46225471 220.26836503 -87.98093165 218.02860252 -90 215 C-94.34184202 215.18464366 -94.34184202 215.18464366 -98 217 C-97.938125 218.258125 -97.87625 219.51625 -97.8125 220.8125 C-97.77928613 223.91246095 -97.79708688 224.72193388 -99.6875 227.3125 C-104.32571429 230.69714286 -104.32571429 230.69714286 -107 232 C-107.99 231.67 -108.98 231.34 -110 231 C-109.01 229.7934375 -109.01 229.7934375 -108 228.5625 C-106.05918624 225.71866872 -105.81728105 223.85206042 -106 220.4375 C-106.14740503 217.06986207 -106.07884367 216.14252509 -104.375 213.0625 C-101.68312406 210.72481826 -99.4367294 209.85918235 -96 209 C-96.10441406 208.07380859 -96.10441406 208.07380859 -96.2109375 207.12890625 C-96.69263205 199.59382725 -94.5368738 195.83312346 -90 190 C-85.38300444 183.92751747 -84.2949647 179.64571616 -85 172 C-85.76699219 172.43828125 -86.53398437 172.8765625 -87.32421875 173.328125 C-88.43410156 173.96234375 -89.54398438 174.5965625 -90.6875 175.25 C-91.59592651 175.78681396 -91.59592651 175.78681396 -92.52270508 176.33447266 C-96.43662216 178.62608826 -100.38097501 180.66889536 -104.5 182.5703125 C-114.02826205 186.68824043 -114.02826205 186.68824043 -121.01806641 193.88085938 C-121.78008433 196.7110121 -121.97261676 199.42224098 -122.08642578 202.34301758 C-122.52999999 210.4546912 -125.88629178 216.97305143 -129.5625 224.0625 C-130.15482422 225.22346191 -130.74714844 226.38442383 -131.35742188 227.58056641 C-135.67709519 235.8385476 -135.67709519 235.8385476 -138 237 C-140.09491297 237.15225354 -142.19380097 237.25116999 -144.29296875 237.32421875 C-145.56333984 237.38416016 -146.83371094 237.44410156 -148.14257812 237.50585938 C-150.82016068 237.63147756 -153.49403028 237.72782896 -156.17382812 237.81054688 C-165.37230979 238.19491291 -165.37230979 238.19491291 -172.69458008 243.20581055 C-174.96447465 246.32558896 -176.67461899 249.54743113 -178.25 253.0625 C-178.89931645 254.4500274 -179.55032191 255.83676582 -180.203125 257.22265625 C-180.47801758 257.82859619 -180.75291016 258.43453613 -181.03613281 259.05883789 C-181.35420898 259.69942139 -181.67228516 260.34000488 -182 261 C-182.40927734 261.86197998 -182.81855469 262.72395996 -183.24023438 263.61206055 C-185.54098895 266.73410279 -187.21888753 267.0752573 -190.953125 267.984375 C-192.13003906 268.27957031 -193.30695313 268.57476562 -194.51953125 268.87890625 C-196.36611328 269.31009766 -196.36611328 269.31009766 -198.25 269.75 C-199.46558594 270.05292969 -200.68117188 270.35585938 -201.93359375 270.66796875 C-207.59885574 272.05802758 -213.20025059 273.34795717 -219 274 C-219 273.34 -219 272.68 -219 272 C-218.21351074 271.73074707 -217.42702148 271.46149414 -216.61669922 271.18408203 C-202.09012287 266.62800593 -202.09012287 266.62800593 -190.30957031 257.82617188 C-188.57927939 254.07640492 -187.87314774 250.2706119 -187.09375 246.23828125 C-185.71137684 239.39462464 -180.64430546 235.74965798 -175 232 C-169.70448763 228.7840392 -164.33126428 227.94269568 -158.3125 226.9375 C-156.43249757 226.61969918 -154.55352287 226.29574089 -152.67578125 225.96484375 C-151.84989502 225.8268335 -151.02400879 225.68882324 -150.1730957 225.54663086 C-146.96126014 224.73871042 -145.29813947 223.44379539 -143.46484375 220.71484375 C-142.96082031 219.79832031 -142.45679688 218.88179687 -141.9375 217.9375 C-141.43089844 217.03902344 -140.92429687 216.14054688 -140.40234375 215.21484375 C-137.9336176 209.55534063 -136.94780431 204.07341972 -136.81640625 197.9140625 C-136.36190071 184.62039647 -136.36190071 184.62039647 -132.34033203 180.15869141 C-127.90643269 176.77309638 -122.88994147 174.55648506 -117.81103516 172.30957031 C-112.79620589 169.97332364 -108.0819792 167.10703365 -103.3125 164.3125 C-101.51832344 163.28531754 -99.72287348 162.26035406 -97.92578125 161.23828125 C-97.16692627 160.80555908 -96.40807129 160.37283691 -95.6262207 159.92700195 C-95.08956787 159.62109131 -94.55291504 159.31518066 -94 159 C-94 158.34 -94 157.68 -94 157 C-105.02970226 150.81217971 -112.78462214 150.48041342 -125 153 C-125.67804688 153.21527344 -126.35609375 153.43054688 -127.0546875 153.65234375 C-129 154 -129 154 -132.1796875 153.42578125 C-136.97515809 152.89131674 -140.54930388 153.84059111 -145.125 155.1875 C-145.91003906 155.39697266 -146.69507813 155.60644531 -147.50390625 155.82226562 C-152.19021706 157.15387333 -155.28758307 158.72887037 -159 162 C-159.66 162 -160.32 162 -161 162 C-160.566875 163.918125 -160.566875 163.918125 -160.125 165.875 C-159.20844228 174.2325592 -162.9979541 182.34883978 -166 190 C-167.92004075 191.92004075 -171.4418355 191.31314478 -174 191.4375 C-179.8587859 191.76039226 -185.32231194 192.50587156 -191 194 C-191 190.26752696 -190.19304151 188.45439958 -188.04296875 185.453125 C-183.55669982 182.26212683 -177.24164909 183.55314764 -172 184 C-171.86722656 183.37351563 -171.73445313 182.74703125 -171.59765625 182.1015625 C-171.42105469 181.28429687 -171.24445313 180.46703125 -171.0625 179.625 C-170.88847656 178.81289062 -170.71445313 178.00078125 -170.53515625 177.1640625 C-170 175 -170 175 -169 173 C-168.73813653 167.7627306 -169.02486139 163.93784652 -171 159 C-163.28208161 152.04385018 -157.07117326 146.94388141 -147 144 C-148.98 139.05 -150.96 134.1 -153 129 C-162.92756547 128.10098025 -162.92756547 128.10098025 -172.0625 131.125 C-173.031875 131.74375 -174.00125 132.3625 -175 133 C-179.93213299 131.86780304 -184.06285949 129.42267383 -188.375 126.875 C-189.01566406 126.50246094 -189.65632813 126.12992187 -190.31640625 125.74609375 C-191.88048477 124.83565998 -193.44065534 123.91851809 -195 123 C-194.67 122.34 -194.34 121.68 -194 121 C-193.0925 121.165 -192.185 121.33 -191.25 121.5 C-181.96048946 122.95544715 -181.96048946 122.95544715 -173.14819336 121.01538086 C-168.97488852 119.04279593 -164.29212446 119.4604854 -159.75 119.375 C-158.73808594 119.31699219 -157.72617188 119.25898438 -156.68359375 119.19921875 C-152.31919448 119.12562966 -149.22350306 119.16219823 -145.55273438 121.67578125 C-141.04808599 126.04614472 -138.61698337 129.93631238 -137 136 C-137 137.32 -137 138.64 -137 140 C-136.030625 140.309375 -135.06125 140.61875 -134.0625 140.9375 C-131 142 -131 142 -130 143 C-123.89193439 143.82798223 -118.30176306 142.72376017 -112.4375 141.0625 C-101.9017896 138.12539823 -96.67767746 137.08326089 -86.50390625 141.96875 C-85.67761719 142.3090625 -84.85132813 142.649375 -84 143 C-83.34 142.67 -82.68 142.34 -82 142 C-81.72532885 135.91033954 -81.52003597 129.68392358 -84 124 C-87.04309469 120.82494574 -90.76327569 118.92814627 -94.59960938 116.85571289 C-101.65051771 112.9784634 -104.44355604 108.65836002 -107 101 C-107.36222656 100.20335937 -107.72445312 99.40671875 -108.09765625 98.5859375 C-109.59686706 94.28949786 -109.4616868 89.88886623 -109.65625 85.375 C-109.98121035 82.1844802 -110.64552564 79.88371961 -112 77 C-112.886875 77.309375 -113.77375 77.61875 -114.6875 77.9375 C-119.38666344 79.34339726 -124.13676805 79.28881079 -129.01171875 79.36328125 C-132.90090615 80.19195778 -133.66698927 81.90063647 -136 85 C-139.07967356 85.9518991 -141.86886268 85.69220307 -145 85 C-147.56649405 83.57823548 -148.96123056 82.19559786 -151 80 C-151 79.34 -151 78.68 -151 78 C-150.34773438 77.98582031 -149.69546875 77.97164063 -149.0234375 77.95703125 C-142.85985566 77.70279118 -142.85985566 77.70279118 -137.875 74.4375 C-134.83614922 71.86108304 -134.35311132 71.66142929 -130.625 71.6875 C-129.42875 71.790625 -128.2325 71.89375 -127 72 C-128.14426266 70.186508 -129.29045392 68.37423275 -130.4375 66.5625 C-131.07558594 65.55316406 -131.71367187 64.54382813 -132.37109375 63.50390625 C-133.77649542 61.15446165 -133.77649542 61.15446165 -135 60 C-135.08843793 57.55169574 -135.11528752 55.13179401 -135.09765625 52.68359375 C-135.0962413 51.95253922 -135.09482635 51.22148468 -135.09336853 50.46827698 C-135.08775408 48.12464368 -135.07519922 45.78110461 -135.0625 43.4375 C-135.05748686 41.85221492 -135.05292363 40.26692834 -135.04882812 38.68164062 C-135.03777997 34.7877239 -135.02050572 30.89387795 -135 27 C-132 28 -132 28 -130.83203125 29.65234375 C-128.11438175 35.74362712 -127.96244073 40.54791707 -128.3125 47.0625 C-128.55340894 53.10638857 -128.39455583 56.92327273 -124.125 61.625 C-119.76747016 65.18525309 -116.68951229 65.5366707 -111.2265625 65.00390625 C-109 65 -109 65 -106.125 67.1875 C-105.42375 68.115625 -104.7225 69.04375 -104 70 C-102.94039062 71.1446875 -102.94039062 71.1446875 -101.859375 72.3125 C-99.59503664 75.58532519 -99.73487707 76.91627224 -100.125 80.8125 C-100.31068207 88.99179501 -98.78417988 97.18296796 -94 104 C-90.75921093 107.02650577 -87.05721847 109.07619478 -83.14453125 111.10546875 C-79.79742825 113.12204633 -78.60703603 114.49373956 -77 118 C-76.3125 120.8125 -76.3125 120.8125 -76 123 C-75.34 123 -74.68 123 -74 123 C-73.70440843 121.69430871 -73.41050557 120.38823515 -73.1171875 119.08203125 C-72.8382666 117.84573975 -72.8382666 117.84573975 -72.55371094 116.58447266 C-72.20401978 114.9522722 -71.88070703 113.31399353 -71.59472656 111.66943359 C-70.13723093 103.33961443 -68.46446082 96.31704948 -61.296875 91.20703125 C-57.07125258 88.56843 -52.70224593 86.25957019 -48.19482422 84.140625 C-44.8376997 82.4325704 -44.8376997 82.4325704 -42 80 C-41.46677011 76.67750543 -41.46677011 76.67750543 -41.63671875 72.83203125 C-41.64245604 71.37321478 -41.64663022 69.9143915 -41.64941406 68.45556641 C-41.65686646 67.69576477 -41.66431885 66.93596313 -41.67199707 66.15313721 C-41.84091364 40.65005987 -41.84091364 40.65005987 -34 30 C-29.85182984 25.94250022 -24.77702711 23.81795772 -19.5625 21.4375 C-17.10094929 20.29715284 -14.64023461 19.15591002 -12.18652344 17.9987793 C-10.33785445 17.15432811 -8.44744168 16.40218593 -6.55078125 15.671875 C-2.91971161 13.29193961 -2.61494181 10.96264066 -1.625 6.8125 C-1.14933594 4.90404297 -1.14933594 4.90404297 -0.6640625 2.95703125 C-0.44492188 1.98121094 -0.22578125 1.00539063 0 0 Z " fill="#1B1B1B" transform="translate(245,29)"/>
<path d="M0 0 C0.30403947 16.68094517 0.53309291 33.36098842 0.67355824 50.04403687 C0.74052131 57.79088091 0.8317594 65.53600108 0.98071289 73.28173828 C1.11052203 80.03518428 1.19420829 86.78738196 1.22315043 93.54204082 C1.24006534 97.11756175 1.27962435 100.6895127 1.37449074 104.2638855 C1.92859162 125.97312384 1.92859162 125.97312384 -1.23724556 130.94182587 C-4.63578311 134.28030731 -8.49290741 135.5645426 -13 137 C-15.11014814 138.16861585 -17.19922144 139.37703546 -19.25390625 140.640625 C-21.35592208 141.84523227 -23.45880585 143.04832611 -25.5625 144.25 C-33.7381888 148.93973379 -41.87223439 153.68523336 -49.9375 158.5625 C-55.64798833 162.01276171 -61.37154866 165.38250185 -67.2578125 168.52734375 C-76.90471564 173.70808803 -86.37917021 179.19655221 -95.79931641 184.77636719 C-102.8245103 188.92397887 -109.91190542 192.96132129 -117 197 C-134.12845451 206.366968 -134.12845451 206.366968 -150.56640625 216.82421875 C-153.90164144 218.43562452 -155.47222382 218.06755867 -159 217 C-161.49088459 215.67208734 -163.81813845 214.32565417 -166.1875 212.8125 C-167.52500464 211.9840006 -168.86355259 211.15718317 -170.203125 210.33203125 C-170.85345703 209.92936035 -171.50378906 209.52668945 -172.17382812 209.11181641 C-175.38737 207.1553365 -178.70126744 205.39488838 -182.015625 203.6171875 C-185.93049239 201.4957803 -189.80872042 199.3115231 -193.6875 197.125 C-194.40800537 196.71894531 -195.12851074 196.31289063 -195.87084961 195.89453125 C-197.58089157 194.93026392 -199.29049379 193.96521681 -201 193 C-200.6875 191.125 -200.6875 191.125 -200 189 C-198.515 188.01 -198.515 188.01 -197 187 C-195.9458482 183.83754459 -195.68724328 181.13051782 -195.4375 177.8125 C-195.35371094 176.72582031 -195.26992187 175.63914062 -195.18359375 174.51953125 C-195.12300781 173.68808594 -195.06242187 172.85664063 -195 172 C-193.21948242 171.39135742 -193.21948242 171.39135742 -191 171 C-188.2996796 172.33664358 -185.85373121 173.718324 -183.3125 175.3125 C-182.57225586 175.76020752 -181.83201172 176.20791504 -181.06933594 176.66918945 C-177.90730686 178.58261047 -174.76399226 180.52542968 -171.62451172 182.47558594 C-169.3398117 183.89098778 -167.04530421 185.28938474 -164.75 186.6875 C-163.69679565 187.35616089 -163.69679565 187.35616089 -162.62231445 188.03833008 C-161.62590942 188.64390747 -161.62590942 188.64390747 -160.609375 189.26171875 C-160.03155273 189.62225342 -159.45373047 189.98278809 -158.85839844 190.35424805 C-156.20443803 191.27644002 -154.6738994 190.81847469 -152 190 C-150.08549647 189.02781531 -148.20940462 187.97804257 -146.3671875 186.875 C-144.78744141 185.93914062 -144.78744141 185.93914062 -143.17578125 184.984375 C-141.54189453 184.00210938 -141.54189453 184.00210938 -139.875 183 C-137.70716621 181.70592296 -135.53795802 180.4141447 -133.3671875 179.125 C-131.93028564 178.26261719 -131.93028564 178.26261719 -130.46435547 177.3828125 C-128 176 -128 176 -125 175 C-122.37109375 176.8359375 -122.37109375 176.8359375 -119.4375 179.375 C-115.93676346 182.51275473 -115.93676346 182.51275473 -112 185 C-111.86537354 184.39526855 -111.73074707 183.79053711 -111.59204102 183.16748047 C-110.95228833 180.39335987 -110.25813119 177.63561513 -109.5625 174.875 C-109.35173828 173.92367187 -109.14097656 172.97234375 -108.92382812 171.9921875 C-107.60239283 166.91787596 -106.38430514 163.7169986 -101.96484375 160.7109375 C-100.32644959 159.77761389 -98.6702696 158.87500164 -97 158 C-95.2283905 156.97529908 -93.45758281 155.9492109 -91.6875 154.921875 C-89.79339897 153.8614831 -87.89750275 152.80429266 -86 151.75 C-78.97917265 147.81766296 -71.98325722 143.85614201 -65.0625 139.75 C-60.40069228 136.98605618 -55.72501522 134.2570919 -50.9921875 131.61621094 C-49.67382802 130.87754188 -48.35990752 130.13088855 -47.05078125 129.37597656 C-43.51357673 127.34490245 -39.96715458 125.50328028 -36.25390625 123.8125 C-29.55994205 120.71617799 -29.55994205 120.71617799 -24 116 C-22.72365926 112.33472468 -22.85699629 108.76071916 -23.05322266 104.92602539 C-23.31712375 99.39223201 -23.31712375 99.39223201 -21.21875 96.796875 C-19.15764724 95.56868363 -17.30049142 94.66551802 -15 94 C-15.78362954 91.49238547 -16.53023158 89.46204165 -18.42494202 87.59849548 C-24.04422314 81.898026 -23.73899835 75.43799314 -23.70542908 67.92201233 C-23.6781112 66.19929753 -23.64998053 64.47659546 -23.62109375 62.75390625 C-23.61243069 60.97412636 -23.60628986 59.19433257 -23.60255432 57.41453552 C-23.58539263 52.7505236 -23.53134857 48.08762558 -23.47027588 43.42401123 C-23.42650558 39.60262783 -23.40909521 35.78133392 -23.39300442 31.95974827 C-23.37345252 27.41190308 -23.34287959 22.86416203 -23.30859375 18.31640625 C-23.30216795 17.44536318 -23.29574215 16.57432011 -23.28912163 15.67688179 C-23.26824159 13.22791891 -23.23995389 10.77917271 -23.20874023 8.33032227 C-23.20290924 7.59842682 -23.19707825 6.86653137 -23.19107056 6.11245728 C-23.11534932 1.11534932 -23.11534932 1.11534932 -22 0 C-19.24384294 -0.26615251 -16.51269627 -0.46974104 -13.75 -0.625 C-12.98558594 -0.6765625 -12.22117187 -0.728125 -11.43359375 -0.78125 C-10.68722656 -0.82507813 -9.94085938 -0.86890625 -9.171875 -0.9140625 C-8.1523877 -0.9752124 -8.1523877 -0.9752124 -7.11230469 -1.03759766 C-4.65071025 -0.99378287 -2.40520126 -0.50547229 0 0 Z " fill="#0C0C0C" transform="translate(320,150)"/>
<path d="M0 0 C1.52305411 7.921834 2.71441476 16.23813036 0 24 C-5.31538374 30.16270691 -13.33487348 33.13720209 -20.61669922 36.38818359 C-23.98780319 37.9941894 -27.07001172 39.80335035 -30.22265625 41.80078125 C-46.49365308 52.07979217 -46.49365308 52.07979217 -55.125 50.875 C-58.2578125 49.9921875 -58.2578125 49.9921875 -61 49 C-62.66161253 48.64232319 -64.32706064 48.30027117 -66 48 C-64.7874262 51.72433382 -63.49140021 55.37802806 -62 59 C-64.3090166 61.63211486 -66.4032282 62.62001999 -69.62109375 63.90942383 C-72.60315261 65.53750862 -73.76917928 66.28448479 -74.82470703 69.55648804 C-75.12459104 72.88354424 -75.14154595 76.10945537 -75.0625 79.44921875 C-75.06958984 80.65818314 -75.07667969 81.86714752 -75.08398438 83.11274719 C-75.09794473 86.9723325 -75.05045374 90.82826913 -75 94.6875 C-74.9918441 98.55651513 -74.99595666 102.42537155 -75.00170898 106.29438782 C-75.00058337 108.7016349 -74.98864896 111.10890495 -74.96508789 113.51603699 C-74.95598389 114.60088882 -74.94687988 115.68574066 -74.9375 116.8034668 C-74.92589844 117.76101364 -74.91429688 118.71856049 -74.90234375 119.7051239 C-75 122 -75 122 -76 124 C-77.53720703 123.82210937 -77.53720703 123.82210937 -79.10546875 123.640625 C-80.46603465 123.50926002 -81.82671883 123.37911598 -83.1875 123.25 C-84.19780273 123.12818359 -84.19780273 123.12818359 -85.22851562 123.00390625 C-89.00898896 122.67196225 -90.70179239 122.79332951 -93.86328125 124.984375 C-94.56839844 125.64953125 -95.27351563 126.3146875 -96 127 C-96.66 127 -97.32 127 -98 127 C-98 102.58 -98 78.16 -98 53 C-89.09 48.05 -89.09 48.05 -80 43 C-73.72025361 39.31890638 -73.72025361 39.31890638 -67.453125 35.6171875 C-62.64303001 32.77798487 -57.79196464 30.01244531 -52.9375 27.25 C-45.11732375 22.79811335 -37.33171945 18.2902003 -29.5625 13.75 C-28.04402466 12.86574341 -28.04402466 12.86574341 -26.49487305 11.96362305 C-22.15191239 9.43382263 -17.81529526 6.89710504 -13.51171875 4.30078125 C-12.86323975 3.9150293 -12.21476074 3.52927734 -11.54663086 3.13183594 C-9.89601315 2.1494055 -8.25233846 1.15533436 -6.609375 0.16015625 C-3.67184713 -1.1459003 -2.94174563 -0.91685187 0 0 Z " fill="#0E0E0E" transform="translate(108,46)"/>
<path d="M0 0 C2.5078125 1.3203125 2.5078125 1.3203125 5.125 3.125 C8.68736448 5.49675991 12.22265027 7.73776697 16 9.75 C28.92573063 16.68039174 41.49029498 24.26861435 54.04248047 31.84765625 C59.29589075 35.00911151 64.58107354 38.05080683 70.00390625 40.9140625 C72 42 72 42 75 44 C75.34057617 46.52197266 75.34057617 46.52197266 75.29296875 49.6640625 C75.28330078 50.78554687 75.27363281 51.90703125 75.26367188 53.0625 C75.23853516 54.238125 75.21339844 55.41375 75.1875 56.625 C75.16719727 58.40003906 75.16719727 58.40003906 75.14648438 60.2109375 C75.11103916 63.14107539 75.06162769 66.07031459 75 69 C74.12770752 69.26067261 74.12770752 69.26067261 73.23779297 69.52661133 C68.37216275 71.05144271 64.35406025 72.76393226 60.125 75.6875 C55.31055901 79 55.31055901 79 52 79 C52 71.74 52 64.48 52 57 C50.35 56.34 48.7 55.68 47 55 C45.12312726 53.9464965 43.26753029 52.85457801 41.4296875 51.734375 C40.3675 51.09113281 39.3053125 50.44789062 38.2109375 49.78515625 C36.55964844 48.77775391 36.55964844 48.77775391 34.875 47.75 C27.01415435 42.96391096 19.10716114 38.35565606 11 34 C6.37480251 31.45272695 1.77910682 28.85333376 -2.81054688 26.24267578 C-4.32020022 25.38583641 -5.83205944 24.53287587 -7.34570312 23.68310547 C-9.69506797 22.36194793 -12.03569909 21.02637966 -14.375 19.6875 C-15.1067041 19.27918945 -15.8384082 18.87087891 -16.59228516 18.45019531 C-17.27081543 18.05799805 -17.9493457 17.66580078 -18.6484375 17.26171875 C-19.24833496 16.92100342 -19.84823242 16.58028809 -20.46630859 16.22924805 C-22.34799557 14.72108282 -23.06518954 13.19787277 -24 11 C-21.40238626 6.15112101 -16.82362104 4.95356652 -12 3 C-10.74980995 2.41707408 -9.49978986 1.83378342 -8.25 1.25 C-5.0079658 0.00306377 -3.39864848 -0.35508268 0 0 Z " fill="#101010" transform="translate(245,56)"/>
<path d="M0 0 C7 2 7 2 8 3 C12.9966412 3.62458015 17.38694857 1.68843712 22 0 C23 1 23 1 23.12025452 3.77772522 C23.1169236 5.63970802 23.1169236 5.63970802 23.11352539 7.53930664 C23.11367142 8.22220261 23.11381744 8.90509857 23.1139679 9.60868835 C23.11326876 11.87587614 23.1054764 14.14298274 23.09765625 16.41015625 C23.09579207 17.97814387 23.09436817 19.54613207 23.09336853 21.11412048 C23.08954334 25.24876503 23.07971306 29.38337466 23.06866455 33.51800537 C23.05845044 37.73400398 23.05387091 41.95000822 23.04882812 46.16601562 C23.03809079 54.44402647 23.02101436 62.7220089 23 71 C23.94565826 71.30638397 24.89131653 71.61276794 25.8656311 71.92843628 C28.59729821 72.86232615 30.67356514 73.84047607 33.0859375 75.3828125 C33.78847656 75.82753906 34.49101563 76.27226562 35.21484375 76.73046875 C35.92769531 77.19066406 36.64054687 77.65085937 37.375 78.125 C38.47908203 78.82689453 38.47908203 78.82689453 39.60546875 79.54296875 C41.40730078 80.68958913 43.20416431 81.84401076 45 83 C43.41457421 90.95216725 43.41457421 90.95216725 39.78515625 93.640625 C37.21964598 94.92145118 34.69392177 96.01788211 32 97 C31.10925781 97.48984375 30.21851562 97.9796875 29.30078125 98.484375 C23.89696081 99.3285221 20.4114081 96.20910841 16 93.3125 C14.25108718 92.20271194 12.50111303 91.09459438 10.75 89.98828125 C9.59757812 89.23865112 9.59757812 89.23865112 8.421875 88.47387695 C5.70638597 86.82131573 2.84321498 85.42160749 0 84 C0 56.28 0 28.56 0 0 Z " fill="#111111" transform="translate(10,196)"/>
<path d="M0 0 C2.37744141 1.13232422 2.37744141 1.13232422 4.8515625 2.5546875 C6.23819092 3.34516479 6.23819092 3.34516479 7.65283203 4.15161133 C9.12405518 5.00468872 9.12405518 5.00468872 10.625 5.875 C11.64319824 6.45854248 12.66139648 7.04208496 13.71044922 7.64331055 C16.81071445 9.42244826 19.90541507 11.21100564 23 13 C24.76004909 14.00975556 26.52044227 15.01891169 28.28125 16.02734375 C36.45757771 20.72221154 44.55877958 25.50489948 52.53125 30.5390625 C55.00000561 32.11722366 55.00000561 32.11722366 58 33 C58.33 33.99 58.66 34.98 59 36 C57.30230469 36.90492187 57.30230469 36.90492187 55.5703125 37.828125 C54.08822319 38.63483184 52.60646969 39.44215584 51.125 40.25 C50.37863281 40.64574219 49.63226563 41.04148438 48.86328125 41.44921875 C47.79013672 42.03896484 47.79013672 42.03896484 46.6953125 42.640625 C45.7055542 43.17478027 45.7055542 43.17478027 44.69580078 43.71972656 C42.67673563 45.2440539 41.96007883 46.68727678 41 49 C36.42214239 48.41909761 32.91840289 46.47994602 29 44.1875 C28.32300049 43.79949219 27.64600098 43.41148438 26.94848633 43.01171875 C24.62859082 41.68086553 22.31441571 40.34035812 20 39 C17.17538664 37.37267346 14.34925952 35.74804709 11.52148438 34.1262207 C9.65246451 33.05372404 7.78523116 31.9781072 5.91992188 30.89916992 C4.63504883 30.16017456 4.63504883 30.16017456 3.32421875 29.40625 C2.56197998 28.96603516 1.79974121 28.52582031 1.0144043 28.07226562 C-1.10442271 26.8726255 -1.10442271 26.8726255 -4 26 C-4.99 26.33 -5.98 26.66 -7 27 C-7.33 26.67 -7.66 26.34 -8 26 C-7.99244388 22.90198882 -7.92230135 19.81736529 -7.78515625 16.72265625 C-7.68728955 12.19409735 -8.43462535 9.69360224 -11 6 C-11 3.875 -11 3.875 -10 2 C-6.32205825 -0.96278641 -4.45652297 -1.24293079 0 0 Z " fill="#121212" transform="translate(168,12)"/>
<path d="M0 0 C-0.88749292 12.59538875 -1.89448301 25.16079306 -3.5 37.6875 C-3.61835205 38.63568604 -3.7367041 39.58387207 -3.85864258 40.56079102 C-5.45770284 52.55428505 -5.45770284 52.55428505 -8.99609375 55.87109375 C-10.20458984 56.64646484 -10.20458984 56.64646484 -11.4375 57.4375 C-12.76974609 58.30955078 -12.76974609 58.30955078 -14.12890625 59.19921875 C-15.07636719 59.79347656 -16.02382812 60.38773437 -17 61 C-17.97839844 61.62519531 -18.95679687 62.25039063 -19.96484375 62.89453125 C-21.8226073 64.07901137 -23.68542348 65.25562864 -25.5546875 66.421875 C-28.01409669 67.94091938 -28.01409669 67.94091938 -30.1328125 69.765625 C-30.74898438 70.17296875 -31.36515625 70.5803125 -32 71 C-32.99 70.67 -33.98 70.34 -35 70 C-38.60568299 38.65644629 -38.60568299 38.65644629 -32.97265625 30.42578125 C-29.98716448 27.01898197 -26.64608756 24.19276491 -22.99609375 21.52197266 C-19.25536309 18.66975703 -15.12634462 15.25268924 -13 11 C-12.34 11 -11.68 11 -11 11 C-10.67 10.01 -10.34 9.02 -10 8 C-9.34 8 -8.68 8 -8 8 C-7.7525 7.4225 -7.505 6.845 -7.25 6.25 C-5.58207452 3.24773413 -3.67725381 0 0 0 Z " fill="#090909" transform="translate(128,283)"/>
<path d="M0 0 C0.66 0 1.32 0 2 0 C4.66961547 3.33507984 6.85080461 7.01330753 9.125 10.625 C10.11306641 12.09453125 10.11306641 12.09453125 11.12109375 13.59375 C16.17503454 21.65075706 16.81113508 27.64538097 16 37 C15.89523174 38.49383437 15.79262964 39.98782183 15.69189453 41.48193359 C15.35077852 46.28493395 14.92934399 51.07921805 14.5 55.875 C14.35492037 57.54552538 14.21038586 59.2160982 14.06640625 60.88671875 C13.7171992 64.92505183 13.36069223 68.96267722 13 73 C12.01 73 11.02 73 10 73 C5.81699053 64.73410629 1.69333257 56.44585163 -2.25 48.0625 C-2.56646484 47.39033447 -2.88292969 46.71816895 -3.20898438 46.02563477 C-3.83113603 44.69638885 -4.43898439 43.36035601 -5.0324707 42.01806641 C-5.96535587 39.96204038 -5.96535587 39.96204038 -7.27026367 38.04052734 C-9.87642415 33.62754658 -10.2490184 30.60706487 -9.01889038 25.5738678 C-8.05542948 22.17841513 -6.94704332 18.84141434 -5.8125 15.5 C-5.36636884 14.1050501 -4.92298338 12.70921894 -4.48242188 11.3125 C-1.27399065 1.27399065 -1.27399065 1.27399065 0 0 Z " fill="#090909" transform="translate(143,0)"/>
<path d="M0 0 C0.85207031 0.14179688 1.70414063 0.28359375 2.58203125 0.4296875 C4.28846073 0.73603862 5.99155767 1.06136372 7.69140625 1.40234375 C10.46978999 1.90422417 13.23014344 2.31655563 16.02734375 2.69140625 C16.92638428 2.81467285 17.8254248 2.93793945 18.75170898 3.06494141 C20.56110028 3.31022266 22.3718329 3.54583473 24.18383789 3.77099609 C25.02035889 3.88652832 25.85687988 4.00206055 26.71875 4.12109375 C27.84700195 4.26695923 27.84700195 4.26695923 28.99804688 4.41577148 C31.38011499 5.11092868 32.40849288 6.13388854 34 8 C24.76580487 12.74695343 15.4388599 17.11871382 5.88671875 21.18457031 C4.09086505 21.96072861 2.31050518 22.77244921 0.53125 23.5859375 C-0.5103125 24.05257812 -1.551875 24.51921875 -2.625 25 C-3.52476563 25.4125 -4.42453125 25.825 -5.3515625 26.25 C-10.88239376 27.8162531 -15.06533907 25.67687893 -19.859375 23.06835938 C-20.52453125 22.69517578 -21.1896875 22.32199219 -21.875 21.9375 C-22.56335938 21.56044922 -23.25171875 21.18339844 -23.9609375 20.79492188 C-25.6449213 19.87106965 -27.32307467 18.93660333 -29 18 C-29 14 -29 14 -27.27734375 11.8515625 C-25.66389304 10.31622543 -24.04366872 8.7879859 -22.41796875 7.265625 C-20.04762961 5.12163115 -20.04762961 5.12163115 -18.30078125 3.046875 C-13.00487094 -2.66256987 -7.16820282 -1.2045974 0 0 Z " fill="#0B0B0B" transform="translate(30,171)"/>
<path d="M0 0 C4.80260478 1.393122 8.84067456 3.50423175 13.0625 6.125 C13.70719238 6.51953369 14.35188477 6.91406738 15.01611328 7.32055664 C16.34993295 8.13759054 17.68228647 8.95702264 19.01318359 9.77880859 C20.94504034 10.96621919 22.88643947 12.13604244 24.83203125 13.30078125 C26.01315401 14.01279996 27.19414957 14.72502973 28.375 15.4375 C29.43460938 16.07558594 30.49421875 16.71367187 31.5859375 17.37109375 C34 19 34 19 35 21 C34.52949219 21.53109375 34.05898437 22.0621875 33.57421875 22.609375 C32.95160156 23.31578125 32.32898438 24.0221875 31.6875 24.75 C31.07261719 25.44609375 30.45773438 26.1421875 29.82421875 26.859375 C26.29960599 30.99532316 24.62678214 33.48431721 24 39 C19.31101143 37.30162619 15.08450557 34.93466532 10.75 32.5 C9.96947266 32.06220215 9.18894531 31.6244043 8.38476562 31.17333984 C6.74939923 30.25287157 5.11530337 29.33014268 3.48242188 28.40527344 C1.83476346 27.47255099 0.185034 26.54347708 -1.46679688 25.61816406 C-3.81794397 24.29860407 -6.15998091 22.96417363 -8.5 21.625 C-9.22348633 21.22087891 -9.94697266 20.81675781 -10.69238281 20.40039062 C-16.80087763 16.86187941 -16.80087763 16.86187941 -18 13 C-17.16855469 12.82984375 -16.33710937 12.6596875 -15.48046875 12.484375 C-13.85044922 12.12085938 -13.85044922 12.12085938 -12.1875 11.75 C-11.10855469 11.51796875 -10.02960937 11.2859375 -8.91796875 11.046875 C-3.68052936 9.16784721 -2.29668389 4.81209958 0 0 Z " fill="#121212" transform="translate(66,286)"/>
<path d="M0 0 C0.99 0.33 1.98 0.66 3 1 C3 1.66 3 2.32 3 3 C3.66 3 4.32 3 5 3 C6.76663992 5.06862965 8.42480624 7.14493126 10.0625 9.3125 C14.23198695 14.81921501 14.23198695 14.81921501 18.76171875 20.02734375 C24.71366119 26.53990871 24.71366119 26.53990871 25.47265625 30.41015625 C25.29281519 33.10777222 24.75507229 35.40123177 24 38 C23.67257813 39.23363281 23.34515625 40.46726562 23.0078125 41.73828125 C22.0738009 45.18053463 21.05552126 48.59287555 20 52 C15.51233702 50.53735429 12.28228495 48.03014641 8.75 45 C8.20859375 44.54882812 7.6671875 44.09765625 7.109375 43.6328125 C2.13867646 39.43257223 2.13867646 39.43257223 1.70288086 34.93066406 C1.58505249 32.99271973 1.58505249 32.99271973 1.46484375 31.015625 C1.42186661 30.3224115 1.37888947 29.629198 1.33460999 28.91497803 C1.2443782 27.44572187 1.15625457 25.97633496 1.07006836 24.50683594 C0.93881999 22.27247144 0.80104934 20.03858552 0.66210938 17.8046875 C-0.05912712 5.94945095 -0.05912712 5.94945095 0 0 Z " fill="#131313" transform="translate(188,280)"/>
<path d="M0 0 C0.36351562 0.96099609 0.36351562 0.96099609 0.734375 1.94140625 C2.35039071 6.11196988 3.93643928 10.07495865 6.3125 13.875 C8 17 8 17 7.86474609 19.02050781 C6.7022419 21.68159873 5.35974118 22.36707174 2.8515625 23.796875 C2.01109375 24.28027344 1.170625 24.76367188 0.3046875 25.26171875 C-0.57960937 25.75285156 -1.46390625 26.24398437 -2.375 26.75 C-3.2515625 27.25660156 -4.128125 27.76320313 -5.03125 28.28515625 C-11.57978858 32 -11.57978858 32 -15 32 C-23 16.28458498 -23 16.28458498 -23 11 C-21.31933594 9.53613281 -21.31933594 9.53613281 -18.984375 8.203125 C-18.14519531 7.71972656 -17.30601563 7.23632812 -16.44140625 6.73828125 C-15.55324219 6.24714844 -14.66507813 5.75601563 -13.75 5.25 C-12.87730469 4.74339844 -12.00460938 4.23679687 -11.10546875 3.71484375 C-4.54691712 0 -4.54691712 0 0 0 Z " fill="#191919" transform="translate(132,31)"/>
<path d="M0 0 C0.70125 0.144375 1.4025 0.28875 2.125 0.4375 C2.62 1.9225 2.62 1.9225 3.125 3.4375 C2.15283203 5.04736328 2.15283203 5.04736328 0.6328125 6.7578125 C-0.17736328 7.68400391 -0.17736328 7.68400391 -1.00390625 8.62890625 C-1.86822266 9.58603516 -1.86822266 9.58603516 -2.75 10.5625 C-3.31847656 11.20832031 -3.88695312 11.85414063 -4.47265625 12.51953125 C-8.34905134 16.91155134 -8.34905134 16.91155134 -9.875 18.4375 C-12.61201178 18.59760481 -15.3266759 18.69696828 -18.06640625 18.75390625 C-18.88624496 18.77468735 -19.70608368 18.79546844 -20.55076599 18.81687927 C-23.17958901 18.88246494 -25.80851504 18.94130126 -28.4375 19 C-30.21550561 19.04317667 -31.99350065 19.08679067 -33.77148438 19.13085938 C-38.13921634 19.23815543 -42.50705227 19.33939704 -46.875 19.4375 C-45.53927707 15.43033122 -43.78305834 14.87731698 -40.1953125 12.71484375 C-39.6267453 12.36869522 -39.0581781 12.02254669 -38.47238159 11.66590881 C-36.65309189 10.56070879 -34.82682845 9.46768468 -33 8.375 C-31.77685289 7.63557699 -30.55419045 6.89535162 -29.33203125 6.15429688 C-27.08647724 4.79295498 -24.83780799 3.43744051 -22.58642578 2.08569336 C-14.56192932 -2.79215425 -9.0271797 -1.76618733 0 0 Z " fill="#171717" transform="translate(329.875,129.5625)"/>
<path d="M0 0 C-0.33 0.99 -0.66 1.98 -1 3 C-1.66 3 -2.32 3 -3 3 C-3 3.66 -3 4.32 -3 5 C-4.36328125 6.375 -4.36328125 6.375 -6.3125 8 C-10.82875686 11.82392515 -15.15757495 15.82699492 -19.484375 19.86328125 C-22.94027716 22.79865156 -24.52284695 24.06454476 -29.12890625 23.86328125 C-30.26199219 23.68152344 -31.39507812 23.49976563 -32.5625 23.3125 C-33.69816406 23.14363281 -34.83382812 22.97476563 -36.00390625 22.80078125 C-39.00072223 21.99980696 -40.13548167 21.40861264 -42 19 C-41.02394493 16.51956646 -40.04432337 14.04064915 -39.0625 11.5625 C-38.78470703 10.85544922 -38.50691406 10.14839844 -38.22070312 9.41992188 C-36.11328125 4.11328125 -36.11328125 4.11328125 -35 3 C-33.01458174 2.69986987 -31.01996704 2.46018152 -29.0234375 2.24609375 C-27.79496094 2.11396484 -26.56648438 1.98183594 -25.30078125 1.84570312 C-24.00527344 1.71099609 -22.70976563 1.57628906 -21.375 1.4375 C-20.10269531 1.29892578 -18.83039063 1.16035156 -17.51953125 1.01757812 C-11.64170805 0.39547275 -5.91692517 -0.07465411 0 0 Z " fill="#0C0C0C" transform="translate(84,231)"/>
<path d="M0 0 C4.25205314 -0.1551648 8.49599776 -0.22906201 12.75024414 -0.23193359 C14.19264196 -0.24384758 15.63504128 -0.27691119 17.07641602 -0.33251953 C28.66706949 -0.75838063 28.66706949 -0.75838063 32.57843018 2.18969727 C36.3177149 5.99918013 40 10.5218592 40 16 C38.11076602 17.01241247 36.21330056 18.00947425 34.3125 19 C33.25675781 19.556875 32.20101562 20.11375 31.11328125 20.6875 C27.92012062 22.03367563 26.37972213 22.672766 23 22 C20.76088427 20.41623521 18.82793649 18.88860006 16.8125 17.0625 C13.15374728 13.68014816 13.15374728 13.68014816 9 11 C9 10.34 9 9.68 9 9 C8.46375 8.773125 7.9275 8.54625 7.375 8.3125 C4.21499137 6.56617944 1.7323017 4.3597151 -1 2 C-0.67 1.34 -0.34 0.68 0 0 Z " fill="#141414" transform="translate(263,228)"/>
<path d="M0 0 C3.09785564 3.09785564 3.78227041 7.00085407 5.0625 11.125 C5.33126953 11.95515625 5.60003906 12.7853125 5.87695312 13.640625 C7.48758333 18.76572259 8.82120713 23.6131439 9 29 C7.7421875 31.390625 7.7421875 31.390625 5.875 33.25 C5.27429688 33.87390625 4.67359375 34.4978125 4.0546875 35.140625 C1.77964614 37.19940768 -0.58343411 39.11022875 -3 41 C-10.6626814 29.70662167 -10.6626814 29.70662167 -10.25 24.5625 C-8.65267208 17.14440084 -5.45438364 5.45438364 0 0 Z " fill="#161616" transform="translate(159,272)"/>
<path d="M0 0 C1.88809117 0.20597358 3.77551987 0.42260843 5.65625 0.6875 C7.97367106 1.02678389 7.97367106 1.02678389 10.21875 1.125 C15.67084245 1.73932028 18.11632627 3.74972813 21.625 7.9375 C25.74513793 13.41170786 29.46935333 19.13072564 33 25 C29.53148147 26.73425927 26.1727066 24.7082163 22.64257812 23.54760742 C6.03123013 17.69831824 6.03123013 17.69831824 2 10.1875 C0.48630961 6.41678912 0 4.09295293 0 0 Z " fill="#141414" transform="translate(45,96)"/>
<path d="M0 0 C1.37847667 14.35913196 1.37847667 14.35913196 -3.625 20.4375 C-5.07333175 21.96786116 -6.53140819 23.48907041 -8 25 C-9.60374422 27.17270004 -11.14272134 29.37884527 -12.67578125 31.6015625 C-13.11277344 32.06304687 -13.54976562 32.52453125 -14 33 C-14.99 33 -15.98 33 -17 33 C-18.07455118 9.55403793 -18.07455118 9.55403793 -13.40234375 4.30078125 C-9.48863875 0.99288466 -5.15411521 -2.17146742 0 0 Z " fill="#1C1C1C" transform="translate(193,73)"/>
<path d="M0 0 C0 42.57 0 85.14 0 129 C-0.33 129 -0.66 129 -1 129 C-1 86.76 -1 44.52 -1 1 C-7.6 1 -14.2 1 -21 1 C-21 5.29 -21 9.58 -21 14 C-19.68 14.33 -18.36 14.66 -17 15 C-17 15.66 -17 16.32 -17 17 C-17.99 17 -18.98 17 -20 17 C-20.02319395 25.12782269 -20.04095104 33.25563149 -20.05181217 41.38347912 C-20.05702557 45.15776427 -20.06409517 48.93202673 -20.07543945 52.70629883 C-20.0863232 56.3502506 -20.09228847 59.99418058 -20.09487724 63.63814735 C-20.0967216 65.02677058 -20.10032316 66.41539265 -20.10573006 67.80400658 C-20.11301321 69.75238248 -20.11340868 71.70078041 -20.11352539 73.64916992 C-20.115746 74.7572551 -20.11796661 75.86534027 -20.12025452 77.00700378 C-20.00853882 79.78747858 -19.63378418 82.29583718 -19 85 C-22.10886723 82.6120986 -22.93933365 81.4367503 -23.48774719 77.48860168 C-23.50234331 76.06513615 -23.49487532 74.64134008 -23.4699707 73.21801758 C-23.4721611 72.43875412 -23.4743515 71.65949066 -23.47660828 70.85661316 C-23.4789166 68.28548496 -23.45268532 65.71550639 -23.42578125 63.14453125 C-23.4208579 61.35902775 -23.41755866 59.57351909 -23.41581726 57.78800964 C-23.40818017 54.04966707 -23.38762443 50.31170778 -23.35668945 46.57348633 C-23.31702883 41.7712886 -23.29906702 36.96933982 -23.28938007 32.16699696 C-23.27942956 27.59697438 -23.2595259 23.02701321 -23.23828125 18.45703125 C-23.23318763 17.14137649 -23.23318763 17.14137649 -23.2279911 15.79914284 C-23.21646912 13.33061953 -23.19795879 10.86225783 -23.17700195 8.39379883 C-23.17431305 7.6556192 -23.17162415 6.91743958 -23.16885376 6.15689087 C-23.11490502 1.11490502 -23.11490502 1.11490502 -22 0 C-19.24384294 -0.26615251 -16.51269627 -0.46974104 -13.75 -0.625 C-12.98558594 -0.6765625 -12.22117187 -0.728125 -11.43359375 -0.78125 C-10.68722656 -0.82507813 -9.94085938 -0.86890625 -9.171875 -0.9140625 C-8.1523877 -0.9752124 -8.1523877 -0.9752124 -7.11230469 -1.03759766 C-5 -1 -5 -1 0 0 Z " fill="#717171" transform="translate(320,150)"/>
<path d="M0 0 C1.74216797 0.91072266 1.74216797 0.91072266 3.51953125 1.83984375 C6.70396029 3.51683044 9.85708676 5.24627412 13 7 C13 7.66 13 8.32 13 9 C6.62224371 9.87587853 6.62224371 9.87587853 4.05053711 10.19458008 C1.00429401 10.57361561 -1.945146 10.98747027 -4.94140625 11.671875 C-7.55434447 12.21163688 -9.37520526 12.51024906 -12 12 C-15.31673524 9.44323683 -17.82331022 6.57512176 -20 3 C-20 2.01 -20 1.02 -20 0 C-12.04896534 -4.3984447 -7.86433515 -4.29677655 0 0 Z " fill="#1D1D1D" transform="translate(59,131)"/>
<path d="M0 0 C3.28944698 1.2183137 5.89545641 3.16197599 8.0859375 5.91015625 C11.22008647 13.07583873 7.70905196 23.64941729 6 31 C5.34 31 4.68 31 4 31 C2.42381354 28.37000304 0.89111486 25.72684891 -0.625 23.0625 C-1.29402344 21.95938477 -1.29402344 21.95938477 -1.9765625 20.83398438 C-4.31946058 16.64239328 -5.38775299 13.91348643 -4.375 9.125 C-3.40364848 5.74348252 -2.04759728 2.88525071 0 0 Z " fill="#262626" transform="translate(158,97)"/>
<path d="M0 0 C1.4589426 0.47730838 2.91713496 0.95691042 4.375 1.4375 C5.18710938 1.70433594 5.99921875 1.97117187 6.8359375 2.24609375 C10.77425842 3.61810808 10.77425842 3.61810808 11.96142578 5.62646484 C12.2861084 6.31434082 12.61079102 7.0022168 12.9453125 7.7109375 C13.29980469 8.46117187 13.65429688 9.21140625 14.01953125 9.984375 C14.38433594 10.77328125 14.74914062 11.5621875 15.125 12.375 C15.68380859 13.54675781 15.68380859 13.54675781 16.25390625 14.7421875 C19 20.61661516 19 20.61661516 19 24 C12.08702406 21.57663205 4.6605908 16.94525602 0.51953125 10.8046875 C-1.01275443 7.0207332 -1.32769173 3.86237594 0 0 Z " fill="#1C1C1C" transform="translate(116,120)"/>
<path d="M0 0 C4.04610482 1.43238017 7.26484113 3.3788727 10.75 5.875 C11.71421875 6.55304688 12.6784375 7.23109375 13.671875 7.9296875 C16.09916658 10.08818504 16.75926471 10.8334051 17 14 C16.93308947 16.77421337 16.49642779 19.24708226 16 22 C14 23 14 23 10.5625 22.3125 C6.69303359 20.88690711 6.04113212 20.40564587 4 17 C3.1881481 14.67305324 2.46475961 12.3141241 1.8125 9.9375 C1.46832031 8.70902344 1.12414062 7.48054687 0.76953125 6.21484375 C0 3 0 3 0 0 Z " fill="#222222" transform="translate(196,241)"/>
<path d="M0 0 C3.6120275 1.56605388 6.25523483 3.76757957 9.1875 6.375 C10.06792969 7.14585937 10.94835937 7.91671875 11.85546875 8.7109375 C15.86403376 12.98966081 15.092984 17.42095991 15 23 C9.95429994 22.51945714 6.8771003 21.29012894 3 18 C1.71097388 15.18764491 1.13116522 12.34285377 0.5625 9.3125 C0.39041016 8.52810547 0.21832031 7.74371094 0.04101562 6.93554688 C-0.37185878 4.96972099 -0.69408482 2.98528401 -1 1 C-0.67 0.67 -0.34 0.34 0 0 Z " fill="#040404" transform="translate(227,265)"/>
<path d="M0 0 C1.34384766 0.14695313 1.34384766 0.14695313 2.71484375 0.296875 C3.61332031 0.38453125 4.51179688 0.4721875 5.4375 0.5625 C6.16839844 0.72234375 6.89929688 0.8821875 7.65234375 1.046875 C8.65234375 3.046875 8.65234375 3.046875 8.02734375 6.359375 C6.22526159 10.39300751 3.3909428 11.34935836 -0.59765625 12.921875 C-5.18835632 14.48630352 -9.51110801 15.7094414 -14.34765625 16.046875 C-12.80099064 12.58298848 -10.73375533 9.86063673 -8.34765625 6.921875 C-7.64640625 6.05304688 -6.94515625 5.18421875 -6.22265625 4.2890625 C-2.68074392 0.05352567 -2.68074392 0.05352567 0 0 Z " fill="#0D0D0D" transform="translate(250.34765625,129.953125)"/>
<path d="M0 0 C2.31 0.33 4.62 0.66 7 1 C3.25 2.125 3.25 2.125 1 1 C1.16371094 1.54140625 1.32742187 2.0828125 1.49609375 2.640625 C2.08590587 5.40222593 2.09609308 7.92818139 2.0625 10.75 C2.05347656 11.73484375 2.04445312 12.7196875 2.03515625 13.734375 C2.02355469 14.48203125 2.01195312 15.2296875 2 16 C3.2684375 16.0928125 3.2684375 16.0928125 4.5625 16.1875 C8.84824108 17.20049335 12.13018395 18.56589427 15 22 C15.48000295 24.35863518 15.56103033 26.56979567 15.625 28.97265625 C15.74875 29.64167969 15.8725 30.31070313 16 31 C18.90251302 33.16247221 18.90251302 33.16247221 22 34 C22 34.66 22 35.32 22 36 C14.27263548 36.29720633 14.27263548 36.29720633 11 34 C10.48828125 31.94140625 10.48828125 31.94140625 10.3125 29.5625 C9.9680873 27.1346429 9.9680873 27.1346429 9 25 C4.55396632 22.07234592 -0.78281461 21.59867805 -6 22 C-6 21.34 -6 20.68 -6 20 C-2.7 19.67 0.6 19.34 4 19 C2.68 18.01 1.36 17.02 0 16 C-0.29561076 13.12961948 -0.37943016 10.66245255 -0.25 7.8125 C-0.23195312 7.06291016 -0.21390625 6.31332031 -0.1953125 5.54101562 C-0.14824109 3.6934629 -0.07649766 1.84656841 0 0 Z " fill="#535353" transform="translate(168,200)"/>
<path d="M0 0 C1.30904297 0.0628418 1.30904297 0.0628418 2.64453125 0.12695312 C3.97677734 0.16079102 3.97677734 0.16079102 5.3359375 0.1953125 C7.52385937 0.2541276 9.70832796 0.33624045 11.89453125 0.43945312 C12.22453125 1.09945312 12.55453125 1.75945312 12.89453125 2.43945312 C1.78089148 11.13045496 1.78089148 11.13045496 -2.609375 11.84960938 C-4.66796875 11.56445312 -4.66796875 11.56445312 -8.10546875 10.43945312 C-8.93046875 10.25382813 -9.75546875 10.06820312 -10.60546875 9.87695312 C-11.10046875 9.73257813 -11.59546875 9.58820313 -12.10546875 9.43945312 C-10.99192608 1.92304008 -7.00631107 -0.13370823 0 0 Z " fill="#303030" transform="translate(113.10546875,189.560546875)"/>
<path d="M0 0 C9.91120356 -0.7810931 9.91120356 -0.7810931 13.875 2.0625 C14.57625 3.031875 15.2775 4.00125 16 5 C16.46277344 5.61230469 16.92554688 6.22460938 17.40234375 6.85546875 C21 11.68888504 21 11.68888504 21 13 C18.74943278 12.88566637 16.49953326 12.75813564 14.25 12.625 C12.37054688 12.52058594 12.37054688 12.52058594 10.453125 12.4140625 C5.32586691 11.79925553 5.32586691 11.79925553 3 10 C1.953125 7.6171875 1.953125 7.6171875 1.25 4.875 C0.88648437 3.50988281 0.88648437 3.50988281 0.515625 2.1171875 C0.34546875 1.41851562 0.1753125 0.71984375 0 0 Z " fill="#272727" transform="translate(117,152)"/>
<path d="M0 0 C0.66 0.66 1.32 1.32 2 2 C1.236875 2.4125 0.47375 2.825 -0.3125 3.25 C-3.88150503 6.90200515 -4.20166826 10.23910233 -5.2421875 15.13671875 C-6.13110902 18.49537584 -7.50428777 20.59034681 -10 23 C-10 21.35 -10 19.7 -10 18 C-10.66 18 -11.32 18 -12 18 C-12 18.66 -12 19.32 -12 20 C-12.66 19.67 -13.32 19.34 -14 19 C-13.54625 18.195625 -13.0925 17.39125 -12.625 16.5625 C-10.99692661 12.99326218 -10.17112622 9.77738789 -9.4296875 5.953125 C-9 4 -9 4 -8 2 C-6.22265625 1.296875 -6.22265625 1.296875 -4.0625 0.75 C-2.99708984 0.46382812 -2.99708984 0.46382812 -1.91015625 0.171875 C-1.27980469 0.11515625 -0.64945312 0.0584375 0 0 Z " fill="#0E0E0E" transform="translate(269,192)"/>
<path d="M0 0 C1 2 1 2 0.25756836 4.6730957 C-3.30387516 13.05669911 -3.30387516 13.05669911 -7.91748047 15.62255859 C-11.40897887 16.71912572 -14.84238277 17.50536926 -18.4375 18.1875 C-20.24057617 18.59452148 -20.24057617 18.59452148 -22.08007812 19.00976562 C-27.68675901 20.24985334 -33.30006101 21.30324752 -39 22 C-39 21.34 -39 20.68 -39 20 C-36.04738074 18.63311253 -33.08709966 17.28370462 -30.125 15.9375 C-28.86236328 15.35258789 -28.86236328 15.35258789 -27.57421875 14.75585938 C-26.36572266 14.20961914 -26.36572266 14.20961914 -25.1328125 13.65234375 C-24.38918457 13.31195068 -23.64555664 12.97155762 -22.87939453 12.62084961 C-21 12 -21 12 -19 13 C-19.99 13.33 -20.98 13.66 -22 14 C-22 14.66 -22 15.32 -22 16 C-21.29488281 15.68289063 -20.58976562 15.36578125 -19.86328125 15.0390625 C-16.87494121 13.95461714 -14.34930342 13.6035641 -11.1875 13.375 C-9.72376953 13.26285156 -9.72376953 13.26285156 -8.23046875 13.1484375 C-7.12638672 13.07496094 -7.12638672 13.07496094 -6 13 C-5.01 10.03 -4.02 7.06 -3 4 C-2.34 4 -1.68 4 -1 4 C-0.67 2.68 -0.34 1.36 0 0 Z " fill="#5A5A5A" transform="translate(65,281)"/>
<path d="M0 0 C2.42758108 3.64137162 3.21242269 6.62763292 3 11 C0.70169671 14.27066238 -2.41899761 16.25540909 -6 18 C-6.99 17.67 -7.98 17.34 -9 17 C-8.34 16.195625 -7.68 15.39125 -7 14.5625 C-4.27790404 10.56561966 -4.62661728 6.66728396 -5 2 C-4.360625 1.855625 -3.72125 1.71125 -3.0625 1.5625 C-1.02454854 1.18992819 -1.02454854 1.18992819 0 0 Z " fill="#3E3E3E" transform="translate(144,243)"/>
<path d="M0 0 C1.9375 2.5625 1.9375 2.5625 3 5 C-0.46330751 7.13126616 -2.96580712 7.45670108 -7 7 C-10.08830398 5.83746331 -13.04702379 4.46992594 -16 3 C-16 2.01 -16 1.02 -16 0 C-10.53851669 -0.80498053 -5.40111982 -1.51231355 0 0 Z " fill="#666666" transform="translate(215,184)"/>
<path d="M0 0 C1.33332095 2.6666419 0.67102033 4.16680303 0 7 C-0.66 7 -1.32 7 -2 7 C-2.33 20.2 -2.66 33.4 -3 47 C-3.99 47 -4.98 47 -6 47 C-6 47.66 -6 48.32 -6 49 C-7.32 48.67 -8.64 48.34 -10 48 C-9.02341431 47.48469727 -9.02341431 47.48469727 -8.02709961 46.95898438 C-5.66812339 45.08064112 -5.66812339 45.08064112 -5.53344727 41.71289062 C-5.52594117 40.36065329 -5.53823214 39.00821464 -5.56640625 37.65625 C-5.55678621 36.16666572 -5.54701553 34.67708241 -5.53710938 33.1875 C-5.54564047 30.85534311 -5.56227414 28.52346964 -5.5847168 26.19140625 C-5.64879749 16.35869684 -5.21864515 8.70288266 0 0 Z " fill="#626262" transform="translate(209,64)"/>
<path d="M0 0 C2 2 2 2 2.6171875 5.9375 C3.33452194 9.06152976 3.33452194 9.06152976 5.65722656 11.12109375 C7.79849621 11.91316858 9.9001246 12.4889319 12.125 13 C12.87910156 13.20238281 13.63320313 13.40476562 14.41015625 13.61328125 C16.26548566 14.10647008 18.13194349 14.55745358 20 15 C19.67 15.66 19.34 16.32 19 17 C12.07 17 5.14 17 -2 17 C-2.33 16.34 -2.66 15.68 -3 15 C0.3 15 3.6 15 7 15 C7 14.34 7 13.68 7 13 C5.68 13 4.36 13 3 13 C0.89172945 9.83759418 0.66182535 8.49342531 0.375 4.8125 C0.30023438 3.91144531 0.22546875 3.01039063 0.1484375 2.08203125 C0.07496094 1.05142578 0.07496094 1.05142578 0 0 Z " fill="#3F3F3F" transform="translate(253,249)"/>
<path d="M0 0 C1.48242188 1.12451172 1.48242188 1.12451172 3 3 C4.36892406 13.65943266 2.45483533 25.209468 1.5 35.875 C1.35492037 37.54552538 1.21038586 39.2160982 1.06640625 40.88671875 C0.7171992 44.92505183 0.36069223 48.96267722 0 53 C-0.99 53 -1.98 53 -3 53 C-3.66 51.35 -4.32 49.7 -5 48 C-4.34 48 -3.68 48 -3 48 C-3 48.99 -3 49.98 -3 51 C-2.34 51 -1.68 51 -1 51 C-1.00523682 50.37955811 -1.01047363 49.75911621 -1.01586914 49.11987305 C-1.03665466 46.30909233 -1.04966517 43.49832779 -1.0625 40.6875 C-1.07087891 39.71103516 -1.07925781 38.73457031 -1.08789062 37.72851562 C-1.09111328 36.79072266 -1.09433594 35.85292969 -1.09765625 34.88671875 C-1.10289307 34.02264404 -1.10812988 33.15856934 -1.11352539 32.26831055 C-1 30 -1 30 0 27 C0.13431423 25.56702645 0.22353579 24.12950311 0.28125 22.69140625 C0.31863281 21.86189453 0.35601562 21.03238281 0.39453125 20.17773438 C0.42933594 19.31470703 0.46414062 18.45167969 0.5 17.5625 C0.56915839 15.85531236 0.64194788 14.1482671 0.71875 12.44140625 C0.74904297 11.68545166 0.77933594 10.92949707 0.81054688 10.15063477 C0.99923833 8.00864636 1.42091515 6.06753219 2 4 C1.34 4 0.68 4 0 4 C0 2.68 0 1.36 0 0 Z " fill="#6D6D6D" transform="translate(156,20)"/>
<path d="M0 0 C-0.33 0.99 -0.66 1.98 -1 3 C-1.66 3 -2.32 3 -3 3 C-3 3.66 -3 4.32 -3 5 C-3.66 4.67 -4.32 4.34 -5 4 C-4.67 3.34 -4.34 2.68 -4 2 C-7.66688813 2.30993506 -11.33346506 2.62341651 -15 2.9375 C-16.02996094 3.02451172 -17.05992188 3.11152344 -18.12109375 3.20117188 C-23.76702674 3.68665019 -29.38286561 4.25059866 -35 5 C-35 5.99 -35 6.98 -35 8 C-35.66 8 -36.32 8 -37 8 C-36.34 6.35 -35.68 4.7 -35 3 C-30.47983634 2.49382065 -25.95877401 1.99615563 -21.4375 1.5 C-20.16068359 1.35691406 -18.88386719 1.21382812 -17.56835938 1.06640625 C-16.32763672 0.93105469 -15.08691406 0.79570312 -13.80859375 0.65625 C-12.67220459 0.53056641 -11.53581543 0.40488281 -10.36499023 0.27539062 C-6.8946773 -0.0086196 -3.48030728 -0.04642989 0 0 Z " fill="#6D6D6D" transform="translate(84,231)"/>
<path d="M0 0 C-0.66 8.25 -1.32 16.5 -2 25 C-2.33 25 -2.66 25 -3 25 C-3.02710123 22.4374282 -3.04688771 19.87514635 -3.0625 17.3125 C-3.07087891 16.59126953 -3.07925781 15.87003906 -3.08789062 15.12695312 C-3.10543632 11.28444618 -2.93524221 7.73360474 -2 4 C-3.14926266 4.95421808 -4.29430541 5.91352045 -5.4375 6.875 C-6.07558594 7.40867187 -6.71367188 7.94234375 -7.37109375 8.4921875 C-9.10805004 9.9222757 -9.10805004 9.9222757 -10 12 C-10.66 12 -11.32 12 -12 12 C-12.33 12.99 -12.66 13.98 -13 15 C-13.66 14.67 -14.32 14.34 -15 14 C-14.34 13.01 -13.68 12.02 -13 11 C-12.34 11 -11.68 11 -11 11 C-10.67 10.01 -10.34 9.02 -10 8 C-9.34 8 -8.68 8 -8 8 C-7.7525 7.4225 -7.505 6.845 -7.25 6.25 C-5.58207452 3.24773413 -3.67725381 0 0 0 Z " fill="#6F6F6F" transform="translate(128,283)"/>
<path d="M0 0 C0 7.92 0 15.84 0 24 C-1.65 24.66 -3.3 25.32 -5 26 C-5 25.34 -5 24.68 -5 24 C-4.01 23.67 -3.02 23.34 -2 23 C-1.87890689 15.92278069 -2.14626761 9.02804699 -3 2 C-5.64 2.66 -8.28 3.32 -11 4 C-8.70371579 -0.59256841 -4.54729104 -1.13682276 0 0 Z " fill="#5B5B5B" transform="translate(108,46)"/>
<path d="M0 0 C5.42327722 2.52444462 11.12315207 2.02423587 16.98046875 1.921875 C16.98046875 2.581875 16.98046875 3.241875 16.98046875 3.921875 C11.37046875 3.921875 5.76046875 3.921875 -0.01953125 3.921875 C-0.01953125 3.261875 -0.01953125 2.601875 -0.01953125 1.921875 C-1.00953125 1.921875 -1.99953125 1.921875 -3.01953125 1.921875 C-3.01953125 1.261875 -3.01953125 0.601875 -3.01953125 -0.078125 C-9.8697774 -1.44817423 -16.1692851 -1.44817423 -23.01953125 -0.078125 C-16.2319707 -6.86568555 -7.61445589 -3.61719419 0 0 Z " fill="#656565" transform="translate(238.01953125,210.078125)"/>
<path d="M0 0 C0.99 0.33 1.98 0.66 3 1 C3 1.66 3 2.32 3 3 C3.66 3 4.32 3 5 3 C4.67 3.66 4.34 4.32 4 5 C3.67 5 3.34 5 3 5 C3 15.89 3 26.78 3 38 C2.67 38 2.34 38 2 38 C1.71273396 33.55272435 1.42798546 29.1052966 1.14550781 24.65771484 C1.04918457 23.14660351 0.95218906 21.63553487 0.85449219 20.12451172 C0.71369944 17.94509749 0.575373 15.76553815 0.4375 13.5859375 C0.35371094 12.2767334 0.26992187 10.9675293 0.18359375 9.61865234 C0.020475 6.40356449 -0.03483921 3.21827194 0 0 Z " fill="#727272" transform="translate(188,280)"/>
<path d="M0 0 C1.47905238 2.95810476 1.12190903 5.9547155 1.09765625 9.1953125 C1.0962413 9.90275604 1.09482635 10.61019958 1.09336853 11.33908081 C1.087766 13.60109669 1.07521318 15.86301398 1.0625 18.125 C1.05748532 19.65755065 1.05292236 21.19010286 1.04882812 22.72265625 C1.03779577 26.48180888 1.02052952 30.24088772 1 34 C3.475 33.505 3.475 33.505 6 33 C4.68 34.32 3.36 35.64 2 37 C1.01 36.67 0.02 36.34 -1 36 C-1.19214323 31.19490042 -1.37088308 26.38956217 -1.53710938 21.58349609 C-1.59558 19.94794282 -1.65773919 18.31251713 -1.72363281 16.67724609 C-1.8176061 14.32933786 -1.89838991 11.98129322 -1.9765625 9.6328125 C-2.00875885 8.89942657 -2.0409552 8.16604065 -2.0741272 7.41043091 C-2.12756428 5.60757645 -2.07280193 3.80217635 -2 2 C-1.34 1.34 -0.68 0.68 0 0 Z " fill="#646464" transform="translate(94,317)"/>
<path d="M0 0 C1.30660357 4.29727397 0.6596762 7.60215865 0 12 C0.66 12 1.32 12 2 12 C1.938125 10.6696875 1.938125 10.6696875 1.875 9.3125 C1.99897246 6.02722987 2.61387904 3.94550705 4 1 C4.66 1.33 5.32 1.66 6 2 C3.29384966 14.85421412 3.29384966 14.85421412 -1 19 C-1 17.35 -1 15.7 -1 14 C-1.66 14 -2.32 14 -3 14 C-3 14.66 -3 15.32 -3 16 C-3.66 15.67 -4.32 15.34 -5 15 C-4.54625 14.195625 -4.0925 13.39125 -3.625 12.5625 C-1.7414944 8.43327617 -0.83834096 4.43827566 0 0 Z " fill="#696969" transform="translate(260,196)"/>
<path d="M0 0 C7.28323588 0.44000471 14.38004818 1.11812073 21.54296875 2.5234375 C24.68391659 3.13265155 27.82923453 3.57723127 31 4 C31 4.33 31 4.66 31 5 C23.58982977 5.11459026 16.35793733 4.91160286 9 4 C9 3.34 9 2.68 9 2 C5.37 2.33 1.74 2.66 -2 3 C-1.34 2.01 -0.68 1.02 0 0 Z " fill="#686868" transform="translate(17,170)"/>
<path d="M0 0 C0.99 0.33 1.98 0.66 3 1 C3.00257813 1.61488281 3.00515625 2.22976562 3.0078125 2.86328125 C3.12782055 5.37144958 3.31774275 7.57991767 4 10 C6.90251302 12.16247221 6.90251302 12.16247221 10 13 C10 13.66 10 14.32 10 15 C2.31578947 15.29554656 2.31578947 15.29554656 -1 13 C-2.35439668 10.29120665 -2.06501451 7.99066732 -2 5 C-0.5393715 7.64738916 0 8.89448334 0 12 C0.66 12 1.32 12 2 12 C2 8.7 2 5.4 2 2 C1.34 2 0.68 2 0 2 C0 1.34 0 0.68 0 0 Z " fill="#656565" transform="translate(180,221)"/>
<path d="M0 0 C0.33 0.66 0.66 1.32 1 2 C0.55269531 2.50789062 0.10539063 3.01578125 -0.35546875 3.5390625 C-3.96286942 7.64642275 -7.52114925 11.78321121 -11 16 C-11.99 15.67 -12.98 15.34 -14 15 C-12.55053895 11.66026243 -10.71827612 9.47695341 -8.125 6.9375 C-7.44695313 6.26589844 -6.76890625 5.59429687 -6.0703125 4.90234375 C-4.1292063 3.11872353 -2.1380399 1.53881347 0 0 Z " fill="#2F2F2F" transform="translate(14,173)"/>
<path d="M0 0 C0 0.66 0 1.32 0 2 C-3.66770394 2.50369801 -7.33615558 2.99875433 -11.0078125 3.47265625 C-13.38641626 3.77999125 -15.74780597 4.11901173 -18.1171875 4.49609375 C-19.42042969 4.68365234 -19.42042969 4.68365234 -20.75 4.875 C-21.50796875 4.99617187 -22.2659375 5.11734375 -23.046875 5.2421875 C-25 5 -25 5 -26.765625 3.0078125 C-27.17296875 2.34523437 -27.5803125 1.68265625 -28 1 C-27.04480469 1.01160156 -26.08960938 1.02320313 -25.10546875 1.03515625 C-18.03561285 1.08449722 -11.11408839 0.97640413 -4.07421875 0.21875 C-2 0 -2 0 0 0 Z " fill="#5F5F5F" transform="translate(72,138)"/>
<path d="M0 0 C2.99220268 1.36370299 5.29026529 2.94908083 7.75 5.125 C8.67039063 5.93324219 8.67039063 5.93324219 9.609375 6.7578125 C10.06828125 7.16773438 10.5271875 7.57765625 11 8 C8 8 8 8 3 5 C3.33 9.29 3.66 13.58 4 18 C1.7168202 14.5752303 1.15751371 11.88984561 0.3125 7.875 C0.04050781 6.61429687 -0.23148438 5.35359375 -0.51171875 4.0546875 C-0.67285156 3.04664063 -0.83398438 2.03859375 -1 1 C-0.67 0.67 -0.34 0.34 0 0 Z " fill="#646464" transform="translate(227,265)"/>
<path d="M0 0 C0.66 0.33 1.32 0.66 2 1 C1.67 1.33 1.34 1.66 1 2 C-0.69495561 9.56109104 -1.28605611 17.14333291 -1.55859375 24.87109375 C-2.03706062 28.26270403 -3.05012422 30.21817722 -5 33 C-6.25660911 30.48678179 -5.84792322 29.73973808 -5.16015625 27.0625 C-3.66780045 20.80738654 -2.8969604 14.4824742 -2.05664062 8.11328125 C-1.93353516 7.20964844 -1.81042969 6.30601562 -1.68359375 5.375 C-1.57587646 4.55773437 -1.46815918 3.74046875 -1.35717773 2.8984375 C-1 1 -1 1 0 0 Z " fill="#666666" transform="translate(112,210)"/>
<path d="M0 0 C0 0.66 0 1.32 0 2 C-3 4 -3 4 -6 4 C-6 9.94 -6 15.88 -6 22 C-6.99 21.67 -7.98 21.34 -9 21 C-8.99398628 18.24571553 -8.9466151 15.5027054 -8.875 12.75 C-8.87757813 11.97269531 -8.88015625 11.19539063 -8.8828125 10.39453125 C-8.80493801 8.11670232 -8.65958634 6.18384048 -8 4 C-3.39877301 0 -3.39877301 0 0 0 Z " fill="#535353" transform="translate(305,245)"/>
<path d="M0 0 C2.78144001 4.17216001 3.81175998 8.5841877 5.1875 13.375 C5.47302734 14.32117188 5.75855469 15.26734375 6.05273438 16.2421875 C6.31763672 17.16 6.58253906 18.0778125 6.85546875 19.0234375 C7.09934326 19.85794434 7.34321777 20.69245117 7.59448242 21.55224609 C8.05868146 24.35420849 7.83718468 26.29389516 7 29 C6.34 29.33 5.68 29.66 5 30 C5.02320313 29.39671875 5.04640625 28.7934375 5.0703125 28.171875 C5.08835938 27.37265625 5.10640625 26.5734375 5.125 25.75 C5.14820313 24.96109375 5.17140625 24.1721875 5.1953125 23.359375 C4.98099726 20.7704469 4.1943338 19.27669881 3 17 C2.875 13.75 2.875 13.75 3 11 C2.34 11 1.68 11 1 11 C0.67 7.37 0.34 3.74 0 0 Z " fill="#686868" transform="translate(160,274)"/>
<path d="M0 0 C1.94024048 0.07069702 1.94024048 0.07069702 3.91967773 0.14282227 C4.9496714 0.17823875 4.9496714 0.17823875 6.00047302 0.21437073 C8.20160776 0.29117032 10.40240492 0.37512354 12.60327148 0.45922852 C14.09218705 0.51243295 15.58111928 0.56517344 17.07006836 0.61743164 C20.72717821 0.74680703 24.3840182 0.8826009 28.04077148 1.02172852 C28.04077148 2.01172852 28.04077148 3.00172852 28.04077148 4.02172852 C27.71077148 3.69172852 27.38077148 3.36172852 27.04077148 3.02172852 C25.04112166 2.93414849 23.03841039 2.91476275 21.03686523 2.92407227 C19.21445312 2.92890625 19.21445312 2.92890625 17.35522461 2.93383789 C16.07583008 2.9422168 14.79643555 2.9505957 13.47827148 2.95922852 C11.55337891 2.96599609 11.55337891 2.96599609 9.58959961 2.97290039 C6.40661126 2.98473306 3.22371386 3.00121783 0.04077148 3.02172852 C1.03077148 4.50672852 1.03077148 4.50672852 2.04077148 6.02172852 C-1.12038627 4.65189349 -1.95193771 4.03266472 -3.95922852 1.02172852 C-2.95922852 0.02172852 -2.95922852 0.02172852 0 0 Z " fill="#636363" transform="translate(265.959228515625,227.978271484375)"/>
<path d="M0 0 C11.88 0.33 23.76 0.66 36 1 C36 1.33 36 1.66 36 2 C23.79 2.33 11.58 2.66 -1 3 C-0.67 2.01 -0.34 1.02 0 0 Z " fill="#7F7F7F" transform="translate(284,146)"/>
<path d="M0 0 C0.99 0.33 1.98 0.66 3 1 C-3.1707511 5.45805284 -7.6860978 7.58110254 -15.375 6.4375 C-17.59093441 5.99481333 -19.80059878 5.51862424 -22 5 C-23.66588919 4.66280259 -25.33226102 4.3279262 -27 4 C-27 3.67 -27 3.34 -27 3 C-26.35973877 3.01571045 -25.71947754 3.0314209 -25.05981445 3.04760742 C-22.14413369 3.11017115 -19.22859445 3.14905808 -16.3125 3.1875 C-15.30509766 3.21263672 -14.29769531 3.23777344 -13.25976562 3.26367188 C-7.86088982 3.31712609 -4.51390971 3.24965886 0 0 Z " fill="#6B6B6B" transform="translate(69,90)"/>
<path d="M0 0 C1.13857573 3.50006612 0.92776471 6.42338121 0.5625 10.0625 C0.26873131 13.07084016 0 15.97655592 0 19 C0.66 19 1.32 19 2 19 C2.33 21.64 2.66 24.28 3 27 C2.34 26.01 1.68 25.02 1 24 C0.29230469 23.01580078 0.29230469 23.01580078 -0.4296875 22.01171875 C-3.04622616 17.80404172 -4.18686158 15.24359601 -3.43359375 10.23046875 C-2.50148647 6.74364816 -1.30434207 3.36510556 0 0 Z " fill="#606060" transform="translate(137,18)"/>
<path d="M0 0 C2.61328125 0.40234375 2.61328125 0.40234375 4.6875 1.0625 C5.0175 1.7225 5.3475 2.3825 5.6875 3.0625 C4.75 5.6875 4.75 5.6875 3.6875 8.0625 C3.3575 8.0625 3.0275 8.0625 2.6875 8.0625 C2.6875 6.0825 2.6875 4.1025 2.6875 2.0625 C-2.33515357 3.24430084 -5.4074151 4.51242282 -9.3125 8.0625 C-9.9725 7.7325 -10.6325 7.4025 -11.3125 7.0625 C-8.26542271 2.09551629 -6.10768861 -0.56082076 0 0 Z " fill="#6E6E6E" transform="translate(253.3125,129.9375)"/>
<path d="M0 0 C3.63 0 7.26 0 11 0 C11.33 1.32 11.66 2.64 12 4 C8.67465243 5.10844919 6.37817425 4.84454356 3 4 C3 3.34 3 2.68 3 2 C2.01 2 1.02 2 0 2 C0 1.34 0 0.68 0 0 Z " fill="#0A0A0A" transform="translate(202,185)"/>
<path d="M0 0 C2.10494301 0.08708038 4.20902142 0.19525693 6.3125 0.3125 C8.07013672 0.39951172 8.07013672 0.39951172 9.86328125 0.48828125 C13 1 13 1 16 4 C10.555 6.475 10.555 6.475 5 9 C4.67 8.34 4.34 7.68 4 7 C4.99 7 5.98 7 7 7 C7 6.34 7 5.68 7 5 C7.99 5 8.98 5 10 5 C10 4.01 10 3.02 10 2 C8.081875 2.061875 8.081875 2.061875 6.125 2.125 C3.9453125 2.1953125 3.9453125 2.1953125 2 2 C1.34 1.34 0.68 0.68 0 0 Z " fill="#757575" transform="translate(48,175)"/>
<path d="M0 0 C0 0.66 0 1.32 0 2 C0.99 2.66 1.98 3.32 3 4 C1.27318563 4.50806447 -0.45657979 5.00610467 -2.1875 5.5 C-3.63189453 5.91765625 -3.63189453 5.91765625 -5.10546875 6.34375 C-7.85345876 6.96677608 -10.19598416 7.12302812 -13 7 C-13 6.34 -13 5.68 -13 5 C-11.21046815 4.16209211 -9.41830305 3.32980604 -7.625 2.5 C-6.62726562 2.0359375 -5.62953125 1.571875 -4.6015625 1.09375 C-2 0 -2 0 0 0 Z " fill="#7D7D7D" transform="translate(39,296)"/>
<path d="M0 0 C4.24404412 3.88026891 7.10917547 8.04254346 10 13 C8 14 8 14 5.3984375 13.22265625 C4.40070313 12.83980469 3.40296875 12.45695312 2.375 12.0625 C1.37210937 11.68222656 0.36921875 11.30195312 -0.6640625 10.91015625 C-1.43492188 10.60980469 -2.20578125 10.30945313 -3 10 C0.09720845 9.12159004 1.90645403 9.00564594 5 10 C4.360625 8.906875 3.72125 7.81375 3.0625 6.6875 C1.73398675 4.4161709 0.84186703 2.52560108 0 0 Z " fill="#6A6A6A" transform="translate(68,108)"/>
<path d="M0 0 C5.94 1.485 5.94 1.485 12 3 C11.67 3.66 11.34 4.32 11 5 C4.07 5 -2.86 5 -10 5 C-10.33 4.34 -10.66 3.68 -11 3 C-5.72 3.33 -0.44 3.66 5 4 C5 3.34 5 2.68 5 2 C3.35 2 1.7 2 0 2 C0 1.34 0 0.68 0 0 Z " fill="#707070" transform="translate(261,261)"/>
<path d="M0 0 C0.99 0.33 1.98 0.66 3 1 C2.01 1.495 2.01 1.495 1 2 C0.47225979 3.79977457 0.47225979 3.79977457 0.21875 5.96484375 C0.03892578 7.16463867 0.03892578 7.16463867 -0.14453125 8.38867188 C-0.26183594 9.22978516 -0.37914063 10.07089844 -0.5 10.9375 C-0.73202197 12.59352494 -0.97128065 14.24855667 -1.21875 15.90234375 C-1.32123047 16.63960693 -1.42371094 17.37687012 -1.52929688 18.13647461 C-2 20 -2 20 -4 22 C-3.91911825 18.89476646 -3.8062811 15.79149667 -3.6875 12.6875 C-3.66494141 11.80642578 -3.64238281 10.92535156 -3.61914062 10.01757812 C-3.58369141 9.17001953 -3.54824219 8.32246094 -3.51171875 7.44921875 C-3.48553467 6.66893311 -3.45935059 5.88864746 -3.43237305 5.0847168 C-2.9068329 2.55078834 -1.9591474 1.63072223 0 0 Z " fill="#5F5F5F" transform="translate(124,219)"/>
<path d="M0 0 C3.02990095 1.71967351 5.76327296 3.29238306 8 6 C8 6.66 8 7.32 8 8 C3.38 7.01 -1.24 6.02 -6 5 C-6 4.67 -6 4.34 -6 4 C-3.36 4 -0.72 4 2 4 C2 3.34 2 2.68 2 2 C1.34 2 0.68 2 0 2 C0 1.34 0 0.68 0 0 Z " fill="#656565" transform="translate(168,261)"/>
<path d="M0 0 C1.79158489 -0.02696365 3.58328473 -0.04637917 5.375 -0.0625 C6.37273437 -0.07410156 7.37046875 -0.08570313 8.3984375 -0.09765625 C11 0 11 0 13 1 C12.67 1.66 12.34 2.32 12 3 C9.03 2.67 6.06 2.34 3 2 C3.66 4.64 4.32 7.28 5 10 C4.34 10 3.68 10 3 10 C2.01 6.7 1.02 3.4 0 0 Z " fill="#656565" transform="translate(117,152)"/>
<path d="M0 0 C1.299375 0.2475 1.299375 0.2475 2.625 0.5 C8.69761822 1.39266231 14.87966132 1.07639812 21 1 C21 1.66 21 2.32 21 3 C19.41058594 3.09087891 19.41058594 3.09087891 17.7890625 3.18359375 C16.40102779 3.26800127 15.01300768 3.35264917 13.625 3.4375 C12.92632812 3.47681641 12.22765625 3.51613281 11.5078125 3.55664062 C7.62639508 3.74280134 7.62639508 3.74280134 4 5 C1.375 3.5625 1.375 3.5625 -1 2 C-0.67 1.34 -0.34 0.68 0 0 Z " fill="#696969" transform="translate(51,150)"/>
<path d="M0 0 C0.33 0 0.66 0 1 0 C1.16777857 3.60411581 1.33403188 7.2083004 1.5 10.8125 C1.54769531 11.83666016 1.59539062 12.86082031 1.64453125 13.91601562 C1.71220703 15.39038086 1.71220703 15.39038086 1.78125 16.89453125 C1.82314453 17.80050049 1.86503906 18.70646973 1.90820312 19.63989258 C1.97765497 21.42550689 2 23.21303553 2 25 C1.01 25 0.02 25 -1 25 C-0.67 16.75 -0.34 8.5 0 0 Z " fill="#8C8C8C" transform="translate(177,81)"/>
<path d="M0 0 C2.35333796 4.70667591 2.17102038 6.8693886 2 12 C-2.3890815 11.48964169 -5.33708062 10.47785723 -9 8 C-5.98968256 7.06576355 -5.13349732 6.95550089 -2 8 C-2 8.66 -2 9.32 -2 10 C-1.34 10 -0.68 10 0 10 C0 6.7 0 3.4 0 0 Z " fill="#676767" transform="translate(240,276)"/>
<path d="M0 0 C0.33 1.32 0.66 2.64 1 4 C7.27 4 13.54 4 20 4 C16 8 16 8 12.65234375 8.05859375 C11.42644531 7.85363281 10.20054688 7.64867187 8.9375 7.4375 C7.09478516 7.15712891 7.09478516 7.15712891 5.21484375 6.87109375 C2.10715428 6.02903451 0.90298658 5.5164035 -1 3 C-0.67 2.01 -0.34 1.02 0 0 Z " fill="#6C6C6C" transform="translate(43,247)"/>
<path d="M0 0 C1.65 0 3.3 0 5 0 C4.67 0.66 4.34 1.32 4 2 C3.77532169 3.53668865 3.59203195 5.07968054 3.4375 6.625 C3.31181641 7.85089844 3.31181641 7.85089844 3.18359375 9.1015625 C3.12300781 9.72804687 3.06242187 10.35453125 3 11 C1 9.875 1 9.875 -1 8 C-1.31900332 4.87376745 -1.41441874 2.82883747 0 0 Z " fill="#121212" transform="translate(264,140)"/>
<path d="M0 0 C2.375 2 2.375 2 4 4 C2.741875 3.814375 1.48375 3.62875 0.1875 3.4375 C-5.29597851 2.80882094 -10.54148179 3.33681554 -16 4 C-15 2 -15 2 -13.14453125 1.3671875 C-4.01333333 -0.56 -4.01333333 -0.56 0 0 Z " fill="#636363" transform="translate(138,177)"/>
<path d="M0 0 C1 2 1 2 1 4 C5.455 3.505 5.455 3.505 10 3 C7.68994131 5.31005869 6.16916343 5.72174103 3.0625 6.625 C2.18722656 6.88539063 1.31195313 7.14578125 0.41015625 7.4140625 C-2 8 -2 8 -5 8 C-3.62845496 5.04590299 -2.01136276 2.55991624 0 0 Z " fill="#727272" transform="translate(241,138)"/>
<path d="M0 0 C1.08784335 3.31395986 1.07262544 3.83580335 -0.4375 7.25 C-0.953125 8.1575 -1.46875 9.065 -2 10 C-3.24546405 7.50907189 -2.7767578 6.58919267 -2 4 C-2.53625 4.495 -3.0725 4.99 -3.625 5.5 C-6.59358445 7.37489544 -8.55312427 7.23501425 -12 7 C-9.47764868 5.31843245 -6.96413358 3.83531994 -4.3125 2.375 C-3.50425781 1.92898437 -2.69601562 1.48296875 -1.86328125 1.0234375 C-1.24839844 0.68570313 -0.63351562 0.34796875 0 0 Z " fill="#707070" transform="translate(264,104)"/>
<path d="M0 0 C0.99 0.33 1.98 0.66 3 1 C3.33 2.65 3.66 4.3 4 6 C3.34 6 2.68 6 2 6 C2 9.96 2 13.92 2 18 C1.67 18 1.34 18 1 18 C0.10395632 11.95170514 -0.11269443 6.1105424 0 0 Z " fill="#5E5E5E" transform="translate(110,56)"/>
<path d="M0 0 C0.99 0 1.98 0 3 0 C3.33719047 2.56204544 3.66987153 5.12454318 4 7.6875 C4.09539062 8.40873047 4.19078125 9.12996094 4.2890625 9.87304688 C4.76683735 13.60992871 5.11919794 17.22291531 5 21 C4.01 21 3.02 21 2 21 C2 15.06 2 9.12 2 3 C1.34 3 0.68 3 0 3 C0 2.01 0 1.02 0 0 Z " fill="#858585" transform="translate(245,29)"/>
<path d="M0 0 C3.28220895 1.64110448 3.74570789 4.69322988 5 8 C5 8.99 5 9.98 5 11 C1.06326356 9.68775452 -1.22719294 8.08089673 -4 5 C-1.525 5.495 -1.525 5.495 1 6 C0.67 4.02 0.34 2.04 0 0 Z " fill="#626262" transform="translate(130,133)"/>
<path d="M0 0 C5.7809725 0.63065155 11.3443706 1.65155132 17 3 C17 3.33 17 3.66 17 4 C11.5814234 4.22577402 7.22512279 3.46670113 2 2 C1.67 2.99 1.34 3.98 1 5 C0.67 3.35 0.34 1.7 0 0 Z " fill="#535353" transform="translate(45,96)"/>
<path d="M0 0 C0.66 0 1.32 0 2 0 C2.66 1.65 3.32 3.3 4 5 C2.68 4.34 1.36 3.68 0 3 C-0.12117187 3.58007812 -0.24234375 4.16015625 -0.3671875 4.7578125 C-1.33735474 9.28028442 -2.43397783 13.63750966 -4 18 C-5.5411298 14.04963563 -4.39859394 11.23429099 -3.125 7.3125 C-2.75632813 6.15363281 -2.38765625 4.99476562 -2.0078125 3.80078125 C-1 1 -1 1 0 0 Z " fill="#6D6D6D" transform="translate(143,0)"/>
<path d="M0 0 C0.99 0.33 1.98 0.66 3 1 C3 3.64 3 6.28 3 9 C3.66 9 4.32 9 5 9 C5 10.98 5 12.96 5 15 C5.66 15 6.32 15 7 15 C6.34 16.32 5.68 17.64 5 19 C4.16142312 16.39741676 3.32896656 13.79314353 2.5 11.1875 C2.14228516 10.08051758 2.14228516 10.08051758 1.77734375 8.95117188 C0.80059864 5.86744804 0 3.25504191 0 0 Z " fill="#696969" transform="translate(196,241)"/>
<path d="M0 0 C0.93065133 2.60582371 1.14917407 3.64198224 0.0625 6.25 C-0.4634375 7.11625 -0.4634375 7.11625 -1 8 C-0.01 8.99 0.98 9.98 2 11 C-1.10551666 11 -2.35261084 10.4606285 -5 9 C-4.6875 7.125 -4.6875 7.125 -4 5 C-3.01 4.34 -2.02 3.68 -1 3 C-0.67 2.01 -0.34 1.02 0 0 Z " fill="#646464" transform="translate(124,334)"/>
<path d="M0 0 C-2.90600261 1.25664978 -4.79604584 2 -8 2 C-8 2.66 -8 3.32 -8 4 C-7.34 4 -6.68 4 -6 4 C-5.67 4.99 -5.34 5.98 -5 7 C-9.67692308 5.52307692 -9.67692308 5.52307692 -11.3125 2.875 C-11.539375 2.25625 -11.76625 1.6375 -12 1 C-3.96428571 -1.27678571 -3.96428571 -1.27678571 0 0 Z " fill="#676767" transform="translate(60,298)"/>
<path d="M0 0 C1.58624235 0.42683239 3.1689098 0.86696158 4.75 1.3125 C6.07257813 1.67794922 6.07257813 1.67794922 7.421875 2.05078125 C10.05772505 3.02125331 11.85407326 4.21005644 14 6 C13.67 6.66 13.34 7.32 13 8 C12.525625 7.525625 12.05125 7.05125 11.5625 6.5625 C7.88355203 4.31923904 4.2378888 4.26260422 0 4 C0 2.68 0 1.36 0 0 Z " fill="#5D5D5D" transform="translate(266,157)"/>
<path d="M0 0 C4.62 2.31 9.24 4.62 14 7 C10 8 10 8 7 7 C7 6.34 7 5.68 7 5 C5.35 4.67 3.7 4.34 2 4 C2 3.34 2 2.68 2 2 C1.34 2 0.68 2 0 2 C0 1.34 0 0.68 0 0 Z " fill="#5D5D5D" transform="translate(250,60)"/>
<path d="M0 0 C0.99 0 1.98 0 3 0 C3 3.3 3 6.6 3 10 C2.34 10 1.68 10 1 10 C-0.1577506 6.52674819 -0.06866652 3.63932552 0 0 Z " fill="#0A0A0A" transform="translate(179,223)"/>
<path d="M0 0 C1.98 0 3.96 0 6 0 C6 0.66 6 1.32 6 2 C0.63008515 5.05108798 0.63008515 5.05108798 -2.3125 4.8125 C-4 4 -4 4 -5 2 C-2.03 2.495 -2.03 2.495 1 3 C0.67 2.01 0.34 1.02 0 0 Z " fill="#686868" transform="translate(282,168)"/>
<path d="M0 0 C0.99 0.495 0.99 0.495 2 1 C2.60262099 3.2408573 2.95607183 5.48570975 3.33984375 7.7734375 C4.08428533 10.28427596 5.02330144 11.33030912 7 13 C4.03 12.505 4.03 12.505 1 12 C0.67 8.04 0.34 4.08 0 0 Z " fill="#6A6A6A" transform="translate(237,98)"/>
<path d="M0 0 C0.33 0.66 0.66 1.32 1 2 C-1.20841794 5.37074318 -3.39325122 7.19662561 -7 9 C-7.99 9 -8.98 9 -10 9 C-6.7 6.03 -3.4 3.06 0 0 Z " fill="#5D5D5D" transform="translate(14,173)"/>
<path d="M0 0 C0.33 0 0.66 0 1 0 C1.33820166 1.5823006 1.67035939 3.16589375 2 4.75 C2.185625 5.63171875 2.37125 6.5134375 2.5625 7.421875 C3 10 3 10 3 14 C1.68 13.67 0.36 13.34 -1 13 C-0.67 12.34 -0.34 11.68 0 11 C0.07033769 9.12620395 0.0843022 7.24998898 0.0625 5.375 C0.05347656 4.37210938 0.04445312 3.36921875 0.03515625 2.3359375 C0.02355469 1.56507813 0.01195312 0.79421875 0 0 Z " fill="#6F6F6F" transform="translate(163,160)"/>
<path d="M0 0 C1.98270912 0.95098266 3.96108379 1.91100703 5.9375 2.875 C7.03964844 3.40867187 8.14179688 3.94234375 9.27734375 4.4921875 C12 6 12 6 13 8 C10.03 7.505 10.03 7.505 7 7 C7 6.34 7 5.68 7 5 C5.35 4.67 3.7 4.34 2 4 C2 3.34 2 2.68 2 2 C1.34 2 0.68 2 0 2 C0 1.34 0 0.68 0 0 Z " fill="#616161" transform="translate(167,12)"/>
<path d="M0 0 C0.33 0 0.66 0 1 0 C1.33 2.64 1.66 5.28 2 8 C3.65 7.67 5.3 7.34 7 7 C5.68 8.32 4.36 9.64 3 11 C2.01 10.67 1.02 10.34 0 10 C0 6.7 0 3.4 0 0 Z " fill="#717171" transform="translate(93,343)"/>
<path d="M0 0 C0.33 0 0.66 0 1 0 C1.125 6.75 1.125 6.75 0 9 C-0.66 9 -1.32 9 -2 9 C-2.99 6.69 -3.98 4.38 -5 2 C-4.34 2 -3.68 2 -3 2 C-3 2.66 -3 3.32 -3 4 C-2.01 4 -1.02 4 0 4 C0 2.68 0 1.36 0 0 Z " fill="#696969" transform="translate(164,119)"/>
<path d="M0 0 C0.33 0.66 0.66 1.32 1 2 C-0.4726862 5.27263601 -1.42695432 6.72014048 -4.6875 8.3125 C-5.450625 8.539375 -6.21375 8.76625 -7 9 C-6.02180976 7.68677212 -5.0424189 6.37443848 -4.0625 5.0625 C-3.51722656 4.33160156 -2.97195312 3.60070312 -2.41015625 2.84765625 C-1 1 -1 1 0 0 Z " fill="#585858" transform="translate(102,308)"/>
<path d="M0 0 C2.02045442 0.60183749 4.02111039 1.27306096 6 2 C6.33 2.66 6.66 3.32 7 4 C4.36 4 1.72 4 -1 4 C-1.33 5.32 -1.66 6.64 -2 8 C-2.33 7.34 -2.66 6.68 -3 6 C-2.06553465 3.96855359 -1.06775224 1.96466413 0 0 Z " fill="#6F6F6F" transform="translate(66,286)"/>
<path d="M0 0 C0.66 0 1.32 0 2 0 C2 4.95 2 9.9 2 15 C1.01 15.33 0.02 15.66 -1 16 C-0.83628906 15.46890625 -0.67257813 14.9378125 -0.50390625 14.390625 C0.11356377 11.46123236 0.09501925 8.74177064 0.0625 5.75 C0.05347656 4.67234375 0.04445312 3.5946875 0.03515625 2.484375 C0.02355469 1.66453125 0.01195312 0.8446875 0 0 Z " fill="#848484" transform="translate(160,199)"/>
<path d="M0 0 C5.11365014 1.0681847 10.07227969 2.23107476 15 4 C11.70092122 5.09969293 10.29093739 4.90192008 6.9375 4.25 C5.62072266 4.01023438 5.62072266 4.01023438 4.27734375 3.765625 C2 3 2 3 0 0 Z " fill="#656565" transform="translate(184,192)"/>
<path d="M0 0 C4.62 0.66 9.24 1.32 14 2 C10.02033543 3.98983228 9.32324868 4.22400716 5.25 3.625 C4.45078125 3.51414063 3.6515625 3.40328125 2.828125 3.2890625 C2.22484375 3.19367188 1.6215625 3.09828125 1 3 C0.67 2.01 0.34 1.02 0 0 Z " fill="#656565" transform="translate(111,171)"/>
<path d="M0 0 C0.66 0.66 1.32 1.32 2 2 C-0.475 3.485 -0.475 3.485 -3 5 C-3 4.34 -3 3.68 -3 3 C-4.65 3.33 -6.3 3.66 -8 4 C-8 3.34 -8 2.68 -8 2 C-6.71254964 1.61077082 -5.41980403 1.23901964 -4.125 0.875 C-3.04605469 0.56175781 -3.04605469 0.56175781 -1.9453125 0.2421875 C-1.30335938 0.16226563 -0.66140625 0.08234375 0 0 Z " fill="#707070" transform="translate(269,192)"/>
<path d="M0 0 C0.99 0.33 1.98 0.66 3 1 C2.01 1.495 2.01 1.495 1 2 C1.66 5.63 2.32 9.26 3 13 C1 12 1 12 -0.1875 8.75 C-0.95061988 5.22790825 -1.0252106 3.38319499 0 0 Z " fill="#777777" transform="translate(116,120)"/>
<path d="M0 0 C1.32 0.66 2.64 1.32 4 2 C3.34 2 2.68 2 2 2 C2 2.66 2 3.32 2 4 C-0.64 4.99 -3.28 5.98 -6 7 C-6 6.34 -6 5.68 -6 5 C-5.01 5 -4.02 5 -3 5 C-3 4.34 -3 3.68 -3 3 C-2.01 3 -1.02 3 0 3 C0 2.01 0 1.02 0 0 Z " fill="#444444" transform="translate(58,177)"/>
<path d="M0 0 C1.32 0.33 2.64 0.66 4 1 C1.03 3.475 1.03 3.475 -2 6 C-2.66 5.67 -3.32 5.34 -4 5 C-2.68 3.35 -1.36 1.7 0 0 Z " fill="#414141" transform="translate(246,132)"/>
<path d="M0 0 C0.66 0 1.32 0 2 0 C2.33 2.31 2.66 4.62 3 7 C1.68 6.34 0.36 5.68 -1 5 C-1.33 5.66 -1.66 6.32 -2 7 C-1.125 1.125 -1.125 1.125 0 0 Z " fill="#494949" transform="translate(245,32)"/>
<path d="M0 0 C2.475 0.99 2.475 0.99 5 2 C5 2.66 5 3.32 5 4 C5.99 4 6.98 4 8 4 C8 4.66 8 5.32 8 6 C5.36 5.34 2.72 4.68 0 4 C0 2.68 0 1.36 0 0 Z " fill="#4D4D4D" transform="translate(161,33)"/>
<path d="M0 0 C0 0.66 0 1.32 0 2 C-4.455 3.485 -4.455 3.485 -9 5 C-9 4.01 -9 3.02 -9 2 C-5.62902617 0.50178941 -3.79557881 0 0 0 Z " fill="#676767" transform="translate(155,241)"/>
<path d="M0 0 C1.98 0 3.96 0 6 0 C5.01 0.33 4.02 0.66 3 1 C3 1.66 3 2.32 3 3 C3.99 3 4.98 3 6 3 C6 3.66 6 4.32 6 5 C4.02 4.34 2.04 3.68 0 3 C0 2.01 0 1.02 0 0 Z " fill="#7C7C7C" transform="translate(199,184)"/>
<path d="M0 0 C0.66 0 1.32 0 2 0 C1.8125 1.8125 1.8125 1.8125 1 4 C-1.5625 5.75 -1.5625 5.75 -4 7 C-3.34 5.35 -2.68 3.7 -2 2 C-1.34 2 -0.68 2 0 2 C0 1.34 0 0.68 0 0 Z " fill="#4F4F4F" transform="translate(240,163)"/>
<path d="M0 0 C0.99 1.32 1.98 2.64 3 4 C0.53846154 7.81538462 0.53846154 7.81538462 -2.1875 8.75 C-3.0846875 8.87375 -3.0846875 8.87375 -4 9 C-4 8.34 -4 7.68 -4 7 C-3.01 6.67 -2.02 6.34 -1 6 C-0.67 4.02 -0.34 2.04 0 0 Z " fill="#696969" transform="translate(43,100)"/>
<path d="M0 0 C0.66 0 1.32 0 2 0 C2 0.66 2 1.32 2 2 C2.66 2 3.32 2 4 2 C4.33 4.31 4.66 6.62 5 9 C0.57142857 3.85714286 0.57142857 3.85714286 0 0 Z " fill="#545454" transform="translate(151,303)"/>
<path d="M0 0 C0.598125 0.20625 1.19625 0.4125 1.8125 0.625 C0.5625 2.125 0.5625 2.125 -1.1875 3.625 C-2.5075 3.625 -3.8275 3.625 -5.1875 3.625 C-5.1875 2.965 -5.1875 2.305 -5.1875 1.625 C-2.1875 -0.375 -2.1875 -0.375 0 0 Z " fill="#0C0C0C" transform="translate(48.1875,293.375)"/>
<path d="M0 0 C0.66 0 1.32 0 2 0 C2 3.96 2 7.92 2 12 C1.34 11.67 0.68 11.34 0 11 C-0.44921875 8.75 -0.44921875 8.75 -0.6875 6 C-0.77386719 5.0925 -0.86023438 4.185 -0.94921875 3.25 C-0.96597656 2.5075 -0.98273438 1.765 -1 1 C-0.67 0.67 -0.34 0.34 0 0 Z " fill="#5F5F5F" transform="translate(156,226)"/>
<path d="M0 0 C2.3125 0.1875 2.3125 0.1875 4 1 C1.3144406 3.6855594 -1.37621328 4.06049974 -5 5 C-2.75 2.4375 -2.75 2.4375 0 0 Z " fill="#616161" transform="translate(89,176)"/>
<path d="M0 0 C2.31 0.33 4.62 0.66 7 1 C6.01 1.33 5.02 1.66 4 2 C4 2.66 4 3.32 4 4 C1.525 3.01 1.525 3.01 -1 2 C-0.67 1.34 -0.34 0.68 0 0 Z " fill="#7A7A7A" transform="translate(51,150)"/>
<path d="M0 0 C0.66 0.33 1.32 0.66 2 1 C0.35 2.98 -1.3 4.96 -3 7 C-3.33 6.34 -3.66 5.68 -4 5 C-2.52830189 1.26415094 -2.52830189 1.26415094 0 0 Z " fill="#4B4B4B" transform="translate(182,122)"/>
<path d="M0 0 C2.64 0.33 5.28 0.66 8 1 C8 1.33 8 1.66 8 2 C6.02 2 4.04 2 2 2 C1.67 2.99 1.34 3.98 1 5 C0.67 3.35 0.34 1.7 0 0 Z " fill="#7F7F7F" transform="translate(45,96)"/>
<path d="M0 0 C0.33 0 0.66 0 1 0 C1 2.31 1 4.62 1 7 C0.01 7 -0.98 7 -2 7 C-2.66 5.35 -3.32 3.7 -4 2 C-3.34 2 -2.68 2 -2 2 C-2 2.99 -2 3.98 -2 5 C-1.34 5 -0.68 5 0 5 C0 3.35 0 1.7 0 0 Z " fill="#959595" transform="translate(155,66)"/>
<path d="M0 0 C2 1 2 1 2 1 Z " fill="#B6B6B6" transform="translate(24,303)"/>
</svg>
